<svg width="34" height="32" viewBox="0 0 34 32" fill="none" xmlns="http://www.w3.org/2000/svg">
<path fill-rule="evenodd" clip-rule="evenodd" d="M6.9279 8.69683C6.9279 9.38461 6.36793 9.94281 5.67798 9.94281C4.98803 9.94281 4.42806 9.38461 4.42806 8.69683C4.42806 3.99367 8.26614 0.166016 12.9858 0.166016C17.7038 0.166016 21.5419 3.99367 21.5419 8.69683C21.5419 13.4 17.7038 17.2276 12.9858 17.2276C11.0526 17.2276 9.23107 16.608 7.72118 15.4351C7.17621 15.0115 7.07789 14.229 7.50286 13.6857C7.92783 13.1441 8.71111 13.0461 9.25607 13.4681C10.3243 14.2971 11.6142 14.7357 12.9858 14.7357C16.3256 14.7357 19.0421 12.0261 19.0421 8.69683C19.0421 5.36757 16.3256 2.65798 12.9858 2.65798C9.64438 2.65798 6.9279 5.36757 6.9279 8.69683ZM22.4485 14.1447C22.4485 13.457 23.0085 12.8988 23.6984 12.8988C26.0399 12.8988 27.9431 10.9999 27.9431 8.66742C27.9431 6.33495 26.0399 4.43607 23.6984 4.43607C23.0085 4.43607 22.4485 3.87787 22.4485 3.19009C22.4485 2.50231 23.0085 1.94411 23.6984 1.94411C27.4182 1.94411 30.443 4.96105 30.443 8.66742C30.443 12.3755 27.4182 15.3907 23.6984 15.3907C23.0085 15.3907 22.4485 14.8325 22.4485 14.1447ZM29.1904 19.2691C31.2986 19.6827 32.6868 20.5333 33.2901 21.7959C33.7918 22.8475 33.7918 24.0503 33.2901 25.1019C32.6952 26.3529 31.3086 27.2084 29.1704 27.6454C29.0854 27.662 29.0021 27.6703 28.9171 27.6703C28.3371 27.6703 27.8155 27.2649 27.6955 26.6752C27.5572 26.0007 27.9921 25.3428 28.6688 25.2049C29.9403 24.9457 30.802 24.5188 31.0319 24.0337C31.2086 23.6615 31.2086 23.2363 31.0336 22.8674C30.7986 22.379 29.9403 21.9554 28.6771 21.7078C27.8238 21.5185 26.9805 21.3972 26.1389 21.3407C25.4506 21.2925 24.9307 20.6994 24.979 20.0133C25.0257 19.3239 25.634 18.8188 26.3106 18.8537C27.2755 18.9202 28.2438 19.0597 29.1904 19.2691ZM12.9855 20.0291C9.8557 20.0291 0.333008 20.0291 0.333008 25.9483C0.333008 27.2774 0.861305 29.1231 3.3728 30.3525C4.14775 30.7296 5.08769 31.0369 6.16595 31.2662C6.8409 31.414 7.50419 30.9804 7.64751 30.3076C7.7925 29.6331 7.36087 28.9719 6.68591 28.829C5.80764 28.643 5.06269 28.4021 4.47273 28.113C3.01949 27.402 2.83284 26.583 2.83284 25.9483C2.83284 23.1141 8.35413 22.5211 12.9855 22.5211C19.7217 22.5211 23.1365 23.664 23.1365 25.9151C23.1365 28.7476 17.6168 29.3407 12.9855 29.3407C12.2955 29.3407 11.7356 29.8989 11.7356 30.5867C11.7356 31.2761 12.2955 31.8327 12.9855 31.8327C16.1136 31.8327 25.6363 31.8327 25.6363 25.9151C25.6363 20.6388 18.4168 20.0291 12.9855 20.0291Z" fill="#607087"/>
</svg>
