<svg width="24" height="18" viewBox="0 0 24 18" fill="none" xmlns="http://www.w3.org/2000/svg">
<path d="M11.947 11.4981C8.1834 11.4981 5.00781 12.1131 5.00781 14.4866C5.00781 16.8612 8.20391 17.4545 11.947 17.4545C15.7106 17.4545 18.8862 16.8395 18.8862 14.466C18.8862 12.0915 15.6901 11.4981 11.947 11.4981Z" fill="white"/>
<path opacity="0.4" d="M11.9435 9.23676C14.492 9.23676 16.5355 7.18153 16.5355 4.61838C16.5355 2.05425 14.492 0 11.9435 0C9.39503 0 7.35156 2.05425 7.35156 4.61838C7.35156 7.18153 9.39503 9.23676 11.9435 9.23676Z" fill="white"/>
<path opacity="0.4" d="M21.9141 5.69374C22.5734 3.10014 20.6403 0.770813 18.1788 0.770813C17.9111 0.770813 17.6552 0.800286 17.4052 0.850389C17.3719 0.858249 17.3348 0.87495 17.3153 0.904423C17.2928 0.941755 17.3094 0.991859 17.3338 1.02428C18.0733 2.06761 18.4982 3.33789 18.4982 4.70149C18.4982 6.00812 18.1085 7.22633 17.4247 8.23724C17.3544 8.34138 17.4169 8.48186 17.5409 8.50348C17.7128 8.53393 17.8887 8.54965 18.0684 8.55456C19.8608 8.60172 21.4696 7.44148 21.9141 5.69374Z" fill="white"/>
<path d="M23.7892 11.8003C23.461 11.0969 22.6688 10.6145 21.4644 10.3777C20.896 10.2382 19.3575 10.0417 17.9265 10.0683C17.905 10.0712 17.8933 10.086 17.8913 10.0958C17.8884 10.1095 17.8942 10.1331 17.9226 10.1478C18.5839 10.477 21.1402 11.9084 20.8188 14.9273C20.8051 15.058 20.9096 15.171 21.0395 15.1513C21.6686 15.061 23.2872 14.7112 23.7892 13.6217C24.0667 13.046 24.0667 12.377 23.7892 11.8003Z" fill="white"/>
<path opacity="0.4" d="M6.59179 0.850679C6.3427 0.799593 6.0858 0.771103 5.81816 0.771103C3.35662 0.771103 1.42352 3.10043 2.08384 5.69403C2.52731 7.44177 4.1361 8.60201 5.92854 8.55485C6.10827 8.54994 6.28507 8.53324 6.45601 8.50377C6.58007 8.48215 6.64258 8.34167 6.57225 8.23753C5.88849 7.22563 5.49874 6.00841 5.49874 4.70178C5.49874 3.3372 5.92463 2.06692 6.66407 1.02457C6.68751 0.992148 6.7051 0.942045 6.68165 0.904713C6.66212 0.874258 6.62598 0.858539 6.59179 0.850679Z" fill="white"/>
<path d="M2.53261 10.3775C1.32821 10.6142 0.536997 11.0966 0.208792 11.8C-0.0695972 12.3767 -0.0695972 13.0457 0.208792 13.6224C0.710868 14.7109 2.32943 15.0617 2.95849 15.1511C3.08841 15.1707 3.19195 15.0587 3.17827 14.9271C2.8569 11.9091 5.4132 10.4777 6.07547 10.1486C6.10282 10.1328 6.10868 10.1102 6.10575 10.0955C6.1038 10.0857 6.09305 10.0709 6.07156 10.069C4.63957 10.0415 3.10208 10.238 2.53261 10.3775Z" fill="white"/>
</svg>
