<svg width="16" height="10" viewBox="0 0 16 10" fill="none" xmlns="http://www.w3.org/2000/svg">
<path fill-rule="evenodd" clip-rule="evenodd" d="M15.7583 9.256C15.4368 9.58059 14.9156 9.58282 14.594 9.25377L7.41742 1.92773C7.0959 1.5998 7.097 1.06998 7.41962 0.744276C7.57983 0.582541 7.79052 0.5 8.00011 0.5C8.2119 0.5 8.42259 0.582541 8.5828 0.746507L15.7594 8.07255C16.0809 8.40048 16.0798 8.9303 15.7583 9.256ZM1.40707 9.25366C1.08555 9.58271 0.56431 9.58048 0.242789 9.25589C-0.0798283 8.93019 -0.0809269 8.40037 0.239497 8.07244L5.00525 3.207C5.16546 3.04303 5.37725 2.96049 5.58794 2.96049C5.79753 2.96049 6.00822 3.04303 6.16843 3.20477C6.49105 3.53047 6.49214 4.06029 6.17172 4.38822L1.40707 9.25366Z" fill="#607087"/>
</svg>
