<svg width="24" height="24" viewBox="0 0 24 24" fill="none" xmlns="http://www.w3.org/2000/svg">
<path fill-rule="evenodd" clip-rule="evenodd" d="M20.6349 6.38278C21.8619 6.38277 22.9679 5.64471 23.4365 4.5132C23.9051 3.38169 23.6438 2.07992 22.7747 1.21568C21.9056 0.351446 20.6001 0.0952129 19.4677 0.566619C18.3353 1.03803 17.5993 2.14409 17.6035 3.36838C17.6092 5.03485 18.9647 6.38279 20.6349 6.38278ZM20.6349 2.0618C21.3581 2.0618 21.9444 2.64678 21.9444 3.36838C21.9444 4.08999 21.3581 4.67496 20.6349 4.67496C19.9117 4.67496 19.3254 4.08999 19.3254 3.36838C19.3254 2.64678 19.9117 2.0618 20.6349 2.0618ZM2.05491 16.6605C2.05491 20.0761 3.94178 21.9486 7.35464 21.9486C7.83065 21.9541 8.21517 22.3378 8.22074 22.8128C8.2151 23.286 7.82898 23.6667 7.35464 23.6667C3.02412 23.6667 0.333008 20.9815 0.333008 16.6605V8.2552C0.333008 3.92394 3.02412 1.23876 7.35464 1.23876H14.9434C15.4177 1.2444 15.7992 1.62966 15.7992 2.10296C15.7992 2.33122 15.7076 2.54999 15.5449 2.71043C15.3821 2.87086 15.1618 2.95961 14.9331 2.95686H7.35464C3.94178 2.95686 2.05491 4.83957 2.05491 8.2552V16.6605ZM14.1804 14.4177C14.0359 14.5956 13.8299 14.7131 13.603 14.7469C13.3771 14.7699 13.1512 14.7034 12.974 14.5618L9.8086 12.0823L6.96283 15.7757C6.82713 15.96 6.62307 16.0822 6.39633 16.115C6.16958 16.1479 5.9391 16.0887 5.75647 15.9506C5.38376 15.6591 5.31487 15.1229 5.60181 14.7469L8.97343 10.3642C9.11408 10.1825 9.32141 10.0641 9.54967 10.0352C9.77793 10.0062 10.0084 10.0691 10.1901 10.2099L13.3555 12.6893L16.1394 9.13997C16.445 8.85006 16.9167 8.82545 17.2509 9.08197C17.5851 9.3385 17.6823 9.7997 17.4798 10.1688L14.1804 14.4177ZM21.9856 8.2552C21.513 8.2552 21.1298 8.6375 21.1298 9.1091V16.6605C21.0989 20.0761 19.212 21.9486 15.7992 21.9486H12.3554C11.8793 21.9541 11.4948 22.3378 11.4893 22.8128C11.4949 23.286 11.881 23.6667 12.3554 23.6667H15.7992C20.1297 23.6667 22.8311 20.9815 22.8311 16.6605V9.1091C22.8311 8.64149 22.4542 8.26083 21.9856 8.2552Z" fill="#4F4F4F"/>
</svg>
