<svg width="13" height="13" viewBox="0 0 13 13" fill="none" xmlns="http://www.w3.org/2000/svg">
<path fill-rule="evenodd" clip-rule="evenodd" d="M8.52675 1.96098C8.52675 3.3491 9.65369 4.47439 11.0438 4.47439C11.1969 4.47364 11.3496 4.45894 11.5 4.43049V9.41341C11.5 11.5098 10.2634 12.75 8.16402 12.75H3.59148C1.48657 12.75 0.25 11.5098 0.25 9.41341V4.84756C0.25 2.75122 1.48657 1.5 3.59148 1.5H8.57071C8.54117 1.65188 8.52644 1.80626 8.52675 1.96098ZM7.21873 8.31037L9.00488 6.00549V5.99451C9.15779 5.78904 9.11878 5.49931 8.91695 5.34146C8.81926 5.26605 8.69513 5.23341 8.57291 5.25099C8.4507 5.26857 8.34084 5.33488 8.26844 5.43476L6.76258 7.37195L5.04787 6.02195C4.94998 5.94568 4.82544 5.91201 4.70238 5.92853C4.57932 5.94505 4.46811 6.01038 4.39387 6.10976L2.54726 8.49146C2.48236 8.57237 2.44741 8.67317 2.44834 8.77683C2.43762 8.98633 2.56992 9.17665 2.77024 9.23988C2.97055 9.30311 3.18836 9.22332 3.3002 9.04573L4.84453 7.04817L6.55923 8.39268C6.65676 8.47131 6.78212 8.50696 6.9065 8.49143C7.03088 8.47591 7.14359 8.41055 7.21873 8.31037Z" fill="#130F26"/>
<ellipse opacity="0.4" cx="11.1875" cy="1.8125" rx="1.5625" ry="1.5625" fill="#130F26"/>
</svg>
