<svg width="41" height="41" viewBox="0 0 41 41" fill="none" xmlns="http://www.w3.org/2000/svg">
<path d="M20.5003 10.4993C20.5003 11.3834 20.8515 12.2313 21.4766 12.8564C22.1018 13.4815 22.9496 13.8327 23.8337 13.8327C24.7177 13.8327 25.5656 13.4815 26.1907 12.8564C26.8158 12.2313 27.167 11.3834 27.167 10.4993M20.5003 10.4993C20.5003 9.61529 20.8515 8.76745 21.4766 8.14233C22.1018 7.5172 22.9496 7.16602 23.8337 7.16602C24.7177 7.16602 25.5656 7.5172 26.1907 8.14233C26.8158 8.76745 27.167 9.61529 27.167 10.4993M20.5003 10.4993H7.16699M27.167 10.4993H33.8337M10.5003 20.4993C10.5003 21.3834 10.8515 22.2312 11.4766 22.8564C12.1018 23.4815 12.9496 23.8327 13.8337 23.8327C14.7177 23.8327 15.5656 23.4815 16.1907 22.8564C16.8158 22.2312 17.167 21.3834 17.167 20.4993M10.5003 20.4993C10.5003 19.6153 10.8515 18.7674 11.4766 18.1423C12.1018 17.5172 12.9496 17.166 13.8337 17.166C14.7177 17.166 15.5656 17.5172 16.1907 18.1423C16.8158 18.7674 17.167 19.6153 17.167 20.4993M10.5003 20.4993H7.16699M17.167 20.4993H33.8337M25.5003 30.4993C25.5003 31.3834 25.8515 32.2312 26.4766 32.8564C27.1018 33.4815 27.9496 33.8327 28.8337 33.8327C29.7177 33.8327 30.5656 33.4815 31.1907 32.8564C31.8158 32.2312 32.167 31.3834 32.167 30.4993M25.5003 30.4993C25.5003 29.6153 25.8515 28.7674 26.4766 28.1423C27.1018 27.5172 27.9496 27.166 28.8337 27.166C29.7177 27.166 30.5656 27.5172 31.1907 28.1423C31.8158 28.7674 32.167 29.6153 32.167 30.4993M25.5003 30.4993H7.16699M32.167 30.4993H33.8337" stroke="#607087" stroke-width="2" stroke-linecap="round" stroke-linejoin="round"/>
</svg>
