<svg width="56" height="38" viewBox="0 0 56 38" fill="none" xmlns="http://www.w3.org/2000/svg">
<path d="M23.6101 17.4277H20.2671L18.3677 21.2267H21.7107L23.6101 17.4277ZM36.7542 21.2267L34.8547 17.4277H31.5117L33.4112 21.2267H36.7542ZM26.2946 32.2183V23.7593H19.2541L26.2946 32.2183ZM28.8272 32.2183L35.8678 23.7593H28.8272V32.2183ZM28.6753 17.4277H26.4466L24.5472 21.2267H30.5747L28.6753 17.4277Z" fill="#DBF9E8"/>
<path d="M36.4243 14.8945H18.6963L14.8975 22.4924L27.5603 37.6883L40.2232 22.4924L36.4243 14.8945ZM34.8541 17.4272L36.7536 21.2261H33.3979L31.4985 17.4272H34.8541ZM20.2665 17.4272H23.6222L21.7227 21.2261H18.3671L20.2665 17.4272ZM26.294 32.2178L19.2535 23.7588H26.294V32.2178ZM24.5466 21.2261L26.446 17.4272H28.6747L30.5741 21.2261H24.5466ZM28.8266 32.2178V23.7588H35.8672L28.8266 32.2178Z" fill="#219653"/>
<path d="M7.44874 18.6249C7.44953 18.7334 7.4165 18.8396 7.35425 18.9286C7.292 19.0175 7.2036 19.0849 7.10133 19.1213L4.98713 19.8892L4.21954 22.0041C4.18193 22.1054 4.11422 22.1928 4.0255 22.2545C3.93679 22.3162 3.83131 22.3493 3.72325 22.3493C3.61518 22.3493 3.50971 22.3162 3.42099 22.2545C3.33227 22.1928 3.26456 22.1054 3.22696 22.0041L2.45936 19.8892L0.345161 19.1213C0.243851 19.0837 0.156476 19.016 0.094774 18.9272C0.0330724 18.8385 0 18.733 0 18.6249C0 18.5168 0.0330724 18.4112 0.094774 18.3225C0.156476 18.2338 0.243851 18.166 0.345161 18.1284L2.45936 17.3606L3.22696 15.2457C3.26456 15.1443 3.33227 15.0569 3.42099 14.9952C3.50971 14.9335 3.61518 14.9004 3.72325 14.9004C3.83131 14.9004 3.93679 14.9335 4.0255 14.9952C4.11422 15.0569 4.18193 15.1443 4.21954 15.2457L4.98713 17.3606L7.10133 18.1284C7.2036 18.1648 7.292 18.2322 7.35425 18.3212C7.4165 18.4101 7.44953 18.5163 7.44874 18.6249Z" fill="url(#paint0_linear_21230_69707)"/>
<path d="M55.1211 18.6249C55.1219 18.7334 55.0889 18.8396 55.0266 18.9286C54.9644 19.0175 54.876 19.0849 54.7737 19.1213L52.6595 19.8892L51.8919 22.0041C51.8543 22.1054 51.7866 22.1928 51.6979 22.2545C51.6092 22.3162 51.5037 22.3493 51.3956 22.3493C51.2875 22.3493 51.1821 22.3162 51.0934 22.2545C51.0046 22.1928 50.9369 22.1054 50.8993 22.0041L50.1317 19.8892L48.0175 19.1213C47.9162 19.0837 47.8288 19.016 47.7671 18.9272C47.7054 18.8385 47.6724 18.733 47.6724 18.6249C47.6724 18.5168 47.7054 18.4112 47.7671 18.3225C47.8288 18.2338 47.9162 18.166 48.0175 18.1284L50.1317 17.3606L50.8993 15.2457C50.9369 15.1443 51.0046 15.0569 51.0934 14.9952C51.1821 14.9335 51.2875 14.9004 51.3956 14.9004C51.5037 14.9004 51.6092 14.9335 51.6979 14.9952C51.7866 15.0569 51.8543 15.1443 51.8919 15.2457L52.6595 17.3606L54.7737 18.1284C54.876 18.1648 54.9644 18.2322 55.0266 18.3212C55.0889 18.4101 55.1219 18.5163 55.1211 18.6249Z" fill="url(#paint1_linear_21230_69707)"/>
<path d="M31.2847 3.72447C31.2855 3.83306 31.2524 3.9392 31.1902 4.02816C31.1279 4.11713 31.0395 4.1845 30.9373 4.22092L28.8231 4.98877L28.0555 7.10366C28.0179 7.205 27.9502 7.29241 27.8614 7.35413C27.7727 7.41585 27.6672 7.44894 27.5592 7.44894C27.4511 7.44894 27.3456 7.41585 27.2569 7.35413C27.1682 7.29241 27.1005 7.205 27.0629 7.10366L26.2953 4.98877L24.1811 4.22092C24.0798 4.1833 23.9924 4.11557 23.9307 4.02682C23.869 3.93808 23.8359 3.83257 23.8359 3.72447C23.8359 3.61637 23.869 3.51086 23.9307 3.42211C23.9924 3.33336 24.0798 3.26563 24.1811 3.22801L26.2953 2.46017L27.0629 0.345275C27.1005 0.243931 27.1682 0.156527 27.2569 0.0948051C27.3456 0.0330832 27.4511 0 27.5592 0C27.6672 0 27.7727 0.0330832 27.8614 0.0948051C27.9502 0.156527 28.0179 0.243931 28.0555 0.345275L28.8231 2.46017L30.9373 3.22801C31.0395 3.26444 31.1279 3.33181 31.1902 3.42077C31.2524 3.50973 31.2855 3.61588 31.2847 3.72447Z" fill="url(#paint2_linear_21230_69707)"/>
<defs>
<linearGradient id="paint0_linear_21230_69707" x1="0.29795" y1="14.9004" x2="7.44892" y2="21.6043" gradientUnits="userSpaceOnUse">
<stop stop-color="#F2C94C"/>
<stop offset="1" stop-color="#FFB84B"/>
</linearGradient>
<linearGradient id="paint1_linear_21230_69707" x1="47.9703" y1="14.9004" x2="55.1213" y2="21.6043" gradientUnits="userSpaceOnUse">
<stop stop-color="#F2C94C"/>
<stop offset="1" stop-color="#FFB84B"/>
</linearGradient>
<linearGradient id="paint2_linear_21230_69707" x1="24.1339" y1="-1.25905e-07" x2="31.2849" y2="6.70386" gradientUnits="userSpaceOnUse">
<stop stop-color="#F2C94C"/>
<stop offset="1" stop-color="#FFB84B"/>
</linearGradient>
</defs>
</svg>
