<svg width="16" height="17" viewBox="0 0 16 17" fill="none" xmlns="http://www.w3.org/2000/svg">
<path fill-rule="evenodd" clip-rule="evenodd" d="M5.16266 13.6729C4.94627 13.4585 4.94479 13.111 5.16415 12.8967L10.0482 8.11227C10.2668 7.89792 10.62 7.89865 10.8371 8.11373C10.945 8.22054 11 8.361 11 8.50073C11 8.64192 10.945 8.78238 10.8357 8.88918L5.95163 13.6736C5.73301 13.8879 5.3798 13.8872 5.16266 13.6729ZM5.16423 4.10536C4.94486 3.89102 4.94635 3.54352 5.16274 3.32918C5.37987 3.1141 5.73309 3.11337 5.95171 3.32698L9.19533 6.50415C9.30464 6.61096 9.35967 6.75215 9.35967 6.89261C9.35967 7.03234 9.30464 7.1728 9.19682 7.2796C8.97969 7.49468 8.62647 7.49541 8.40785 7.2818L5.16423 4.10536Z" fill="white"/>
</svg>
