<svg width="9" height="13" viewBox="0 0 9 13" fill="none" xmlns="http://www.w3.org/2000/svg">
<path opacity="0.4" d="M5.24377 8.87345L5.44824 11.1855C5.44824 11.7043 5.02347 12.125 4.49956 12.125C3.97564 12.125 3.55087 11.7043 3.55087 11.1855L3.75534 8.87345C3.75534 8.46641 4.08855 8.13641 4.49956 8.13641C4.91125 8.13641 5.24377 8.46641 5.24377 8.87345Z" fill="#607087"/>
<path d="M5.20635 1.10995C5.24284 1.14609 5.39705 1.28109 5.52511 1.4079C6.32715 2.14767 7.63865 4.07924 8.04002 5.08968C8.10405 5.24309 8.24036 5.63103 8.25 5.83899C8.25 6.03739 8.20387 6.22694 8.113 6.40762C7.98563 6.6333 7.78461 6.81329 7.54778 6.91284C7.38393 6.97625 6.89168 7.07579 6.88273 7.07579C6.34505 7.17465 5.47072 7.22852 4.50413 7.22852C3.58436 7.22852 2.74582 7.17465 2.19919 7.09352C2.18955 7.08465 1.5789 6.98511 1.36961 6.8767C0.986827 6.67829 0.75 6.29034 0.75 5.87512L0.75 5.83899C0.75895 5.56831 0.996466 4.99968 1.00473 4.99968C1.4061 4.0431 2.65426 2.15721 3.48384 1.39904C3.48384 1.39904 3.69727 1.18495 3.83014 1.09223C4.02153 0.947682 4.25835 0.875411 4.49518 0.875411C4.75955 0.875411 5.00532 0.956546 5.20635 1.10995Z" fill="#607087"/>
</svg>
