<svg width="15" height="15" viewBox="0 0 15 15" fill="none" xmlns="http://www.w3.org/2000/svg">
<path opacity="0.4" d="M6.75623 5.12655L6.55176 2.81453C6.55176 2.29568 6.97653 1.875 7.50044 1.875C8.02436 1.875 8.44913 2.29568 8.44913 2.81453L8.24466 5.12655C8.24466 5.53359 7.91145 5.86359 7.50044 5.86359C7.08875 5.86359 6.75623 5.53359 6.75623 5.12655Z" fill="#607087"/>
<path d="M6.79365 12.89C6.75716 12.8539 6.60295 12.7189 6.47489 12.5921C5.67285 11.8523 4.36135 9.92076 3.95998 8.91032C3.89595 8.75691 3.75964 8.36897 3.75 8.16101C3.75 7.96261 3.79613 7.77306 3.887 7.59238C4.01437 7.3667 4.21539 7.18671 4.45222 7.08716C4.61607 7.02375 5.10832 6.92421 5.11727 6.92421C5.65495 6.82535 6.52928 6.77148 7.49587 6.77148C8.41564 6.77148 9.25418 6.82535 9.80081 6.90648C9.81045 6.91535 10.4211 7.01489 10.6304 7.1233C11.0132 7.3217 11.25 7.70965 11.25 8.12488V8.16101C11.2411 8.43169 11.0035 9.00032 10.9953 9.00032C10.5939 9.9569 9.34574 11.8428 8.51616 12.601C8.51616 12.601 8.30274 12.815 8.16986 12.9078C7.97847 13.0523 7.74165 13.1246 7.50482 13.1246C7.24045 13.1246 6.99468 13.0435 6.79365 12.89Z" fill="#607087"/>
</svg>
