<svg width="17" height="16" viewBox="0 0 17 16" fill="none" xmlns="http://www.w3.org/2000/svg">
<path fill-rule="evenodd" clip-rule="evenodd" d="M3.36913 5.16266C3.58348 4.94627 3.93097 4.94479 4.14532 5.16415L8.92973 10.0482C9.14407 10.2668 9.14334 10.62 8.92826 10.8371C8.82145 10.945 8.68099 11 8.54127 11C8.40008 11 8.25962 10.945 8.15281 10.8357L3.3684 5.95163C3.15406 5.73301 3.15479 5.3798 3.36913 5.16266ZM12.9366 5.16423C13.151 4.94486 13.4985 4.94635 13.7128 5.16274C13.9279 5.37987 13.9286 5.73309 13.715 5.95171L10.5378 9.19533C10.431 9.30464 10.2898 9.35967 10.1494 9.35967C10.0097 9.35967 9.8692 9.30464 9.76239 9.19682C9.54731 8.97969 9.54658 8.62647 9.76019 8.40785L12.9366 5.16423Z" fill="#607087"/>
</svg>
