<svg width="6" height="12" viewBox="0 0 6 12" fill="none" xmlns="http://www.w3.org/2000/svg">
<path fill-rule="evenodd" clip-rule="evenodd" d="M5.83734 11.1722C6.05373 10.9579 6.05521 10.6104 5.83585 10.3961L0.95182 5.61166C0.733199 5.39731 0.379984 5.39804 0.16285 5.61312C0.0550269 5.71993 -6.52647e-08 5.86039 -6.35985e-08 6.00011C-6.19148e-08 6.14131 0.0550269 6.28177 0.164338 6.38857L5.04837 11.173C5.26699 11.3873 5.6202 11.3866 5.83734 11.1722ZM5.83577 1.60475C6.05514 1.39041 6.05365 1.04291 5.83726 0.828567C5.62013 0.613488 5.26691 0.612757 5.04829 0.826372L1.80467 4.00354C1.69536 4.11035 1.64033 4.25154 1.64033 4.392C1.64033 4.53173 1.69536 4.67219 1.80318 4.77899C2.02031 4.99407 2.37353 4.9948 2.59215 4.78119L5.83577 1.60475Z" fill="white"/>
</svg>
