<svg width="6" height="12" viewBox="0 0 6 12" fill="none" xmlns="http://www.w3.org/2000/svg">
<path fill-rule="evenodd" clip-rule="evenodd" d="M0.162665 11.1722C-0.0537258 10.9579 -0.055213 10.6104 0.164152 10.3961L5.04818 5.61166C5.2668 5.39731 5.62002 5.39804 5.83715 5.61312C5.94497 5.71993 6 5.86039 6 6.00011C6 6.14131 5.94497 6.28177 5.83566 6.38857L0.951634 11.173C0.733013 11.3873 0.379799 11.3866 0.162665 11.1722ZM0.164226 1.60475C-0.0551385 1.39041 -0.0536513 1.04291 0.162739 0.828567C0.379873 0.613488 0.733088 0.612757 0.951709 0.826372L4.19533 4.00354C4.30464 4.11035 4.35967 4.25154 4.35967 4.392C4.35967 4.53173 4.30464 4.67219 4.19682 4.77899C3.97969 4.99407 3.62647 4.9948 3.40785 4.78119L0.164226 1.60475Z" fill="white"/>
</svg>
