<svg width="40" height="40" viewBox="0 0 40 40" fill="none" xmlns="http://www.w3.org/2000/svg">
<rect width="40" height="40" rx="8" fill="#F4F6F9"/>
<path d="M14.3992 10.8992C14.3992 10.7136 14.3255 10.5355 14.1942 10.4042C14.0629 10.273 13.8849 10.1992 13.6992 10.1992C12.771 10.1992 11.8807 10.568 11.2243 11.2243C10.568 11.8807 10.1992 12.771 10.1992 13.6992C10.1992 13.8849 10.273 14.0629 10.4042 14.1942C10.5355 14.3255 10.7136 14.3992 10.8992 14.3992C11.0849 14.3992 11.2629 14.3255 11.3942 14.1942C11.5255 14.0629 11.5992 13.8849 11.5992 13.6992C11.5992 13.1423 11.8205 12.6081 12.2143 12.2143C12.6081 11.8205 13.1423 11.5992 13.6992 11.5992C13.8849 11.5992 14.0629 11.5255 14.1942 11.3942C14.3255 11.2629 14.3992 11.0849 14.3992 10.8992ZM29.0992 14.3992C29.2849 14.3992 29.4629 14.3255 29.5942 14.1942C29.7255 14.0629 29.7992 13.8849 29.7992 13.6992C29.7992 12.771 29.4305 11.8807 28.7741 11.2243C28.1177 10.568 27.2275 10.1992 26.2992 10.1992C26.1136 10.1992 25.9355 10.273 25.8042 10.4042C25.673 10.5355 25.5992 10.7136 25.5992 10.8992C25.5992 11.0849 25.673 11.2629 25.8042 11.3942C25.9355 11.5255 26.1136 11.5992 26.2992 11.5992C26.8562 11.5992 27.3903 11.8205 27.7841 12.2143C28.178 12.6081 28.3992 13.1423 28.3992 13.6992C28.3992 13.8849 28.473 14.0629 28.6042 14.1942C28.7355 14.3255 28.9136 14.3992 29.0992 14.3992ZM10.8992 25.5992C10.7136 25.5992 10.5355 25.673 10.4042 25.8042C10.273 25.9355 10.1992 26.1136 10.1992 26.2992C10.1992 27.2275 10.568 28.1177 11.2243 28.7741C11.8807 29.4305 12.771 29.7992 13.6992 29.7992C13.8849 29.7992 14.0629 29.7255 14.1942 29.5942C14.3255 29.4629 14.3992 29.2849 14.3992 29.0992C14.3992 28.9136 14.3255 28.7355 14.1942 28.6042C14.0629 28.473 13.8849 28.3992 13.6992 28.3992C13.1423 28.3992 12.6081 28.178 12.2143 27.7841C11.8205 27.3903 11.5992 26.8562 11.5992 26.2992C11.5992 26.1136 11.5255 25.9355 11.3942 25.8042C11.2629 25.673 11.0849 25.5992 10.8992 25.5992ZM10.1992 18.5992C10.1992 18.4136 10.273 18.2355 10.4042 18.1042C10.5355 17.973 10.7136 17.8992 10.8992 17.8992C11.0849 17.8992 11.2629 17.973 11.3942 18.1042C11.5255 18.2355 11.5992 18.4136 11.5992 18.5992V21.3992C11.5992 21.5849 11.5255 21.7629 11.3942 21.8942C11.2629 22.0255 11.0849 22.0992 10.8992 22.0992C10.7136 22.0992 10.5355 22.0255 10.4042 21.8942C10.273 21.7629 10.1992 21.5849 10.1992 21.3992V18.5992ZM29.0992 16.4992C28.9136 16.4992 28.7355 16.573 28.6042 16.7042C28.473 16.8355 28.3992 17.0136 28.3992 17.1992V18.889C28.8878 19.0276 29.3554 19.211 29.7992 19.4392V17.1992C29.7992 17.0136 29.7255 16.8355 29.5942 16.7042C29.4629 16.573 29.2849 16.4992 29.0992 16.4992ZM19.4392 29.7992C19.2103 29.3518 19.026 28.8828 18.889 28.3992H17.1992C17.0136 28.3992 16.8355 28.473 16.7042 28.6042C16.573 28.7355 16.4992 28.9136 16.4992 29.0992C16.4992 29.2849 16.573 29.4629 16.7042 29.5942C16.8355 29.7255 17.0136 29.7992 17.1992 29.7992H19.4392ZM17.8992 10.8992C17.8992 10.7136 17.973 10.5355 18.1042 10.4042C18.2355 10.273 18.4136 10.1992 18.5992 10.1992H21.3992C21.5849 10.1992 21.7629 10.273 21.8942 10.4042C22.0255 10.5355 22.0992 10.7136 22.0992 10.8992C22.0992 11.0849 22.0255 11.2629 21.8942 11.3942C21.7629 11.5255 21.5849 11.5992 21.3992 11.5992H18.5992C18.4136 11.5992 18.2355 11.5255 18.1042 11.3942C17.973 11.2629 17.8992 11.0849 17.8992 10.8992ZM26.2992 32.5992C27.9701 32.5992 29.5725 31.9355 30.754 30.754C31.9355 29.5725 32.5992 27.9701 32.5992 26.2992C32.5992 24.6284 31.9355 23.0259 30.754 21.8444C29.5725 20.663 27.9701 19.9992 26.2992 19.9992C24.6284 19.9992 23.0259 20.663 21.8444 21.8444C20.663 23.0259 19.9992 24.6284 19.9992 26.2992C19.9992 27.9701 20.663 29.5725 21.8444 30.754C23.0259 31.9355 24.6284 32.5992 26.2992 32.5992ZM25.0448 23.6448L23.789 24.8992H25.9492C26.9703 24.8992 27.9496 25.3048 28.6716 26.0269C29.3936 26.7489 29.7992 27.7281 29.7992 28.7492V29.0992C29.7992 29.2849 29.7255 29.4629 29.5942 29.5942C29.4629 29.7255 29.2849 29.7992 29.0992 29.7992C28.9136 29.7992 28.7355 29.7255 28.6042 29.5942C28.473 29.4629 28.3992 29.2849 28.3992 29.0992V28.7492C28.3992 28.0994 28.1411 27.4763 27.6816 27.0168C27.2222 26.5573 26.599 26.2992 25.9492 26.2992H23.789L25.0448 27.5536C25.1763 27.6851 25.2501 27.8633 25.2501 28.0492C25.2501 28.2351 25.1763 28.4134 25.0448 28.5448C24.9134 28.6763 24.7351 28.7501 24.5492 28.7501C24.3633 28.7501 24.1851 28.6763 24.0536 28.5448L21.6008 26.0906C21.4705 25.9593 21.3976 25.7816 21.3981 25.5965C21.3986 25.4115 21.4725 25.2342 21.6036 25.1036L24.0536 22.6536C24.1851 22.5222 24.3633 22.4483 24.5492 22.4483C24.7351 22.4483 24.9134 22.5222 25.0448 22.6536C25.1763 22.7851 25.2501 22.9633 25.2501 23.1492C25.2501 23.3351 25.1763 23.5134 25.0448 23.6448Z" fill="#607087"/>
</svg>
