<svg width="49" height="49" viewBox="0 0 49 49" fill="none" xmlns="http://www.w3.org/2000/svg">
<rect width="49" height="49" rx="10" fill="#FFF6EA"/>
<path d="M18.6077 25.649L17.952 26.2288C18.0301 26.3169 18.1252 26.3884 18.2316 26.4388C18.3379 26.4893 18.4534 26.5178 18.5711 26.5226C18.6887 26.5274 18.8061 26.5084 18.9162 26.4667C19.0264 26.4251 19.127 26.3616 19.212 26.2802L18.6077 25.649ZM21.1055 24.4648C21.2653 24.3026 21.3555 24.0844 21.3569 23.8566C21.3584 23.6289 21.2711 23.4096 21.1134 23.2452C20.9557 23.0809 20.7402 22.9845 20.5126 22.9765C20.285 22.9685 20.0633 23.0496 19.8945 23.2025L21.1055 24.4648ZM17.6545 23.2538C17.5798 23.163 17.4875 23.0881 17.3832 23.0337C17.279 22.9793 17.1648 22.9464 17.0475 22.9372C16.9302 22.9279 16.8123 22.9424 16.7008 22.9797C16.5892 23.017 16.4863 23.0765 16.3983 23.1545C16.3102 23.2325 16.2388 23.3275 16.1883 23.4337C16.1378 23.5399 16.1092 23.6552 16.1043 23.7728C16.0994 23.8903 16.1182 24.0076 16.1596 24.1177C16.2011 24.2278 16.2643 24.3284 16.3455 24.4135L17.6545 23.2538ZM27.4195 21.5108C27.4975 21.5953 27.5913 21.6635 27.6957 21.7116C27.8 21.7598 27.9128 21.7869 28.0277 21.7915C28.1425 21.796 28.2571 21.7779 28.3649 21.7382C28.4728 21.6984 28.5717 21.6378 28.6562 21.5598C28.7406 21.4819 28.8088 21.388 28.8569 21.2837C28.9051 21.1793 28.9322 21.0665 28.9368 20.9517C28.9413 20.8368 28.9232 20.7222 28.8835 20.6144C28.8437 20.5065 28.7831 20.4076 28.7052 20.3232L27.4207 21.5108H27.4195ZM24.0525 18.292C20.5688 18.292 17.7338 21.0955 17.7338 24.5687H19.4838C19.4838 22.0755 21.522 20.042 24.0525 20.042V18.292ZM17.7338 24.5687V25.649H19.4838V24.5687H17.7338ZM19.2143 26.2802L21.1067 24.4648L19.8957 23.2025L18.0033 25.0167L19.2143 26.2802ZM19.2633 25.068L17.6545 23.2538L16.3455 24.4135L17.952 26.2288L19.2633 25.068ZM28.7052 20.3232C28.1118 19.6812 27.3929 19.1693 26.5917 18.8197C25.7905 18.4701 24.9255 18.2904 24.0513 18.292V20.042C24.6843 20.0405 25.3106 20.1703 25.8908 20.4233C26.471 20.6764 26.9923 21.0471 27.4218 21.512L28.7052 20.322V20.3232ZM29.3888 24.3517L30.0422 23.7707C29.964 23.6827 29.8688 23.6113 29.7624 23.5609C29.656 23.5106 29.5405 23.4822 29.4228 23.4775C29.3052 23.4728 29.1878 23.4919 29.0777 23.5337C28.9676 23.5754 28.8671 23.639 28.7822 23.7205L29.3888 24.3517ZM26.8933 25.5347C26.7259 25.6956 26.6293 25.9164 26.6247 26.1485C26.6201 26.3807 26.7079 26.6051 26.8688 26.7725C27.0297 26.9399 27.2505 27.0365 27.4827 27.0411C27.7148 27.0457 27.9393 26.9579 28.1067 26.797L26.8933 25.5347ZM30.3467 26.748C30.5027 26.9142 30.7176 27.013 30.9454 27.0232C31.1732 27.0334 31.396 26.9542 31.5663 26.8026C31.7366 26.651 31.841 26.4389 31.8573 26.2114C31.8735 25.9839 31.8004 25.7591 31.6533 25.5848L30.3467 26.7468V26.748ZM20.5548 28.5062C20.3951 28.3409 20.1768 28.245 19.9471 28.2393C19.7173 28.2337 19.4945 28.3186 19.3269 28.4758C19.1593 28.6331 19.0602 28.8499 19.0511 29.0796C19.0421 29.3092 19.1237 29.5332 19.2785 29.7032L20.5548 28.5062ZM23.9242 31.7087C27.416 31.7087 30.2638 28.9087 30.2638 25.432H28.5138C28.5138 27.9228 26.4687 29.9587 23.9242 29.9587V31.7087ZM30.2638 25.432V24.3517H28.5138V25.432H30.2638ZM28.7822 23.7205L26.8933 25.5347L28.1067 26.797L29.9943 24.9828L28.7822 23.7205ZM28.7355 24.9338L30.3455 26.7468L31.6545 25.5848L30.0422 23.7707L28.7355 24.9338ZM19.2773 29.702C19.873 30.3366 20.5928 30.8421 21.3919 31.1871C22.1911 31.5321 23.0526 31.7092 23.923 31.7075V29.9575C22.5895 29.9575 21.3913 29.3975 20.5536 28.505L19.2785 29.7032L19.2773 29.702Z" fill="#E47D05"/>
<path d="M35.6673 25.0002C35.6673 30.4998 35.6673 33.2497 33.9582 34.9577C32.2513 36.6668 29.5003 36.6668 24.0007 36.6668C18.501 36.6668 15.7512 36.6668 14.042 34.9577C12.334 33.2508 12.334 30.4998 12.334 25.0002C12.334 19.5005 12.334 16.7507 14.042 15.0415C15.7523 13.3335 18.501 13.3335 24.0007 13.3335C29.5003 13.3335 32.2502 13.3335 33.9582 15.0415C35.0945 16.1778 35.4748 17.775 35.6032 20.3335" stroke="#E47D05" stroke-width="1.5" stroke-linecap="round"/>
</svg>
