<svg width="75" height="16" viewBox="0 0 75 16" fill="none" xmlns="http://www.w3.org/2000/svg">
<g id="bar 1" clip-path="url(#clip0_23469_68677)">
<path id="Vector" d="M1.5 0H0.5V16H1.5V0Z" fill="#130F26"/>
<path id="Vector_2" d="M7.5 0H6.5V16H7.5V0Z" fill="#130F26"/>
<path id="Vector_3" d="M9.5 0H8.5V16H9.5V0Z" fill="#130F26"/>
<path id="Vector_4" d="M5.5 0H3.5V16H5.5V0Z" fill="#130F26"/>
<path id="Vector_5" d="M10.5 0H9.5V16H10.5V0Z" fill="#130F26"/>
<path id="Vector_6" d="M16.5 0H15.5V16H16.5V0Z" fill="#130F26"/>
<path id="Vector_7" d="M18.5 0H17.5V16H18.5V0Z" fill="#130F26"/>
<path id="Vector_8" d="M14.5 0H12.5V16H14.5V0Z" fill="#130F26"/>
<path id="Vector_9" d="M22.5 0H21.5V16H22.5V0Z" fill="#130F26"/>
<path id="Vector_10" d="M24.5 0H23.5V16H24.5V0Z" fill="#130F26"/>
<path id="Vector_11" d="M20.5 0H18.5V16H20.5V0Z" fill="#130F26"/>
<path id="Vector_12" d="M25.5 0H24.5V16H25.5V0Z" fill="#130F26"/>
<path id="Vector_13" d="M31.5 0H30.5V16H31.5V0Z" fill="#130F26"/>
<path id="Vector_14" d="M33.5 0H32.5V16H33.5V0Z" fill="#130F26"/>
<path id="Vector_15" d="M29.5 0H27.5V16H29.5V0Z" fill="#130F26"/>
<path id="Vector_16" d="M68.5 0H67.5V16H68.5V0Z" fill="#130F26"/>
<path id="Vector_17" d="M74.5 0H73.5V16H74.5V0Z" fill="#130F26"/>
<path id="Vector_18" d="M72.5 0H70.5V16H72.5V0Z" fill="#130F26"/>
<path id="Vector_19" d="M35.5 0H34.5V16H35.5V0Z" fill="#130F26"/>
<path id="Vector_20" d="M41.5 0H40.5V16H41.5V0Z" fill="#130F26"/>
<path id="Vector_21" d="M43.5 0H42.5V16H43.5V0Z" fill="#130F26"/>
<path id="Vector_22" d="M39.5 0H37.5V16H39.5V0Z" fill="#130F26"/>
<path id="Vector_23" d="M44.5 0H43.5V16H44.5V0Z" fill="#130F26"/>
<path id="Vector_24" d="M50.5 0H49.5V16H50.5V0Z" fill="#130F26"/>
<path id="Vector_25" d="M52.5 0H51.5V16H52.5V0Z" fill="#130F26"/>
<path id="Vector_26" d="M48.5 0H46.5V16H48.5V0Z" fill="#130F26"/>
<path id="Vector_27" d="M56.5 0H55.5V16H56.5V0Z" fill="#130F26"/>
<path id="Vector_28" d="M58.5 0H57.5V16H58.5V0Z" fill="#130F26"/>
<path id="Vector_29" d="M54.5 0H52.5V16H54.5V0Z" fill="#130F26"/>
<path id="Vector_30" d="M59.5 0H58.5V16H59.5V0Z" fill="#130F26"/>
<path id="Vector_31" d="M65.5 0H64.5V16H65.5V0Z" fill="#130F26"/>
<path id="Vector_32" d="M67.5 0H66.5V16H67.5V0Z" fill="#130F26"/>
<path id="Vector_33" d="M63.5 0H61.5V16H63.5V0Z" fill="#130F26"/>
</g>
<defs>
<clipPath id="clip0_23469_68677">
<rect width="74" height="16" fill="white" transform="translate(0.5)"/>
</clipPath>
</defs>
</svg>
