<svg width="34" height="34" viewBox="0 0 34 34" fill="none" xmlns="http://www.w3.org/2000/svg">
<path d="M33.9999 17C34.0036 17.4957 33.8528 17.9801 33.5687 18.3862C33.2845 18.7923 32.881 19.0998 32.4142 19.266L22.7639 22.7708L19.2602 32.424C19.0885 32.8866 18.7795 33.2855 18.3745 33.5673C17.9696 33.849 17.4881 34 16.9949 34C16.5016 34 16.0201 33.849 15.6152 33.5673C15.2102 33.2855 14.9012 32.8866 14.7295 32.424L11.2258 22.7708L1.5755 19.266C1.11306 19.0943 0.714237 18.7852 0.432598 18.3801C0.15096 17.975 0 17.4934 0 17C0 16.5066 0.15096 16.025 0.432598 15.6199C0.714237 15.2148 1.11306 14.9057 1.5755 14.734L11.2258 11.2292L14.7295 1.57598C14.9012 1.1134 15.2102 0.714454 15.6152 0.432729C16.0201 0.151005 16.5016 0 16.9949 0C17.4881 0 17.9696 0.151005 18.3745 0.432729C18.7795 0.714454 19.0885 1.1134 19.2602 1.57598L22.7639 11.2292L32.4142 14.734C32.881 14.9002 33.2845 15.2077 33.5687 15.6138C33.8528 16.0199 34.0036 16.5043 33.9999 17Z" fill="url(#paint0_linear_21258_70093)"/>
<defs>
<linearGradient id="paint0_linear_21258_70093" x1="1.36" y1="-5.74681e-07" x2="34" y2="30.6" gradientUnits="userSpaceOnUse">
<stop stop-color="#F2C94C"/>
<stop offset="1" stop-color="#FFB84B"/>
</linearGradient>
</defs>
</svg>
