<svg width="29" height="29" viewBox="0 0 29 29" fill="none" xmlns="http://www.w3.org/2000/svg">
<path d="M14.5 15.5696C14.3207 15.5696 14.1379 15.5282 13.9762 15.4454L0.47806 8.50383C0.179273 8.34996 0 8.07775 0 7.78482C0 7.49189 0.182788 7.21967 0.47806 7.06581L13.9762 0.124273C14.2961 -0.0414243 14.7003 -0.0414243 15.0202 0.124273L28.5184 7.06581C28.8172 7.21967 28.9965 7.49189 28.9965 7.78482C28.9965 8.07775 28.8137 8.34996 28.5184 8.50383L15.0202 15.4454C14.862 15.5282 14.6793 15.5696 14.5 15.5696ZM2.9246 7.78778L14.5 13.7381L26.0754 7.78482L14.5 1.83451L2.9246 7.78778Z" fill="white"/>
<path d="M10.0541 18.3362C9.87478 18.3362 9.69551 18.2977 9.53382 18.2119L3.90606 15.3181C3.43503 15.0755 3.28388 14.5577 3.57212 14.1582C3.86037 13.7618 4.47552 13.6375 4.95006 13.8771L10.5778 16.7709C11.0488 17.0136 11.2 17.5314 10.9118 17.9308C10.7184 18.1942 10.3915 18.3362 10.0541 18.3362Z" fill="white"/>
<path d="M18.9917 16.7236C18.8229 16.7236 18.6542 16.6881 18.4995 16.6141C18.1832 16.4632 17.9898 16.1821 17.9898 15.8774L17.9969 12.883L4.98028 6.19295C4.50925 5.95032 4.3581 5.43251 4.64634 5.03306C4.93458 4.63657 5.54974 4.5123 6.02428 4.75197L19.5225 11.6935C19.8212 11.8474 20.004 12.1196 20.0005 12.4155L19.997 14.3772L22.4928 13.0931L22.4963 10.575L9.47967 3.8791C9.00864 3.63647 8.85749 3.11867 9.14573 2.71922C9.43398 2.32273 10.0491 2.19845 10.5237 2.43812L24.0218 9.37966C24.3206 9.53352 24.4999 9.80574 24.4999 10.0987L24.4964 13.5635C24.4964 13.8565 24.3136 14.1287 24.0183 14.2825L19.5154 16.5993C19.3502 16.6822 19.1709 16.7236 18.9917 16.7236Z" fill="white"/>
<path d="M14.5 29C14.3207 29 14.1379 28.9586 13.9762 28.8757L0.47806 21.9342C0.179273 21.7803 0 21.5081 0 21.2152V7.78777C0 7.32323 0.449939 6.94449 1.00182 6.94449C1.5537 6.94449 2.00363 7.32323 2.00363 7.78777V20.7447L14.5 27.1684L26.9963 20.7447V7.78777C26.9963 7.32323 27.4463 6.94449 27.9982 6.94449C28.55 6.94449 29 7.32323 29 7.78777V21.2181C29 21.5111 28.8172 21.7833 28.5219 21.9371L15.0237 28.8787C14.862 28.9586 14.6793 29 14.5 29Z" fill="white"/>
<path d="M14.4999 29C13.948 29 13.498 28.6212 13.498 28.1567V14.7263C13.498 14.2618 13.948 13.8831 14.4999 13.8831C15.0517 13.8831 15.5017 14.2618 15.5017 14.7263V28.1567C15.5017 28.6212 15.0517 29 14.4999 29Z" fill="white"/>
</svg>
