<svg width="36" height="37" viewBox="0 0 36 37" fill="none" xmlns="http://www.w3.org/2000/svg">
<path d="M13.8333 34.3333V29.3333C13.8333 27.775 13.8333 26.9967 14.1683 26.4167C14.3877 26.0367 14.7033 25.7211 15.0833 25.5017C15.6633 25.1667 16.4417 25.1667 18 25.1667C19.5583 25.1667 20.3367 25.1667 20.9167 25.5017C21.2967 25.7211 21.6123 26.0367 21.8317 26.4167C22.1667 26.9967 22.1667 27.775 22.1667 29.3333V34.3333M33 35.1667H13M3 35.1667H7.16667M29.6667 35.1667V23.5M6.33333 35.1667V23.5" stroke="#607087" stroke-width="2" stroke-linecap="round"/>
<path d="M18 1.83398H10.4533C8.44829 1.83398 7.44662 1.83398 6.64162 2.33232C5.83495 2.82898 5.38662 3.72565 4.49162 5.51898L2.14995 11.434C1.60995 12.8007 1.13662 14.4107 2.04662 15.5657C2.47531 16.1107 3.06332 16.5085 3.72873 16.7036C4.39415 16.8987 5.10385 16.8814 5.75899 16.6542C6.41413 16.4269 6.98209 16.001 7.38376 15.4358C7.78544 14.8705 8.00084 14.1941 7.99995 13.5007C7.99995 14.3847 8.35114 15.2326 8.97626 15.8577C9.60138 16.4828 10.4492 16.834 11.3333 16.834C12.2173 16.834 13.0652 16.4828 13.6903 15.8577C14.3154 15.2326 14.6666 14.3847 14.6666 13.5007C14.6666 14.3847 15.0178 15.2326 15.6429 15.8577C16.2681 16.4828 17.1159 16.834 18 16.834C18.884 16.834 19.7319 16.4828 20.357 15.8577C20.9821 15.2326 21.3333 14.3847 21.3333 13.5007C21.3333 14.3847 21.6845 15.2326 22.3096 15.8577C22.9347 16.4828 23.7826 16.834 24.6666 16.834C25.5507 16.834 26.3985 16.4828 27.0236 15.8577C27.6488 15.2326 28 14.3847 28 13.5007C27.9999 14.1935 28.2157 14.8692 28.6174 15.4337C29.0191 15.9983 29.5868 16.4236 30.2414 16.6506C30.8961 16.8775 31.6052 16.8948 32.2701 16.7001C32.9351 16.5053 33.5228 16.1082 33.9516 15.564C34.8616 14.409 34.3883 12.799 33.8483 11.4323L31.5083 5.51898C30.6133 3.72565 30.165 2.82898 29.3583 2.33232C28.5533 1.83398 27.5516 1.83398 25.5466 1.83398H24.6666" stroke="#607087" stroke-width="2" stroke-linecap="round" stroke-linejoin="round"/>
</svg>
