<svg width="41" height="41" viewBox="0 0 41 41" fill="none" xmlns="http://www.w3.org/2000/svg">
<path d="M32.166 13.834C34.9274 13.834 37.166 11.5954 37.166 8.83398C37.166 6.07256 34.9274 3.83398 32.166 3.83398C29.4046 3.83398 27.166 6.07256 27.166 8.83398C27.166 11.5954 29.4046 13.834 32.166 13.834Z" stroke="#607087" stroke-width="2"/>
<path d="M12.166 23.8346L15.9877 20.013C16.3002 19.7005 16.7241 19.525 17.166 19.525C17.608 19.525 18.0318 19.7005 18.3443 20.013L20.9877 22.6563C21.3002 22.9688 21.7241 23.1443 22.166 23.1443C22.608 23.1443 23.0318 22.9688 23.3443 22.6563L28.8327 17.168M28.8327 17.168V21.3346M28.8327 17.168H24.666" stroke="#607087" stroke-width="2" stroke-linecap="round" stroke-linejoin="round"/>
<path d="M37.1663 18.0007V20.5007C37.1663 28.3573 37.1663 32.2857 34.7247 34.7257C32.2863 37.1673 28.3563 37.1673 20.4997 37.1673C12.643 37.1673 8.71467 37.1673 6.27301 34.7257C3.83301 32.2873 3.83301 28.3573 3.83301 20.5007C3.83301 18.6207 3.83301 16.964 3.86634 15.5007M22.9997 3.83398H20.4997C12.643 3.83398 8.71467 3.83398 6.27301 6.27398C5.53967 7.00898 5.02467 7.87898 4.66634 8.95065" stroke="#607087" stroke-width="2" stroke-linecap="round"/>
</svg>
