<svg width="38" height="37" viewBox="0 0 38 37" fill="none" xmlns="http://www.w3.org/2000/svg">
<path opacity="0.4" fill-rule="evenodd" clip-rule="evenodd" d="M7.83594 33.7456C7.83594 32.2056 9.0826 30.9589 10.6226 30.9589C12.1443 30.9589 13.3909 32.2056 13.3909 33.7456C13.3909 35.2673 12.1443 36.5139 10.6226 36.5139C9.0826 36.5139 7.83594 35.2673 7.83594 33.7456ZM28.4609 33.7456C28.4609 32.2056 29.7076 30.9589 31.2476 30.9589C32.7693 30.9589 34.0159 32.2056 34.0159 33.7456C34.0159 35.2673 32.7693 36.5139 31.2476 36.5139C29.7076 36.5139 28.4609 35.2673 28.4609 33.7456Z" fill="#FFBE62"/>
<path fill-rule="evenodd" clip-rule="evenodd" d="M34.0138 7.63984C35.1321 7.63984 35.8654 8.02484 36.5988 8.86817C37.3321 9.71151 37.4604 10.9215 37.2954 12.0197L35.5538 24.0463C35.2238 26.3582 33.2438 28.0613 30.9154 28.0613H10.9138C8.47542 28.0613 6.45876 26.1913 6.25709 23.7732L4.57042 3.78801L1.80209 3.31134C1.06876 3.18301 0.555423 2.46801 0.683756 1.73467C0.81209 0.983006 1.52709 0.488006 2.27876 0.598006L6.65126 1.25801C7.27459 1.36984 7.73292 1.88134 7.78792 2.50467L8.13626 6.61134C8.19126 7.19984 8.66792 7.63984 9.25459 7.63984H34.0138ZM22.9038 17.1713H27.9821C28.7521 17.1713 29.3571 16.548 29.3571 15.7963C29.3571 15.0263 28.7521 14.4213 27.9821 14.4213H22.9038C22.1338 14.4213 21.5288 15.0263 21.5288 15.7963C21.5288 16.548 22.1338 17.1713 22.9038 17.1713Z" fill="#FFBE62"/>
</svg>
