<svg width="40" height="40" viewBox="0 0 40 40" fill="none" xmlns="http://www.w3.org/2000/svg">
<path fill-rule="evenodd" clip-rule="evenodd" d="M35.8145 11.1081C35.1528 10.3275 34.1912 9.87846 33.1795 9.87846H15.2716C14.5817 9.87846 14.0217 10.4499 14.0217 11.154C14.0217 11.8582 14.5817 12.4296 15.2716 12.4296H33.1795C33.5712 12.4296 33.8145 12.6473 33.9245 12.7766C34.0345 12.9075 34.2112 13.1848 34.1545 13.5793L32.5729 24.7347C32.4479 25.6089 31.7012 26.2688 30.8346 26.2688H12.65C11.7284 26.2688 10.9767 25.563 10.9001 24.6276L9.29513 5.1163C9.24846 4.53804 8.82347 4.06353 8.26348 3.96488L4.79524 3.3509C4.10692 3.23865 3.46694 3.69616 3.35027 4.39177C3.23361 5.08569 3.6886 5.74559 4.36858 5.86634L6.88519 6.31024L8.40848 24.8401C8.59514 27.109 10.4184 28.82 12.65 28.82H30.8346C32.9362 28.82 34.7462 27.2212 35.0461 25.1004L36.6294 13.945C36.7744 12.9211 36.4761 11.8888 35.8145 11.1081ZM9.84528 34.0923C9.84528 32.6722 10.9786 31.5157 12.3702 31.5157C13.7618 31.5157 14.8935 32.6722 14.8935 34.0923C14.8935 35.5125 13.7618 36.6673 12.3702 36.6673C10.9786 36.6673 9.84528 35.5125 9.84528 34.0923ZM28.5998 34.0923C28.5998 32.6722 29.7314 31.5157 31.1231 31.5157C32.5147 31.5157 33.648 32.6722 33.648 34.0923C33.648 35.5125 32.5147 36.6673 31.1231 36.6673C29.7314 36.6673 28.5998 35.5125 28.5998 34.0923ZM29.4133 17.4411C29.4133 18.1452 28.8533 18.7167 28.1633 18.7167H23.5418C22.8501 18.7167 22.2918 18.1452 22.2918 17.4411C22.2918 16.737 22.8501 16.1655 23.5418 16.1655H28.1633C28.8533 16.1655 29.4133 16.737 29.4133 17.4411Z" fill="#130F26"/>
</svg>
