<svg width="37" height="34" viewBox="0 0 37 34" fill="none" xmlns="http://www.w3.org/2000/svg">
<path fill-rule="evenodd" clip-rule="evenodd" d="M25.0717 13.7752C24.6085 13.2288 23.9354 12.9145 23.2272 12.9145H10.6917C10.2087 12.9145 9.81673 13.3145 9.81673 13.8074C9.81673 14.3003 10.2087 14.7003 10.6917 14.7003H23.2272C23.5014 14.7003 23.6717 14.8527 23.7487 14.9431C23.8257 15.0348 23.9494 15.2289 23.9097 15.5051L22.8026 23.3138C22.7151 23.9258 22.1924 24.3877 21.5858 24.3877H8.85659C8.21144 24.3877 7.68529 23.8936 7.63162 23.2388L6.50815 9.58096C6.47548 9.17617 6.17799 8.84401 5.786 8.77496L3.35823 8.34518C2.87641 8.2666 2.42842 8.58686 2.34675 9.07379C2.26509 9.55953 2.58358 10.0215 3.05957 10.106L4.82119 10.4167L5.8875 23.3876C6.01816 24.9758 7.29446 26.1735 8.85659 26.1735H21.5858C23.0569 26.1735 24.3239 25.0544 24.5339 23.5698L25.6422 15.7611C25.7437 15.0443 25.5348 14.3217 25.0717 13.7752ZM6.89326 29.8642C6.89326 28.8701 7.68657 28.0605 8.66071 28.0605C9.63485 28.0605 10.427 28.8701 10.427 29.8642C10.427 30.8583 9.63485 31.6667 8.66071 31.6667C7.68657 31.6667 6.89326 30.8583 6.89326 29.8642ZM20.0214 29.8642C20.0214 28.8701 20.8136 28.0605 21.7877 28.0605C22.7619 28.0605 23.5552 28.8701 23.5552 29.8642C23.5552 30.8583 22.7619 31.6667 21.7877 31.6667C20.8136 31.6667 20.0214 30.8583 20.0214 29.8642ZM20.5909 18.2083C20.5909 18.7012 20.1989 19.1012 19.7159 19.1012H16.4808C15.9966 19.1012 15.6058 18.7012 15.6058 18.2083C15.6058 17.7154 15.9966 17.3154 16.4808 17.3154H19.7159C20.1989 17.3154 20.5909 17.7154 20.5909 18.2083Z" fill="#8196B3"/>
<rect x="30.4316" width="1.03702" height="11.7529" rx="0.518512" fill="#8196B3"/>
<rect x="37" y="5.53076" width="1.03702" height="11.7529" rx="0.518512" transform="rotate(90 37 5.53076)" fill="#8196B3"/>
</svg>
