<svg width="16" height="18" viewBox="0 0 16 18" fill="none" xmlns="http://www.w3.org/2000/svg">
<path fill-rule="evenodd" clip-rule="evenodd" d="M12.0805 1.27858V2.14099C14.6555 2.38423 15.9728 3.76999 15.9728 6.2614V13.1533C15.9728 15.9248 14.3504 17.3327 11.1577 17.3327H5.3825C2.18979 17.3327 0.567383 15.9248 0.567383 13.1533V6.2614C0.567383 4.60291 1.14788 3.41618 2.33863 2.7233C2.52634 2.59855 2.76918 2.58984 2.96551 2.70082C3.16183 2.8118 3.27776 3.02332 3.26478 3.24683C3.25179 3.47035 3.11212 3.6673 2.90424 3.75524C2.11537 4.21225 1.74325 5.00832 1.74325 6.2614V6.48253H12.6015C12.9262 6.48253 13.1894 6.74324 13.1894 7.06484C13.1894 7.38644 12.9262 7.64715 12.6015 7.64715H1.74325V13.1533C1.74325 15.2688 2.80005 16.1459 5.3825 16.1607H11.1577C13.7029 16.1607 14.7895 15.2614 14.7895 13.1459V6.25402C14.7895 4.41127 13.9634 3.51937 12.0805 3.30561V3.86581C12.0371 4.1644 11.7731 4.38238 11.4688 4.371C11.1644 4.35963 10.9178 4.12257 10.8972 3.82158V1.22698C10.903 1.07117 10.9716 0.924155 11.0877 0.81886C11.2038 0.713565 11.3577 0.658784 11.5149 0.666783C11.839 0.686525 12.0891 0.957042 12.0805 1.27858ZM5.45327 4.24334C5.3414 4.35276 5.18993 4.41324 5.03272 4.41127C4.71092 4.40322 4.45549 4.14037 4.45967 3.82158V1.27858C4.4935 0.980254 4.74822 0.754722 5.05132 0.754722C5.35442 0.754722 5.60915 0.980254 5.64298 1.27858V2.08202H9.00687C9.33157 2.08202 9.5948 2.34273 9.5948 2.66433C9.5948 2.98593 9.33157 3.24664 9.00687 3.24664H5.6281V3.82895C5.62811 3.98468 5.56515 4.13392 5.45327 4.24334ZM11.8572 9.51202C11.4462 9.51202 11.113 9.84203 11.113 10.2491C11.113 10.6562 11.4462 10.9862 11.8572 10.9862C12.2683 10.9862 12.6015 10.6562 12.6015 10.2491C12.6015 10.0523 12.522 9.86374 12.3809 9.72529C12.2397 9.58684 12.0485 9.51005 11.8498 9.51202H11.8572ZM7.54075 10.2491C7.54075 9.84203 7.87395 9.51202 8.28497 9.51202C8.69599 9.51202 9.02919 9.84203 9.02919 10.2491C9.02919 10.6562 8.69599 10.9862 8.28497 10.9862C7.87395 10.9862 7.54075 10.6562 7.54075 10.2491ZM4.72015 9.51202C4.30912 9.51202 3.97592 9.84203 3.97592 10.2491C3.97592 10.6562 4.30912 10.9862 4.72015 10.9862C5.13117 10.9862 5.46437 10.6562 5.46437 10.2491C5.46438 10.0523 5.38495 9.86374 5.24377 9.72529C5.10258 9.58684 4.91137 9.51005 4.7127 9.51202H4.72015ZM11.113 13.2344C11.113 12.8273 11.4462 12.4973 11.8572 12.4973H11.8498C12.0485 12.4953 12.2397 12.5721 12.3809 12.7106C12.522 12.849 12.6015 13.0376 12.6015 13.2344C12.6015 13.6415 12.2683 13.9715 11.8572 13.9715C11.4462 13.9715 11.113 13.6415 11.113 13.2344ZM8.28497 12.4973C7.87395 12.4973 7.54075 12.8273 7.54075 13.2344C7.54075 13.6415 7.87395 13.9715 8.28497 13.9715C8.69599 13.9715 9.02919 13.6415 9.02919 13.2344C9.02919 12.8273 8.69599 12.4973 8.28497 12.4973ZM3.97592 13.2344C3.97592 12.8273 4.30912 12.4973 4.72015 12.4973H4.7127C4.91137 12.4953 5.10258 12.5721 5.24377 12.7106C5.38495 12.849 5.46438 13.0376 5.46437 13.2344C5.46437 13.6415 5.13117 13.9715 4.72015 13.9715C4.30912 13.9715 3.97592 13.6415 3.97592 13.2344Z" fill="#607087"/>
</svg>
