<svg width="21" height="20" viewBox="0 0 21 20" fill="none" xmlns="http://www.w3.org/2000/svg">
<path fill-rule="evenodd" clip-rule="evenodd" d="M14.0805 2.27922V3.14163C16.6555 3.38487 17.9728 4.77063 17.9728 7.26204V14.1539C17.9728 16.9255 16.3504 18.3333 13.1577 18.3333H7.3825C4.18979 18.3333 2.56738 16.9255 2.56738 14.1539V7.26204C2.56738 5.60355 3.14788 4.41682 4.33863 3.72394C4.52634 3.59919 4.76918 3.59048 4.96551 3.70146C5.16183 3.81244 5.27776 4.02396 5.26478 4.24748C5.25179 4.47099 5.11212 4.66795 4.90424 4.75589C4.11537 5.21289 3.74325 6.00896 3.74325 7.26204V7.48317H14.6015C14.9262 7.48317 15.1894 7.74388 15.1894 8.06548C15.1894 8.38708 14.9262 8.64779 14.6015 8.64779H3.74325V14.1539C3.74325 16.2694 4.80005 17.1466 7.3825 17.1613H13.1577C15.7029 17.1613 16.7895 16.2621 16.7895 14.1466V7.25467C16.7895 5.41191 15.9634 4.52001 14.0805 4.30625V4.86645C14.0371 5.16504 13.7731 5.38302 13.4688 5.37165C13.1644 5.36027 12.9178 5.12321 12.8972 4.82223V2.22762C12.903 2.07181 12.9716 1.9248 13.0877 1.8195C13.2038 1.71421 13.3577 1.65942 13.5149 1.66742C13.839 1.68717 14.0891 1.95768 14.0805 2.27922ZM7.45327 5.24398C7.3414 5.3534 7.18993 5.41388 7.03272 5.41191C6.71092 5.40386 6.45549 5.14102 6.45967 4.82222V2.27922C6.4935 1.98089 6.74822 1.75536 7.05132 1.75536C7.35442 1.75536 7.60915 1.98089 7.64298 2.27922V3.08266H11.0069C11.3316 3.08266 11.5948 3.34337 11.5948 3.66497C11.5948 3.98657 11.3316 4.24728 11.0069 4.24728H7.6281V4.8296C7.62811 4.98532 7.56515 5.13456 7.45327 5.24398ZM13.8572 10.5127C13.4462 10.5127 13.113 10.8427 13.113 11.2498C13.113 11.6569 13.4462 11.9869 13.8572 11.9869C14.2683 11.9869 14.6015 11.6569 14.6015 11.2498C14.6015 11.053 14.522 10.8644 14.3809 10.7259C14.2397 10.5875 14.0485 10.5107 13.8498 10.5127H13.8572ZM9.54075 11.2498C9.54075 10.8427 9.87395 10.5127 10.285 10.5127C10.696 10.5127 11.0292 10.8427 11.0292 11.2498C11.0292 11.6569 10.696 11.9869 10.285 11.9869C9.87395 11.9869 9.54075 11.6569 9.54075 11.2498ZM6.72015 10.5127C6.30912 10.5127 5.97592 10.8427 5.97592 11.2498C5.97592 11.6569 6.30912 11.9869 6.72015 11.9869C7.13117 11.9869 7.46437 11.6569 7.46437 11.2498C7.46438 11.053 7.38495 10.8644 7.24377 10.7259C7.10258 10.5875 6.91137 10.5107 6.7127 10.5127H6.72015ZM13.113 14.235C13.113 13.8279 13.4462 13.4979 13.8572 13.4979H13.8498C14.0485 13.496 14.2397 13.5727 14.3809 13.7112C14.522 13.8496 14.6015 14.0383 14.6015 14.235C14.6015 14.6421 14.2683 14.9721 13.8572 14.9721C13.4462 14.9721 13.113 14.6421 13.113 14.235ZM10.285 13.4979C9.87395 13.4979 9.54075 13.8279 9.54075 14.235C9.54075 14.6421 9.87395 14.9721 10.285 14.9721C10.696 14.9721 11.0292 14.6421 11.0292 14.235C11.0292 13.8279 10.696 13.4979 10.285 13.4979ZM5.97592 14.235C5.97592 13.8279 6.30912 13.4979 6.72015 13.4979H6.7127C6.91137 13.496 7.10258 13.5727 7.24377 13.7112C7.38495 13.8496 7.46438 14.0383 7.46437 14.235C7.46437 14.6421 7.13117 14.9721 6.72015 14.9721C6.30912 14.9721 5.97592 14.6421 5.97592 14.235Z" fill="#607087"/>
</svg>
