<svg width="14" height="14" viewBox="0 0 14 14" fill="none" xmlns="http://www.w3.org/2000/svg">
<path fill-rule="evenodd" clip-rule="evenodd" d="M1.58285 2.632C1.23951 3.10376 1.26351 3.70811 1.63219 4.5177C1.74619 4.7689 1.63552 5.06475 1.38418 5.17936C1.13218 5.2933 0.836836 5.18336 0.722166 4.93149C0.197486 3.78074 0.207487 2.8199 0.7515 2.07828C0.954172 1.73912 2.2282 0.264547 3.32223 0.335844C3.66624 0.364496 3.98092 0.524414 4.27626 0.812266C4.59093 1.11944 5.9123 2.72662 6.0183 3.23502C6.1322 3.7816 5.88673 4.20845 5.70743 4.52022L5.70696 4.52103C5.53029 4.82821 5.46895 4.95947 5.52962 5.12539C5.97563 6.21616 6.66498 7.10771 7.57234 7.75537C7.79701 7.91662 7.84835 8.22846 7.68768 8.45302C7.59034 8.58895 7.437 8.66224 7.281 8.66224C7.17966 8.66224 7.07833 8.63159 6.99033 8.56896C5.92763 7.80868 5.12228 6.77121 4.59626 5.48454C4.36493 4.8482 4.6396 4.37111 4.84027 4.02262C4.99094 3.76142 5.07428 3.6055 5.03894 3.43892C4.94561 3.19838 3.97092 1.9117 3.57757 1.52857C3.45624 1.40929 3.34223 1.33933 3.25756 1.33267C2.78022 1.32134 1.80419 2.26485 1.58285 2.632ZM10.7668 7.98224C11.2775 8.08819 12.8835 9.40885 13.1909 9.72268C13.4802 10.0185 13.6402 10.3337 13.6675 10.6582C13.7109 11.8862 12.0662 13.1696 11.8775 13.2775C11.5188 13.5361 11.0981 13.6667 10.6248 13.6667C10.1541 13.6667 9.63143 13.5374 9.06542 13.2735C6.88869 12.37 3.59661 9.44016 1.74456 6.75154C1.58789 6.52432 1.64523 6.21315 1.87257 6.05656C2.10057 5.90198 2.41191 5.95795 2.56792 6.18516C4.29796 8.69654 7.45804 11.5238 9.46876 12.3593C10.2821 12.7371 10.8875 12.7605 11.3381 12.4373C11.6895 12.2247 12.6875 11.2332 12.6695 10.7175C12.6635 10.6569 12.5942 10.5429 12.4762 10.4223C12.0922 10.0292 10.8035 9.05436 10.5341 8.95308C10.3214 8.90777 10.1001 9.03704 9.76277 9.24959L9.5921 9.35554C9.35542 9.49747 9.04808 9.42217 8.90541 9.18496C8.76341 8.94908 8.83941 8.64191 9.07608 8.49931L9.23009 8.40403C9.60343 8.16881 10.1188 7.84765 10.7668 7.98224Z" fill="#8196B3"/>
</svg>
