<svg width="15" height="13" viewBox="0 0 15 13" fill="none" xmlns="http://www.w3.org/2000/svg">
<path fill-rule="evenodd" clip-rule="evenodd" d="M11.2613 2.73697C11.2066 2.73697 11.1566 2.70501 11.1093 2.60578C10.9199 2.2042 10.6879 1.71339 10.5486 1.43901C10.2433 0.83831 9.71927 0.504662 9.06794 0.5H5.93327C5.2866 0.504662 4.76194 0.83831 4.4566 1.43967C4.32127 1.70606 4.09794 2.17889 3.91194 2.57381L3.8726 2.65639C3.84927 2.70567 3.79994 2.73697 3.7446 2.73697C2.1406 2.73697 0.835938 4.04026 0.835938 5.64191V9.59507C0.835938 11.1967 2.1406 12.5 3.7446 12.5H4.24127C4.51727 12.5 4.74127 12.2762 4.74127 12.0005C4.74127 11.7248 4.51727 11.5011 4.24127 11.5011H3.7446C2.69194 11.5011 1.83594 10.646 1.83594 9.59507V5.64191C1.83594 4.59102 2.69194 3.73592 3.7446 3.73592C4.18394 3.73592 4.58927 3.47952 4.7766 3.08327L4.81594 3.00003C4.99794 2.61377 5.2166 2.15159 5.3486 1.8912C5.48527 1.62215 5.6686 1.50094 5.93794 1.49895H9.06394C9.33727 1.50094 9.51994 1.62215 9.6566 1.89053C9.7926 2.15958 10.0199 2.63974 10.2293 3.08327C10.4166 3.47952 10.8219 3.73592 11.2613 3.73592C12.3133 3.73592 13.1693 4.59102 13.1693 5.64191V9.59507C13.1693 10.646 12.3133 11.5011 11.2613 11.5011H6.55594C6.27994 11.5011 6.05594 11.7248 6.05594 12.0005C6.05594 12.2762 6.27994 12.5 6.55594 12.5H11.2613C12.8646 12.5 14.1693 11.1967 14.1693 9.59507V5.64191C14.1693 4.04026 12.8646 2.73697 11.2613 2.73697ZM7.50215 10.0027C8.20282 10.0027 8.86282 9.72698 9.36082 9.22618C9.85615 8.72804 10.1268 8.07273 10.1208 7.38479C10.1215 6.68686 9.84815 6.02822 9.35148 5.53208C8.85548 5.0366 8.19882 4.76422 7.50215 4.76422H7.50082C7.30882 4.76422 7.11682 4.78487 6.93082 4.82749C6.66148 4.88676 6.49148 5.15448 6.55215 5.42352C6.61215 5.69191 6.87882 5.86373 7.14882 5.80113C7.26415 5.77582 7.38215 5.76317 7.50148 5.76317H7.50215C7.93215 5.76317 8.33748 5.93232 8.64415 6.23866C8.95215 6.54634 9.12148 6.95258 9.12082 7.38812C9.12415 7.81167 8.95748 8.21391 8.65148 8.52225C8.34282 8.83259 7.93415 9.00375 7.50215 9.00375H7.50082C7.06882 9.00308 6.66282 8.83392 6.35682 8.52692C6.05015 8.21991 5.88215 7.813 5.88282 7.38013C5.88282 7.2143 5.90882 7.04981 5.95948 6.89197C6.04282 6.62959 5.89748 6.34855 5.63415 6.26464C5.36948 6.18206 5.08948 6.32591 5.00615 6.58896C4.92482 6.84536 4.88282 7.11041 4.88282 7.37946C4.88148 8.07739 5.15348 8.73603 5.64815 9.23217C6.14282 9.72831 6.80015 10.002 7.49948 10.0027H7.50215ZM11.4861 5.66809C11.4395 5.7147 11.3861 5.75466 11.3261 5.7813C11.2661 5.80794 11.1995 5.81527 11.1328 5.81527C11.0061 5.81527 10.8795 5.76798 10.7795 5.66809C10.6861 5.57485 10.6328 5.44832 10.6328 5.31579C10.6328 5.25519 10.6461 5.18859 10.6728 5.12932C10.6995 5.06939 10.7395 5.00945 10.7795 4.96283C10.8261 4.92221 10.8861 4.88225 10.9461 4.85561C11.0661 4.80899 11.2061 4.80899 11.3261 4.85561C11.3861 4.88225 11.4461 4.92221 11.4861 4.96283C11.5328 5.00945 11.5728 5.06939 11.5995 5.12932C11.6261 5.18859 11.6395 5.25519 11.6395 5.31579C11.6395 5.44832 11.5861 5.57485 11.4861 5.66809Z" fill="#130F26"/>
</svg>
