<svg width="16" height="16" viewBox="0 0 16 16" fill="none" xmlns="http://www.w3.org/2000/svg">
<path d="M10.648 6.14797L8.79524 8L10.648 9.85203C10.7002 9.90429 10.7417 9.96634 10.77 10.0346C10.7983 10.1029 10.8128 10.1761 10.8128 10.25C10.8128 10.3239 10.7983 10.3971 10.77 10.4654C10.7417 10.5337 10.7002 10.5957 10.648 10.648C10.5957 10.7002 10.5337 10.7417 10.4654 10.77C10.3971 10.7983 10.3239 10.8128 10.25 10.8128C10.1761 10.8128 10.1029 10.7983 10.0346 10.77C9.96634 10.7417 9.9043 10.7002 9.85203 10.648L8 8.79523L6.14797 10.648C6.09571 10.7002 6.03367 10.7417 5.96538 10.77C5.8971 10.7983 5.82391 10.8128 5.75 10.8128C5.67609 10.8128 5.60291 10.7983 5.53462 10.77C5.46634 10.7417 5.4043 10.7002 5.35203 10.648C5.29977 10.5957 5.25832 10.5337 5.23003 10.4654C5.20175 10.3971 5.18719 10.3239 5.18719 10.25C5.18719 10.1761 5.20175 10.1029 5.23003 10.0346C5.25832 9.96634 5.29977 9.90429 5.35203 9.85203L7.20477 8L5.35203 6.14797C5.24649 6.04242 5.18719 5.89927 5.18719 5.75C5.18719 5.60073 5.24649 5.45758 5.35203 5.35203C5.45758 5.24648 5.60074 5.18719 5.75 5.18719C5.89927 5.18719 6.04242 5.24648 6.14797 5.35203L8 7.20477L9.85203 5.35203C9.9043 5.29977 9.96634 5.25831 10.0346 5.23003C10.1029 5.20174 10.1761 5.18719 10.25 5.18719C10.3239 5.18719 10.3971 5.20174 10.4654 5.23003C10.5337 5.25831 10.5957 5.29977 10.648 5.35203C10.7002 5.40429 10.7417 5.46634 10.77 5.53462C10.7983 5.6029 10.8128 5.67609 10.8128 5.75C10.8128 5.82391 10.7983 5.8971 10.77 5.96538C10.7417 6.03366 10.7002 6.09571 10.648 6.14797ZM15.3125 8C15.3125 9.44628 14.8836 10.8601 14.0801 12.0626C13.2766 13.2651 12.1346 14.2024 10.7984 14.7559C9.46219 15.3093 7.99189 15.4541 6.57341 15.172C5.15492 14.8898 3.85196 14.1934 2.82928 13.1707C1.80661 12.148 1.11017 10.8451 0.828011 9.4266C0.545857 8.00811 0.690668 6.53781 1.24413 5.20163C1.7976 3.86544 2.73486 2.72339 3.9374 1.91988C5.13993 1.11637 6.55373 0.6875 8 0.6875C9.93877 0.689547 11.7975 1.46063 13.1685 2.83154C14.5394 4.20246 15.3105 6.06123 15.3125 8ZM14.1875 8C14.1875 6.77623 13.8246 5.57994 13.1447 4.56241C12.4648 3.54488 11.4985 2.75181 10.3679 2.2835C9.23724 1.81518 7.99314 1.69264 6.79288 1.93139C5.59262 2.17014 4.49012 2.75944 3.62478 3.62478C2.75944 4.49011 2.17014 5.59262 1.93139 6.79288C1.69265 7.99314 1.81518 9.23724 2.2835 10.3679C2.75182 11.4985 3.54488 12.4648 4.56241 13.1447C5.57994 13.8246 6.77623 14.1875 8 14.1875C9.64046 14.1856 11.2132 13.5331 12.3732 12.3732C13.5331 11.2132 14.1856 9.64046 14.1875 8Z" fill="#FF5050"/>
</svg>
