<svg width="34" height="34" viewBox="0 0 34 34" fill="none" xmlns="http://www.w3.org/2000/svg">
<path fill-rule="evenodd" clip-rule="evenodd" d="M32.8164 8.10748C32.1548 7.32683 31.1931 6.87782 30.1815 6.87782H12.2736C11.5836 6.87782 11.0236 7.44928 11.0236 8.1534C11.0236 8.85752 11.5836 9.42898 12.2736 9.42898H30.1815C30.5731 9.42898 30.8165 9.64668 30.9265 9.77594C31.0365 9.9069 31.2131 10.1841 31.1565 10.5787L29.5748 21.7341C29.4498 22.6083 28.7032 23.2682 27.8365 23.2682H9.65199C8.73035 23.2682 7.9787 22.5623 7.90204 21.6269L6.29708 2.11566C6.25041 1.5374 5.82542 1.06288 5.26544 0.96424L1.79719 0.350261C1.10888 0.23801 0.468891 0.695518 0.352228 1.39113C0.235564 2.08505 0.690552 2.74495 1.37054 2.8657L3.88714 3.3096L5.41043 21.8395C5.5971 24.1083 7.42038 25.8193 9.65199 25.8193H27.8365C29.9382 25.8193 31.7481 24.2206 32.0481 22.0997L33.6314 10.9444C33.7764 9.9205 33.4781 8.88813 32.8164 8.10748ZM6.84723 31.0917C6.84723 29.6716 7.98054 28.515 9.37217 28.515C10.7638 28.515 11.8954 29.6716 11.8954 31.0917C11.8954 32.5119 10.7638 33.6667 9.37217 33.6667C7.98054 33.6667 6.84723 32.5119 6.84723 31.0917ZM25.6018 31.0917C25.6018 29.6716 26.7334 28.515 28.125 28.515C29.5167 28.515 30.65 29.6716 30.65 31.0917C30.65 32.5119 29.5167 33.6667 28.125 33.6667C26.7334 33.6667 25.6018 32.5119 25.6018 31.0917ZM26.4152 14.4405C26.4152 15.1446 25.8553 15.7161 25.1653 15.7161H20.5437C19.8521 15.7161 19.2938 15.1446 19.2938 14.4405C19.2938 13.7364 19.8521 13.1649 20.5437 13.1649H25.1653C25.8553 13.1649 26.4152 13.7364 26.4152 14.4405Z" fill="#607087"/>
</svg>
