<svg width="101" height="99" viewBox="0 0 101 99" fill="none" xmlns="http://www.w3.org/2000/svg">
<path opacity="0.4" fill-rule="evenodd" clip-rule="evenodd" d="M19.5527 90.9425C19.5527 86.7425 22.9527 83.3425 27.1527 83.3425C31.3027 83.3425 34.7027 86.7425 34.7027 90.9425C34.7027 95.0925 31.3027 98.4925 27.1527 98.4925C22.9527 98.4925 19.5527 95.0925 19.5527 90.9425ZM75.8027 90.9425C75.8027 86.7425 79.2027 83.3425 83.4027 83.3425C87.5527 83.3425 90.9527 86.7425 90.9527 90.9425C90.9527 95.0925 87.5527 98.4925 83.4027 98.4925C79.2027 98.4925 75.8027 95.0925 75.8027 90.9425Z" fill="#8196B3"/>
<path fill-rule="evenodd" clip-rule="evenodd" d="M90.9537 19.745C94.0037 19.745 96.0037 20.795 98.0037 23.095C100.004 25.395 100.354 28.695 99.9037 31.69L95.1537 64.49C94.2537 70.795 88.8537 75.44 82.5037 75.44H27.9537C21.3037 75.44 15.8037 70.34 15.2537 63.745L10.6537 9.24001L3.10371 7.94001C1.10371 7.59 -0.296289 5.64001 0.0537107 3.64C0.403711 1.59 2.35371 0.240004 4.40371 0.540004L16.3287 2.34C18.0287 2.645 19.2787 4.04 19.4287 5.74L20.3787 16.94C20.5287 18.545 21.8287 19.745 23.4287 19.745H90.9537ZM60.6537 45.74H74.5037C76.6037 45.74 78.2537 44.04 78.2537 41.99C78.2537 39.89 76.6037 38.24 74.5037 38.24H60.6537C58.5537 38.24 56.9037 39.89 56.9037 41.99C56.9037 44.04 58.5537 45.74 60.6537 45.74Z" fill="#8196B3"/>
</svg>
