<svg width="15" height="15" viewBox="0 0 15 15" fill="none" xmlns="http://www.w3.org/2000/svg">
<path d="M7.5 7.5C7.12916 7.5 6.76665 7.60997 6.45831 7.81599C6.14996 8.02202 5.90964 8.31486 5.76773 8.65747C5.62581 9.00008 5.58868 9.37708 5.66103 9.74079C5.73337 10.1045 5.91195 10.4386 6.17417 10.7008C6.4364 10.963 6.77049 11.1416 7.13421 11.214C7.49792 11.2863 7.87492 11.2492 8.21753 11.1073C8.56014 10.9654 8.85298 10.725 9.05901 10.4167C9.26503 10.1084 9.375 9.74584 9.375 9.375C9.375 8.87772 9.17746 8.40081 8.82583 8.04917C8.47419 7.69754 7.99728 7.5 7.5 7.5ZM7.5 10C7.37639 10 7.25555 9.96334 7.15277 9.89467C7.04999 9.82599 6.96988 9.72838 6.92257 9.61418C6.87527 9.49997 6.86289 9.37431 6.88701 9.25307C6.91112 9.13183 6.97065 9.02047 7.05806 8.93306C7.14547 8.84565 7.25683 8.78612 7.37807 8.76201C7.49931 8.73789 7.62497 8.75027 7.73918 8.79757C7.85338 8.84488 7.95099 8.92499 8.01967 9.02777C8.08834 9.13055 8.125 9.25139 8.125 9.375C8.125 9.54076 8.05915 9.69973 7.94194 9.81694C7.82473 9.93415 7.66576 10 7.5 10ZM7.05625 6.06875C7.11569 6.12565 7.18578 6.17025 7.2625 6.2C7.33731 6.23307 7.41821 6.25015 7.5 6.25015C7.58179 6.25015 7.66269 6.23307 7.7375 6.2C7.81422 6.17025 7.88431 6.12565 7.94375 6.06875L9.375 4.6625C9.49601 4.5415 9.56398 4.37738 9.56398 4.20625C9.56398 4.03512 9.49601 3.87101 9.375 3.75C9.25399 3.62899 9.08988 3.56102 8.91875 3.56102C8.74762 3.56102 8.58351 3.62899 8.4625 3.75L8.125 4.11875V1.875C8.125 1.70924 8.05915 1.55027 7.94194 1.43306C7.82473 1.31585 7.66576 1.25 7.5 1.25C7.33424 1.25 7.17527 1.31585 7.05806 1.43306C6.94085 1.55027 6.875 1.70924 6.875 1.875V4.11875L6.5375 3.75C6.41649 3.62899 6.25238 3.56102 6.08125 3.56102C5.91012 3.56102 5.74601 3.62899 5.625 3.75C5.50399 3.87101 5.43602 4.03512 5.43602 4.20625C5.43602 4.37738 5.50399 4.5415 5.625 4.6625L7.05625 6.06875ZM11.875 9.375C11.875 9.25139 11.8383 9.13055 11.7697 9.02777C11.701 8.92499 11.6034 8.84488 11.4892 8.79757C11.375 8.75027 11.2493 8.73789 11.1281 8.76201C11.0068 8.78612 10.8955 8.84565 10.8081 8.93306C10.7206 9.02047 10.6611 9.13183 10.637 9.25307C10.6129 9.37431 10.6253 9.49997 10.6726 9.61418C10.7199 9.72838 10.8 9.82599 10.9028 9.89467C11.0055 9.96334 11.1264 10 11.25 10C11.4158 10 11.5747 9.93415 11.6919 9.81694C11.8092 9.69973 11.875 9.54076 11.875 9.375ZM12.5 5H10.625C10.4592 5 10.3003 5.06585 10.1831 5.18306C10.0658 5.30027 10 5.45924 10 5.625C10 5.79076 10.0658 5.94973 10.1831 6.06694C10.3003 6.18415 10.4592 6.25 10.625 6.25H12.5C12.6658 6.25 12.8247 6.31585 12.9419 6.43306C13.0592 6.55027 13.125 6.70924 13.125 6.875V11.875C13.125 12.0408 13.0592 12.1997 12.9419 12.3169C12.8247 12.4342 12.6658 12.5 12.5 12.5H2.5C2.33424 12.5 2.17527 12.4342 2.05806 12.3169C1.94085 12.1997 1.875 12.0408 1.875 11.875V6.875C1.875 6.70924 1.94085 6.55027 2.05806 6.43306C2.17527 6.31585 2.33424 6.25 2.5 6.25H4.375C4.54076 6.25 4.69973 6.18415 4.81694 6.06694C4.93415 5.94973 5 5.79076 5 5.625C5 5.45924 4.93415 5.30027 4.81694 5.18306C4.69973 5.06585 4.54076 5 4.375 5H2.5C2.00272 5 1.52581 5.19754 1.17417 5.54917C0.822544 5.90081 0.625 6.37772 0.625 6.875V11.875C0.625 12.3723 0.822544 12.8492 1.17417 13.2008C1.52581 13.5525 2.00272 13.75 2.5 13.75H12.5C12.9973 13.75 13.4742 13.5525 13.8258 13.2008C14.1775 12.8492 14.375 12.3723 14.375 11.875V6.875C14.375 6.37772 14.1775 5.90081 13.8258 5.54917C13.4742 5.19754 12.9973 5 12.5 5ZM3.125 9.375C3.125 9.49861 3.16166 9.61945 3.23033 9.72223C3.29901 9.82501 3.39662 9.90512 3.51082 9.95243C3.62503 9.99973 3.75069 10.0121 3.87193 9.98799C3.99317 9.96387 4.10453 9.90435 4.19194 9.81694C4.27935 9.72953 4.33888 9.61817 4.36299 9.49693C4.38711 9.37569 4.37473 9.25003 4.32742 9.13582C4.28012 9.02162 4.20001 8.92401 4.09723 8.85533C3.99445 8.78666 3.87361 8.75 3.75 8.75C3.58424 8.75 3.42527 8.81585 3.30806 8.93306C3.19085 9.05027 3.125 9.20924 3.125 9.375Z" fill="white"/>
</svg>
