<svg width="24" height="24" viewBox="0 0 24 24" fill="none" xmlns="http://www.w3.org/2000/svg">
<path fill-rule="evenodd" clip-rule="evenodd" d="M23.6663 10.3377C23.6663 10.8308 23.2667 11.2304 22.7736 11.2304H22.7634C22.5257 11.2305 22.2981 11.1347 22.132 10.9648C21.9659 10.7948 21.8754 10.565 21.8809 10.3275V7.62884C21.8809 4.07856 19.9211 2.11873 16.3708 2.11873H7.62852C4.06798 2.11873 2.11841 4.07856 2.11841 7.62884V16.3814C2.11841 19.9317 4.07824 21.8813 7.62852 21.8813H16.3708C19.9314 21.8813 21.8809 19.9214 21.8809 16.3814C21.8809 15.8884 22.2806 15.4887 22.7736 15.4887C23.2667 15.4887 23.6663 15.8884 23.6663 16.3814C23.6663 20.8757 20.8754 23.6667 16.3811 23.6667H7.62852C3.12398 23.6667 0.333008 20.8757 0.333008 16.3814V7.62884C0.333008 3.1243 3.12398 0.333328 7.62852 0.333328H16.3708C20.8549 0.333328 23.6663 3.1243 23.6663 7.62884V10.3377ZM6.12017 17.4691V10.0709V9.99911C6.12814 9.76318 6.23032 9.54027 6.40386 9.38022C6.5774 9.22018 6.80784 9.13634 7.04365 9.14746C7.28046 9.15548 7.50436 9.25732 7.66603 9.43054C7.8277 9.60376 7.91387 9.83414 7.90557 10.0709V17.5306C7.88857 18.0237 7.47511 18.4095 6.98208 18.3925C6.48906 18.3755 6.10317 17.9621 6.12017 17.4691ZM11.148 6.54118V17.4793C11.148 17.9724 11.5477 18.372 12.0407 18.372C12.5337 18.372 12.9334 17.9724 12.9334 17.4793V6.54118C12.9334 6.04816 12.5337 5.64848 12.0407 5.64848C11.5477 5.64848 11.148 6.04816 11.148 6.54118ZM16.0938 17.4691V13.9804C16.0938 13.4873 16.4935 13.0877 16.9865 13.0877C17.4795 13.0877 17.8792 13.4873 17.8792 13.9804V17.4691C17.8792 17.9621 17.4795 18.3618 16.9865 18.3618C16.4935 18.3618 16.0938 17.9621 16.0938 17.4691Z" fill="#4F4F4F"/>
</svg>
