<svg width="24" height="24" viewBox="0 0 24 24" fill="none" xmlns="http://www.w3.org/2000/svg">
<path opacity="0.4" d="M17.4574 0.333328H6.55816C2.58631 0.333328 0.335938 2.5837 0.335938 6.55555V17.4444C0.335938 21.4163 2.58631 23.6667 6.55816 23.6667H17.4574C21.4293 23.6667 23.6693 21.4163 23.6693 17.4444V6.55555C23.6693 2.5837 21.4293 0.333328 17.4574 0.333328Z" fill="white"/>
<path d="M6.59726 8.93047C6.06837 8.93047 5.63281 9.36602 5.63281 9.90528V17.9216C5.63281 18.4505 6.06837 18.886 6.59726 18.886C7.13652 18.886 7.57207 18.4505 7.57207 17.9216V9.90528C7.57207 9.36602 7.13652 8.93047 6.59726 8.93047Z" fill="white"/>
<path d="M12.0426 5.10381C11.5137 5.10381 11.0781 5.53936 11.0781 6.07862V17.9216C11.0781 18.4505 11.5137 18.886 12.0426 18.886C12.5818 18.886 13.0174 18.4505 13.0174 17.9216V6.07862C13.0174 5.53936 12.5818 5.10381 12.0426 5.10381Z" fill="white"/>
<path d="M17.4123 13.1616C16.8731 13.1616 16.4375 13.5971 16.4375 14.1364V17.9216C16.4375 18.4505 16.8731 18.886 17.4019 18.886C17.9412 18.886 18.3768 18.4505 18.3768 17.9216V14.1364C18.3768 13.5971 17.9412 13.1616 17.4123 13.1616Z" fill="white"/>
</svg>
