<svg width="16" height="17" viewBox="0 0 14 15" fill="none" xmlns="http://www.w3.org/2000/svg">
<path d="M6.18268 8.54935L4.91393 7.2806C4.80699 7.17366 4.67574 7.12018 4.52018 7.12018C4.36463 7.12018 4.22852 7.17852 4.11185 7.29518C4.0049 7.40213 3.95143 7.53824 3.95143 7.70352C3.95143 7.86879 4.0049 8.00491 4.11185 8.11185L5.77435 9.77435C5.88129 9.88129 6.01741 9.93477 6.18268 9.93477C6.34796 9.93477 6.48407 9.88129 6.59102 9.77435L9.90143 6.46393C10.0084 6.35699 10.0618 6.22574 10.0618 6.07018C10.0618 5.91463 10.0035 5.77852 9.88685 5.66185C9.77991 5.5549 9.64379 5.50143 9.47852 5.50143C9.31324 5.50143 9.17713 5.5549 9.07018 5.66185L6.18268 8.54935ZM6.99935 13.3327C6.1924 13.3327 5.43407 13.1795 4.72435 12.873C4.01463 12.567 3.39727 12.1514 2.87227 11.6264C2.34727 11.1014 1.93174 10.4841 1.62568 9.77435C1.31924 9.06463 1.16602 8.30629 1.16602 7.49935C1.16602 6.6924 1.31924 5.93407 1.62568 5.22435C1.93174 4.51463 2.34727 3.89727 2.87227 3.37227C3.39727 2.84727 4.01463 2.43154 4.72435 2.1251C5.43407 1.81904 6.1924 1.66602 6.99935 1.66602C7.80629 1.66602 8.56463 1.81904 9.27435 2.1251C9.98407 2.43154 10.6014 2.84727 11.1264 3.37227C11.6514 3.89727 12.067 4.51463 12.373 5.22435C12.6795 5.93407 12.8327 6.6924 12.8327 7.49935C12.8327 8.30629 12.6795 9.06463 12.373 9.77435C12.067 10.4841 11.6514 11.1014 11.1264 11.6264C10.6014 12.1514 9.98407 12.567 9.27435 12.873C8.56463 13.1795 7.80629 13.3327 6.99935 13.3327Z" fill="#219653"/>
</svg>
