<svg width="8" height="6" viewBox="0 0 8 6" fill="none" xmlns="http://www.w3.org/2000/svg">
<path d="M6.59834 0.180953C6.7216 0.0636054 6.88562 -0.00126886 7.0558 1.88084e-05C7.22599 0.00130648 7.38901 0.0686555 7.51048 0.187854C7.63195 0.307053 7.70236 0.468779 7.70686 0.638905C7.71136 0.809031 7.64959 0.974252 7.53459 1.0997L4.04334 5.46595C3.98331 5.53061 3.91085 5.5825 3.8303 5.61852C3.74976 5.65454 3.66278 5.67395 3.57456 5.67558C3.48634 5.67722 3.3987 5.66104 3.31688 5.62803C3.23505 5.59502 3.16072 5.54585 3.09834 5.48345L0.783089 3.1682C0.718613 3.10812 0.666898 3.03567 0.63103 2.95517C0.595162 2.87467 0.575876 2.78778 0.574321 2.69966C0.572766 2.61155 0.588975 2.52402 0.621981 2.4423C0.654987 2.36059 0.704114 2.28636 0.76643 2.22404C0.828747 2.16173 0.902976 2.1126 0.984691 2.0796C1.06641 2.04659 1.15393 2.03038 1.24205 2.03193C1.33016 2.03349 1.41706 2.05278 1.49756 2.08864C1.57806 2.12451 1.65051 2.17623 1.71059 2.2407L3.54284 4.07208L6.58171 0.200203C6.58719 0.193466 6.59215 0.187039 6.59834 0.180953Z" fill="white"/>
</svg>
