<svg width="12" height="20" viewBox="0 0 12 20" fill="none" xmlns="http://www.w3.org/2000/svg">
<path fill-rule="evenodd" clip-rule="evenodd" d="M1.03466 19.0514C0.65598 18.6762 0.653377 18.0681 1.03727 17.693L9.58431 9.32032C9.9669 8.94522 10.585 8.9465 10.965 9.32288C11.1537 9.5098 11.25 9.7556 11.25 10.0001C11.25 10.2472 11.1537 10.493 10.9624 10.6799L2.41536 19.0526C2.03277 19.4277 1.41465 19.4265 1.03466 19.0514ZM1.0374 2.30824C0.653507 1.93313 0.65611 1.32502 1.03479 0.949917C1.41478 0.573528 2.0329 0.572248 2.41549 0.946075L8.09183 6.50612C8.28313 6.69303 8.37943 6.94012 8.37943 7.18592C8.37943 7.43044 8.28313 7.67625 8.09444 7.86316C7.71445 8.23955 7.09633 8.24083 6.71374 7.867L1.0374 2.30824Z" fill="#8196B3"/>
</svg>
