<svg width="12" height="12" viewBox="0 0 12 12" fill="none" xmlns="http://www.w3.org/2000/svg">
<g clip-path="url(#clip0_30561_80125)">
<path d="M6 12C2.68631 12 0 9.31369 0 6C0 2.68612 2.68631 0 6 0C9.31388 0 12 2.68612 12 6C12 9.31369 9.31388 12 6 12ZM6 0.738188C3.10519 0.738188 0.75 3.10519 0.75 6.00002C0.75 8.89484 3.10519 11.25 6 11.25C8.89481 11.25 11.25 8.89482 11.25 6.00002C11.25 3.10522 8.89481 0.738188 6 0.738188ZM8.625 6.375H6.375V8.625C6.375 8.832 6.207 9 6 9C5.793 9 5.625 8.832 5.625 8.625V6.375H3.375C3.168 6.375 3 6.207 3 6C3 5.793 3.168 5.625 3.375 5.625H5.625V3.375C5.625 3.168 5.793 3 6 3C6.207 3 6.375 3.168 6.375 3.375V5.625H8.625C8.832 5.625 9 5.793 9 6C9 6.207 8.832 6.375 8.625 6.375Z" fill="#E47D05"/>
</g>
<defs>
<clipPath id="clip0_30561_80125">
<rect width="12" height="12" fill="white" transform="matrix(1 0 0 -1 0 12)"/>
</clipPath>
</defs>
</svg>
