<svg width="24" height="18" viewBox="0 0 24 18" fill="none" xmlns="http://www.w3.org/2000/svg">
<path d="M4.91335 0.374861C4.81389 0.265459 4.67505 0.200047 4.52737 0.193014C4.37968 0.185982 4.23525 0.237905 4.12585 0.337361C4.01645 0.436817 3.95104 0.575659 3.944 0.723344C3.93697 0.871029 3.98889 1.01546 4.08835 1.12486L6.03835 3.28111C2.55085 5.33424 1.05085 8.62486 0.985224 8.77486C0.9525 8.84536 0.935547 8.92214 0.935547 8.99986C0.935547 9.07758 0.9525 9.15437 0.985224 9.22486C1.02272 9.29986 1.80085 11.0342 3.5446 12.7686C5.28835 14.503 7.9321 16.3124 12.0008 16.3124C13.7021 16.3226 15.3851 15.961 16.9321 15.253L19.0883 17.6249C19.14 17.6835 19.2034 17.7305 19.2745 17.7628C19.3456 17.7951 19.4228 17.812 19.5008 17.8124C19.6407 17.8133 19.7753 17.7595 19.8758 17.6624C19.9317 17.6142 19.9771 17.5551 20.0094 17.4888C20.0417 17.4225 20.0601 17.3503 20.0636 17.2767C20.0671 17.203 20.0556 17.1294 20.0298 17.0603C20.004 16.9912 19.9643 16.9281 19.9133 16.8749L4.91335 0.374861ZM9.47897 7.05924L13.6977 11.6999C13.0645 12.0946 12.3128 12.2548 11.5737 12.1523C10.8345 12.0498 10.1548 11.6913 9.65281 11.1391C9.15086 10.587 8.85853 9.87621 8.82676 9.13067C8.795 8.38514 9.0258 7.65209 9.47897 7.05924ZM12.0008 15.1874C9.0571 15.1874 6.48835 14.1186 4.3696 12.0092C3.47619 11.124 2.72088 10.1096 2.12897 8.99986C2.5321 8.23111 4.01335 5.69986 6.81647 4.13424L8.71022 6.21549C8.03752 7.01423 7.6775 8.02994 7.697 9.07404C7.7165 10.1181 8.11419 11.1197 8.81626 11.8928C9.51832 12.6658 10.477 13.1579 11.5144 13.2776C12.5518 13.3973 13.5974 13.1365 14.4571 12.5436L16.1258 14.3811C14.8183 14.9222 13.4158 15.1963 12.0008 15.1874ZM23.0165 9.22486C22.979 9.31861 22.0415 11.3811 19.9321 13.2749C19.8286 13.3662 19.6951 13.4162 19.5571 13.4155C19.4777 13.4147 19.3993 13.3977 19.3267 13.3654C19.2542 13.3332 19.189 13.2864 19.1352 13.228C19.0857 13.1727 19.0477 13.1082 19.0232 13.0381C18.9988 12.9681 18.9885 12.8939 18.9928 12.8198C18.9972 12.7457 19.0161 12.6732 19.0486 12.6065C19.0811 12.5398 19.1265 12.4802 19.1821 12.4311C20.2718 11.4527 21.1824 10.2915 21.8727 8.99986C21.2808 7.89016 20.5255 6.8757 19.6321 5.99049C17.5133 3.88111 14.9446 2.81236 12.0008 2.81236C11.3821 2.80991 10.7642 2.86009 10.154 2.96236C10.0125 2.97587 9.87117 2.93533 9.75837 2.84889C9.64557 2.76245 9.56967 2.63652 9.54592 2.49641C9.52218 2.35629 9.55234 2.21239 9.63036 2.0936C9.70837 1.97482 9.82846 1.88997 9.96647 1.85611C10.6386 1.74254 11.3192 1.68609 12.0008 1.68736C16.0696 1.68736 18.8446 3.60924 20.4571 5.23111C22.0696 6.85299 22.979 8.69986 23.0165 8.77486C23.0492 8.84536 23.0662 8.92214 23.0662 8.99986C23.0662 9.07758 23.0492 9.15437 23.0165 9.22486ZM12.6008 5.86861C12.4542 5.84126 12.3243 5.75676 12.2399 5.63368C12.1555 5.51061 12.1235 5.35906 12.1508 5.21236C12.1782 5.06566 12.2627 4.93584 12.3858 4.85145C12.5088 4.76706 12.6604 4.73501 12.8071 4.76236C13.7241 4.93997 14.5592 5.40928 15.1877 6.1003C15.8162 6.79132 16.2045 7.667 16.2946 8.59674C16.3077 8.74455 16.2618 8.89153 16.1669 9.00566C16.0721 9.1198 15.936 9.19185 15.7883 9.20611H15.7321C15.5932 9.20661 15.4591 9.15481 15.3567 9.06102C15.2542 8.96722 15.1907 8.83829 15.179 8.69986C15.1125 8.01287 14.8254 7.36586 14.3607 6.85554C13.896 6.34521 13.2786 5.99899 12.6008 5.86861Z" fill="#00A551"/>
</svg>
