<svg width="15" height="15" viewBox="0 0 15 15" fill="none" xmlns="http://www.w3.org/2000/svg">
<path d="M7.5 10V13.75M7.5 10L8.75 11.25M7.5 10L6.25 11.25" stroke="#9EA8B7" stroke-linecap="round" stroke-linejoin="round"/>
<path d="M13.75 8.34562C13.75 9.81 12.8475 11.0662 11.5625 11.6M8.98812 5.01688C9.37089 4.88351 9.77342 4.81568 10.1787 4.81625C10.5875 4.81625 10.9806 4.88438 11.3475 5.00938M11.3475 5.00938C11.1481 3.24625 9.635 1.875 7.7975 1.875C5.825 1.875 4.22625 3.455 4.22625 5.40438C4.22575 5.8231 4.3007 6.23848 4.4475 6.63063M11.3475 5.00938C11.8962 5.19742 12.391 5.51593 12.7894 5.9375M4.4475 6.63063C4.27658 6.59739 4.10287 6.58065 3.92875 6.58063C2.44937 6.58125 1.25 7.76625 1.25 9.22813C1.25 10.4131 2.03813 11.4162 3.125 11.7537M4.4475 6.63063C4.79331 6.69779 5.1225 6.83244 5.41625 7.02688" stroke="#9EA8B7" stroke-linecap="round"/>
</svg>
