<svg xmlns="http://www.w3.org/2000/svg" width="19" height="19" viewBox="0 0 19 19" fill="none">
  <path d="M9.04086 1.5918C4.6727 1.5918 1.13086 5.13364 1.13086 9.5018C1.13086 13.87 4.6727 17.4118 9.04086 17.4118C13.409 17.4118 16.9509 13.87 16.9509 9.5018C16.9509 5.13364 13.409 1.5918 9.04086 1.5918ZM9.04086 16.0699C5.41427 16.0699 2.47273 13.1284 2.47273 9.5018C2.47273 5.8752 5.41427 2.93367 9.04086 2.93367C12.6675 2.93367 15.609 5.8752 15.609 9.5018C15.609 13.1284 12.6675 16.0699 9.04086 16.0699Z" fill="#FF5050"/>
  <path d="M9.04078 2.93359C5.41419 2.93359 2.47266 5.87513 2.47266 9.50172C2.47266 13.1283 5.41419 16.0698 9.04078 16.0698C12.6674 16.0698 15.6089 13.1283 15.6089 9.50172C15.6089 5.87513 12.6674 2.93359 9.04078 2.93359ZM9.60578 13.3155C9.60578 13.3932 9.54222 13.4567 9.46453 13.4567H8.61703C8.53934 13.4567 8.47578 13.3932 8.47578 13.3155V8.51297C8.47578 8.43528 8.53934 8.37172 8.61703 8.37172H9.46453C9.54222 8.37172 9.60578 8.43528 9.60578 8.51297V13.3155ZM9.04078 7.24172C8.81901 7.23719 8.60784 7.14591 8.4526 6.98747C8.29736 6.82902 8.21041 6.61604 8.21041 6.39422C8.21041 6.1724 8.29736 5.95941 8.4526 5.80097C8.60784 5.64253 8.81901 5.55125 9.04078 5.54672C9.26256 5.55125 9.47372 5.64253 9.62896 5.80097C9.78421 5.95941 9.87116 6.1724 9.87116 6.39422C9.87116 6.61604 9.78421 6.82902 9.62896 6.98747C9.47372 7.14591 9.26256 7.23719 9.04078 7.24172Z" fill="#F75151" fill-opacity="0.15"/>
  <path d="M8.19336 6.39437C8.19336 6.61915 8.28265 6.83471 8.44159 6.99365C8.60052 7.15259 8.81609 7.24187 9.04086 7.24187C9.26563 7.24187 9.48119 7.15259 9.64013 6.99365C9.79907 6.83471 9.88836 6.61915 9.88836 6.39437C9.88836 6.1696 9.79907 5.95404 9.64013 5.7951C9.48119 5.63616 9.26563 5.54688 9.04086 5.54688C8.81609 5.54688 8.60052 5.63616 8.44159 5.7951C8.28265 5.95404 8.19336 6.1696 8.19336 6.39437ZM9.46461 8.37188H8.61711C8.53942 8.37188 8.47586 8.43544 8.47586 8.51312V13.3156C8.47586 13.3933 8.53942 13.4569 8.61711 13.4569H9.46461C9.5423 13.4569 9.60586 13.3933 9.60586 13.3156V8.51312C9.60586 8.43544 9.5423 8.37188 9.46461 8.37188Z" fill="#FF5050"/>
</svg>