<svg width="18" height="18" viewBox="0 0 18 18" fill="none" xmlns="http://www.w3.org/2000/svg">
<path fill-rule="evenodd" clip-rule="evenodd" d="M2.42188 9.00045C2.42188 8.90865 2.45834 8.8206 2.52326 8.75568C2.58818 8.69077 2.67622 8.6543 2.76803 8.6543H15.2296C15.3214 8.6543 15.4094 8.69077 15.4743 8.75568C15.5393 8.8206 15.5757 8.90865 15.5757 9.00045C15.5757 9.09226 15.5393 9.1803 15.4743 9.24522C15.4094 9.31014 15.3214 9.3466 15.2296 9.3466H2.76803C2.67622 9.3466 2.58818 9.31014 2.52326 9.24522C2.45834 9.1803 2.42188 9.09226 2.42188 9.00045Z" fill="#FF5050"/>
<path fill-rule="evenodd" clip-rule="evenodd" d="M8.99955 16.9611C13.3964 16.9611 16.9611 13.3964 16.9611 8.99955C16.9611 4.6027 13.3964 1.03801 8.99955 1.03801C4.6027 1.03801 1.03801 4.6027 1.03801 8.99955C1.03801 13.3964 4.6027 16.9611 8.99955 16.9611ZM8.99955 17.6534C13.7792 17.6534 17.6534 13.7792 17.6534 8.99955C17.6534 4.21986 13.7792 0.345703 8.99955 0.345703C4.21986 0.345703 0.345703 4.21986 0.345703 8.99955C0.345703 13.7792 4.21986 17.6534 8.99955 17.6534Z" fill="#FF5050"/>
</svg>
