<svg width="8" height="12" viewBox="0 0 8 12" fill="none" xmlns="http://www.w3.org/2000/svg">
<path opacity="0.4" d="M4.49377 7.99845L4.69824 10.3105C4.69824 10.8293 4.27347 11.25 3.74956 11.25C3.22564 11.25 2.80087 10.8293 2.80087 10.3105L3.00534 7.99845C3.00534 7.59141 3.33855 7.26141 3.74956 7.26141C4.16125 7.26141 4.49377 7.59141 4.49377 7.99845Z" fill="#607087"/>
<path d="M4.45635 0.233C4.49284 0.269136 4.64705 0.404135 4.77511 0.530951C5.57715 1.27072 6.88865 3.20228 7.29002 4.21272C7.35405 4.36613 7.49036 4.75408 7.5 4.96203C7.5 5.16044 7.45387 5.34998 7.363 5.53066C7.23563 5.75634 7.03461 5.93634 6.79778 6.03588C6.63393 6.09929 6.14168 6.19884 6.13273 6.19884C5.59505 6.2977 4.72072 6.35156 3.75413 6.35156C2.83436 6.35156 1.99582 6.2977 1.44919 6.21656C1.43955 6.2077 0.828897 6.10816 0.619607 5.99975C0.236827 5.80134 0 5.41339 0 4.99817V4.96203C0.00894976 4.69136 0.246466 4.12273 0.254727 4.12273C0.656096 3.16615 1.90426 1.28026 2.73384 0.522088C2.73384 0.522088 2.94726 0.308 3.08014 0.215273C3.27153 0.0707297 3.50835 -0.00154209 3.74518 -0.00154209C4.00955 -0.00154209 4.25532 0.0795932 4.45635 0.233Z" fill="#607087"/>
</svg>
