<svg width="17" height="17" viewBox="0 0 17 17" fill="none" xmlns="http://www.w3.org/2000/svg">
<path d="M14.1032 6.39017C14.1032 6.39017 13.6507 12.0027 13.3882 14.3668C13.2632 15.496 12.5657 16.1577 11.4232 16.1785C9.24901 16.2177 7.07234 16.2202 4.89901 16.1743C3.79984 16.1518 3.11401 15.4818 2.99151 14.3727C2.72734 11.9877 2.27734 6.39017 2.27734 6.39017" stroke="#F75151" stroke-width="1.5" stroke-linecap="round" stroke-linejoin="round"/>
<path d="M15.2567 3.69975H1.125" stroke="#F75151" stroke-width="1.5" stroke-linecap="round" stroke-linejoin="round"/>
<path d="M12.5335 3.69975C11.8793 3.69975 11.316 3.23725 11.1877 2.59642L10.9852 1.58308C10.8602 1.11558 10.4368 0.792252 9.95432 0.792252H6.42682C5.94432 0.792252 5.52099 1.11558 5.39599 1.58308L5.19349 2.59642C5.06516 3.23725 4.50182 3.69975 3.84766 3.69975" stroke="#F75151" stroke-width="1.5" stroke-linecap="round" stroke-linejoin="round"/>
</svg>
