<svg
                  xmlns="http://www.w3.org/2000/svg"
                  width="18"
                  height="18"
                  viewBox="0 0 18 18"
                  fill="none"
                >
                  <path
                    d="M14.4929 7.10107C14.4929 7.10107 14.0856 12.1523 13.8494 14.2801C13.7369 15.2963 13.1091 15.8918 12.0809 15.9106C10.1241 15.9458 8.16511 15.9481 6.20911 15.9068C5.21986 15.8866 4.60261 15.2836 4.49236 14.2853C4.25461 12.1388 3.84961 7.10107 3.84961 7.10107"
                    stroke="#607087"
                    stroke-linecap="round"
                    stroke-linejoin="round"
                  />
                  <path
                    d="M15.531 4.67969H2.8125"
                    stroke="#607087"
                    stroke-linecap="round"
                    stroke-linejoin="round"
                  />
                  <path
                    d="M13.0809 4.67974C12.4922 4.67974 11.9852 4.26349 11.8697 3.68674L11.6874 2.77474C11.5749 2.35399 11.1939 2.06299 10.7597 2.06299H7.58492C7.15067 2.06299 6.76967 2.35399 6.65717 2.77474L6.47492 3.68674C6.35942 4.26349 5.85242 4.67974 5.26367 4.67974"
                    stroke="#607087"
                    stroke-linecap="round"
                    stroke-linejoin="round"
                  />
                </svg>