<svg width="15" height="15" viewBox="0 0 15 15" fill="none" xmlns="http://www.w3.org/2000/svg">
<path d="M11.25 7.51875V6.25H12.5V7.6125C12.1875 7.54375 11.875 7.5 11.5625 7.5C11.4563 7.5 11.3562 7.5 11.25 7.51875ZM5.9375 6.875C5.7625 6.875 5.625 7.0125 5.625 7.1875V8.125H9.375V7.1875C9.375 7.0125 9.2375 6.875 9.0625 6.875H5.9375ZM3.75 11.875V6.25H2.5V13.125H7.8125C7.65 12.7375 7.55625 12.3125 7.51875 11.875H3.75ZM13.125 5.625H1.875V1.875H13.125V5.625ZM11.875 3.125H3.125V4.375H11.875V3.125ZM13.75 11.5625V9.0625L13.0188 9.79375C12.7866 9.56139 12.5109 9.37717 12.2073 9.25168C11.9038 9.12619 11.5785 9.0619 11.25 9.0625C9.86875 9.0625 8.75 10.1812 8.75 11.5625C8.75 12.9438 9.86875 14.0625 11.25 14.0625C12.3 14.0625 13.2 13.4187 13.5687 12.5H12.5C12.3086 12.7545 12.0441 12.9444 11.7418 13.0444C11.4395 13.1444 11.1138 13.1496 10.8085 13.0594C10.5031 12.9692 10.2326 12.7878 10.0332 12.5396C9.83373 12.2914 9.71489 11.9882 9.69255 11.6705C9.67021 11.3529 9.74544 11.036 9.90817 10.7624C10.0709 10.4887 10.3134 10.2712 10.6031 10.1392C10.8928 10.0071 11.216 9.96668 11.5293 10.0234C11.8426 10.08 12.1311 10.2311 12.3563 10.4562L11.25 11.5625H13.75Z" fill="#607087"/>
</svg>
