<svg width="90" height="100" viewBox="0 0 90 100" fill="none" xmlns="http://www.w3.org/2000/svg">
<path opacity="0.4" d="M65.955 0H24.05C8.85 0 0 8.9 0 24.15V75.8C0 91.3 8.85 100 24.05 100H65.955C81.4 100 90 91.3 90 75.8V24.15C90 8.9 81.4 0 65.955 0Z" fill="#8196B3"/>
<path fill-rule="evenodd" clip-rule="evenodd" d="M25.4008 23.25V23.3C23.2458 23.3 21.5008 25.05 21.5008 27.2C21.5008 29.35 23.2458 31.1 25.4008 31.1H40.3458C42.5008 31.1 44.2508 29.35 44.2508 27.145C44.2508 25 42.5008 23.25 40.3458 23.25H25.4008ZM64.6008 53.7H25.4008C23.2458 53.7 21.5008 51.95 21.5008 49.8C21.5008 47.65 23.2458 45.895 25.4008 45.895H64.6008C66.7508 45.895 68.5008 47.65 68.5008 49.8C68.5008 51.95 66.7508 53.7 64.6008 53.7ZM64.6008 76.55H25.4008C23.9008 76.75 22.4508 76 21.6508 74.75C20.8508 73.45 20.8508 71.8 21.6508 70.55C22.4508 69.25 23.9008 68.55 25.4008 68.7H64.6008C66.5958 68.9 68.1008 70.6 68.1008 72.65C68.1008 74.645 66.5958 76.35 64.6008 76.55Z" fill="#8196B3"/>
</svg>
