<svg width="14" height="5" viewBox="0 0 14 9" fill="none" xmlns="http://www.w3.org/2000/svg">
<path fill-rule="evenodd" clip-rule="evenodd" d="M0.534416 0.953331C0.80235 0.682843 1.23671 0.680984 1.50465 0.95519L7.48516 7.06022C7.75309 7.3335 7.75218 7.77502 7.48333 8.04644C7.34982 8.18122 7.17424 8.25 6.99958 8.25C6.82309 8.25 6.64752 8.18122 6.51401 8.04458L0.533502 1.93954C0.265568 1.66627 0.266482 1.22475 0.534416 0.953331ZM12.4938 0.955283C12.7617 0.681077 13.1961 0.682936 13.464 0.953424C13.7329 1.22484 13.7338 1.66636 13.4668 1.93964L9.4953 5.99417C9.36179 6.13081 9.1853 6.19959 9.00973 6.19959C8.83507 6.19959 8.65949 6.13081 8.52598 5.99603C8.25714 5.72461 8.25622 5.28309 8.52324 5.00981L12.4938 0.955283Z" fill="#8196B3"/>
</svg>
