<svg width="15" height="8" viewBox="0 0 15 8" fill="none" xmlns="http://www.w3.org/2000/svg">
<path fill-rule="evenodd" clip-rule="evenodd" d="M1.03442 0.453331C1.30235 0.182843 1.73671 0.180984 2.00465 0.45519L7.98516 6.56022C8.25309 6.8335 8.25218 7.27502 7.98333 7.54644C7.84982 7.68122 7.67424 7.75 7.49958 7.75C7.32309 7.75 7.14752 7.68122 7.01401 7.54458L1.0335 1.43954C0.765568 1.16627 0.766482 0.724748 1.03442 0.453331ZM12.9938 0.455283C13.2617 0.181077 13.6961 0.182936 13.964 0.453424C14.2329 0.724841 14.2338 1.16636 13.9668 1.43964L9.9953 5.49417C9.86179 5.63081 9.6853 5.69959 9.50973 5.69959C9.33507 5.69959 9.15949 5.63081 9.02598 5.49603C8.75714 5.22461 8.75622 4.78309 9.02324 4.50981L12.9938 0.455283Z" fill="white"/>
</svg>
