<svg width="22" height="22" viewBox="0 0 22 22" fill="none" xmlns="http://www.w3.org/2000/svg">
<path d="M21.5805 4.54697L17.6672 0.613639C17.4086 0.356349 17.0586 0.211914 16.6939 0.211914C16.3291 0.211914 15.9791 0.356349 15.7205 0.613639L1.84719 14.467L0.580526 19.9336C0.53683 20.1335 0.538328 20.3406 0.58491 20.5397C0.631492 20.7389 0.721982 20.9252 0.849768 21.0849C0.977555 21.2446 1.13941 21.3738 1.32351 21.463C1.50761 21.5522 1.70931 21.5991 1.91386 21.6003C2.00917 21.6099 2.10521 21.6099 2.20053 21.6003L7.72719 20.3336L21.5805 6.49364C21.8378 6.23504 21.9823 5.88509 21.9823 5.52031C21.9823 5.15552 21.8378 4.80557 21.5805 4.54697ZM7.06053 19.1336L1.88053 20.2203L3.06053 15.1403L13.4405 4.80031L17.4405 8.80031L7.06053 19.1336ZM18.3339 7.83364L14.3339 3.83364L16.6539 1.52697L20.5872 5.52697L18.3339 7.83364Z" fill="#8196B3"/>
</svg>
