<svg width="18" height="19" viewBox="0 0 18 19" fill="none" xmlns="http://www.w3.org/2000/svg">
<path fill-rule="evenodd" clip-rule="evenodd" d="M14.6223 2.38789C15.2528 2.88768 15.6839 3.54497 15.8346 4.24006C16.0029 5.016 15.8169 5.80349 15.312 6.45448L6.70121 17.5591C6.26594 18.1208 5.61148 18.4484 4.90404 18.4579L1.58187 18.4999H1.57252C1.20997 18.4999 0.895206 18.2479 0.813139 17.8909L0.0610285 14.6213C-0.0989507 13.9251 0.0589509 13.2038 0.495258 12.642L1.6255 11.1836C1.8904 10.8413 2.38073 10.7804 2.71938 11.0503C3.05804 11.318 3.11726 11.8136 2.85132 12.1559L1.72107 13.6143C1.57771 13.7991 1.52577 14.0354 1.57875 14.2643L2.18854 16.9165L4.8843 16.8829C5.11596 16.8798 5.33099 16.7727 5.47435 16.5879L14.0852 5.48324C14.3054 5.19975 14.3812 4.89525 14.3127 4.57606C14.2389 4.23901 14.0083 3.90197 13.6613 3.62792L12.2174 2.48239C11.6585 2.04139 10.87 1.8146 10.3319 2.51074L9.19439 3.97652L10.9999 5.44019C11.3354 5.71109 11.3894 6.20773 11.1204 6.54583C10.9666 6.74112 10.7402 6.84192 10.5116 6.84192C10.3413 6.84192 10.1688 6.78522 10.0254 6.66867L8.23347 5.21655L5.28736 9.01644C5.02142 9.35873 4.53214 9.42068 4.19244 9.14979C3.85482 8.88204 3.79561 8.38645 4.06051 8.04415L9.10505 1.53845C10.0836 0.274271 11.7977 0.150373 13.1783 1.24341L14.6223 2.38789ZM10.5963 16.925H17.2209C17.651 16.925 18 17.2778 18 17.7125C18 18.1472 17.651 18.5 17.2209 18.5H10.5963C10.1652 18.5 9.81717 18.1472 9.81717 17.7125C9.81717 17.2778 10.1652 16.925 10.5963 16.925Z" fill="#8196B3"/>
</svg>
