<svg width="40" height="41" viewBox="0 0 40 41" fill="none" xmlns="http://www.w3.org/2000/svg">
<g opacity="0.6">
<path opacity="0.4" d="M26.985 3.83398H13.0167C7.95 3.83398 5 6.80065 5 11.884V29.1007C5 34.2673 7.95 37.1673 13.0167 37.1673H26.985C32.1333 37.1673 35 34.2673 35 29.1007V11.884C35 6.80065 32.1333 3.83398 26.985 3.83398" fill="#9EA8B7"/>
<path fill-rule="evenodd" clip-rule="evenodd" d="M13.4666 11.584V11.6007C12.7483 11.6007 12.1666 12.184 12.1666 12.9007C12.1666 13.6173 12.7483 14.2007 13.4666 14.2007H18.4483C19.1666 14.2007 19.7499 13.6173 19.7499 12.8823C19.7499 12.1673 19.1666 11.584 18.4483 11.584H13.4666ZM26.5333 21.734H13.4666C12.7483 21.734 12.1666 21.1507 12.1666 20.434C12.1666 19.7173 12.7483 19.1323 13.4666 19.1323H26.5333C27.2499 19.1323 27.8333 19.7173 27.8333 20.434C27.8333 21.1507 27.2499 21.734 26.5333 21.734ZM26.5333 29.3507H13.4666C12.9666 29.4173 12.4833 29.1673 12.2166 28.7507C11.9499 28.3173 11.9499 27.7673 12.2166 27.3507C12.4833 26.9173 12.9666 26.684 13.4666 26.734H26.5333C27.1983 26.8007 27.6999 27.3673 27.6999 28.0507C27.6999 28.7157 27.1983 29.284 26.5333 29.3507Z" fill="#9EA8B7"/>
</g>
</svg>
