<svg width="145" height="141" viewBox="0 0 145 141" fill="none" xmlns="http://www.w3.org/2000/svg">
<path d="M2.1285 30.2088C2.0488 30.1787 1.98947 30.1054 1.98287 30.0166C1.961 29.7231 1.94495 29.4248 1.93518 29.1292C1.93118 29.0082 2.02797 28.9079 2.15142 28.9058C2.45068 28.8991 2.36968 29.1978 2.42886 29.9906C2.438 30.1122 2.34542 30.2161 2.22223 30.2228C2.18934 30.2249 2.15755 30.2197 2.1285 30.2088Z" fill="#91B3FA"/>
<path d="M33.5032 9.60191C31.9872 8.86884 31.6921 8.94418 31.8142 8.63402C31.8916 8.43711 32.1301 8.51089 32.1031 8.51192C32.6418 8.72338 33.1775 8.95768 33.6955 9.20758C33.8072 9.26161 33.8544 9.39358 33.8009 9.50216C33.7505 9.60607 33.6217 9.65698 33.5032 9.60191ZM27.4649 7.4531C27.4851 7.33361 27.6003 7.25412 27.7218 7.27594C28.2886 7.37673 28.8591 7.50038 29.4181 7.6443C29.7054 7.71807 29.5979 8.14305 29.3111 8.06927C28.7635 7.92848 28.204 7.8069 27.6491 7.70871C27.5257 7.68637 27.4449 7.57104 27.4649 7.4531ZM37.3016 11.9357C35.9622 10.9127 35.6614 10.9293 35.8448 10.6524C35.9118 10.5511 36.05 10.5241 36.1539 10.5911C36.6376 10.9044 37.1145 11.2405 37.5728 11.5902C37.8076 11.7694 37.5374 12.1154 37.3016 11.9357ZM22.9763 7.1606C22.9711 7.03955 23.0669 6.93824 23.1904 6.93513C23.7642 6.92006 24.3471 6.92733 24.9225 6.95643C25.2189 6.97253 25.2009 7.4105 24.906 7.39544C24.3423 7.36686 23.7714 7.36011 23.209 7.37465C23.0859 7.37829 22.9815 7.28217 22.9763 7.1606ZM18.6758 7.93211C18.6089 7.90665 18.555 7.85107 18.5362 7.77781C18.5059 7.65936 18.5785 7.5409 18.6981 7.51285C19.2554 7.38297 19.8253 7.27282 20.3921 7.18554C20.5137 7.16684 20.6294 7.24893 20.6502 7.36894C20.671 7.48895 20.5893 7.60117 20.4675 7.61987C19.9122 7.70508 19.3538 7.81314 18.8079 7.94095C18.7624 7.95134 18.7166 7.9477 18.6758 7.93211ZM14.4546 9.3837C14.4022 9.36396 14.3572 9.32551 14.3309 9.272C14.2769 9.16186 14.3232 9.03094 14.4344 8.97951C14.9524 8.74 15.486 8.51816 16.0206 8.31969C16.1356 8.27709 16.2653 8.33424 16.3106 8.44802C16.3556 8.5618 16.2991 8.68856 16.1842 8.73116C15.6603 8.92547 15.1373 9.14316 14.6296 9.37799C14.5727 9.40449 14.5097 9.40448 14.4546 9.3837ZM10.5319 11.5777C10.4566 11.48 10.4749 11.3424 10.5727 11.2701C11.0289 10.9319 11.5043 10.6072 11.9858 10.3059C12.2338 10.1511 12.478 10.522 12.2302 10.6774C11.7583 10.973 11.2925 11.2909 10.8455 11.6224C10.7478 11.6946 10.6073 11.6749 10.5319 11.5777ZM7.29909 14.6009C7.20541 14.5204 7.19466 14.3817 7.27524 14.2907C7.64993 13.8678 8.04701 13.4538 8.45526 13.0605C8.66521 12.8589 8.98041 13.1753 8.77073 13.3769C8.37073 13.7624 7.9816 14.1676 7.61434 14.5822C7.53392 14.6731 7.3925 14.6814 7.29909 14.6009ZM4.68623 17.9202C4.96351 17.4293 5.26432 16.943 5.58056 16.4754C5.74375 16.2343 6.11641 16.4827 5.95421 16.7222C5.64436 17.1809 5.34957 17.6568 5.07796 18.1379C4.93509 18.3909 4.54367 18.1722 4.68623 17.9202ZM2.91523 22.0028C3.08569 21.4619 3.28083 20.918 3.48896 20.4047C3.6004 20.1283 4.01203 20.308 3.90469 20.5725C3.69771 21.0842 3.50943 21.6095 3.34266 22.1384C3.30629 22.2542 3.18108 22.3171 3.06309 22.2797C2.94376 22.2417 2.87928 22.1171 2.91523 22.0028ZM2.0235 26.3658C2.07821 25.8037 2.1565 25.2374 2.25604 24.6815C2.27745 24.5625 2.39336 24.4841 2.51498 24.5074C2.84619 24.5713 2.63021 24.7579 2.46864 26.4141C2.45685 26.5352 2.34774 26.622 2.22477 26.6085C2.10013 26.5949 2.01181 26.4853 2.0235 26.3658Z" fill="#91B3FA"/>
<path d="M40.0103 14.3853C39.497 13.8367 39.1785 13.6512 39.392 13.4418C39.4783 13.3566 39.6201 13.3576 39.7079 13.4444C40.2622 13.9904 40.5397 14.2081 40.3267 14.4009C40.2628 14.4585 40.0944 14.4752 40.0103 14.3853Z" fill="#91B3FA"/>
<path d="M45.991 30.4052C45.9016 30.3714 45.8403 30.2836 45.8455 30.1854C45.8611 29.8966 45.8705 29.6046 45.8741 29.3163C45.8757 29.1952 45.977 29.0996 46.1006 29.1027C46.2237 29.1064 46.323 29.2072 46.3214 29.3287C46.3178 29.6223 46.3079 29.9205 46.2918 30.2151C46.2856 30.3361 46.1801 30.4281 46.057 30.4198C46.0341 30.4182 46.0118 30.413 45.991 30.4052Z" fill="#91B3FA"/>
<path d="M45.2041 35.0862C45.096 35.0452 45.0347 34.9293 45.0664 34.8187C45.2306 34.2441 45.3719 33.6575 45.4857 33.0761C45.509 32.9577 45.6265 32.8813 45.7475 32.9057C45.8691 32.9312 45.948 33.047 45.9252 33.166C45.8088 33.7593 45.6649 34.3573 45.4971 34.9434C45.4638 35.0597 45.3402 35.1262 45.2212 35.0919C45.2155 35.0899 45.2098 35.0883 45.2041 35.0862ZM43.3722 39.4581C43.0662 39.2924 43.3545 39.1828 44.0756 37.5546C44.1925 37.2906 44.604 37.4693 44.4861 37.7348C44.2403 38.2907 43.967 38.8414 43.6751 39.3729C43.6158 39.4805 43.4782 39.5169 43.3722 39.4581ZM40.5843 43.3058C40.322 43.0783 40.6311 43.0326 41.7003 41.607C41.8749 41.3747 42.2365 41.6386 42.0619 41.8714C41.6967 42.3577 41.306 42.8346 40.8997 43.2887C40.8192 43.3786 40.6784 43.3874 40.5843 43.3058ZM37.0982 46.5202C37.0588 46.5052 37.0224 46.4792 36.9959 46.4428C36.9226 46.3441 36.9434 46.2069 37.0432 46.1363C37.5315 45.7897 38.0105 45.4183 38.4672 45.0323C38.5602 44.9533 38.7015 44.9647 38.7831 45.0572C38.8641 45.1497 38.8548 45.2884 38.7618 45.3674C38.2958 45.7612 37.8069 46.1404 37.3086 46.4942C37.2453 46.5389 37.1663 46.5462 37.0982 46.5202ZM32.9139 48.8441C32.8588 48.8233 32.812 48.7818 32.7866 48.7251C32.7367 48.6129 32.7876 48.4841 32.9009 48.4368C33.4558 48.204 34.007 47.9453 34.54 47.6674C34.6486 47.6107 34.7842 47.6523 34.8434 47.7593C34.9027 47.8669 34.8627 47.9999 34.7541 48.0565C34.2106 48.3402 33.648 48.6041 33.0817 48.8415C33.0261 48.8649 32.9664 48.8639 32.9139 48.8441ZM28.3025 50.2079C28.2318 50.1809 28.1757 50.1201 28.1601 50.0422C28.1362 49.9227 28.2147 49.8084 28.3362 49.7866C28.9306 49.6795 29.528 49.546 30.1115 49.3896C30.2305 49.3579 30.3541 49.427 30.3884 49.5444C30.4222 49.6613 30.3536 49.7824 30.2351 49.8141C29.6397 49.9736 29.0298 50.1097 28.423 50.2188C28.3809 50.2266 28.3399 50.2219 28.3025 50.2079ZM23.4847 50.5394C23.3973 50.5061 23.3361 50.4214 23.3387 50.3248C23.3419 50.2037 23.4446 50.1092 23.568 50.1144C24.1755 50.1388 24.7901 50.1383 25.3946 50.1123C25.5182 50.1071 25.6238 50.2011 25.6309 50.3227C25.6383 50.4438 25.5442 50.5466 25.4209 50.5518C24.8038 50.5783 24.1764 50.5789 23.5564 50.5534C23.5313 50.5529 23.5071 50.5477 23.4847 50.5394ZM11.5268 46.5301C11.0173 46.1773 10.5158 45.7986 10.0367 45.4048C9.94136 45.3263 9.92749 45.1876 10.0059 45.0946C10.2269 44.8338 10.2866 45.1377 11.7805 46.1716C11.8822 46.2417 11.9079 46.3794 11.8378 46.4781C11.7677 46.5768 11.6286 46.6002 11.5268 46.5301ZM18.5539 49.5574C18.6386 49.2275 18.8342 49.4795 20.614 49.7944C20.7362 49.8151 20.8183 49.93 20.7983 50.0494C20.7782 50.1689 20.6632 50.2484 20.5413 50.2266C19.9323 50.1191 19.3182 49.9845 18.7161 49.8266C18.5956 49.7949 18.524 49.6738 18.5539 49.5574ZM15.835 48.8639C15.2597 48.6285 14.6875 48.3667 14.1344 48.0851C14.0241 48.029 13.9796 47.8965 14.0351 47.7889C14.1915 47.4855 14.3182 47.7697 16.0015 48.4586C16.1161 48.5054 16.1718 48.6342 16.1257 48.7459C16.0454 48.9418 15.8081 48.8649 15.835 48.8639Z" fill="#91B3FA"/>
<path d="M7.82331 43.3172C7.29448 42.7463 7.0278 42.5172 7.25006 42.3348C7.48125 42.1447 7.61067 42.4393 8.15196 43.0242C8.23576 43.1146 8.23 43.2533 8.13929 43.3344C8.04847 43.4154 7.90706 43.4076 7.82331 43.3172Z" fill="#91B3FA"/>
<path d="M10.2683 37.7608L13.4462 37.3676C14.4145 38.5064 15.5721 39.5044 16.8925 40.3076C17.0165 43.3724 16.808 43.5958 17.1355 43.7049L20.798 44.9253C20.905 44.9606 21.0223 44.9258 21.0899 44.8385L23.0187 42.3489C24.5559 42.4975 26.0788 42.392 27.5338 42.0605L29.8459 44.2831C29.927 44.361 30.0486 44.3803 30.1488 44.3314L33.5767 42.6611C33.677 42.6128 33.7336 42.5063 33.7181 42.3967L33.2697 39.2665C34.4137 38.3318 35.4117 37.2086 36.2092 35.9227L39.4158 35.9108C39.5286 35.9102 39.6273 35.8401 39.6621 35.7352L40.8477 32.153C40.8825 32.0485 40.8456 31.9327 40.7557 31.8651L38.1928 29.9309C38.3212 28.4222 38.1908 26.9233 37.8312 25.4878C39.9593 23.2554 40.258 23.2533 40.1026 22.9519C38.3263 19.6513 38.4277 19.3703 38.0796 19.4134L34.9016 19.8067C33.9337 18.6678 32.7761 17.6698 31.4555 16.8666C31.3318 13.8039 31.5402 13.5785 31.2123 13.4694C27.5527 12.3196 27.4654 12.0676 27.2581 12.3357L25.3292 14.8253C23.7921 14.6768 22.2692 14.7817 20.8141 15.1137C18.5384 13.0142 18.5085 12.6921 18.1994 12.8428C14.836 14.5552 14.5815 14.4398 14.6299 14.7775L15.0783 17.9078C13.9341 18.8424 12.9362 19.9656 12.1389 21.2515C9.0778 21.3258 8.79429 21.1117 8.68612 21.4391C7.5766 25.0036 7.31532 25.1002 7.59244 25.3091L10.155 27.2433C10.0271 28.7521 10.157 30.2509 10.5165 31.6864C8.39612 33.9116 8.08933 33.9194 8.24545 34.2223C10.0215 37.5229 9.92028 37.804 10.2683 37.7608Z" fill="#91B3FA"/>
<path d="M24.3767 25.5667C22.7003 25.4327 21.2111 26.6515 21.0975 28.3416C20.9856 30.0072 22.2745 31.4728 23.9708 31.6074C25.667 31.743 27.1381 30.4977 27.25 28.8326C27.3621 27.1643 26.0699 25.7013 24.3767 25.5667ZM23.9487 31.9363L23.9508 31.9368L23.9487 31.9363ZM20.4282 28.2886C20.5644 26.2603 22.3556 24.7448 24.4209 24.9095C26.486 25.0747 28.0554 26.8578 27.9193 28.8856C27.7831 30.9133 25.992 32.4293 23.9266 32.2651C21.8608 32.1005 20.2919 30.3158 20.4282 28.2886Z" fill="#BDD0FB"/>
<path d="M20.9066 37.3691C20.3862 37.1727 19.8831 36.9332 19.4068 36.6547C19.2636 36.5706 19.2047 36.4002 19.26 36.2536C19.2667 36.236 19.2749 36.2188 19.2848 36.2022C19.3777 36.0458 19.5835 35.9954 19.7433 36.089C20.2912 36.4095 20.8774 36.6745 21.4853 36.8771C26.0654 38.403 30.9895 36.0978 32.6417 31.7228C32.6843 31.6111 32.7243 31.4978 32.7622 31.3835C34.2922 26.7617 31.6914 21.7778 27.002 20.2145C22.3192 18.6543 17.2536 21.0987 15.7252 25.7081C14.817 28.4517 15.6108 30.2935 15.5041 30.5756C15.3888 30.8811 14.9371 30.8453 14.8625 30.5268C14.4548 28.7848 14.5455 26.9066 15.2162 25.1309C18.1107 17.4682 29.0148 17.0017 32.8147 24.3703C33.9841 26.6375 34.192 29.204 33.4002 31.596C33.3591 31.7196 33.3155 31.8423 33.2698 31.9638C32.4307 34.1859 30.7926 35.9773 28.6215 37.035C26.3322 38.1505 23.7244 38.3162 21.2786 37.5011C21.1538 37.4595 21.0296 37.4153 20.9066 37.3691Z" fill="#BDD0FB"/>
<path d="M39.6316 14.124C39.5833 14.1058 39.5475 14.0611 39.5433 14.0071C39.5298 13.8294 39.5204 13.648 39.5142 13.4688C39.5121 13.3955 39.5708 13.3348 39.6457 13.3332C39.827 13.3296 39.7781 13.5104 39.814 13.9915C39.8192 14.0652 39.7631 14.1281 39.6883 14.1323C39.6685 14.1338 39.6493 14.1307 39.6316 14.124Z" fill="#91B3FA"/>
<path d="M58.6656 1.6223C57.7461 1.17758 57.5668 1.2233 57.6411 1.03523C57.6879 0.915732 57.8328 0.960417 57.8162 0.961455C58.143 1.08926 58.4677 1.23161 58.782 1.38332C58.8501 1.41605 58.8786 1.49606 58.8464 1.56204C58.8153 1.6249 58.7373 1.65607 58.6656 1.6223ZM55.0024 0.318791C55.0143 0.246576 55.0845 0.198253 55.1582 0.211242C55.5022 0.272547 55.8482 0.347361 56.1874 0.434643C56.3615 0.479842 56.2965 0.737539 56.1225 0.692859C55.79 0.607135 55.4507 0.533355 55.1141 0.473608C55.0393 0.46062 54.9904 0.390488 55.0024 0.318791ZM60.9698 3.03804C60.1572 2.41772 59.9749 2.42759 60.0861 2.25978C60.1266 2.19848 60.2107 2.18185 60.2736 2.22237C60.5671 2.41252 60.8565 2.6167 61.1345 2.82868C61.2768 2.93726 61.1132 3.14715 60.9698 3.03804ZM52.2795 0.141622C52.2764 0.0678473 52.334 0.00654984 52.4094 0.00447178C52.7575 -0.0043602 53.1107 -0.000204086 53.4599 0.0174599C53.6396 0.0273314 53.6287 0.292809 53.45 0.283977C53.1081 0.266313 52.7616 0.262156 52.4203 0.270988C52.346 0.273067 52.2826 0.215396 52.2795 0.141622ZM49.6704 0.609205C49.6298 0.594138 49.5971 0.559849 49.5857 0.515688C49.5675 0.443993 49.6111 0.372304 49.6839 0.35516C50.0221 0.27619 50.3676 0.209164 50.7115 0.15669C50.7853 0.14526 50.8554 0.195138 50.8679 0.267873C50.8809 0.340609 50.831 0.408671 50.7572 0.420101C50.4206 0.471536 50.0818 0.537518 49.7504 0.614928C49.7228 0.621162 49.6953 0.618557 49.6704 0.609205ZM47.1096 1.49035C47.0779 1.4784 47.0503 1.45449 47.0342 1.42228C47.0015 1.35526 47.0296 1.27629 47.0971 1.24512C47.4114 1.09965 47.7351 0.965093 48.0598 0.84456C48.1294 0.818583 48.2079 0.853392 48.2354 0.92249C48.2629 0.991589 48.2286 1.06848 48.159 1.09445C47.8411 1.21239 47.5236 1.34435 47.2155 1.48671C47.1813 1.50281 47.1428 1.50282 47.1096 1.49035ZM44.7296 2.82088C44.6838 2.76218 44.6953 2.67853 44.7545 2.63437C45.0314 2.42915 45.3198 2.23225 45.6117 2.04937C45.7624 1.95533 45.9105 2.18081 45.7598 2.27485C45.4735 2.45409 45.1909 2.64683 44.9202 2.84789C44.8605 2.89206 44.7753 2.88011 44.7296 2.82088ZM42.7683 4.65537C42.7117 4.60653 42.7054 4.52184 42.7543 4.46677C42.9813 4.21012 43.2224 3.95919 43.4702 3.72072C43.5975 3.59811 43.7887 3.79034 43.6614 3.91295C43.4188 4.14622 43.1824 4.39249 42.96 4.64394C42.9112 4.69901 42.8255 4.7042 42.7683 4.65537ZM41.1832 6.66858C41.3515 6.37088 41.5339 6.07631 41.7261 5.79212C41.8248 5.64613 42.0508 5.79679 41.9526 5.94226C41.7646 6.22021 41.5858 6.50908 41.4211 6.80106C41.3344 6.95432 41.097 6.82184 41.1832 6.66858ZM40.1088 9.14573C40.2122 8.81739 40.3306 8.48747 40.4569 8.17575C40.5244 8.00846 40.7743 8.11756 40.7094 8.27758C40.5837 8.58826 40.4694 8.90674 40.3686 9.22781C40.3462 9.29795 40.2704 9.3364 40.1987 9.31354C40.1265 9.29068 40.087 9.21483 40.1088 9.14573ZM39.568 11.7922C39.6012 11.4514 39.6485 11.1075 39.7093 10.7708C39.7223 10.6986 39.7924 10.6508 39.8662 10.6649C40.0672 10.7038 39.9363 10.8171 39.8381 11.8219C39.8308 11.8951 39.7649 11.9476 39.69 11.9398C39.6147 11.9315 39.5612 11.865 39.568 11.7922Z" fill="#91B3FA"/>
<path d="M62.6124 4.52444C62.3007 4.19141 62.1074 4.07866 62.2373 3.95189C62.2898 3.90045 62.3755 3.90046 62.429 3.95345C62.7652 4.28492 62.9335 4.41688 62.8041 4.53378C62.7652 4.56859 62.6634 4.57899 62.6124 4.52444Z" fill="#91B3FA"/>
<path d="M66.2414 14.2429C66.1868 14.2227 66.1494 14.1691 66.1531 14.1094C66.1624 13.9343 66.1681 13.7572 66.1702 13.5826C66.1713 13.5088 66.2326 13.4506 66.3074 13.4527C66.3822 13.4548 66.4424 13.5161 66.4414 13.5899C66.4393 13.7681 66.4336 13.9489 66.4237 14.1276C66.4201 14.2014 66.3562 14.2569 66.2814 14.2517C66.2674 14.2507 66.2538 14.2476 66.2414 14.2429Z" fill="#91B3FA"/>
<path d="M65.7634 17.0827C65.698 17.0578 65.6611 16.9877 65.6803 16.9206C65.78 16.572 65.8652 16.2162 65.9343 15.8634C65.9489 15.7912 66.0196 15.7449 66.0933 15.76C66.1671 15.7756 66.2149 15.8457 66.2009 15.9179C66.1302 16.278 66.0429 16.6406 65.9416 16.996C65.9214 17.0666 65.8466 17.1072 65.7743 17.0864L65.7634 17.0827ZM64.6527 19.735C64.4667 19.6347 64.6417 19.5682 65.0792 18.58C65.1504 18.42 65.3997 18.5286 65.3281 18.6897C65.1789 19.0269 65.0132 19.3609 64.836 19.6835C64.8002 19.7485 64.7166 19.7703 64.6527 19.735ZM62.961 22.0693C62.8021 21.9311 62.9896 21.9035 63.638 21.0385C63.744 20.8977 63.9632 21.0582 63.8572 21.199C63.6359 21.4941 63.399 21.7835 63.1527 22.0589C63.1034 22.1134 63.0182 22.1186 62.961 22.0693ZM60.846 24.0196C60.8221 24.0102 60.8003 23.9947 60.7842 23.9723C60.7395 23.9126 60.7525 23.8294 60.8128 23.7863C61.1089 23.5764 61.3998 23.351 61.6767 23.1166C61.7334 23.0688 61.8186 23.0756 61.8685 23.1317C61.9178 23.1878 61.9121 23.272 61.8555 23.3198C61.5728 23.5588 61.2762 23.7889 60.9738 24.0035C60.9354 24.0305 60.8876 24.0352 60.846 24.0196ZM58.3075 25.4291C58.2743 25.4166 58.2457 25.3917 58.2306 25.3569C58.2 25.2888 58.2312 25.2109 58.2997 25.1818C58.6364 25.041 58.971 24.8841 59.2941 24.7153C59.3601 24.681 59.4422 24.7059 59.4786 24.7714C59.5144 24.8363 59.49 24.9168 59.424 24.9511C59.0941 25.1231 58.7528 25.2836 58.4094 25.4275C58.3756 25.4416 58.3392 25.441 58.3075 25.4291ZM55.5098 26.2567C55.4672 26.2401 55.4335 26.2032 55.4236 26.1559C55.409 26.0837 55.4568 26.0141 55.5306 26.0011C55.8912 25.9362 56.2538 25.8551 56.6076 25.76C56.6798 25.7408 56.7546 25.7829 56.7754 25.8541C56.7962 25.9253 56.7546 25.9985 56.6824 26.0177C56.3213 26.1144 55.9514 26.197 55.5831 26.263C55.5576 26.2676 55.5327 26.265 55.5098 26.2567ZM52.5874 26.4573C52.5344 26.4375 52.4976 26.3861 52.4986 26.3274C52.5007 26.2541 52.563 26.197 52.6378 26.2001C53.0067 26.2146 53.3792 26.2141 53.746 26.1985C53.8208 26.1954 53.8852 26.2526 53.8894 26.3258C53.8941 26.3996 53.8369 26.4619 53.7621 26.4651C53.3875 26.4812 53.0072 26.4817 52.6311 26.4661C52.6155 26.4656 52.6009 26.4625 52.5874 26.4573ZM45.3331 24.0253C45.024 23.8113 44.7196 23.5816 44.4291 23.3426C44.3709 23.2948 44.3626 23.2107 44.4104 23.1546C44.5445 22.9961 44.5808 23.1805 45.4869 23.8076C45.5487 23.8507 45.5643 23.9339 45.5217 23.9936C45.4791 24.0539 45.395 24.0679 45.3331 24.0253ZM49.5959 25.8619C49.6474 25.6619 49.7663 25.8146 50.8459 26.0058C50.9202 26.0183 50.9696 26.0879 50.9576 26.1606C50.9457 26.2328 50.8756 26.2811 50.8018 26.2681C50.4324 26.2027 50.0599 26.1211 49.6946 26.025C49.6214 26.0058 49.5778 25.9325 49.5959 25.8619ZM47.9464 25.441C47.5978 25.2987 47.2507 25.1397 46.9151 24.9688C46.8481 24.9345 46.8211 24.854 46.8549 24.789C46.9494 24.6051 47.0263 24.7776 48.0477 25.1953C48.1173 25.2239 48.1511 25.3018 48.123 25.3699C48.0742 25.4883 47.9303 25.4416 47.9464 25.441Z" fill="#91B3FA"/>
<path d="M43.0858 22.076C42.7653 21.73 42.6032 21.5908 42.7383 21.4801C42.8785 21.3647 42.957 21.5435 43.2854 21.8983C43.3363 21.9534 43.3326 22.0376 43.2776 22.0864C43.2225 22.1358 43.1368 22.1311 43.0858 22.076Z" fill="#91B3FA"/>
<path d="M44.5694 18.7052L46.4974 18.4668C47.085 19.1577 47.7874 19.763 48.5881 20.2503C48.6634 22.1097 48.5371 22.2454 48.7356 22.3113L50.9577 23.0517C51.0226 23.0735 51.0938 23.0522 51.1348 22.9992L52.3048 21.4889C53.2374 21.5788 54.1611 21.5149 55.0438 21.3138L56.4466 22.662C56.4954 22.7093 56.5692 22.7212 56.63 22.6916L58.7102 21.6785C58.771 21.6489 58.8053 21.584 58.7959 21.5175L58.5237 19.6186C59.2178 19.0518 59.823 18.3701 60.3067 17.5903L62.2524 17.583C62.3205 17.583 62.3802 17.5399 62.4015 17.4765L63.1211 15.3033C63.1418 15.2399 63.1195 15.1698 63.0649 15.1287L61.5105 13.9551C61.5879 13.0397 61.5089 12.1305 61.2912 11.2597C62.5818 9.90529 62.7631 9.90425 62.6691 9.72138C61.5915 7.71908 61.6528 7.54868 61.4419 7.57465L59.5139 7.81312C58.9263 7.12214 58.2239 6.51687 57.4228 6.02955C57.348 4.17168 57.4742 4.03505 57.2757 3.96855C55.0552 3.27133 55.0023 3.11806 54.8765 3.28068L53.7065 4.79148C52.774 4.70108 51.8502 4.765 50.9675 4.96606C49.5866 3.69267 49.5684 3.49732 49.3809 3.58824C47.3406 4.62731 47.1863 4.55717 47.2154 4.76239L47.4877 6.6613C46.7936 7.22812 46.1883 7.90975 45.7046 8.68958C43.8473 8.73478 43.6753 8.6049 43.6099 8.80336C42.9365 10.9662 42.7781 11.0244 42.9464 11.1517L44.5009 12.3248C44.4234 13.2402 44.5019 14.1494 44.7201 15.0201C43.4337 16.3699 43.2477 16.3746 43.3423 16.559C44.4198 18.5613 44.3585 18.7317 44.5694 18.7052Z" fill="#91B3FA"/>
<path d="M53.1286 11.3075C52.1113 11.2265 51.2079 11.9658 51.1393 12.9914C51.0712 14.0019 51.8531 14.8908 52.8823 14.9724C53.9115 15.0544 54.8036 14.299 54.8716 13.2885C54.9397 12.277 54.1557 11.3891 53.1286 11.3075ZM52.8688 15.1719L52.8704 15.1724L52.8688 15.1719ZM50.733 12.9586C50.8156 11.7284 51.9025 10.8088 53.1551 10.909C54.4082 11.0093 55.3605 12.091 55.2779 13.3213C55.1948 14.5515 54.1084 15.4711 52.8553 15.3714C51.6022 15.2711 50.6504 14.1889 50.733 12.9586Z" fill="#BDD0FB"/>
<path d="M51.0228 18.4678C50.7075 18.3483 50.402 18.2034 50.1131 18.034C50.0264 17.9836 49.9905 17.8797 50.0243 17.7909C50.0285 17.7805 50.0331 17.7696 50.0394 17.7597C50.0955 17.6651 50.2207 17.6345 50.3173 17.6911C50.6498 17.8854 51.0052 18.046 51.3741 18.1691C54.1525 19.0949 57.1399 17.6963 58.1426 15.042C58.168 14.9745 58.1924 14.9059 58.2153 14.8363C59.1437 12.0323 57.5659 9.00913 54.7209 8.06046C51.8801 7.11438 48.807 8.59714 47.8797 11.3933C47.329 13.0579 47.8106 14.1749 47.7456 14.3463C47.6755 14.5318 47.4017 14.51 47.3565 14.3167C47.1092 13.26 47.1643 12.1206 47.5711 11.0431C49.3271 6.39482 55.9423 6.11167 58.2475 10.5818C58.9567 11.9575 59.0829 13.514 58.6024 14.9656C58.5774 15.0404 58.5514 15.1147 58.5234 15.1885C58.0142 16.5367 57.0204 17.6236 55.7033 18.2652C54.3146 18.9416 52.7326 19.0424 51.2488 18.5478C51.173 18.5229 51.0977 18.4959 51.0228 18.4678Z" fill="#BDD0FB"/>
<path d="M51.2994 89.925H31.2079C29.7999 89.925 28.4995 90.9511 28.4995 91.6629V135.277C28.4995 135.989 29.7999 136.69 31.2079 136.69H51.2994C52.7073 136.69 54.3371 135.989 54.3371 135.277V91.6629C54.3371 90.9511 52.7073 89.925 51.2994 89.925Z" fill="#8196B2" fill-opacity="0.2"/>
<path d="M25.2074 105.917C25.2074 105.549 23.9378 105.168 22.5296 105.168H2.66585C1.2577 105.168 0 105.549 0 105.917V135.974C0 136.342 1.2577 136.69 2.66585 136.69H22.5296C23.9378 136.69 25.2074 136.342 25.2074 135.974V105.917Z" fill="#8196B2" fill-opacity="0.2"/>
<path d="M139.495 34.5538C139.495 33.6487 137.98 32.9666 136.572 32.9666H116.463C115.055 32.9666 113.972 33.6487 113.972 34.5538V134.784C113.972 135.689 115.055 136.69 116.463 136.69H136.572C137.98 136.69 139.495 135.689 139.495 134.784V34.5538Z" fill="#8196B2" fill-opacity="0.2"/>
<path d="M82.5752 72.0544C82.5752 71.3879 81.3605 70.7717 79.9526 70.7717H60.0886C58.6807 70.7717 57.6826 71.3879 57.6826 72.0544V135.409C57.6826 136.076 58.6807 136.69 60.0886 136.69H79.9526C81.3605 136.69 82.5752 136.076 82.5752 135.409V72.0544Z" fill="#8196B2" fill-opacity="0.2"/>
<path d="M110.856 52.4809C110.856 51.7327 109.741 51.2355 108.333 51.2355H88.4691C87.0611 51.2355 85.9639 51.7327 85.9639 52.4809V135.399C85.9639 136.147 87.0611 136.69 88.4691 136.69H108.333C109.741 136.69 110.856 136.147 110.856 135.399V52.4809Z" fill="#8196B2" fill-opacity="0.2"/>
<path d="M109.217 33.4274L125.297 9.75933C125.763 9.07198 126.739 9.0647 127.215 9.74478L143.792 33.4128C144.363 34.2269 143.805 35.372 142.838 35.372H110.182C109.223 35.372 108.663 34.2436 109.217 33.4274Z" fill="#8196B2" fill-opacity="0.2"/>
<path d="M20.4251 125.644C20.3513 125.644 20.278 125.613 20.2264 125.552C20.0752 125.375 19.9254 125.196 19.7776 125.016C19.6862 124.905 19.7021 124.741 19.8133 124.649C19.9246 124.558 20.0889 124.574 20.1801 124.685C20.3262 124.863 20.4739 125.039 20.6234 125.215C20.7167 125.324 20.7035 125.489 20.5939 125.582C20.5448 125.623 20.4848 125.644 20.4251 125.644Z" fill="url(#paint0_linear_6734_7844)"/>
<path d="M68.5139 34.6732C68.3783 34.6732 68.264 34.5683 68.2547 34.4306C68.2448 34.2872 68.3528 34.1625 68.4968 34.1526C68.9649 34.1199 69.4366 34.1116 69.9037 34.1277C70.0476 34.1329 70.1598 34.2534 70.1551 34.3973C70.1499 34.5412 70.032 34.6545 69.8855 34.6488C69.4366 34.6332 68.983 34.6415 68.5326 34.6727C68.5264 34.6732 68.5201 34.6732 68.5139 34.6732ZM65.7972 35.1387C65.6824 35.1387 65.5775 35.0623 65.5458 34.947C65.5079 34.8078 65.5894 34.6644 65.7281 34.6265C66.1822 34.5023 66.6441 34.3994 67.1002 34.3215C67.2431 34.2976 67.3772 34.3921 67.4016 34.534C67.4255 34.6758 67.3304 34.8109 67.1886 34.8348C66.7485 34.9106 66.3038 35.0093 65.8663 35.1293C65.843 35.1356 65.8196 35.1387 65.7972 35.1387ZM63.2157 36.1076C63.1185 36.1076 63.025 36.0531 62.9803 35.9601C62.918 35.8302 62.9725 35.6744 63.1024 35.612C63.5258 35.4084 63.9602 35.2229 64.3924 35.0603C64.5265 35.0094 64.6771 35.0774 64.728 35.2125C64.7784 35.347 64.7104 35.4972 64.5758 35.5481C64.1581 35.705 63.7378 35.8848 63.3279 36.0822C63.292 36.0993 63.2531 36.1076 63.2157 36.1076ZM60.8383 37.5068C60.7562 37.5068 60.6756 37.4683 60.6252 37.3961C60.5421 37.2787 60.5707 37.1161 60.6881 37.0335C61.0715 36.7633 61.4674 36.5077 61.8654 36.2734C61.9896 36.2001 62.1491 36.2412 62.2223 36.3653C62.2956 36.489 62.2545 36.649 62.1303 36.7223C61.7443 36.9498 61.3599 37.1976 60.9884 37.4595C60.9427 37.4917 60.8902 37.5068 60.8383 37.5068ZM58.7139 39.267C58.6463 39.267 58.5788 39.241 58.5279 39.189C58.4271 39.0862 58.4286 38.9215 58.531 38.8207C58.7773 38.5791 59.036 38.3417 59.3009 38.1136C59.3919 38.0357 59.4828 37.9588 59.5747 37.8829C59.6859 37.7915 59.8506 37.8071 59.9415 37.9182C60.0335 38.0294 60.0174 38.1936 59.9062 38.285C59.8174 38.3588 59.7285 38.4336 59.6407 38.5089C59.3841 38.7292 59.1337 38.9594 58.8962 39.1927C58.8453 39.242 58.7793 39.267 58.7139 39.267ZM56.9334 41.3706C56.8815 41.3706 56.8295 41.355 56.7838 41.3233C56.6659 41.2407 56.6373 41.0781 56.7199 40.9606C56.989 40.5762 57.2773 40.2021 57.5761 39.8488C57.6691 39.7392 57.8338 39.7252 57.9434 39.8182C58.053 39.9112 58.067 40.0754 57.974 40.1855C57.6852 40.5268 57.4067 40.8879 57.1469 41.2594C57.096 41.3316 57.0155 41.3706 56.9334 41.3706ZM55.5457 43.7532C55.5078 43.7532 55.4688 43.7449 55.4325 43.7272C55.3026 43.6643 55.2486 43.509 55.3109 43.3791C55.5187 42.9494 55.7395 42.5333 55.9666 42.1421C56.0388 42.0179 56.1983 41.9753 56.3224 42.0475C56.4471 42.1197 56.4892 42.2792 56.417 42.4039C56.1967 42.7837 55.9827 43.1879 55.7806 43.6061C55.7354 43.6991 55.6424 43.7532 55.5457 43.7532ZM54.4952 46.3036C54.4661 46.3036 54.4365 46.2984 54.4079 46.2885C54.2723 46.2402 54.2012 46.0911 54.2495 45.9555C54.4152 45.4889 54.5773 45.0634 54.7446 44.654C54.7992 44.521 54.9503 44.4571 55.0844 44.5117C55.2174 44.5662 55.2813 44.7185 55.2267 44.8515C55.0626 45.2531 54.9036 45.6713 54.7404 46.1301C54.7025 46.2366 54.6022 46.3036 54.4952 46.3036ZM53.6463 48.9309C53.6214 48.9309 53.5959 48.9272 53.5704 48.9194C53.4328 48.8774 53.3548 48.7319 53.3969 48.5942C53.531 48.1526 53.6666 47.711 53.8074 47.272C53.851 47.1348 53.9975 47.059 54.1352 47.1031C54.2723 47.1473 54.3477 47.2938 54.3035 47.431C54.1638 47.8679 54.0287 48.3064 53.8957 48.7454C53.8614 48.8581 53.758 48.9309 53.6463 48.9309ZM52.8358 51.5706C52.8093 51.5706 52.7823 51.5665 52.7558 51.5582C52.6192 51.514 52.5438 51.367 52.588 51.2303C52.7283 50.7934 52.8639 50.3549 52.9974 49.9159C53.0395 49.7782 53.1844 49.7003 53.3226 49.7424C53.4598 49.7845 53.5377 49.9299 53.4962 50.0676C53.3616 50.5092 53.2255 50.9503 53.0836 51.3899C53.0483 51.5005 52.946 51.5706 52.8358 51.5706ZM51.8991 54.1678C51.8658 54.1678 51.8321 54.1616 51.7999 54.1481C51.6669 54.093 51.6035 53.9408 51.658 53.8078C51.8238 53.4062 51.9843 52.9879 52.148 52.5302C52.1963 52.3946 52.3454 52.324 52.481 52.3728C52.6166 52.4211 52.6872 52.5702 52.6389 52.7058C52.4721 53.1713 52.309 53.5968 52.1402 54.0062C52.0986 54.107 52.0014 54.1678 51.8991 54.1678ZM50.3176 56.3847C50.2439 56.3847 50.1701 56.3535 50.1186 56.2927C50.0256 56.1826 50.0392 56.0184 50.1493 55.9254C50.4906 55.636 50.78 55.3217 51.0335 54.9638C51.1167 54.8463 51.2793 54.8183 51.3967 54.9019C51.5141 54.9851 51.5422 55.1477 51.459 55.2651C51.1837 55.6537 50.8564 56.0096 50.486 56.3234C50.4371 56.3644 50.3774 56.3847 50.3176 56.3847ZM47.92 57.7194C47.8145 57.7194 47.7158 57.655 47.6763 57.5505C47.6254 57.416 47.6934 57.2653 47.828 57.2144C48.2893 57.0409 48.6899 56.8611 49.0536 56.6642C49.1804 56.5956 49.3383 56.6429 49.4069 56.7697C49.4754 56.8959 49.4282 57.0544 49.3019 57.1224C48.917 57.3308 48.4951 57.5204 48.0119 57.7022C47.9818 57.7137 47.9506 57.7194 47.92 57.7194ZM45.2781 58.52C45.1628 58.52 45.0568 58.4426 45.0261 58.3257C44.9892 58.1864 45.0724 58.0441 45.2116 58.0072C45.6381 57.8939 46.0943 57.7718 46.5359 57.6414C46.6736 57.6009 46.8185 57.6799 46.8591 57.8181C46.9001 57.9558 46.8211 58.1007 46.6829 58.1418C46.2351 58.2732 45.7753 58.3969 45.3446 58.5111C45.3223 58.5169 45.2999 58.52 45.2781 58.52ZM42.616 59.2577C42.5048 59.2577 42.4019 59.186 42.3671 59.0743C42.3245 58.9372 42.4014 58.7912 42.5391 58.7481C42.936 58.6249 43.3605 58.5023 43.8743 58.3626C44.013 58.3246 44.1564 58.4062 44.1944 58.5454C44.2323 58.6842 44.1502 58.8275 44.0115 58.865C43.5034 59.0037 43.0846 59.1247 42.6934 59.2463C42.668 59.2541 42.6415 59.2577 42.616 59.2577ZM40.0386 60.2397C39.9409 60.2397 39.8474 60.1846 39.8027 60.0905C39.7414 59.9601 39.797 59.8048 39.9274 59.7435C40.3368 59.5502 40.7592 59.372 41.2179 59.199C41.353 59.1486 41.5026 59.2167 41.5535 59.3512C41.6045 59.4858 41.5364 59.636 41.4018 59.6869C40.9561 59.8547 40.5467 60.0277 40.1498 60.2147C40.1139 60.2319 40.076 60.2397 40.0386 60.2397ZM37.6752 61.6538C37.5962 61.6538 37.5183 61.6175 37.4669 61.5494C37.3806 61.4346 37.4035 61.2709 37.5188 61.1847C37.8882 60.9073 38.281 60.6439 38.6867 60.4017C38.8099 60.3285 38.9704 60.3685 39.0442 60.4927C39.118 60.6158 39.0774 60.7758 38.9538 60.8496C38.5636 61.0818 38.1864 61.3348 37.8321 61.6014C37.7848 61.6367 37.7297 61.6538 37.6752 61.6538ZM35.6713 63.5382C35.6111 63.5382 35.5508 63.5174 35.502 63.4753C35.3923 63.3818 35.3799 63.2171 35.4734 63.108C35.7799 62.7501 36.1062 62.4082 36.4429 62.0908C36.5478 61.9921 36.7125 61.9967 36.8112 62.1017C36.9099 62.2066 36.9052 62.3713 36.8003 62.47C36.4766 62.7745 36.1633 63.1033 35.8693 63.4468C35.8179 63.507 35.7446 63.5382 35.6713 63.5382ZM34.0665 65.7795C34.0203 65.7795 33.973 65.767 33.9309 65.7416C33.8078 65.6667 33.7693 65.5062 33.8441 65.3831C34.0821 64.9929 34.3413 64.6001 34.6141 64.2157C34.6977 64.0983 34.8603 64.0712 34.9778 64.1544C35.0952 64.238 35.1222 64.4006 35.0391 64.5181C34.7731 64.8921 34.5206 65.2745 34.2889 65.6543C34.24 65.7348 34.1543 65.7795 34.0665 65.7795ZM32.8201 68.24C32.7879 68.24 32.7547 68.2338 32.7224 68.2208C32.5889 68.1668 32.525 68.0145 32.5791 67.8815C32.7526 67.4545 32.949 67.0253 33.162 66.6061C33.2269 66.4777 33.3838 66.4268 33.5121 66.4918C33.6405 66.5572 33.6919 66.7136 33.6264 66.8419C33.4202 67.2482 33.23 67.6638 33.0617 68.0774C33.0207 68.1787 32.9235 68.24 32.8201 68.24ZM33.6685 69.449C33.5392 69.449 33.4269 69.3534 33.4103 69.2214C33.3916 69.0791 33.4929 68.9481 33.6353 68.93C34.1039 68.8697 34.5746 68.8302 35.0339 68.8125C35.1804 68.8089 35.2988 68.919 35.3045 69.063C35.3097 69.2069 35.1975 69.3279 35.0541 69.3331C34.6099 69.3503 34.1548 69.3887 33.7018 69.4469C33.6903 69.4485 33.6794 69.449 33.6685 69.449ZM37.7957 69.5025C37.7812 69.5025 37.7666 69.5009 37.7521 69.4989C37.3167 69.4251 36.8647 69.3742 36.4086 69.3466C36.2647 69.3383 36.1555 69.2147 36.1639 69.0713C36.1722 68.9279 36.2927 68.8188 36.4392 68.8266C36.9146 68.8546 37.3853 68.9081 37.8389 68.9845C37.9807 69.0089 38.0763 69.143 38.0524 69.2853C38.0311 69.4121 37.9204 69.5025 37.7957 69.5025ZM40.4334 70.2901C40.3976 70.2901 40.3612 70.2828 40.3269 70.2673C39.9279 70.0875 39.504 69.9306 39.066 69.8012C38.9278 69.7607 38.8493 69.6152 38.8899 69.4776C38.9309 69.3394 39.0754 69.2609 39.2141 69.3014C39.6744 69.4375 40.1207 69.6028 40.541 69.7919C40.6719 69.8511 40.7306 70.0054 40.6714 70.1369C40.6277 70.233 40.5332 70.2901 40.4334 70.2901ZM32.0174 70.8777C31.9998 70.8777 31.9821 70.8762 31.9644 70.8725C31.8236 70.8434 31.7327 70.7057 31.7613 70.5649C31.8153 70.3015 31.8777 70.0361 31.9473 69.7711C31.646 69.8438 31.3441 69.9249 31.0449 70.0137C30.9077 70.0553 30.7622 69.9763 30.7212 69.8386C30.6801 69.7004 30.7586 69.5555 30.8963 69.5144C31.2984 69.3949 31.7062 69.289 32.1099 69.1986C32.1541 69.064 32.2985 68.9897 32.4336 69.0308C32.5713 69.0728 32.6492 69.2183 32.6071 69.356C32.4741 69.7914 32.3614 70.233 32.272 70.6694C32.2471 70.793 32.1385 70.8777 32.0174 70.8777ZM28.3905 71.0024C28.2924 71.0024 28.1983 70.9463 28.1542 70.8507C28.0939 70.7203 28.1505 70.5655 28.2814 70.5052C28.7069 70.3083 29.1408 70.1259 29.5709 69.9628C29.705 69.9119 29.8556 69.9794 29.9071 70.114C29.958 70.2486 29.8904 70.3992 29.7559 70.4501C29.3371 70.6091 28.9148 70.7868 28.4996 70.978C28.4643 70.9946 28.4274 71.0024 28.3905 71.0024ZM42.736 71.7931C42.6726 71.7931 42.6098 71.7703 42.5594 71.724C42.2383 71.4279 41.8835 71.1525 41.5037 70.9068C41.3831 70.8284 41.3488 70.6668 41.4273 70.5462C41.5057 70.4252 41.6673 70.3914 41.7873 70.4694C42.1915 70.7317 42.5703 71.0247 42.9132 71.3406C43.0186 71.4383 43.0254 71.6035 42.9277 71.709C42.8763 71.7646 42.8061 71.7931 42.736 71.7931ZM25.9674 72.322C25.881 72.322 25.7964 72.2789 25.7468 72.2005C25.67 72.0789 25.7065 71.9178 25.8281 71.8409C26.2234 71.5916 26.6287 71.3531 27.0327 71.1333C27.1587 71.0642 27.3172 71.111 27.3863 71.2372C27.4551 71.3635 27.4085 71.5219 27.2821 71.591C26.8879 71.8056 26.4924 72.0378 26.1063 72.282C26.0633 72.309 26.0151 72.322 25.9674 72.322ZM31.7353 73.6198H31.7348C31.5909 73.6198 31.4745 73.5029 31.4745 73.359C31.475 72.8946 31.4995 72.4218 31.5478 71.9542C31.5623 71.8113 31.6917 71.7069 31.8335 71.722C31.9769 71.7365 32.0808 71.8648 32.0663 72.0077C32.0195 72.4576 31.9961 72.9122 31.9956 73.3595C31.9956 73.5034 31.8787 73.6198 31.7353 73.6198ZM23.7276 73.9341C23.6517 73.9341 23.5766 73.9009 23.5252 73.8375C23.4344 73.7258 23.4514 73.5616 23.5631 73.4712C23.9132 73.1865 24.2734 72.9101 24.6336 72.6498L24.6697 72.6234C24.7857 72.5387 24.9488 72.5641 25.0338 72.6805C25.1186 72.7969 25.093 72.96 24.9768 73.0447L24.9384 73.0722C24.5868 73.3268 24.2343 73.5975 23.8918 73.8754C23.8434 73.9149 23.7853 73.9341 23.7276 73.9341ZM44.3762 73.9929C44.278 73.9929 44.184 73.9373 44.1398 73.8427C44.0608 73.6728 43.972 73.505 43.8759 73.3434C43.7476 73.1263 43.6047 72.9133 43.4525 72.7106C43.3662 72.5953 43.3896 72.4322 43.5049 72.3459C43.6203 72.2597 43.7834 72.2825 43.8696 72.3979C44.0328 72.6156 44.186 72.8442 44.3242 73.0774C44.4292 73.2536 44.5258 73.4369 44.6121 73.6224C44.6728 73.7528 44.6167 73.9077 44.4863 73.9684C44.4505 73.9851 44.4131 73.9929 44.3762 73.9929ZM21.6837 75.791C21.6175 75.791 21.5512 75.7655 21.5005 75.7156C21.3982 75.6143 21.3972 75.4491 21.4985 75.3468C21.8268 75.0148 22.1654 74.6901 22.5052 74.3809C22.6116 74.2843 22.7765 74.2921 22.8732 74.3986C22.9701 74.5051 22.9623 74.6698 22.8557 74.7664C22.5229 75.0693 22.1908 75.3878 21.869 75.7136C21.8181 75.765 21.7509 75.791 21.6837 75.791ZM32.0205 76.3614C31.9 76.3614 31.792 76.2773 31.766 76.1552C31.6688 75.6985 31.5951 75.2309 31.5467 74.7644C31.5317 74.6215 31.6356 74.4932 31.779 74.4786C31.9229 74.463 32.0502 74.5675 32.0652 74.7109C32.1115 75.1587 32.1826 75.6081 32.2756 76.0466C32.3058 76.1874 32.2159 76.3256 32.0751 76.3557C32.0569 76.3599 32.0382 76.3614 32.0205 76.3614ZM44.9342 76.6732H44.929C44.7851 76.67 44.6708 76.5511 44.6734 76.4071C44.6744 76.3661 44.6749 76.3251 44.6749 76.2845C44.6749 75.8829 44.6344 75.4824 44.5539 75.0932C44.5243 74.9519 44.6152 74.8142 44.756 74.7852C44.8957 74.7555 45.035 74.8465 45.0641 74.9873C45.1519 75.4112 45.196 75.8476 45.196 76.2845C45.196 76.3287 45.1955 76.3734 45.1945 76.4175C45.1919 76.5599 45.0755 76.6732 44.9342 76.6732ZM19.8418 77.8504C19.7841 77.8504 19.7261 77.8312 19.6778 77.7922C19.5661 77.7018 19.5489 77.5377 19.6396 77.426C19.9329 77.0638 20.2371 76.7064 20.5433 76.3635C20.6388 76.2565 20.8035 76.2471 20.9111 76.3427C21.0185 76.4388 21.0278 76.6035 20.9318 76.7111C20.6312 77.0472 20.3326 77.3984 20.0443 77.7538C19.9929 77.8177 19.9176 77.8504 19.8418 77.8504ZM32.8814 78.9799C32.7827 78.9799 32.6882 78.9233 32.6445 78.8272C32.4507 78.4027 32.2788 77.9611 32.1322 77.5148C32.0876 77.3776 32.1619 77.2306 32.299 77.1859C32.4362 77.1407 32.5832 77.2155 32.6274 77.3522C32.7682 77.7808 32.9334 78.2042 33.1189 78.611C33.1781 78.742 33.1204 78.8963 32.9895 78.956C32.9547 78.9721 32.9178 78.9799 32.8814 78.9799ZM44.291 79.3368C44.2531 79.3368 44.2141 79.3285 44.1777 79.3108C44.0478 79.248 43.9938 79.0921 44.0562 78.9627C44.2489 78.5648 44.3991 78.1455 44.503 77.7174C44.5367 77.5777 44.678 77.4914 44.8173 77.5257C44.957 77.5595 45.0433 77.7003 45.0095 77.84C44.8968 78.304 44.7341 78.7581 44.5258 79.1893C44.4806 79.2828 44.3876 79.3368 44.291 79.3368ZM18.2007 80.0746C18.1506 80.0746 18.1001 80.06 18.0554 80.0304C17.936 79.9499 17.9043 79.7878 17.9845 79.6683C18.2456 79.2802 18.5155 78.8968 18.787 78.5289C18.8725 78.4131 19.0354 78.3881 19.1515 78.4739C19.2672 78.5591 19.2919 78.7222 19.2064 78.8381C18.9395 79.2002 18.674 79.5774 18.4171 79.9592C18.3668 80.034 18.2845 80.0746 18.2007 80.0746ZM34.3127 81.3329C34.2369 81.3329 34.1616 81.2996 34.1101 81.2363C33.9439 81.03 33.7792 80.8076 33.6218 80.5754C33.5116 80.4123 33.4041 80.2439 33.3017 80.0746C33.2274 79.9514 33.2669 79.7914 33.3901 79.7166C33.5127 79.6423 33.6732 79.6818 33.748 79.8054C33.8452 79.967 33.948 80.1276 34.0535 80.2834C34.2026 80.5032 34.3579 80.7136 34.5154 80.9084C34.6058 81.0206 34.5886 81.1843 34.4764 81.2747C34.4286 81.3142 34.3704 81.3329 34.3127 81.3329ZM42.6794 81.5662C42.6134 81.5662 42.5469 81.5407 42.496 81.4903C42.3942 81.389 42.3931 81.2238 42.4949 81.122C42.8041 80.8102 43.0955 80.4668 43.3621 80.1005C43.4467 79.9836 43.6099 79.9587 43.7262 80.0429C43.8426 80.1276 43.8681 80.2907 43.7834 80.4071C43.5013 80.7946 43.1922 81.1588 42.8643 81.4887C42.8134 81.5402 42.7464 81.5662 42.6794 81.5662ZM16.7545 82.4301C16.7112 82.4301 16.6676 82.4198 16.6273 82.3969C16.5018 82.3268 16.4569 82.1678 16.5274 82.0421C16.7542 81.6373 16.991 81.2331 17.2318 80.8409C17.3067 80.7183 17.4673 80.6798 17.5901 80.7552C17.7127 80.83 17.7512 80.9905 17.6759 81.1131C17.4389 81.4997 17.2055 81.8981 16.982 82.2971C16.9344 82.3824 16.8456 82.4301 16.7545 82.4301ZM36.4179 83.0848C36.3795 83.0848 36.3405 83.0759 36.3036 83.0577C35.888 82.8541 35.4838 82.586 35.1019 82.2618C34.9923 82.1688 34.9793 82.0041 35.0723 81.8945C35.1653 81.7849 35.33 81.7714 35.4396 81.8649C35.7888 82.161 36.1561 82.4052 36.5333 82.5902C36.6621 82.6535 36.7156 82.8094 36.6522 82.9388C36.607 83.0313 36.5145 83.0848 36.4179 83.0848ZM40.4272 83.1341C40.3259 83.1341 40.2298 83.0749 40.1872 82.9757C40.1311 82.8432 40.1924 82.6904 40.3248 82.6338C40.716 82.467 41.1041 82.2488 41.4782 81.9849C41.5956 81.9018 41.7582 81.9298 41.8414 82.0478C41.924 82.1652 41.8959 82.3278 41.7785 82.4109C41.3743 82.6956 40.954 82.932 40.5295 83.1133C40.4958 83.1274 40.4615 83.1341 40.4272 83.1341ZM38.4348 83.5596C38.1843 83.5596 37.9329 83.5399 37.6871 83.5009C37.5448 83.4781 37.4482 83.3445 37.4705 83.2022C37.4934 83.0603 37.6269 82.9637 37.7692 82.9861C38.1921 83.0536 38.6301 83.0557 39.066 82.9928C39.2078 82.972 39.3403 83.0713 39.3611 83.2136C39.3814 83.356 39.2826 83.4879 39.1403 83.5087C38.9055 83.5425 38.668 83.5596 38.4348 83.5596ZM15.4957 84.8907C15.4588 84.8907 15.4214 84.8829 15.3857 84.8663C15.2552 84.8055 15.1988 84.6501 15.2596 84.5197C15.4555 84.0999 15.6609 83.6791 15.8703 83.2697C15.9359 83.1414 16.093 83.0905 16.2209 83.1559C16.3491 83.2214 16.3999 83.3788 16.3345 83.5066C16.1278 83.9108 15.9252 84.3259 15.732 84.74C15.6877 84.8351 15.5937 84.8907 15.4957 84.8907ZM14.417 87.4338C14.3858 87.4338 14.3542 87.4281 14.3235 87.4167C14.1891 87.3647 14.1221 87.2141 14.1737 87.08C14.341 86.6446 14.5162 86.2108 14.6945 85.7905C14.7509 85.658 14.9036 85.5962 15.0362 85.6523C15.1687 85.709 15.2305 85.8617 15.1743 85.9942C14.9984 86.4088 14.8254 86.8369 14.6603 87.2665C14.6204 87.3704 14.5216 87.4338 14.417 87.4338ZM13.512 90.0424C13.4864 90.0424 13.4605 90.0388 13.4347 90.031C13.2972 89.9879 13.2204 89.8419 13.2632 89.7047C13.3999 89.2647 13.5458 88.8205 13.6968 88.3851C13.7439 88.249 13.8924 88.1773 14.0283 88.224C14.1644 88.2713 14.2363 88.4199 14.1891 88.556C14.04 88.9862 13.896 89.4247 13.7609 89.859C13.7261 89.9707 13.6232 90.0424 13.512 90.0424ZM12.7775 92.7024C12.7571 92.7024 12.7364 92.6998 12.7158 92.6952C12.5759 92.6609 12.49 92.5201 12.524 92.3803C12.6332 91.9304 12.7504 91.4784 12.8723 91.0368C12.9106 90.8981 13.0541 90.817 13.1929 90.855C13.3317 90.8934 13.413 91.0368 13.3748 91.1755C13.2541 91.6119 13.1384 92.0587 13.0306 92.5035C13.0015 92.6224 12.895 92.7024 12.7775 92.7024ZM12.2113 95.4035C12.1962 95.4035 12.1809 95.4025 12.1655 95.3994C12.0238 95.3744 11.9293 95.2394 11.9542 95.0975C12.0345 94.644 12.1232 94.1852 12.2181 93.7332C12.2476 93.5924 12.3874 93.5031 12.5265 93.5316C12.6675 93.5612 12.7576 93.6994 12.728 93.8402C12.6346 94.287 12.5469 94.7401 12.4677 95.1884C12.4453 95.3147 12.3353 95.4035 12.2113 95.4035ZM11.8163 98.1373C11.8066 98.1373 11.7968 98.1368 11.787 98.1358C11.6439 98.1197 11.541 97.9908 11.5571 97.8479C11.6078 97.3928 11.6671 96.9289 11.7335 96.4696C11.7539 96.3267 11.8857 96.2291 12.0286 96.2488C12.171 96.2691 12.2698 96.4016 12.2493 96.5439C12.1839 96.998 12.1253 97.4562 12.0749 97.9056C12.0601 98.0386 11.9473 98.1373 11.8163 98.1373ZM11.6005 100.891L11.5888 100.89C11.4451 100.884 11.3337 100.763 11.3399 100.619C11.3603 100.159 11.3889 99.6923 11.4253 99.231C11.4365 99.0876 11.5627 98.9811 11.7053 98.9915C11.8489 99.0029 11.9561 99.1286 11.9447 99.272C11.9091 99.7271 11.8808 100.188 11.8606 100.642C11.8545 100.781 11.7391 100.891 11.6005 100.891ZM11.5773 103.652C11.4368 103.652 11.3211 103.54 11.317 103.399C11.3068 103.047 11.3018 102.69 11.3018 102.337C11.3018 102.228 11.3023 102.118 11.3031 102.009C11.3043 101.865 11.4297 101.751 11.5657 101.75C11.7096 101.751 11.8255 101.869 11.8243 102.013C11.8234 102.121 11.823 102.229 11.823 102.337C11.823 102.685 11.828 103.037 11.8379 103.384C11.8421 103.528 11.7288 103.648 11.5849 103.652L11.5773 103.652ZM11.7679 106.406C11.637 106.406 11.5242 106.308 11.5094 106.175C11.4589 105.723 11.4168 105.257 11.3845 104.788C11.3745 104.645 11.4829 104.52 11.6265 104.51C11.7685 104.501 11.8945 104.609 11.9044 104.753C11.9363 105.213 11.9775 105.673 12.0272 106.116C12.0433 106.26 11.9403 106.389 11.7973 106.405C11.7875 106.406 11.7776 106.406 11.7679 106.406ZM12.1954 109.133C12.0738 109.133 11.9651 109.048 11.9402 108.924C11.8487 108.469 11.7664 108.008 11.6954 107.554C11.673 107.412 11.7702 107.279 11.9123 107.256C12.0562 107.234 12.188 107.331 12.2103 107.473C12.2802 107.92 12.3613 108.373 12.4512 108.821C12.4795 108.962 12.3881 109.1 12.2469 109.128C12.2296 109.132 12.2125 109.133 12.1954 109.133ZM12.8514 111.815C12.7382 111.815 12.6341 111.741 12.6012 111.627C12.4732 111.183 12.3526 110.731 12.2427 110.282C12.2084 110.142 12.2941 110.001 12.4339 109.967C12.5731 109.933 12.7146 110.018 12.7489 110.158C12.857 110.6 12.9759 111.045 13.102 111.482C13.1419 111.62 13.0621 111.765 12.9238 111.805C12.8998 111.812 12.8753 111.815 12.8514 111.815ZM13.7245 114.434C13.6193 114.434 13.5202 114.37 13.4806 114.266C13.3164 113.832 13.1597 113.39 13.0144 112.955C12.969 112.818 13.0426 112.671 13.1792 112.626C13.3154 112.58 13.4635 112.654 13.5088 112.79C13.6518 113.219 13.8064 113.654 13.9682 114.081C14.0191 114.216 13.9513 114.366 13.8166 114.417C13.7862 114.429 13.7552 114.434 13.7245 114.434ZM14.8016 116.976C14.7037 116.976 14.6099 116.921 14.5656 116.827C14.3686 116.407 14.1778 115.98 13.9983 115.557C13.9421 115.424 14.004 115.271 14.1366 115.215C14.2684 115.159 14.4219 115.221 14.4781 115.353C14.655 115.771 14.8432 116.192 15.0372 116.605C15.0985 116.735 15.0425 116.891 14.9122 116.952C14.8764 116.968 14.8388 116.976 14.8016 116.976ZM16.0692 119.43C15.9783 119.43 15.8901 119.382 15.8421 119.297C15.6138 118.893 15.3911 118.481 15.1808 118.074C15.1148 117.946 15.1648 117.789 15.2927 117.723C15.42 117.657 15.5778 117.707 15.6439 117.835C15.8512 118.236 16.0706 118.642 16.2961 119.041C16.3668 119.166 16.3226 119.325 16.1972 119.396C16.1568 119.419 16.1127 119.43 16.0692 119.43ZM17.5132 121.784C17.4289 121.784 17.3461 121.743 17.2959 121.667C17.0409 121.283 16.7893 120.889 16.5479 120.496C16.4726 120.373 16.5109 120.212 16.6336 120.137C16.7564 120.062 16.9167 120.1 16.992 120.223C17.2303 120.611 17.4786 121 17.7302 121.379C17.8098 121.499 17.7771 121.66 17.6571 121.74C17.6128 121.77 17.5628 121.784 17.5132 121.784ZM19.1192 124.031C19.041 124.031 18.9636 123.995 18.9124 123.929C18.6302 123.561 18.3517 123.185 18.0848 122.812C18.001 122.695 18.0282 122.532 18.1452 122.448C18.2621 122.364 18.4251 122.391 18.5086 122.509C18.7722 122.878 19.0473 123.248 19.3256 123.611C19.4134 123.725 19.3918 123.889 19.2776 123.977C19.2305 124.013 19.1747 124.031 19.1192 124.031Z" fill="#FFBE62"/>
<path d="M71.9965 34.8945C71.9793 34.8945 71.9622 34.893 71.9445 34.8893C71.7221 34.8447 71.4967 34.8057 71.2743 34.7735C71.132 34.7527 71.0333 34.6202 71.054 34.4779C71.0748 34.3355 71.2083 34.2368 71.3496 34.2576C71.5808 34.2913 71.8157 34.3319 72.0474 34.3786C72.1887 34.4067 72.2801 34.5444 72.2515 34.6852C72.2266 34.8088 72.118 34.8945 71.9965 34.8945Z" fill="url(#paint1_linear_6734_7844)"/>
<path d="M73.3073 37.3946C73.3073 37.3946 74.3308 43.5402 69.9002 44.7782C65.4696 46.0163 60.6919 46.1654 59.6201 48.0467C59.6201 48.0467 59.937 35.8671 72.0464 35.5938L73.3073 37.3946Z" fill="#FFBE62"/>
<path d="M86.3484 35.9445C86.3484 35.9445 89.4023 41.2448 88.3118 43.0081C87.2748 44.6857 75.5041 51.9837 74.3575 52.6918C74.306 52.724 74.2406 52.7095 74.2047 52.6606C73.9086 52.2564 73.8234 51.7364 73.9751 51.2589C74.7092 48.9522 76.9593 42.0839 78.306 40.2255C79.9321 37.9811 86.3484 35.9445 86.3484 35.9445Z" fill="#7D97F4"/>
<path d="M78.0895 49.4037C78.1264 49.413 78.1664 49.4078 78.2007 49.3855C78.2651 49.3444 84.6424 45.2359 87.3185 43.3604C87.7949 43.0269 88.0303 42.4429 87.9175 41.874C87.7404 40.9757 87.3382 39.229 86.6379 37.619C86.6067 37.5478 86.5241 37.5151 86.453 37.5463C86.3813 37.5769 86.3491 37.66 86.3797 37.7312C87.0697 39.3168 87.4666 41.0412 87.6417 41.928C87.7326 42.3883 87.5424 42.8601 87.1569 43.1302C84.485 45.0027 78.1123 49.108 78.0484 49.1491C77.983 49.1912 77.9643 49.2779 78.0064 49.3439C78.0261 49.3746 78.0562 49.3953 78.0895 49.4037Z" fill="#BDD0FB"/>
<path d="M77.9555 24.4762C77.9555 24.4762 73.8273 19.9625 71.8167 20.4685C69.9043 20.9496 59.3878 29.962 58.3664 30.8406C58.3201 30.88 58.3139 30.9466 58.3497 30.9959C58.6453 31.4001 59.115 31.6386 59.6164 31.6386C62.0369 31.6365 69.2642 31.5684 71.4431 30.8473C74.0741 29.9761 77.9555 24.4762 77.9555 24.4762Z" fill="#7D97F4"/>
<path d="M62.7342 28.4216C62.7763 28.432 62.8226 28.4237 62.8589 28.3936C62.9176 28.3447 68.7583 23.5125 71.3507 21.532C71.7248 21.2463 72.2319 21.2078 72.6434 21.4333C73.4357 21.8687 74.9595 22.7685 76.2619 23.9053C76.3201 23.9572 76.409 23.9505 76.4604 23.8923C76.5113 23.8336 76.5051 23.7447 76.4469 23.6938C75.1906 22.5971 73.7588 21.7253 72.7784 21.1865C72.2698 20.9075 71.6427 20.9548 71.1798 21.3081C68.5827 23.2922 62.7384 28.1286 62.6797 28.1769C62.6194 28.2263 62.6111 28.3151 62.661 28.3748C62.6807 28.3987 62.7062 28.4143 62.7342 28.4216Z" fill="#BDD0FB"/>
<path d="M102.881 23.7468C101.144 26.1616 98.8841 28.605 95.9493 30.7657C86.8381 37.4745 78.9806 40.8297 76.7212 41.7238C76.3123 41.8854 75.8504 41.8054 75.5122 41.5243C72.849 39.3095 70.8426 36.61 69.4897 33.4279C69.2351 32.8288 69.3411 32.1368 69.7562 31.636C71.558 29.4627 77.0391 23.2595 85.7949 16.891C88.7199 14.7635 91.7093 13.3529 94.5174 12.4271C99.094 16.027 101.613 20.9028 102.881 23.7468Z" fill="#4F52FF"/>
<path d="M94.5171 12.4271C100.719 10.3822 106.035 10.7028 107.806 10.8945C108.152 10.9319 108.39 11.2571 108.322 11.5985C107.97 13.3384 106.675 18.473 102.881 23.7468C101.613 20.9029 99.0937 16.027 94.5171 12.4271Z" fill="#FFBE62"/>
<path d="M88.1156 18.8014C85.7507 20.5324 85.3392 23.9931 87.1971 26.5315C89.0549 29.07 92.4782 29.7246 94.8431 27.9935C97.208 26.2629 97.6195 22.8018 95.7616 20.2633C93.9038 17.7254 90.4811 17.0708 88.1156 18.8014Z" fill="#91B3FA"/>
<path d="M88.8244 19.5188C86.9401 20.8982 86.6122 23.6559 88.0924 25.6785C89.5726 27.701 92.3001 28.2226 94.185 26.8433C96.0694 25.4644 96.3972 22.7067 94.9171 20.6841C93.4369 18.6616 90.7093 18.14 88.8244 19.5188Z" fill="url(#paint2_linear_6734_7844)"/>
<path d="M94.0167 25.2815C94.0697 25.2956 94.1289 25.2769 94.1642 25.2296C95.0635 24.0268 95.0459 22.3041 94.1211 21.0405C93.8878 20.7226 93.6094 20.4462 93.2935 20.2191C93.2306 20.1739 93.1423 20.1885 93.0971 20.2519C93.0519 20.3147 93.0664 20.4025 93.1293 20.4477C93.4213 20.6571 93.679 20.9127 93.8941 21.2068C94.7466 22.3711 94.7648 23.9562 93.9387 25.0612C93.8925 25.1236 93.905 25.2114 93.9673 25.2576C93.9824 25.2696 93.999 25.2774 94.0167 25.2815Z" fill="#BDD0FB"/>
<path d="M80.6507 26.6594C79.0884 27.8029 78.8167 30.0893 80.0438 31.7659C81.271 33.4429 83.5325 33.8757 85.0953 32.7322C86.6576 31.5887 86.9293 29.3022 85.7021 27.6252C84.475 25.9486 82.2134 25.5159 80.6507 26.6594Z" fill="#91B3FA"/>
<path d="M81.1189 27.1337C79.8741 28.0444 79.6574 29.8664 80.6352 31.2027C81.613 32.5389 83.4152 32.8834 84.66 31.9721C85.9054 31.0614 86.1215 29.2394 85.1437 27.9031C84.166 26.5669 82.3637 26.2224 81.1189 27.1337Z" fill="url(#paint3_linear_6734_7844)"/>
<path d="M84.5371 30.9865C84.5906 31.0006 84.6493 30.9819 84.6846 30.9346C85.2914 30.1236 85.28 28.9619 84.6566 28.1104C84.5002 27.8964 84.3121 27.7098 84.0991 27.5576C84.0363 27.5119 83.9484 27.5265 83.9027 27.5898C83.8575 27.6532 83.8721 27.7405 83.9355 27.7857C84.1241 27.9213 84.2903 28.0865 84.4295 28.2767C84.9807 29.0295 84.9927 30.0529 84.4597 30.7663C84.4129 30.8286 84.4259 30.9164 84.4877 30.9632C84.5033 30.9746 84.5199 30.9824 84.5371 30.9865Z" fill="#BDD0FB"/>
<path d="M59.6747 136.151C59.6747 136.151 59.3853 137.789 59.2435 139.41C59.1884 140.044 59.6768 140.594 60.3122 140.62C62.4714 140.71 67.0895 140.885 68.7463 140.812C68.9957 140.8 69.1583 140.545 69.0664 140.313C68.989 140.119 68.8399 139.962 68.6502 139.875L61.0219 136.369L59.6747 136.151Z" fill="url(#paint4_linear_6734_7844)"/>
<path d="M59.4385 135.189L59.6707 137.148C59.6707 137.148 61.0069 137.77 61.9198 137.069L61.3665 134.886L59.4385 135.189Z" fill="url(#paint5_linear_6734_7844)"/>
<path d="M59.6135 98.3591C59.5132 98.8703 59.0747 123.888 61.7488 135.099C61.7924 135.282 61.6999 135.471 61.5259 135.542C61.1155 135.71 60.3112 135.952 59.348 135.985C59.0492 135.995 58.7817 135.801 58.6975 135.514C57.9333 132.913 54.27 119.88 53.7925 107.431C53.2585 93.5191 53.7925 106.957 53.7925 106.957L54.1053 98.358L59.6135 98.3591Z" fill="url(#paint6_linear_6734_7844)"/>
<path d="M50.9 137.005C50.9 137.005 50.4392 137.833 49.9934 140.03C49.9129 140.426 50.1903 140.806 50.593 140.846C51.3058 140.916 52.4035 141.006 53.2826 141C53.6878 140.997 54.0042 140.644 53.9554 140.242C53.8577 139.44 53.5548 138.124 52.6176 137.099L50.9 137.005Z" fill="url(#paint7_linear_6734_7844)"/>
<path d="M50.4956 134.486L51.039 137.449C51.039 137.449 51.5757 137.848 52.6382 137.558L52.3789 134.371L50.4956 134.486Z" fill="url(#paint8_linear_6734_7844)"/>
<path d="M49.029 99.1265C46.8418 112.326 49.5034 131.75 50.4011 135.552C50.4562 135.785 50.6438 135.963 50.8796 136.002C51.2807 136.069 51.94 136.123 52.5905 135.934C52.8144 135.869 52.9718 135.667 52.9812 135.434C53.1017 132.36 52.885 113.491 54.9227 106.034C55.0261 105.656 55.2567 105.326 55.5762 105.1L59.5315 102.287L59.8349 97.7419L49.029 99.1265Z" fill="url(#paint9_linear_6734_7844)"/>
<path d="M62.9648 74.116C56.4103 74.008 49.1783 75.8372 49.1783 75.8372C47.2243 87.2374 48.8364 100.386 48.8364 100.386C53.9108 101.717 59.6351 99.5728 59.6351 99.5728C60.4783 94.8076 64.4132 81.3979 64.4132 81.3979C67.6157 81.0004 70.2539 80.0762 72.4266 78.8547C70.7693 76.934 69.9879 74.4896 69.6486 73.0447C67.3315 73.7648 64.9863 74.1498 62.9648 74.116Z" fill="#FFBE62"/>
<path d="M82.3256 64.4619C81.6819 63.6842 80.8667 64.052 80.8667 64.052C79.9025 68.1262 74.8448 71.43 69.6489 73.0447C69.9882 74.4895 70.7696 76.934 72.4269 78.8547C81.0496 74.0064 82.3256 64.4619 82.3256 64.4619Z" fill="url(#paint10_linear_6734_7844)"/>
<path d="M82.1694 64.6594C82.237 64.8739 81.4566 65.1997 80.9973 64.3237C80.9812 63.904 80.7261 62.1053 80.9771 61.7635C82.3128 59.942 84.9032 57.6586 84.9032 57.6586C85.3412 58.0903 84.9806 58.5148 84.9806 58.5148L83.7239 59.824C83.9868 60.2989 84.3073 60.7 84.4575 61.2746C84.5712 61.7094 84.5016 62.1744 84.2819 62.5703C84.0616 62.9678 83.7602 63.4842 83.4761 63.8889C82.9373 64.6536 82.1694 64.6594 82.1694 64.6594Z" fill="url(#paint11_linear_6734_7844)"/>
<path d="M83.1735 60.6735L82.0285 61.644L81.6689 62.6108L82.6898 63.7434C82.6898 63.7434 83.0333 61.8258 83.2884 61.4107C83.5434 60.9956 83.411 60.7945 83.1735 60.6735Z" fill="url(#paint12_linear_6734_7844)"/>
<path d="M51.693 82.1839L49.1789 75.8372C49.1789 75.8372 43.0567 79.9971 42.0498 85.271C43.2068 85.3562 45.3115 85.657 47.372 86.6976C47.8245 84.207 51.693 82.1839 51.693 82.1839Z" fill="#FFBE62"/>
<path d="M57.042 88.156C57.042 88.156 50.168 92.0405 47.8488 88.7233C47.3671 88.0344 47.2523 87.3502 47.3708 86.6976C45.3103 85.657 43.2056 85.3562 42.0486 85.271C41.7452 86.8608 41.9058 88.5518 42.8399 90.2611C46.9027 97.6926 57.9517 89.8507 57.9517 89.8507L57.042 88.156Z" fill="url(#paint13_linear_6734_7844)"/>
<path d="M56.2172 93.0702L59.9687 79.9696C60.0113 79.821 60.1381 79.7125 60.2919 79.6943C60.9714 79.6153 62.941 79.3924 65.2145 79.2002C67.954 78.9685 71.1346 78.7809 73.0356 78.9404C73.3058 78.9633 73.4689 79.249 73.3489 79.4922C72.2678 81.6789 67.8216 90.5744 65.5953 93.4879C65.5216 93.5845 65.4073 93.6412 65.2862 93.6401L56.5819 93.5591C56.3289 93.5565 56.1475 93.3139 56.2172 93.0702Z" fill="url(#paint14_linear_6734_7844)"/>
<path d="M65.6034 78.0645L68.3237 77.6114C68.4681 77.587 68.5871 77.7252 68.5409 77.865L68.2718 78.6806C68.2484 78.7518 68.1866 78.8033 68.1123 78.8131L65.4948 79.1628C65.3592 79.181 65.248 79.0578 65.2792 78.9248L65.4455 78.2125C65.4636 78.1356 65.526 78.0774 65.6034 78.0645Z" fill="#91B3FA"/>
<path d="M63.567 80.3671L63.7909 79.1997C63.8133 79.0828 63.9099 78.9945 64.0284 78.9825L69.5219 78.4251C69.7069 78.4058 69.855 78.5757 69.8113 78.756L69.4622 80.2107C69.4341 80.3271 69.3328 80.4107 69.2133 80.4169L63.8455 80.6871C63.6704 80.6959 63.5338 80.5385 63.567 80.3671Z" fill="#91B3FA"/>
<path d="M57.1234 89.9052C57.1234 89.9052 56.6008 87.7564 56.8112 86.9937C57.0221 86.2316 57.4304 85.2512 58.7921 85.4694C60.1533 85.6871 61.7592 86.2607 61.7592 86.2607C61.7592 86.2607 61.6781 87.2535 60.6432 86.9329L61.2849 87.4296C61.2849 87.4296 61.1934 88.2245 60.319 87.8001L60.916 88.4583C60.916 88.4583 60.5409 89.1114 59.8977 88.6926C59.2545 88.2734 58.9464 90.164 57.1234 89.9052Z" fill="url(#paint15_linear_6734_7844)"/>
<path d="M56.3262 68.7948L54.2408 74.8262C54.206 74.9259 54.247 75.0366 54.3395 75.088C54.9084 75.4024 56.9564 76.3105 59.4248 74.7457C59.6819 74.5825 59.857 74.317 59.896 74.0152L60.5714 68.7948H56.3262Z" fill="url(#paint16_linear_6734_7844)"/>
<path d="M60.8626 63.2098C60.8626 63.2098 63.1527 67.521 62.8591 69.2625C62.5656 71.0034 59.7274 70.8788 57.2492 69.464L55.5171 64.8095L60.8626 63.2098Z" fill="url(#paint17_linear_6734_7844)"/>
<path d="M57.3599 67.1781C57.4602 67.1339 57.4976 67.0103 57.4373 66.9183C57.2539 66.6378 56.91 66.0663 56.8004 65.5655C56.8004 65.5655 56.3884 65.302 57.8477 64.9524C59.3076 64.6033 61.484 64.0609 61.9417 62.8187C62.3875 61.6071 61.2154 58.5611 59.3461 60.9883C59.2749 61.0808 59.1352 61.0829 59.0645 60.9904C58.758 60.5914 57.9522 59.7633 56.8331 60.2651C55.7862 60.7348 55.6683 61.5022 55.6828 61.8887C55.687 62.0025 55.5851 62.0913 55.4734 62.07C54.944 61.9687 53.6738 61.8819 53.081 63.1855C52.5926 64.2588 52.91 64.8662 53.1989 65.1633C53.2924 65.2594 53.2514 65.4179 53.1231 65.4574C52.7755 65.5639 52.3261 65.859 52.3708 66.6741C52.4331 67.8005 53.693 67.7013 54.0515 67.6503C54.1107 67.6415 54.1694 67.6618 54.2094 67.7059C54.517 68.0462 55.9026 69.4916 57.4025 69.6656C57.5324 69.6807 57.6327 69.5524 57.5906 69.4287L56.9411 67.5423C56.911 67.4545 56.9531 67.3584 57.0378 67.321L57.3599 67.1781Z" fill="url(#paint18_linear_6734_7844)"/>
<path d="M57.6199 67.4462C57.6199 67.4462 55.9891 66.3276 55.8701 67.2695C55.7511 68.2115 57.3383 68.6344 58.1249 68.2831L57.6199 67.4462Z" fill="url(#paint19_linear_6734_7844)"/>
<defs>
<linearGradient id="paint0_linear_6734_7844" x1="19.7182" y1="125.117" x2="20.6856" y2="125.117" gradientUnits="userSpaceOnUse">
<stop stop-color="#E1473D"/>
<stop offset="1" stop-color="#E9605A"/>
</linearGradient>
<linearGradient id="paint1_linear_6734_7844" x1="71.0514" y1="34.5745" x2="72.2569" y2="34.5745" gradientUnits="userSpaceOnUse">
<stop stop-color="#E1473D"/>
<stop offset="1" stop-color="#E9605A"/>
</linearGradient>
<linearGradient id="paint2_linear_6734_7844" x1="94.1845" y1="26.8438" x2="88.8248" y2="19.5189" gradientUnits="userSpaceOnUse">
<stop stop-color="#09005D"/>
<stop offset="1" stop-color="#1A0F91"/>
</linearGradient>
<linearGradient id="paint3_linear_6734_7844" x1="84.66" y1="31.9726" x2="81.1192" y2="27.1336" gradientUnits="userSpaceOnUse">
<stop stop-color="#09005D"/>
<stop offset="1" stop-color="#1A0F91"/>
</linearGradient>
<linearGradient id="paint4_linear_6734_7844" x1="68.5053" y1="133.888" x2="40.5704" y2="164.273" gradientUnits="userSpaceOnUse">
<stop stop-color="#09005D"/>
<stop offset="1" stop-color="#1A0F91"/>
</linearGradient>
<linearGradient id="paint5_linear_6734_7844" x1="59.4385" y1="136.145" x2="61.9198" y2="136.145" gradientUnits="userSpaceOnUse">
<stop stop-color="#FEBBBA"/>
<stop offset="1" stop-color="#FF928E"/>
</linearGradient>
<linearGradient id="paint6_linear_6734_7844" x1="53.5551" y1="117.172" x2="61.7596" y2="117.172" gradientUnits="userSpaceOnUse">
<stop stop-color="#09005D"/>
<stop offset="1" stop-color="#1A0F91"/>
</linearGradient>
<linearGradient id="paint7_linear_6734_7844" x1="62.2383" y1="128.126" x2="34.3025" y2="158.512" gradientUnits="userSpaceOnUse">
<stop stop-color="#09005D"/>
<stop offset="1" stop-color="#1A0F91"/>
</linearGradient>
<linearGradient id="paint8_linear_6734_7844" x1="50.4956" y1="136.017" x2="52.638" y2="136.017" gradientUnits="userSpaceOnUse">
<stop stop-color="#FEBBBA"/>
<stop offset="1" stop-color="#FF928E"/>
</linearGradient>
<linearGradient id="paint9_linear_6734_7844" x1="48.1874" y1="116.903" x2="59.8351" y2="116.903" gradientUnits="userSpaceOnUse">
<stop stop-color="#09005D"/>
<stop offset="1" stop-color="#1A0F91"/>
</linearGradient>
<linearGradient id="paint10_linear_6734_7844" x1="69.6489" y1="71.4097" x2="82.3255" y2="71.4097" gradientUnits="userSpaceOnUse">
<stop stop-color="#FEBBBA"/>
<stop offset="1" stop-color="#FF928E"/>
</linearGradient>
<linearGradient id="paint11_linear_6734_7844" x1="79.5021" y1="69.2848" x2="70.9957" y2="88.6387" gradientUnits="userSpaceOnUse">
<stop stop-color="#FEBBBA"/>
<stop offset="1" stop-color="#FF928E"/>
</linearGradient>
<linearGradient id="paint12_linear_6734_7844" x1="82.2643" y1="62.8394" x2="85.8137" y2="57.3823" gradientUnits="userSpaceOnUse">
<stop stop-color="#FEBBBA"/>
<stop offset="1" stop-color="#FF928E"/>
</linearGradient>
<linearGradient id="paint13_linear_6734_7844" x1="41.9089" y1="89.366" x2="57.9513" y2="89.366" gradientUnits="userSpaceOnUse">
<stop stop-color="#FEBBBA"/>
<stop offset="1" stop-color="#FF928E"/>
</linearGradient>
<linearGradient id="paint14_linear_6734_7844" x1="59.3307" y1="92.9767" x2="73.0348" y2="68.9321" gradientUnits="userSpaceOnUse">
<stop stop-color="#4F52FF"/>
<stop offset="1" stop-color="#4042E2"/>
</linearGradient>
<linearGradient id="paint15_linear_6734_7844" x1="56.7613" y1="87.6837" x2="61.7591" y2="87.6837" gradientUnits="userSpaceOnUse">
<stop stop-color="#FEBBBA"/>
<stop offset="1" stop-color="#FF928E"/>
</linearGradient>
<linearGradient id="paint16_linear_6734_7844" x1="54.2283" y1="72.2155" x2="60.571" y2="72.2155" gradientUnits="userSpaceOnUse">
<stop stop-color="#FEBBBA"/>
<stop offset="1" stop-color="#FF928E"/>
</linearGradient>
<linearGradient id="paint17_linear_6734_7844" x1="62.0783" y1="68.1808" x2="55.1045" y2="63.9274" gradientUnits="userSpaceOnUse">
<stop stop-color="#FEBBBA"/>
<stop offset="1" stop-color="#FF928E"/>
</linearGradient>
<linearGradient id="paint18_linear_6734_7844" x1="51.4143" y1="59.4438" x2="60.4235" y2="66.5596" gradientUnits="userSpaceOnUse">
<stop stop-color="#09005D"/>
<stop offset="1" stop-color="#1A0F91"/>
</linearGradient>
<linearGradient id="paint19_linear_6734_7844" x1="60.2471" y1="69.7669" x2="53.9728" y2="65.94" gradientUnits="userSpaceOnUse">
<stop stop-color="#FEBBBA"/>
<stop offset="1" stop-color="#FF928E"/>
</linearGradient>
</defs>
</svg>
