<svg width="101" height="100" viewBox="0 0 101 100" fill="none" xmlns="http://www.w3.org/2000/svg">
<path opacity="0.5" d="M26.5826 10.8857H25.4993C21.5701 10.8857 19.6077 10.8857 18.3868 12.1066C17.166 13.3232 17.166 15.2857 17.166 19.2148V23.8481C17.166 26.0064 17.166 27.0856 17.7202 28.0522C18.2743 29.0147 19.1118 29.5022 20.7868 30.4772C31.8117 36.8897 47.4615 40.498 57.9114 34.2689C58.6114 33.848 59.2448 33.3397 59.7864 32.7355C60.346 32.1223 60.7771 31.4031 61.0542 30.6205C61.3313 29.8379 61.4489 29.0077 61.3999 28.179C61.351 27.3502 61.1366 26.5396 60.7693 25.7951C60.402 25.0506 59.8893 24.3871 59.2614 23.8439C58.7606 23.368 58.1492 23.0243 57.4823 22.844C57.9823 22.9023 58.4614 22.969 58.9198 23.0398C62.7155 23.6439 65.903 25.6773 68.8197 27.8814L76.3529 33.5689C77.6968 34.5464 79.316 35.073 80.9779 35.073C82.6397 35.073 84.2589 34.5464 85.6028 33.5689C87.9903 31.7647 88.7236 28.7939 87.2111 26.3689C85.4487 23.5439 82.9653 19.9315 80.582 17.7232C78.1946 15.5149 74.6404 13.5399 71.7405 12.1399C68.5238 10.5857 64.9739 9.69407 61.3614 9.10657C54.0365 7.92325 46.4032 8.10658 39.1533 9.59823C35.017 10.4487 30.8054 10.8828 26.5826 10.8857Z" fill="#607087"/>
<path d="M27.9417 60.7776C26.4125 62.3068 25.8417 64.4151 25.6292 67.7109C28.0716 67.6775 30.4046 66.6921 32.1314 64.9644C33.8583 63.2368 34.8427 60.9034 34.875 58.4609C31.5833 58.6776 29.4708 59.2484 27.9417 60.7776ZM73.0583 60.7776C71.5292 59.2484 69.4208 58.6776 66.125 58.4651C66.1584 60.9076 67.1439 63.2405 68.8715 64.9674C70.5991 66.6942 72.9325 67.6786 75.375 67.7109C75.1583 64.4193 74.5875 62.3068 73.0583 60.7776ZM73.0583 89.2276C71.5292 90.7568 69.4208 91.3276 66.125 91.5401C66.1584 89.0976 67.1439 86.7647 68.8715 85.0378C70.5991 83.311 72.9325 82.3266 75.375 82.2943C75.1583 85.5859 74.5875 87.6984 73.0583 89.2276ZM27.9417 89.2276C29.4708 90.7568 31.5792 91.3276 34.875 91.5401C34.8416 89.0976 33.8561 86.7647 32.1285 85.0378C30.4009 83.311 28.0675 82.3266 25.625 82.2943C25.8417 85.5859 26.4125 87.6984 27.9417 89.2276Z" fill="#607087"/>
<path fill-rule="evenodd" clip-rule="evenodd" d="M25.5 73.959C29.644 73.959 33.6183 72.3128 36.5485 69.3825C39.4788 66.4523 41.125 62.478 41.125 58.334H59.875C59.875 62.478 61.5212 66.4523 64.4515 69.3825C67.3817 72.3128 71.356 73.959 75.5 73.959V76.0423C71.356 76.0423 67.3817 77.6885 64.4515 80.6188C61.5212 83.549 59.875 87.5233 59.875 91.6673H41.125C41.125 87.5233 39.4788 83.549 36.5485 80.6188C33.6183 77.6885 29.644 76.0423 25.5 76.0423V73.959ZM50.5 79.1673C51.6051 79.1673 52.6649 78.7283 53.4463 77.9469C54.2277 77.1655 54.6667 76.1057 54.6667 75.0007C54.6667 73.8956 54.2277 72.8358 53.4463 72.0544C52.6649 71.273 51.6051 70.834 50.5 70.834C49.3949 70.834 48.3351 71.273 47.5537 72.0544C46.7723 72.8358 46.3333 73.8956 46.3333 75.0007C46.3333 76.1057 46.7723 77.1655 47.5537 77.9469C48.3351 78.7283 49.3949 79.1673 50.5 79.1673Z" fill="#607087"/>
</svg>
