<svg width="120" height="120" viewBox="0 0 120 120" fill="none" xmlns="http://www.w3.org/2000/svg">
<g id="solar:book-2-bold-duotone">
<g id="Group">
<path id="Vector" opacity="0.5" d="M23.635 13.665C25.165 12.125 27.305 11.125 31.355 10.575C35.525 10.01 41.045 10 48.965 10H71.035C78.955 10 84.475 10.01 88.645 10.575C92.695 11.125 94.835 12.125 96.365 13.665C97.89 15.205 98.885 17.365 99.43 21.45C99.99 25.65 100 31.225 100 39.21V90H37.13C31.71 90 29.82 90.03 28.365 90.34C25.8 90.89 23.565 92.075 21.94 93.675C21.39 94.215 21.12 94.48 20.485 96.2C20.1819 96.9299 20.0175 97.7099 20 98.5V39.21C20 31.225 20.01 25.655 20.57 21.45C21.115 17.37 22.11 15.205 23.635 13.665Z" fill="#9EA8B7"/>
<path id="Vector_2" d="M99.9992 90H37.1292C31.7092 90 29.8192 90.03 28.3642 90.34C25.7992 90.89 23.5642 92.075 21.9392 93.675C21.3892 94.215 21.1192 94.48 20.4842 96.2C19.8492 97.915 19.9492 98.645 20.1542 100.1L20.2642 100.85C20.8142 104.115 21.8142 105.84 23.3442 107.07C24.8792 108.3 27.0292 109.105 31.0942 109.54C35.2792 109.99 40.8242 110 48.7742 110H70.9242C78.8742 110 84.4242 109.995 88.6042 109.54C92.6692 109.105 94.8192 108.3 96.3542 107.07C97.3542 106.27 98.1242 105.26 98.6892 103.75H39.9992C39.0046 103.75 38.0508 103.355 37.3475 102.652C36.6443 101.948 36.2492 100.995 36.2492 100C36.2492 99.0054 36.6443 98.0516 37.3475 97.3483C38.0508 96.6451 39.0046 96.25 39.9992 96.25H99.8742C99.9642 94.435 99.9892 92.37 99.9992 90ZM36.2492 35C36.2492 34.0054 36.6443 33.0516 37.3475 32.3483C38.0508 31.6451 39.0046 31.25 39.9992 31.25H79.9992C80.9937 31.25 81.9476 31.6451 82.6508 32.3483C83.3541 33.0516 83.7492 34.0054 83.7492 35C83.7492 35.9946 83.3541 36.9484 82.6508 37.6517C81.9476 38.3549 80.9937 38.75 79.9992 38.75H39.9992C39.0046 38.75 38.0508 38.3549 37.3475 37.6517C36.6443 36.9484 36.2492 35.9946 36.2492 35ZM39.9992 48.75C39.0046 48.75 38.0508 49.1451 37.3475 49.8484C36.6443 50.5516 36.2492 51.5054 36.2492 52.5C36.2492 53.4946 36.6443 54.4484 37.3475 55.1516C38.0508 55.8549 39.0046 56.25 39.9992 56.25H64.9992C65.9937 56.25 66.9476 55.8549 67.6508 55.1516C68.3541 54.4484 68.7492 53.4946 68.7492 52.5C68.7492 51.5054 68.3541 50.5516 67.6508 49.8484C66.9476 49.1451 65.9937 48.75 64.9992 48.75H39.9992Z" fill="#9EA8B7"/>
</g>
</g>
</svg>
