<svg width="16" height="18" viewBox="0 0 16 18" fill="none" xmlns="http://www.w3.org/2000/svg">
<path d="M11.3333 2.33393H13.8333C14.2754 2.33393 14.6993 2.50953 15.0118 2.82209C15.3244 3.13465 15.5 3.55857 15.5 4.0006V4.83393M11.3333 15.6673H13.8333C14.2754 15.6673 14.6993 15.4917 15.0118 15.1791C15.3244 14.8666 15.5 14.4426 15.5 14.0006V13.1673M5.50083 9.0006H5.5M15.5 9.0006H11.3333M11.3333 9.0006L13 7.33393M11.3333 9.0006L13 10.6673M1.6875 15.1906L6.6875 16.6906C6.9364 16.7653 7.19933 16.7808 7.45527 16.7358C7.71122 16.6908 7.9531 16.5866 8.16159 16.4314C8.37008 16.2763 8.53941 16.0746 8.65604 15.8423C8.77268 15.6101 8.83339 15.3538 8.83333 15.0939V2.90727C8.83339 2.64739 8.77268 2.39111 8.65604 2.15888C8.53941 1.92665 8.37008 1.72491 8.16159 1.56978C7.9531 1.41464 7.71122 1.31041 7.45527 1.26541C7.19933 1.22041 6.9364 1.23589 6.6875 1.3106L1.6875 2.8106C1.34418 2.91365 1.04324 3.12465 0.829324 3.41227C0.615408 3.69989 0.499921 4.04882 0.5 4.40727V13.5939C0.499921 13.9524 0.615408 14.3013 0.829324 14.5889C1.04324 14.8766 1.34418 15.0875 1.6875 15.1906Z" stroke="black" stroke-linecap="round" stroke-linejoin="round"/>
</svg>
