<svg width="11" height="15" viewBox="0 0 11 15" fill="none" xmlns="http://www.w3.org/2000/svg">
<path opacity="0.4" d="M6.31497 10.3542L6.57031 13.2414C6.57031 13.8893 6.03986 14.4146 5.38561 14.4146C4.73136 14.4146 4.20091 13.8893 4.20091 13.2414L4.45625 10.3542C4.45625 9.84586 4.87236 9.43377 5.38561 9.43377C5.89973 9.43377 6.31497 9.84586 6.31497 10.3542Z" fill="#F75151"/>
<path d="M6.26946 0.658758C6.31503 0.703884 6.50761 0.872467 6.66752 1.03083C7.6691 1.95464 9.30688 4.36674 9.8081 5.62856C9.88805 5.82013 10.0583 6.3046 10.0703 6.56428C10.0703 6.81205 10.0127 7.04875 9.89923 7.27438C9.74018 7.5562 9.48914 7.78098 9.19339 7.90529C8.98878 7.98447 8.37407 8.10878 8.3629 8.10878C7.69145 8.23224 6.5996 8.2995 5.39254 8.2995C4.24395 8.2995 3.1968 8.23224 2.51418 8.13092C2.50215 8.11985 1.73957 7.99554 1.47821 7.86016C1.0002 7.61239 0.704458 7.12793 0.704458 6.60941L0.704458 6.56428C0.715635 6.22626 1.01224 5.51617 1.02256 5.51617C1.52378 4.32161 3.08246 1.96656 4.11843 1.01976C4.11843 1.01976 4.38495 0.752415 4.55087 0.636621C4.78988 0.456117 5.08562 0.365866 5.38137 0.365866C5.7115 0.365866 6.01842 0.467186 6.26946 0.658758Z" fill="#F75151"/>
</svg>
