<svg width="25" height="24" viewBox="0 0 25 24" fill="none" xmlns="http://www.w3.org/2000/svg">
<path d="M12.5 18.75C6.67 18.75 3.93 12.56 3.81 12.3C3.77039 12.2049 3.75 12.103 3.75 12C3.75 11.897 3.77039 11.7951 3.81 11.7C3.93 11.44 6.67 5.25 12.5 5.25C18.33 5.25 21.07 11.44 21.19 11.7C21.2296 11.7951 21.25 11.897 21.25 12C21.25 12.103 21.2296 12.2049 21.19 12.3C21.07 12.56 18.33 18.75 12.5 18.75V18.75ZM5.33 12C5.92 13.15 8.33 17.25 12.5 17.25C16.67 17.25 19.08 13.15 19.67 12C19.08 10.85 16.67 6.75 12.5 6.75C8.33 6.75 5.92 10.85 5.33 12Z" fill="#15BB5C"/>
<path d="M12.5 15.25C11.8572 15.25 11.2289 15.0594 10.6944 14.7023C10.1599 14.3452 9.74338 13.8376 9.49739 13.2437C9.25141 12.6499 9.18705 11.9964 9.31245 11.366C9.43785 10.7355 9.74738 10.1564 10.2019 9.7019C10.6564 9.24738 11.2355 8.93785 11.866 8.81245C12.4964 8.68705 13.1499 8.75141 13.7437 8.99739C14.3376 9.24338 14.8452 9.65994 15.2023 10.1944C15.5594 10.7289 15.75 11.3572 15.75 12C15.7474 12.8611 15.4041 13.6863 14.7952 14.2952C14.1863 14.9041 13.3611 15.2474 12.5 15.25ZM12.5 10.25C12.1539 10.25 11.8155 10.3526 11.5278 10.5449C11.24 10.7372 11.0157 11.0105 10.8832 11.3303C10.7508 11.6501 10.7161 12.0019 10.7836 12.3414C10.8512 12.6809 11.0178 12.9927 11.2626 13.2374C11.5073 13.4822 11.8191 13.6489 12.1586 13.7164C12.4981 13.7839 12.8499 13.7492 13.1697 13.6168C13.4895 13.4843 13.7628 13.26 13.9551 12.9722C14.1474 12.6845 14.25 12.3461 14.25 12C14.2474 11.5367 14.0622 11.0931 13.7345 10.7655C13.4069 10.4378 12.9633 10.2526 12.5 10.25Z" fill="#15BB5C"/>
</svg>
