<svg width="18" height="14" viewBox="0 0 18 14" fill="none" xmlns="http://www.w3.org/2000/svg">
<path d="M6.75 1.34503C7.47764 1.11436 8.23667 0.997973 9 1.00003C12.1365 1.00003 14.271 2.87503 15.5438 4.52803C16.1813 5.35753 16.5 5.77078 16.5 7.00003C16.5 8.23003 16.1813 8.64328 15.5438 9.47203C14.271 11.125 12.1365 13 9 13C5.8635 13 3.729 11.125 2.45625 9.47203C1.81875 8.64403 1.5 8.22928 1.5 7.00003C1.5 5.77003 1.81875 5.35678 2.45625 4.52803C2.84502 4.02006 3.27796 3.54746 3.75 3.11578" stroke="#FFBE62" stroke-width="1.4" stroke-linecap="round"/>
<path d="M11.25 7C11.25 7.59674 11.0129 8.16903 10.591 8.59099C10.169 9.01295 9.59674 9.25 9 9.25C8.40326 9.25 7.83097 9.01295 7.40901 8.59099C6.98705 8.16903 6.75 7.59674 6.75 7C6.75 6.40326 6.98705 5.83097 7.40901 5.40901C7.83097 4.98705 8.40326 4.75 9 4.75C9.59674 4.75 10.169 4.98705 10.591 5.40901C11.0129 5.83097 11.25 6.40326 11.25 7Z" stroke="#FFBE62" stroke-width="1.4"/>
</svg>
