<svg width="20" height="21" viewBox="0 0 20 21" fill="none" xmlns="http://www.w3.org/2000/svg">
<path fill-rule="evenodd" clip-rule="evenodd" d="M2.5 5.93997C2.5 7.56073 3.83556 8.87995 5.47848 8.87995C7.12139 8.87995 8.45695 7.56073 8.45695 5.93997C8.45695 4.3183 7.12139 3 5.47848 3C5.25216 3 5.0277 3.02482 4.80976 3.07538C4.4335 3.16088 4.19972 3.53228 4.28727 3.90277C4.37482 4.27325 4.74923 4.50676 5.12642 4.41759C5.24005 4.39184 5.35926 4.37897 5.47848 4.37897C6.35116 4.37897 7.05992 5.07857 7.05992 5.93997C7.05992 6.80045 6.35116 7.50097 5.47848 7.50097C4.6058 7.50097 3.89703 6.80045 3.89703 5.93997C3.89703 5.85172 3.90449 5.76438 3.91846 5.68073C3.98272 5.30473 3.72473 4.94987 3.34474 4.88644C2.96009 4.82668 2.60431 5.07765 2.54098 5.45365C2.51397 5.61178 2.5 5.7745 2.5 5.93997ZM11.9078 6.62919H17.6347C18.0203 6.62919 18.3333 6.3203 18.3333 5.9397C18.3333 5.5591 18.0203 5.25021 17.6347 5.25021H11.9078C11.5222 5.25021 11.2093 5.5591 11.2093 5.9397C11.2093 6.3203 11.5222 6.62919 11.9078 6.62919ZM8.92636 15.791H3.19852C2.81294 15.791 2.5 15.4821 2.5 15.1015C2.5 14.7209 2.81294 14.412 3.19852 14.412H8.92636C9.31194 14.412 9.62487 14.7209 9.62487 15.1015C9.62487 15.4821 9.31194 15.791 8.92636 15.791ZM12.3764 15.1017C12.3764 16.7224 13.7119 18.0417 15.3549 18.0417C16.9968 18.0417 18.3333 16.7224 18.3333 15.1017C18.3333 14.9362 18.3194 14.7735 18.2924 14.6154C18.229 14.2394 17.8677 13.9856 17.4886 14.0482C17.1086 14.1116 16.8506 14.4664 16.9149 14.8424C16.9288 14.9261 16.9363 15.0134 16.9363 15.1017C16.9363 15.9622 16.2266 16.6627 15.3549 16.6627C14.4822 16.6627 13.7734 15.9622 13.7734 15.1017C13.7734 14.1226 14.742 13.3605 15.7106 13.5793C16.086 13.6648 16.4604 13.4304 16.547 13.0599C16.6327 12.6894 16.3961 12.3189 16.0198 12.2353C15.8019 12.1865 15.5784 12.1617 15.3549 12.1617C13.7119 12.1617 12.3764 13.48 12.3764 15.1017Z" fill="#607087"/>
</svg>
