<svg width="16" height="16" viewBox="0 0 16 16" fill="none" xmlns="http://www.w3.org/2000/svg">
<path fill-rule="evenodd" clip-rule="evenodd" d="M2 4.35198C2 5.64858 3.06845 6.70396 4.38278 6.70396C5.69711 6.70396 6.76556 5.64858 6.76556 4.35198C6.76556 3.05464 5.69711 2 4.38278 2C4.20173 2 4.02216 2.01986 3.84781 2.06031C3.5468 2.1287 3.35978 2.42583 3.42982 2.72221C3.49986 3.0186 3.79938 3.20541 4.10114 3.13407C4.19204 3.11348 4.28741 3.10318 4.38278 3.10318C5.08093 3.10318 5.64794 3.66286 5.64794 4.35198C5.64794 5.04036 5.08093 5.60078 4.38278 5.60078C3.68464 5.60078 3.11763 5.04036 3.11763 4.35198C3.11763 4.28137 3.12359 4.21151 3.13476 4.14458C3.18618 3.84378 2.97979 3.5599 2.67579 3.50915C2.36807 3.46134 2.08345 3.66212 2.03278 3.96292C2.01118 4.08942 2 4.2196 2 4.35198ZM9.52626 4.90335H14.1078C14.4163 4.90335 14.6666 4.65624 14.6666 4.35176C14.6666 4.04728 14.4163 3.80017 14.1078 3.80017H9.52626C9.2178 3.80017 8.96745 4.04728 8.96745 4.35176C8.96745 4.65624 9.2178 4.90335 9.52626 4.90335ZM7.14109 12.2328H2.55881C2.25035 12.2328 2 11.9857 2 11.6812C2 11.3767 2.25035 11.1296 2.55881 11.1296H7.14109C7.44955 11.1296 7.6999 11.3767 7.6999 11.6812C7.6999 11.9857 7.44955 12.2328 7.14109 12.2328ZM9.9011 11.6814C9.9011 12.978 10.9696 14.0333 12.2839 14.0333C13.5975 14.0333 14.6667 12.978 14.6667 11.6814C14.6667 11.549 14.6555 11.4188 14.6339 11.2923C14.5832 10.9915 14.2941 10.7885 13.9909 10.8385C13.6869 10.8893 13.4805 11.1732 13.5319 11.474C13.5431 11.5409 13.549 11.6108 13.549 11.6814C13.549 12.3697 12.9813 12.9302 12.2839 12.9302C11.5857 12.9302 11.0187 12.3697 11.0187 11.6814C11.0187 10.8981 11.7936 10.2884 12.5685 10.4634C12.8688 10.5318 13.1683 10.3443 13.2376 10.0479C13.3061 9.75153 13.1169 9.45514 12.8159 9.38821C12.6415 9.34923 12.4627 9.32938 12.2839 9.32938C10.9696 9.32938 9.9011 10.384 9.9011 11.6814Z" fill="#19113D"/>
</svg>
