<svg width="17" height="16" viewBox="0 0 17 16" fill="none" xmlns="http://www.w3.org/2000/svg">
<path fill-rule="evenodd" clip-rule="evenodd" d="M0.5 3.43997C0.5 5.06073 1.83556 6.37995 3.47848 6.37995C5.12139 6.37995 6.45695 5.06073 6.45695 3.43997C6.45695 1.8183 5.12139 0.5 3.47848 0.5C3.25216 0.5 3.0277 0.524822 2.80976 0.575384C2.4335 0.66088 2.19972 1.03228 2.28727 1.40277C2.37482 1.77325 2.74923 2.00676 3.12642 1.91759C3.24005 1.89184 3.35926 1.87897 3.47848 1.87897C4.35116 1.87897 5.05992 2.57857 5.05992 3.43997C5.05992 4.30045 4.35116 5.00097 3.47848 5.00097C2.6058 5.00097 1.89703 4.30045 1.89703 3.43997C1.89703 3.35172 1.90449 3.26438 1.91846 3.18073C1.98272 2.80473 1.72473 2.44987 1.34474 2.38644C0.96009 2.32668 0.604312 2.57765 0.54098 2.95365C0.51397 3.11178 0.5 3.2745 0.5 3.43997ZM9.90783 4.12919H15.6347C16.0203 4.12919 16.3333 3.8203 16.3333 3.4397C16.3333 3.0591 16.0203 2.75021 15.6347 2.75021H9.90783C9.52225 2.75021 9.20931 3.0591 9.20931 3.4397C9.20931 3.8203 9.52225 4.12919 9.90783 4.12919ZM6.92636 13.291H1.19852C0.812936 13.291 0.5 12.9821 0.5 12.6015C0.5 12.2209 0.812936 11.912 1.19852 11.912H6.92636C7.31194 11.912 7.62487 12.2209 7.62487 12.6015C7.62487 12.9821 7.31194 13.291 6.92636 13.291ZM10.3764 12.6017C10.3764 14.2224 11.7119 15.5417 13.3549 15.5417C14.9968 15.5417 16.3333 14.2224 16.3333 12.6017C16.3333 12.4362 16.3194 12.2735 16.2924 12.1154C16.229 11.7394 15.8677 11.4856 15.4886 11.5482C15.1086 11.6116 14.8506 11.9664 14.9149 12.3424C14.9288 12.4261 14.9363 12.5134 14.9363 12.6017C14.9363 13.4622 14.2266 14.1627 13.3549 14.1627C12.4822 14.1627 11.7734 13.4622 11.7734 12.6017C11.7734 11.6226 12.742 10.8605 13.7106 11.0793C14.086 11.1648 14.4604 10.9304 14.547 10.5599C14.6327 10.1894 14.3961 9.81892 14.0198 9.73527C13.8019 9.68654 13.5784 9.66172 13.3549 9.66172C11.7119 9.66172 10.3764 10.98 10.3764 12.6017Z" fill="#607087"/>
</svg>
