<svg width="16" height="16" viewBox="0 0 16 16" fill="none" xmlns="http://www.w3.org/2000/svg">
<path d="M7.9998 15.2008C9.90936 15.2008 11.7407 14.4422 13.091 13.092C14.4412 11.7417 15.1998 9.91034 15.1998 8.00078C15.1998 6.09122 14.4412 4.25987 13.091 2.90961C11.7407 1.55935 9.90936 0.800781 7.9998 0.800781C6.09025 0.800781 4.2589 1.55935 2.90864 2.90961C1.55837 4.25987 0.799805 6.09122 0.799805 8.00078C0.799805 9.91034 1.55837 11.7417 2.90864 13.092C4.2589 14.4422 6.09025 15.2008 7.9998 15.2008ZM7.9998 1.70078C8.5911 1.70078 9.26611 2.23178 9.8196 3.41798C10.0149 3.83738 10.185 4.31978 10.3227 4.85078H5.67691C5.81461 4.31978 5.9847 3.83738 6.1809 3.41798C6.7326 2.23178 7.40761 1.70078 7.9998 1.70078ZM5.3646 3.03728C5.09884 3.61941 4.89289 4.22703 4.7499 4.85078H2.5422C3.30202 3.53756 4.50891 2.54152 5.94241 2.04458C5.7255 2.34158 5.532 2.67818 5.3646 3.03728ZM4.5726 5.75078C4.45613 6.49509 4.39835 7.24741 4.3998 8.00078C4.3998 8.78378 4.4601 9.54158 4.5735 10.2508H2.1138C1.83933 9.53242 1.699 8.76979 1.6998 8.00078C1.6998 7.20878 1.8465 6.44918 2.1138 5.75078H4.5726ZM4.7499 11.1508C4.9083 11.8195 5.1162 12.4306 5.3646 12.9643C5.532 13.3234 5.7255 13.66 5.94241 13.957C4.50891 13.46 3.30202 12.464 2.5422 11.1508H4.7499ZM5.67691 11.1508H10.3227C10.1987 11.6427 10.03 12.1223 9.8187 12.5836C9.267 13.7698 8.592 14.3008 7.9998 14.3008C7.4085 14.3008 6.73351 13.7698 6.18001 12.5836C5.96933 12.1223 5.80033 11.6427 5.67691 11.1508ZM10.5144 10.2508H5.4852C5.36014 9.50734 5.29812 8.75466 5.2998 8.00078C5.2998 7.20608 5.3655 6.44828 5.4852 5.75078H10.5144C10.6341 6.44828 10.6998 7.20608 10.6998 8.00078C10.6998 8.79548 10.6341 9.55328 10.5144 10.2508ZM11.2497 11.1508H13.4574C12.6976 12.464 11.4907 13.46 10.0572 13.957C10.2741 13.66 10.4676 13.3234 10.635 12.9643C10.8834 12.4306 11.0913 11.8195 11.2497 11.1508ZM13.8867 10.2508H11.4261C11.5395 9.54158 11.5998 8.78378 11.5998 8.00078C11.5998 7.21778 11.5395 6.45998 11.4261 5.75078H13.8858C14.1531 6.44918 14.2998 7.20878 14.2998 8.00078C14.2998 8.79278 14.154 9.55238 13.8867 10.2508ZM10.0572 2.04458C11.4907 2.54144 12.6977 3.53751 13.4574 4.85078H11.2488C11.1058 4.22703 10.8999 3.61942 10.6341 3.03728C10.4739 2.68858 10.2804 2.35615 10.0563 2.04458H10.0572Z" fill="#607087"/>
</svg>
