<svg width="100" height="100" viewBox="0 0 100 100" fill="none" xmlns="http://www.w3.org/2000/svg">
<path d="M40.7638 17.7776C41.0184 18.296 41.1866 18.851 41.2619 19.4217L42.6541 40.1213L43.3452 50.5254C43.3523 51.5953 43.5202 52.6583 43.8433 53.6802C44.678 55.6628 46.6858 56.9229 48.8703 56.835L82.1567 54.6577C83.598 54.634 84.99 55.1731 86.0262 56.1564C86.8897 56.9758 87.4472 58.0478 87.6228 59.2008L87.6818 59.9009C86.3043 78.9745 72.2958 94.8833 53.2618 98.99C34.2278 103.097 14.7093 94.4215 5.30355 77.6745C2.59194 72.8091 0.898252 67.4613 0.32191 61.9449C0.0811429 60.3119 -0.0248726 58.6625 0.00489613 57.0127C-0.0248297 36.5637 14.5374 18.8848 34.9217 14.6228C37.375 14.2408 39.7801 15.5396 40.7638 17.7776Z" fill="#8196B3"/>
<path opacity="0.4" d="M54.3509 0.00409593C77.1503 0.584133 96.3124 16.9789 100.001 39.0615L99.9656 39.2244L99.8649 39.4614L99.879 40.1118C99.8267 40.9736 99.494 41.8027 98.9206 42.4724C98.3234 43.1701 97.5074 43.6451 96.6088 43.8295L96.0608 43.9047L57.6569 46.393C56.3794 46.519 55.1075 46.1071 54.1576 45.2598C53.3659 44.5537 52.8598 43.6005 52.7168 42.5734L50.1391 4.22531C50.0943 4.09564 50.0943 3.95508 50.1391 3.82541C50.1743 2.76836 50.6396 1.7692 51.431 1.05115C52.2225 0.333099 53.274 -0.0440018 54.3509 0.00409593Z" fill="#8196B3"/>
</svg>
