<svg width="15" height="15" viewBox="0 0 15 15" fill="none" xmlns="http://www.w3.org/2000/svg">
<path d="M6.11457 2.66675C6.15276 2.7445 6.17799 2.82776 6.18929 2.91336L6.39812 6.0183L6.50177 7.57891C6.50285 7.7394 6.52803 7.89885 6.5765 8.05213C6.7017 8.34952 7.00287 8.53853 7.33054 8.52536L12.3235 8.19877C12.5397 8.1952 12.7485 8.27607 12.9039 8.42357C13.0335 8.54648 13.1171 8.70728 13.1434 8.88023L13.1523 8.98525C12.9456 11.8463 10.8444 14.2326 7.98927 14.8486C5.13417 15.4646 2.2064 14.1633 0.795532 11.6513C0.388791 10.9215 0.134738 10.1193 0.0482864 9.29184C0.0121714 9.04689 -0.00373089 8.79948 0.000734419 8.55202C-0.00372446 5.48466 2.1806 2.83282 5.23825 2.19353C5.60626 2.13623 5.96702 2.33105 6.11457 2.66675Z" fill="#130F26"/>
<path opacity="0.4" d="M8.15243 0.000614389C11.5723 0.0876199 14.4467 2.54684 14.9999 5.85922L14.9946 5.88366L14.9795 5.9192L14.9816 6.01677C14.9738 6.14603 14.9239 6.27041 14.8379 6.37086C14.7483 6.47551 14.6259 6.54677 14.4911 6.57443L14.4089 6.58571L8.64833 6.95896C8.45672 6.97785 8.26594 6.91607 8.12344 6.78897C8.00469 6.68305 7.92878 6.54007 7.90733 6.38601L7.52067 0.633797C7.51394 0.614347 7.51394 0.593261 7.52067 0.573811C7.52595 0.415254 7.59575 0.26538 7.71446 0.157672C7.83317 0.0499648 7.99091 -0.00660028 8.15243 0.000614389Z" fill="#130F26"/>
</svg>
