<svg width="24" height="24" viewBox="0 0 24 24" fill="none" xmlns="http://www.w3.org/2000/svg">
<path fill-rule="evenodd" clip-rule="evenodd" d="M23.6532 9.59374C22.8516 4.70156 18.6691 1.06212 13.682 0.91715C13.1828 0.905682 12.7013 1.10071 12.3525 1.45563C12.0155 1.80282 11.8411 2.27478 11.8718 2.7561L12.3832 10.3862C12.4629 11.3492 13.2719 12.0911 14.2445 12.0931H14.3672L22.0373 11.5851C22.4979 11.559 22.9289 11.3511 23.2343 11.0076C23.5397 10.6641 23.6942 10.2136 23.6634 9.7563V9.59374H23.6532ZM14.2445 10.2643L13.7331 2.76626C17.7457 2.92801 21.1056 5.83918 21.8124 9.76646L14.2445 10.2643ZM17.5989 15.4865C17.7426 14.9997 18.2509 14.7156 18.7443 14.8464C18.9863 14.9038 19.1946 15.0561 19.3218 15.2685C19.449 15.481 19.4841 15.7355 19.4193 15.9742C18.7247 18.4926 17.0306 20.623 14.7251 21.8771C11.8962 23.4348 8.47129 23.4868 5.59582 22.0156C2.72034 20.5445 0.773913 17.7443 0.407523 14.5518C0.348089 14.1789 0.324121 13.8014 0.335935 13.424C0.330994 8.84921 3.55952 4.89936 8.06745 3.96513C8.57578 3.86413 9.07028 4.19164 9.17195 4.69665C9.27361 5.20165 8.94395 5.69292 8.43561 5.79392C4.79718 6.5628 2.19861 9.75903 2.20745 13.4545C2.19898 13.7433 2.21609 14.0323 2.25859 14.3181C2.70732 18.0078 5.71632 20.8691 9.44634 21.1532C13.1764 21.4373 16.5892 19.0651 17.5989 15.4865Z" fill="#4F4F4F"/>
</svg>
