<svg width="32" height="32" viewBox="0 0 32 32" fill="none" xmlns="http://www.w3.org/2000/svg">
<circle cx="16" cy="16" r="16" fill="#E8F6EE"/>
<path d="M14.1333 17.4928L19.64 11.9862C19.8111 11.815 20.0289 11.7295 20.2933 11.7295C20.5577 11.7295 20.7755 11.815 20.9466 11.9862C21.1177 12.1573 21.2033 12.375 21.2033 12.6395C21.2033 12.9039 21.1177 13.1217 20.9466 13.2928L14.7866 19.4528C14.6 19.6395 14.3822 19.7328 14.1333 19.7328C13.8844 19.7328 13.6666 19.6395 13.48 19.4528L11.0533 17.0262C10.8822 16.855 10.7966 16.6373 10.7966 16.3728C10.7966 16.1084 10.8822 15.8906 11.0533 15.7195C11.2244 15.5484 11.4422 15.4628 11.7066 15.4628C11.9711 15.4628 12.1889 15.5484 12.36 15.7195L14.1333 17.4928Z" fill="#219653"/>
</svg>
