<svg width="14" height="13" viewBox="0 0 14 13" fill="none" xmlns="http://www.w3.org/2000/svg">
<path d="M13.125 9.62414V6.49914C13.125 5.34914 12.78 4.27976 12.1875 3.38851M1.875 9.62414V6.49914C1.87481 5.5417 2.11902 4.60006 2.58449 3.76339C3.04996 2.92671 3.72129 2.2227 4.5349 1.718C5.34852 1.21331 6.27749 0.924648 7.23386 0.879347C8.19022 0.834047 9.14232 1.03361 10 1.45914M13.75 8.68664V9.93664M1.25 8.68664V9.93664" stroke="#607087" stroke-width="0.9" stroke-linecap="round"/>
<path d="M5 7.65285C5 7.17472 5 6.93597 4.89062 6.76972C4.83645 6.687 4.76368 6.61808 4.67813 6.56847C4.50875 6.47097 4.28 6.49347 3.82313 6.53847C3.05313 6.6141 2.66812 6.65222 2.39187 6.85972C2.25151 6.96603 2.13451 7.10005 2.04812 7.25347C1.875 7.56035 1.875 7.96222 1.875 8.76785V9.74597C1.875 10.5428 1.875 10.9416 2.05125 11.2497C2.1175 11.3647 2.2 11.4685 2.29625 11.5572C2.55438 11.7947 2.93 11.8697 3.6825 12.0172C4.21188 12.1216 4.47687 12.1741 4.6725 12.0641C4.74508 12.0231 4.8088 11.968 4.86 11.9022C5 11.7222 5 11.4422 5 10.881V7.65285ZM10 7.65285C10 7.17472 10 6.93597 10.1094 6.76972C10.1644 6.6866 10.2369 6.61722 10.3219 6.56847C10.4912 6.47097 10.72 6.49347 11.1769 6.53847C11.9469 6.6141 12.3319 6.65222 12.6081 6.85972C12.7475 6.96535 12.8644 7.0991 12.9519 7.25347C13.125 7.55972 13.125 7.9616 13.125 8.76722V9.74535C13.125 10.5422 13.125 10.941 12.9488 11.2491C12.8831 11.3641 12.8 11.4678 12.7038 11.5566C12.4456 11.7941 12.07 11.8691 11.3175 12.0166C10.7881 12.121 10.5231 12.1735 10.3275 12.0635C10.2549 12.0225 10.1912 11.9674 10.14 11.9016C10 11.7222 10 11.4422 10 10.881V7.65285Z" stroke="#607087" stroke-width="0.9"/>
</svg>
