<svg width="23" height="24" viewBox="0 0 23 24" fill="none" xmlns="http://www.w3.org/2000/svg">
<path fill-rule="evenodd" clip-rule="evenodd" d="M21.5112 6.85653C22.3419 7.52462 22.8295 8.52971 22.8402 9.59566L22.83 18.8986C22.83 21.4255 20.7816 23.4739 18.2547 23.4739H16.2257C15.0026 23.4739 14.0095 22.4854 14.0039 21.2623V17.0623C14.0039 16.7374 13.7405 16.4739 13.4155 16.4739H10.3721C10.2142 16.4739 10.063 16.5373 9.95237 16.6498C9.84173 16.7624 9.78094 16.9147 9.78366 17.0725V18.6754C9.78366 19.1796 9.37488 19.5884 8.87062 19.5884C8.36636 19.5884 7.95757 19.1796 7.95757 18.6754V17.0725C7.95757 16.4294 8.21302 15.8127 8.66773 15.358C9.12244 14.9033 9.73916 14.6478 10.3822 14.6478H13.4257C14.7608 14.6534 15.8402 15.7373 15.8402 17.0725V21.2623C15.8402 21.4752 16.0128 21.6478 16.2257 21.6478H18.3054C19.8182 21.6478 21.0445 20.4215 21.0445 18.9087V9.61595C21.0371 9.10114 20.7987 8.61693 20.3953 8.29711L13.3851 2.70725C12.5011 1.97949 11.2256 1.97949 10.3416 2.70725L8.08946 4.39131C7.67204 4.69106 7.09066 4.59568 6.79091 4.17826C6.49115 3.76085 6.58653 3.17947 7.00395 2.87971L9.22569 1.26667C10.7662 0.0284193 12.9606 0.0284193 14.5011 1.26667L21.5112 6.85653ZM5.49235 21.6377H10.159V21.658C10.6633 21.658 11.0721 22.0668 11.0721 22.571C11.0721 23.0753 10.6633 23.4841 10.159 23.4841H5.49235C2.96777 23.4785 0.922571 21.4333 0.916992 18.9087V9.61595C0.933133 8.54212 1.43718 7.53402 2.28656 6.87681L3.12859 6.24783C3.5251 6.06091 3.9985 6.18216 4.25633 6.53668C4.51416 6.8912 4.48366 7.37892 4.18366 7.69855L3.36192 8.30725C2.97256 8.63073 2.74605 9.10975 2.74308 9.61595V18.8986C2.75419 20.4107 3.98021 21.6322 5.49235 21.6377Z" fill="#4F4F4F"/>
</svg>
