<svg width="13" height="13" viewBox="0 0 13 13" fill="none" xmlns="http://www.w3.org/2000/svg">
<path d="M4.71483 11.9888V10.072C4.71482 9.58631 5.10979 9.19169 5.59902 9.18864H7.39538C7.8868 9.18864 8.28517 9.58415 8.28517 10.072V11.9833C8.28516 12.4045 8.62751 12.7469 9.05184 12.75H10.2774C10.8498 12.7515 11.3992 12.5267 11.8045 12.1254C12.2097 11.7241 12.4375 11.1792 12.4375 10.611V5.16615C12.4375 4.70712 12.2325 4.2717 11.8779 3.97719L7.71436 0.671418C6.98657 0.0932016 5.94711 0.11188 5.24087 0.715865L1.16688 3.97719C0.795463 4.26301 0.57347 4.69973 0.5625 5.16615V10.6054C0.5625 11.7898 1.52961 12.75 2.72261 12.75H3.92018C4.12448 12.7515 4.32093 12.6719 4.46592 12.529C4.61091 12.3861 4.69245 12.1917 4.69245 11.9888H4.71483Z" fill="#130F26"/>
</svg>
