<svg width="22" height="22" viewBox="0 0 22 22" fill="none" xmlns="http://www.w3.org/2000/svg">
<path d="M11.1267 6.17176L11.1269 6.17176C12.1586 6.17208 13.1589 6.52758 13.9594 7.17851C14.76 7.82944 15.312 8.73612 15.5228 9.74615C15.7336 10.7562 15.5902 11.808 15.1168 12.7248C14.6434 13.6415 13.8688 14.3674 12.9233 14.7804L12.5883 14.9266V15.2922V17.1736H9.6657V15.2922V14.9263L9.33025 14.7801C8.38384 14.3679 7.60835 13.6422 7.13428 12.7252C6.66022 11.8082 6.51653 10.7559 6.72741 9.74535C6.93829 8.73482 7.49085 7.8278 8.2921 7.17693C9.09335 6.52606 10.0944 6.17109 11.1267 6.17176Z" fill="#FFF6EA" stroke="#E47D05" stroke-width="1.11696"/>
<path d="M20.2193 10.6634H21.2292H20.2193ZM17.6946 4.0991L18.7045 3.0892L17.6946 4.0991ZM11.1302 1.57435V0.564453V1.57435ZM4.5659 4.0991L3.556 3.0892L4.5659 4.0991ZM2.04115 10.6634H1.03125H2.04115ZM9.11044 20.7624H13.15H9.11044ZM16.1797 10.6634C16.1795 9.75313 15.9331 8.85982 15.4668 8.07803C15.0004 7.29625 14.3314 6.65508 13.5305 6.22236C12.7296 5.78964 11.8267 5.58147 10.9172 5.61988C10.0077 5.6583 9.12547 5.94186 8.36392 6.44056C7.60237 6.93927 6.98979 7.63457 6.59102 8.45289C6.19225 9.27121 6.02211 10.1821 6.09861 11.0892C6.1751 11.9963 6.49539 12.8658 7.02558 13.6058C7.55576 14.3458 8.27613 14.9287 9.11044 15.2928V17.7327H13.15V15.2928C14.0507 14.8996 14.817 14.2522 15.3552 13.4299C15.8933 12.6076 16.1799 11.6462 16.1797 10.6634Z" fill="#FFF6EA" stroke="#E47D05" stroke-width="1.11696" stroke-linecap="round" stroke-linejoin="round"/>
</svg>
