<svg width="32" height="31" viewBox="0 0 32 31" fill="none" xmlns="http://www.w3.org/2000/svg">
<path opacity="0.4" d="M22.6824 30.5H9.3213C4.09615 30.5 0.585938 26.9343 0.585938 21.6264V9.37508C0.585938 4.06717 4.09615 0.5 9.3213 0.5H22.6839C27.9091 0.5 31.4193 4.06717 31.4193 9.37508V21.6264C31.4193 26.9343 27.9091 30.5 22.6824 30.5Z" fill="#8196B3"/>
<path fill-rule="evenodd" clip-rule="evenodd" d="M14.8418 10.5125C14.8418 12.5675 13.1228 14.24 11.0107 14.24C8.8971 14.24 7.17969 12.5675 7.17969 10.5125C7.17969 8.45751 8.8971 6.78351 11.0107 6.78351C13.1228 6.78351 14.8418 8.45751 14.8418 10.5125ZM27.4124 18.6314C27.7716 18.9704 28.029 19.3574 28.1986 19.7699C28.712 21.0179 28.4453 22.5179 27.8964 23.7539C27.2459 25.2254 26.0002 26.3369 24.4308 26.8229C23.7339 27.0404 23.0032 27.1334 22.274 27.1334H9.35327C8.06752 27.1334 6.92977 26.8424 5.99706 26.2964C5.41277 25.9544 5.30948 25.1669 5.74269 24.6539C6.46727 23.7989 7.1826 22.9409 7.9041 22.0754C9.27927 20.4194 10.2058 19.9394 11.2356 20.3609C11.6534 20.5349 12.0728 20.7974 12.5044 21.0734C13.6545 21.8144 15.2532 22.8314 17.3591 21.7274C18.7986 20.9616 19.6342 19.6511 20.3615 18.5104L20.3762 18.4874C20.4251 18.4111 20.4737 18.3348 20.522 18.2587C20.7693 17.8699 21.0129 17.4869 21.2889 17.1344C21.6311 16.6979 22.9014 15.3329 24.5433 16.3049C25.5901 16.9169 26.4704 17.7449 27.4124 18.6314Z" fill="#8196B3"/>
</svg>
