<svg width="11" height="15" viewBox="0 0 11 15" fill="none" xmlns="http://www.w3.org/2000/svg">
<path opacity="0.4" d="M6.31497 4.64583L6.57031 1.75863C6.57031 1.11069 6.03986 0.585358 5.38561 0.585358C4.73136 0.585358 4.20091 1.11069 4.20091 1.75863L4.45625 4.64583C4.45625 5.15414 4.87236 5.56623 5.38561 5.56623C5.89973 5.56623 6.31497 5.15414 6.31497 4.64583Z" fill="#219653"/>
<path d="M6.26946 14.3412C6.31503 14.2961 6.50761 14.1275 6.66752 13.9692C7.6691 13.0454 9.30688 10.6333 9.8081 9.37144C9.88805 9.17987 10.0583 8.6954 10.0703 8.43572C10.0703 8.18795 10.0127 7.95125 9.89923 7.72562C9.74018 7.4438 9.48914 7.21902 9.19339 7.09471C8.98878 7.01553 8.37407 6.89122 8.3629 6.89122C7.69145 6.76776 6.5996 6.7005 5.39254 6.7005C4.24395 6.7005 3.1968 6.76776 2.51418 6.86908C2.50215 6.88015 1.73957 7.00446 1.47821 7.13984C1.0002 7.38761 0.704458 7.87207 0.704458 8.39059L0.704458 8.43572C0.715635 8.77374 1.01224 9.48383 1.02256 9.48383C1.52378 10.6784 3.08246 13.0334 4.11843 13.9802C4.11843 13.9802 4.38495 14.2476 4.55087 14.3634C4.78988 14.5439 5.08562 14.6341 5.38137 14.6341C5.7115 14.6341 6.01842 14.5328 6.26946 14.3412Z" fill="#219653"/>
</svg>
