<svg width="32" height="30" viewBox="0 0 32 30" fill="none" xmlns="http://www.w3.org/2000/svg">
<path fill-rule="evenodd" clip-rule="evenodd" d="M6.88805 24.0871C6.88805 24.8539 7.50329 25.4762 8.26136 25.4762C9.01943 25.4762 9.63468 24.8539 9.63468 24.0871V4.75384L14.0092 9.1954C14.5438 9.73995 15.4118 9.73995 15.9501 9.19911C16.4884 8.65827 16.4903 7.77847 15.9538 7.23393L9.23367 0.408587C8.84182 0.00851286 8.24855 -0.108175 7.73767 0.104827C7.22314 0.319682 6.88805 0.825331 6.88805 1.3884V24.0871ZM1.54054 9.604C1.1908 9.604 0.839233 9.46879 0.571894 9.19837C0.0335543 8.65752 0.0317232 7.77958 0.568232 7.23504L3.24162 4.51787C3.77813 3.97332 4.64607 3.97332 5.18441 4.51416C5.72091 5.055 5.72274 5.9348 5.18807 6.47934L2.51285 9.19466C2.24551 9.46879 1.89211 9.604 1.54054 9.604ZM24.0986 29.8944C24.2671 29.9648 24.4447 30 24.6223 30C24.9812 30 25.3328 29.8592 25.5946 29.5907L31.3461 23.747C31.8808 23.2024 31.8789 22.3227 31.3424 21.7818C30.8041 21.241 29.9343 21.2428 29.3996 21.7855L25.9956 25.2473V5.91035C25.9956 5.14354 25.3822 4.5212 24.6223 4.5212C23.8643 4.5212 23.249 5.14354 23.249 5.91035V28.6109C23.249 29.1739 23.5841 29.6796 24.0986 29.8944ZM19.6015 25.4792C19.8706 25.7533 20.224 25.8885 20.5756 25.8885C20.9254 25.8885 21.2769 25.7533 21.5443 25.4829C22.0826 24.942 22.0844 24.0641 21.5498 23.5195L18.8764 20.8024C18.338 20.2578 17.4701 20.2578 16.9336 20.7987C16.3952 21.3395 16.3934 22.2193 16.9281 22.7638L19.6015 25.4792Z" fill="#607087"/>
</svg>
