<svg width="35" height="35" viewBox="0 0 35 35" fill="none" xmlns="http://www.w3.org/2000/svg">
<g clip-path="url(#clip0_213_10633)">
<path opacity="0.2" d="M35.0001 18.8462C35.0001 27.7672 27.7672 35.0001 18.8462 35.0001C9.92527 35.0001 2.69238 27.7672 2.69238 18.8462C2.69238 9.92527 9.92527 2.69238 18.8462 2.69238C27.7672 2.69238 35.0001 9.92527 35.0001 18.8462Z" fill="#E47D05"/>
<path fill-rule="evenodd" clip-rule="evenodd" d="M17.8365 14.4707C18.1043 14.4707 18.3611 14.5771 18.5504 14.7664C18.7398 14.9558 18.8461 15.2126 18.8461 15.4803V27.5957C18.8461 27.8635 18.7398 28.1203 18.5504 28.3096C18.3611 28.4989 18.1043 28.6053 17.8365 28.6053C17.5688 28.6053 17.312 28.4989 17.1226 28.3096C16.9333 28.1203 16.8269 27.8635 16.8269 27.5957V15.4803C16.8269 15.2126 16.9333 14.9558 17.1226 14.7664C17.312 14.5771 17.5688 14.4707 17.8365 14.4707Z" fill="#E47D05"/>
<path d="M19.5192 9.75984C19.5192 10.2061 19.3419 10.6341 19.0263 10.9497C18.7108 11.2653 18.2828 11.4425 17.8365 11.4425C17.3902 11.4425 16.9622 11.2653 16.6467 10.9497C16.3311 10.6341 16.1538 10.2061 16.1538 9.75984C16.1538 9.31356 16.3311 8.88556 16.6467 8.57C16.9622 8.25443 17.3902 8.07715 17.8365 8.07715C18.2828 8.07715 18.7108 8.25443 19.0263 8.57C19.3419 8.88556 19.5192 9.31356 19.5192 9.75984Z" fill="#E47D05"/>
<path fill-rule="evenodd" clip-rule="evenodd" d="M17.5 32.9805C26.0494 32.9805 32.9808 26.0492 32.9808 17.4998C32.9808 8.95035 26.0494 2.01901 17.5 2.01901C8.9506 2.01901 2.01925 8.95035 2.01925 17.4998C2.01925 26.0492 8.9506 32.9805 17.5 32.9805ZM17.5 34.3267C26.7939 34.3267 34.3269 26.7936 34.3269 17.4998C34.3269 8.20593 26.7939 0.672852 17.5 0.672852C8.20617 0.672852 0.673096 8.20593 0.673096 17.4998C0.673096 26.7936 8.20617 34.3267 17.5 34.3267Z" fill="#E47D05"/>
</g>
<defs>
<clipPath id="clip0_213_10633">
<rect width="35" height="35" fill="white"/>
</clipPath>
</defs>
</svg>
