<svg width="18" height="18" viewBox="0 0 18 18" fill="none" xmlns="http://www.w3.org/2000/svg">
<path d="M9 7.125C9.16576 7.125 9.32473 7.19085 9.44194 7.30806C9.55915 7.42527 9.625 7.58424 9.625 7.75V13.375C9.625 13.5408 9.55915 13.6997 9.44194 13.8169C9.32473 13.9342 9.16576 14 9 14C8.83424 14 8.67527 13.9342 8.55806 13.8169C8.44085 13.6997 8.375 13.5408 8.375 13.375V7.75C8.375 7.58424 8.44085 7.42527 8.55806 7.30806C8.67527 7.19085 8.83424 7.125 9 7.125ZM9 5.875C9.24864 5.875 9.4871 5.77623 9.66291 5.60041C9.83873 5.4246 9.9375 5.18614 9.9375 4.9375C9.9375 4.68886 9.83873 4.4504 9.66291 4.27459C9.4871 4.09877 9.24864 4 9 4C8.75136 4 8.5129 4.09877 8.33709 4.27459C8.16127 4.4504 8.0625 4.68886 8.0625 4.9375C8.0625 5.18614 8.16127 5.4246 8.33709 5.60041C8.5129 5.77623 8.75136 5.875 9 5.875ZM0.25 9C0.25 4.1675 4.1675 0.25 9 0.25C13.8325 0.25 17.75 4.1675 17.75 9C17.75 13.8325 13.8325 17.75 9 17.75C4.1675 17.75 0.25 13.8325 0.25 9ZM9 1.5C4.85813 1.5 1.5 4.85813 1.5 9C1.5 13.1419 4.85813 16.5 9 16.5C13.1419 16.5 16.5 13.1419 16.5 9C16.5 4.85813 13.1419 1.5 9 1.5Z" fill="#E47D05"/>
</svg>
