<svg width="18" height="21" viewBox="0 0 18 21" fill="none" xmlns="http://www.w3.org/2000/svg">
<path fill-rule="evenodd" clip-rule="evenodd" d="M13.4522 1.23508V2.26997C16.4609 2.56186 18 4.22477 18 7.21446V15.4848C18 18.8106 16.1043 20.5 12.3739 20.5H5.62609C1.89565 20.5 0 18.8106 0 15.4848V7.21446C0 5.22428 0.678261 3.80019 2.06957 2.96874C2.28888 2.81904 2.57263 2.80859 2.80202 2.94176C3.0314 3.07494 3.16687 3.32876 3.15169 3.59698C3.13652 3.8652 2.97333 4.10155 2.73043 4.20708C1.8087 4.75548 1.37391 5.71077 1.37391 7.21446V7.47981H14.0609C14.4403 7.47981 14.7478 7.79266 14.7478 8.17859C14.7478 8.56451 14.4403 8.87736 14.0609 8.87736H1.37391V15.4848C1.37391 18.0233 2.6087 19.0759 5.62609 19.0936H12.3739C15.3478 19.0936 16.6174 18.0145 16.6174 15.4759V7.20561C16.6174 4.9943 15.6522 3.92403 13.4522 3.66752V4.33975C13.4014 4.69806 13.093 4.95964 12.7374 4.94599C12.3818 4.93234 12.0936 4.64786 12.0696 4.28668V1.17316C12.0763 0.986183 12.1565 0.809767 12.2921 0.683413C12.4278 0.557059 12.6076 0.491322 12.7913 0.500921C13.17 0.524611 13.4623 0.849232 13.4522 1.23508ZM5.70877 4.79279C5.57806 4.92409 5.40109 4.99667 5.21739 4.9943C4.8414 4.98465 4.54295 4.66923 4.54783 4.28668V1.23508C4.58736 0.877086 4.88498 0.606447 5.23913 0.606447C5.59328 0.606447 5.8909 0.877086 5.93043 1.23508V2.19921H9.86087C10.2403 2.19921 10.5478 2.51206 10.5478 2.89798C10.5478 3.2839 10.2403 3.59675 9.86087 3.59675H5.91304V4.29553C5.91306 4.4824 5.83949 4.66149 5.70877 4.79279ZM13.1913 11.1152C12.7111 11.1152 12.3217 11.5112 12.3217 11.9997C12.3217 12.4882 12.7111 12.8843 13.1913 12.8843C13.6716 12.8843 14.0609 12.4882 14.0609 11.9997C14.0609 11.7636 13.9681 11.5373 13.8031 11.3711C13.6382 11.205 13.4147 11.1128 13.1826 11.1152H13.1913ZM8.14783 11.9997C8.14783 11.5112 8.53714 11.1152 9.01739 11.1152C9.49764 11.1152 9.88696 11.5112 9.88696 11.9997C9.88696 12.4882 9.49764 12.8843 9.01739 12.8843C8.53714 12.8843 8.14783 12.4882 8.14783 11.9997ZM4.85217 11.1152C4.37193 11.1152 3.98261 11.5112 3.98261 11.9997C3.98261 12.4882 4.37193 12.8843 4.85217 12.8843C5.33242 12.8843 5.72174 12.4882 5.72174 11.9997C5.72175 11.7636 5.62894 11.5373 5.46398 11.3711C5.29902 11.205 5.0756 11.1128 4.84348 11.1152H4.85217ZM12.3217 15.582C12.3217 15.0935 12.7111 14.6975 13.1913 14.6975H13.1826C13.4147 14.6952 13.6382 14.7873 13.8031 14.9534C13.9681 15.1196 14.0609 15.3459 14.0609 15.582C14.0609 16.0706 13.6716 16.4666 13.1913 16.4666C12.7111 16.4666 12.3217 16.0706 12.3217 15.582ZM9.01739 14.6975C8.53714 14.6975 8.14783 15.0935 8.14783 15.582C8.14783 16.0706 8.53714 16.4666 9.01739 16.4666C9.49764 16.4666 9.88696 16.0706 9.88696 15.582C9.88696 15.0935 9.49764 14.6975 9.01739 14.6975ZM3.98261 15.582C3.98261 15.0935 4.37193 14.6975 4.85217 14.6975H4.84348C5.0756 14.6952 5.29902 14.7873 5.46398 14.9534C5.62894 15.1196 5.72175 15.3459 5.72174 15.582C5.72174 16.0706 5.33242 16.4666 4.85217 16.4666C4.37193 16.4666 3.98261 16.0706 3.98261 15.582Z" fill="#E47D05"/>
</svg>
