<svg width="30" height="30" viewBox="0 0 30 30" fill="none" xmlns="http://www.w3.org/2000/svg">
<rect width="30" height="30" rx="4" fill="#FCE9E9"/>
<path fill-rule="evenodd" clip-rule="evenodd" d="M19.8252 18.2871C20.0404 18.2871 20.2148 18.4616 20.2148 18.6768V19.4704L20.7254 19.8958C20.8907 20.0336 20.913 20.2793 20.7753 20.4446C20.6375 20.6099 20.3918 20.6322 20.2265 20.4945L19.5757 19.9522C19.4869 19.8782 19.4355 19.7685 19.4355 19.6529V18.6768C19.4355 18.4616 19.61 18.2871 19.8252 18.2871Z" fill="#F65151"/>
<path fill-rule="evenodd" clip-rule="evenodd" d="M19.8266 17.3301C19.2396 17.3301 18.6766 17.5633 18.2615 17.9783C17.8465 18.3934 17.6133 18.9564 17.6133 19.5434C17.6133 20.1304 17.8465 20.6933 18.2615 21.1084C18.6766 21.5235 19.2396 21.7567 19.8266 21.7567C20.4136 21.7567 20.9765 21.5235 21.3916 21.1084C21.8067 20.6933 22.0399 20.1304 22.0399 19.5434C22.0399 18.9564 21.8067 18.3934 21.3916 17.9783C20.9765 17.5633 20.4136 17.3301 19.8266 17.3301ZM17.7105 17.4273C18.2717 16.8661 19.0329 16.5508 19.8266 16.5508C20.6203 16.5508 21.3814 16.8661 21.9426 17.4273C22.5039 17.9885 22.8192 18.7497 22.8192 19.5434C22.8192 20.337 22.5039 21.0982 21.9426 21.6594C21.3814 22.2207 20.6203 22.536 19.8266 22.536C19.0329 22.536 18.2717 22.2207 17.7105 21.6594C17.1493 21.0982 16.834 20.337 16.834 19.5434C16.834 18.7497 17.1493 17.9885 17.7105 17.4273Z" fill="#F65151"/>
<path fill-rule="evenodd" clip-rule="evenodd" d="M17.1891 9.30535V8.54212C17.1968 8.25756 16.9754 8.01815 16.6885 8.00068C16.5494 7.9936 16.4132 8.04208 16.3105 8.13527C16.2077 8.22845 16.147 8.35856 16.1419 8.49645V10.7927C16.1601 11.059 16.3784 11.2688 16.6477 11.2789C16.9171 11.289 17.1507 11.0961 17.1891 10.8318V10.336C18.8555 10.5252 19.5866 11.3145 19.5866 12.9454V15.9055C19.6656 15.9004 19.7453 15.8978 19.8256 15.8978C20.1033 15.8978 20.3738 15.9289 20.6338 15.9877V12.9519C20.6338 10.747 19.468 9.52062 17.1891 9.30535ZM17.8583 22.6099C17.4813 22.3676 17.1518 22.0578 16.8871 21.6974C16.7236 21.7077 16.5521 21.7128 16.3724 21.7128H11.2614C8.97591 21.6997 8.04065 20.9235 8.04065 19.0513V14.1783H17.6502C17.9375 14.1783 18.1705 13.9476 18.1705 13.663C18.1705 13.3783 17.9375 13.1476 17.6502 13.1476H8.04065V12.9519C8.04065 11.8429 8.36997 11.1384 9.06812 10.734C9.25209 10.6561 9.3757 10.4818 9.38719 10.284C9.39869 10.0862 9.29608 9.89902 9.12234 9.8008C8.94859 9.70258 8.73367 9.71029 8.56756 9.8207C7.51374 10.4339 7 11.4842 7 12.9519V19.0513C7 21.504 8.43583 22.75 11.2614 22.75H16.3724C16.92 22.75 17.4154 22.7032 17.8583 22.6099ZM17.6316 16.632C17.4377 16.7784 17.259 16.9437 17.098 17.1252C17.0631 17.1309 17.0272 17.1339 16.9906 17.1339C16.6268 17.1339 16.332 16.8418 16.332 16.4815C16.332 16.1213 16.6268 15.8292 16.9906 15.8292H16.984C17.1598 15.8274 17.329 15.8954 17.454 16.0179C17.5789 16.1405 17.6492 16.3074 17.6492 16.4815C17.6492 16.5333 17.6431 16.5837 17.6316 16.632ZM10.952 11.3153C11.0912 11.3171 11.2252 11.2636 11.3242 11.1667C11.4232 11.0699 11.4789 10.9378 11.4789 10.8V10.2847H14.4691C14.7565 10.2847 14.9895 10.0539 14.9895 9.76931C14.9895 9.4847 14.7565 9.25397 14.4691 9.25397H11.4921V8.54292C11.4622 8.2789 11.2367 8.07931 10.9685 8.07931C10.7002 8.07931 10.4748 8.2789 10.4449 8.54292V10.7935C10.4412 11.0756 10.6672 11.3082 10.952 11.3153ZM13.8305 15.8292C13.4667 15.8292 13.1718 16.1212 13.1718 16.4815C13.1718 16.8418 13.4667 17.1338 13.8305 17.1338C14.1942 17.1338 14.4891 16.8418 14.4891 16.4815C14.4891 16.1212 14.1942 15.8292 13.8305 15.8292ZM10.0158 16.4815C10.0158 16.1213 10.3106 15.8292 10.6744 15.8292H10.6678C10.8436 15.8274 11.0128 15.8954 11.1378 16.0179C11.2627 16.1405 11.333 16.3074 11.333 16.4815C11.333 16.8418 11.0381 17.1339 10.6744 17.1339C10.3106 17.1339 10.0158 16.8418 10.0158 16.4815ZM13.1718 19.1231C13.1718 18.7628 13.4667 18.4707 13.8305 18.4707C14.1942 18.4707 14.4891 18.7628 14.4891 19.1231C14.4891 19.4833 14.1942 19.7754 13.8305 19.7754C13.4667 19.7754 13.1718 19.4833 13.1718 19.1231ZM10.6744 18.4708C10.3106 18.4708 10.0158 18.7628 10.0158 19.1231C10.0158 19.4834 10.3106 19.7754 10.6744 19.7754C11.0381 19.7754 11.333 19.4834 11.333 19.1231C11.333 18.949 11.2627 18.782 11.1378 18.6595C11.0128 18.537 10.8436 18.469 10.6678 18.4708H10.6744Z" fill="#F65151"/>
</svg>
