<svg width="30" height="30" viewBox="0 0 30 30" fill="none" xmlns="http://www.w3.org/2000/svg">
<rect width="30" height="30" rx="4" fill="#F6F8FB"/>
<path fill-rule="evenodd" clip-rule="evenodd" d="M18.3391 8.05131V8.82748C20.5957 9.0464 21.75 10.2936 21.75 12.5358V18.7386C21.75 21.2329 20.3283 22.5 17.5304 22.5H12.4696C9.67174 22.5 8.25 21.2329 8.25 18.7386V12.5358C8.25 11.0432 8.7587 9.97515 9.80217 9.35156C9.96666 9.23928 10.1795 9.23144 10.3515 9.33132C10.5236 9.4312 10.6251 9.62157 10.6138 9.82274C10.6024 10.0239 10.48 10.2012 10.2978 10.2803C9.60652 10.6916 9.28043 11.4081 9.28043 12.5358V12.7349H18.7957C19.0802 12.7349 19.3109 12.9695 19.3109 13.2589C19.3109 13.5484 19.0802 13.783 18.7957 13.783H9.28043V18.7386C9.28043 20.6425 10.2065 21.4319 12.4696 21.4452H17.5304C19.7609 21.4452 20.713 20.6359 20.713 18.7319V12.5292C20.713 10.8707 19.9891 10.068 18.3391 9.87564V10.3798C18.3011 10.6485 18.0698 10.8447 17.803 10.8345C17.5363 10.8243 17.3202 10.6109 17.3022 10.34V8.00487C17.3072 7.86464 17.3674 7.73233 17.4691 7.63756C17.5709 7.54279 17.7057 7.49349 17.8435 7.50069C18.1275 7.51846 18.3467 7.76192 18.3391 8.05131ZM12.5316 10.7196C12.4335 10.8181 12.3008 10.8725 12.163 10.8707C11.8811 10.8635 11.6572 10.6269 11.6609 10.34V8.05131C11.6905 7.78281 11.9137 7.57984 12.1793 7.57984C12.445 7.57984 12.6682 7.78281 12.6978 8.05131V8.7744H15.6457C15.9302 8.7744 16.1609 9.00904 16.1609 9.29848C16.1609 9.58793 15.9302 9.82257 15.6457 9.82257H12.6848V10.3466C12.6848 10.4868 12.6296 10.6211 12.5316 10.7196ZM18.1435 15.4614C17.7833 15.4614 17.4913 15.7584 17.4913 16.1248C17.4913 16.4912 17.7833 16.7882 18.1435 16.7882C18.5037 16.7882 18.7957 16.4912 18.7957 16.1248C18.7957 15.9477 18.7261 15.7779 18.6023 15.6533C18.4786 15.5287 18.3111 15.4596 18.137 15.4614H18.1435ZM14.3609 16.1248C14.3609 15.7584 14.6529 15.4614 15.013 15.4614C15.3732 15.4614 15.6652 15.7584 15.6652 16.1248C15.6652 16.4912 15.3732 16.7882 15.013 16.7882C14.6529 16.7882 14.3609 16.4912 14.3609 16.1248ZM11.8891 15.4614C11.5289 15.4614 11.237 15.7584 11.237 16.1248C11.237 16.4912 11.5289 16.7882 11.8891 16.7882C12.2493 16.7882 12.5413 16.4912 12.5413 16.1248C12.5413 15.9477 12.4717 15.7779 12.348 15.6533C12.2243 15.5287 12.0567 15.4596 11.8826 15.4614H11.8891ZM17.4913 18.8115C17.4913 18.4452 17.7833 18.1481 18.1435 18.1481H18.137C18.3111 18.1464 18.4786 18.2155 18.6023 18.3401C18.7261 18.4647 18.7957 18.6344 18.7957 18.8115C18.7957 19.1779 18.5037 19.4749 18.1435 19.4749C17.7833 19.4749 17.4913 19.1779 17.4913 18.8115ZM15.013 18.1481C14.6529 18.1481 14.3609 18.4452 14.3609 18.8115C14.3609 19.1779 14.6529 19.4749 15.013 19.4749C15.3732 19.4749 15.6652 19.1779 15.6652 18.8115C15.6652 18.4452 15.3732 18.1481 15.013 18.1481ZM11.237 18.8115C11.237 18.4452 11.5289 18.1481 11.8891 18.1481H11.8826C12.0567 18.1464 12.2243 18.2155 12.348 18.3401C12.4717 18.4647 12.5413 18.6344 12.5413 18.8115C12.5413 19.1779 12.2493 19.4749 11.8891 19.4749C11.5289 19.4749 11.237 19.1779 11.237 18.8115Z" fill="#607087"/>
</svg>
