<svg width="18" height="16" viewBox="0 0 18 16" fill="none" xmlns="http://www.w3.org/2000/svg">
<path fill-rule="evenodd" clip-rule="evenodd" d="M1.91706 9.62474C1.91706 9.96121 1.63706 10.2343 1.29212 10.2343C0.947191 10.2343 0.667187 9.96121 0.667187 9.62474V3.59596C0.667187 1.65946 2.28228 0.0839844 4.26828 0.0839844H8.22323C10.2133 0.0839844 11.8324 1.66342 11.8324 3.60467V4.34174C11.8324 4.67742 11.5524 4.95055 11.2075 4.95055C10.8626 4.95055 10.5826 4.67742 10.5826 4.34174V3.60467C10.5826 2.33478 9.52424 1.3032 8.22323 1.3032H4.26828C2.97133 1.3032 1.91706 2.33241 1.91706 3.59596V9.62474ZM10.5824 11.6604C10.5824 11.3239 10.8624 11.0507 11.2073 11.0507C11.5522 11.0507 11.8322 11.3239 11.8322 11.6604V12.4053C11.8322 14.3418 10.2172 15.9173 8.23115 15.9173H4.27539C2.28614 15.9173 0.666992 14.3379 0.666992 12.3966C0.666992 12.0602 0.946996 11.7878 1.29193 11.7878C1.63686 11.7878 1.91686 12.0602 1.91686 12.3966C1.91686 13.6665 2.9752 14.6981 4.27539 14.6981H8.23115C9.5281 14.6981 10.5824 13.6697 10.5824 12.4053V11.6604ZM17.2864 7.76805C17.1898 7.53925 16.9618 7.39041 16.7085 7.39041H6.95791C6.61298 7.39041 6.33216 7.66434 6.33216 8.00081C6.33216 8.33728 6.61298 8.61042 6.95791 8.61042H15.1957L13.8963 9.87239C13.6512 10.1099 13.6512 10.4955 13.8947 10.7345C14.0164 10.8541 14.1771 10.9143 14.337 10.9143C14.4969 10.9143 14.656 10.8541 14.7785 10.7361L17.15 8.43308C17.3286 8.2589 17.383 7.99606 17.2864 7.76805ZM14.9352 6.88459C14.7761 6.88459 14.617 6.82522 14.4953 6.70805L13.8971 6.1309C13.652 5.89418 13.6504 5.50783 13.8931 5.26953C14.1366 5.02885 14.531 5.02727 14.7769 5.26478L15.3743 5.84114C15.6202 6.07864 15.6218 6.4642 15.3791 6.70329C15.2566 6.82363 15.0959 6.88459 14.9352 6.88459Z" fill="#FFBE62"/>
</svg>
