<svg width="12" height="14" viewBox="0 0 12 14" fill="none" xmlns="http://www.w3.org/2000/svg">
<path fill-rule="evenodd" clip-rule="evenodd" d="M6.00256 0.333328H6.02481C9.14906 0.345606 11.6815 2.89464 11.6692 6.01487V6.07685C11.627 8.30667 10.2865 10.1571 9.16955 11.3164C8.85168 11.6479 8.51332 11.9659 8.16442 12.2629C7.95544 12.4413 7.64167 12.4167 7.46312 12.208C7.28457 11.9987 7.30975 11.6853 7.51873 11.507C7.84187 11.2316 8.15623 10.9358 8.45185 10.6277C9.44585 9.59639 10.6377 7.96582 10.674 6.05872C10.684 3.43894 8.59703 1.33716 6.02071 1.32663H6.00256C3.43502 1.32663 1.34106 3.40796 1.33111 5.97395C1.37501 7.24145 1.80352 8.4464 2.57098 9.45724C3.46663 10.6499 4.82533 11.9127 6.11671 12.7535C6.34736 12.9031 6.41234 13.2106 6.26189 13.441C6.16706 13.5872 6.00724 13.6667 5.8445 13.6667C5.75143 13.6667 5.65776 13.6409 5.57347 13.586C4.19076 12.6862 2.73547 11.3334 1.77601 10.0559C0.885623 8.88254 0.387452 7.48232 0.335938 6.00844C0.348231 2.85723 2.88826 0.333328 6.00256 0.333328ZM4.83938 6.07609C4.83938 6.7151 5.36038 7.23601 6.0008 7.23601C6.64123 7.23601 7.16223 6.7151 7.16223 6.07609C7.16223 5.43649 6.64123 4.91557 6.0008 4.91557C5.72625 4.91557 5.50322 4.69341 5.50322 4.41921C5.50322 4.14443 5.72625 3.92227 6.0008 3.92227C7.18974 3.92227 8.1574 4.88809 8.1574 6.07609C8.1574 7.26349 7.18974 8.22932 6.0008 8.22932C4.81187 8.22932 3.84421 7.26349 3.84421 6.07609C3.84421 5.8013 4.06724 5.57914 4.34179 5.57914C4.61634 5.57914 4.83938 5.8013 4.83938 6.07609Z" fill="#8196B3"/>
</svg>
