<svg width="15" height="15" viewBox="0 0 15 15" fill="none" xmlns="http://www.w3.org/2000/svg">
<path d="M11.25 11.25C11.5104 11.25 11.7319 11.1588 11.9144 10.9762C12.0969 10.7937 12.1879 10.5725 12.1875 10.3125C12.1875 10.0521 12.0963 9.83063 11.9138 9.64813C11.7313 9.46563 11.51 9.37458 11.25 9.375C10.9896 9.375 10.7681 9.46625 10.5856 9.64875C10.4031 9.83125 10.3121 10.0525 10.3125 10.3125C10.3125 10.5729 10.4038 10.7944 10.5863 10.9769C10.7688 11.1594 10.99 11.2504 11.25 11.25ZM11.25 13.125C11.5625 13.125 11.8542 13.0521 12.125 12.9062C12.3958 12.7604 12.6198 12.5573 12.7969 12.2969C12.5573 12.151 12.3073 12.0442 12.0469 11.9763C11.7865 11.9083 11.5208 11.8746 11.25 11.875C10.9792 11.875 10.7135 11.9088 10.4531 11.9763C10.1927 12.0438 9.94271 12.1506 9.70313 12.2969C9.88021 12.5573 10.1042 12.7604 10.375 12.9062C10.6458 13.0521 10.9375 13.125 11.25 13.125ZM5.625 5H9.375V3.75C9.375 3.22917 9.19271 2.78646 8.82813 2.42188C8.46354 2.05729 8.02083 1.875 7.5 1.875C6.97917 1.875 6.53646 2.05729 6.17188 2.42188C5.80729 2.78646 5.625 3.22917 5.625 3.75V5ZM7.65625 13.75H3.75C3.40625 13.75 3.11188 13.6275 2.86688 13.3825C2.62188 13.1375 2.49958 12.8433 2.5 12.5V6.25C2.5 5.90625 2.6225 5.61188 2.8675 5.36688C3.1125 5.12188 3.40667 4.99958 3.75 5H4.375V3.75C4.375 2.88542 4.67979 2.14833 5.28938 1.53875C5.89896 0.929167 6.63583 0.624584 7.5 0.625C8.36458 0.625 9.10167 0.929792 9.71125 1.53938C10.3208 2.14896 10.6254 2.88583 10.625 3.75V5H11.25C11.5938 5 11.8881 5.1225 12.1331 5.3675C12.3781 5.6125 12.5004 5.90667 12.5 6.25V7.0625C12.3125 7 12.1171 6.95313 11.9138 6.92188C11.7104 6.89063 11.4892 6.875 11.25 6.875V6.25H3.75V12.5H7.0625C7.14583 12.75 7.22917 12.9663 7.3125 13.1488C7.39583 13.3313 7.51042 13.5317 7.65625 13.75ZM11.25 14.375C10.3854 14.375 9.64833 14.0702 9.03875 13.4606C8.42917 12.851 8.12458 12.1142 8.125 11.25C8.125 10.3854 8.42979 9.64833 9.03938 9.03875C9.64896 8.42917 10.3858 8.12458 11.25 8.125C12.1146 8.125 12.8517 8.42979 13.4613 9.03938C14.0708 9.64896 14.3754 10.3858 14.375 11.25C14.375 12.1146 14.0702 12.8517 13.4606 13.4613C12.851 14.0708 12.1142 14.3754 11.25 14.375Z" fill="red"/>
</svg>
