<svg width="18" height="22" viewBox="0 0 18 22" fill="none" xmlns="http://www.w3.org/2000/svg">
<path d="M5.25 8.74957H10.125C10.8212 8.74957 11.4889 9.02613 11.9812 9.51842C12.4734 10.0107 12.75 10.6784 12.75 11.3746C12.75 12.0708 12.4734 12.7384 11.9812 13.2307C11.4889 13.723 10.8212 13.9996 10.125 13.9996H9M5.25 8.74957L7.5 6.49957M5.25 8.74957L7.5 10.9996M1.5 12.2531V15.998V20.7496L5.25 19.2496L9 20.7496L12.75 19.2496L16.5 20.7496V3.75657C16.5 2.64857 15.693 1.69957 14.593 1.57157C10.8768 1.14021 7.12319 1.14021 3.407 1.57157C2.306 1.69957 1.5 2.64857 1.5 3.75657V8.99805" stroke="#FFBE62" stroke-width="1.5" stroke-linecap="round" stroke-linejoin="round"/>
</svg>
