<svg width="14" height="12" viewBox="0 0 14 12" fill="none" xmlns="http://www.w3.org/2000/svg">
<path fill-rule="evenodd" clip-rule="evenodd" d="M13.6693 4.87129C13.6693 5.13376 13.4581 5.34653 13.1975 5.34653L13.1916 5.33465C13.0665 5.33465 12.9465 5.28458 12.858 5.19546C12.7695 5.10633 12.7198 4.98545 12.7198 4.85941V3.89703C12.7039 2.2797 11.4063 0.97253 9.80078 0.956436H4.20443C2.59894 0.97253 1.30135 2.2797 1.28537 3.89703V8.10297C1.30135 9.7203 2.59894 11.0275 4.20443 11.0436H9.80078C11.4063 11.0275 12.7039 9.7203 12.7198 8.10297C12.7468 7.85939 12.9513 7.67517 13.1946 7.67517C13.4379 7.67517 13.6423 7.85939 13.6693 8.10297C13.6628 10.2525 11.9346 11.9935 9.80078 12H4.20443C2.06927 11.9967 0.339185 10.2539 0.335938 8.10297V3.89703C0.335938 1.74476 2.06792 0 4.20443 0H9.80078C11.9346 0.00652375 13.6628 1.74747 13.6693 3.89703V4.87129ZM7.49654 5.90495L10.2387 3.69505H10.2446C10.4488 3.53154 10.7454 3.56327 10.911 3.76633C10.9898 3.86533 11.0261 3.99199 11.0117 4.11809C10.9973 4.24419 10.9334 4.35925 10.8343 4.43762L8.09215 6.65346C7.3949 7.21869 6.40107 7.21869 5.70382 6.65346L2.95578 4.43762C2.7542 4.27085 2.7227 3.97203 2.88501 3.76633C2.96261 3.66775 3.07624 3.60468 3.20042 3.59128C3.3246 3.57788 3.44892 3.61526 3.54549 3.69505L6.31712 5.90495C6.66334 6.17859 7.15032 6.17859 7.49654 5.90495Z" fill="#8196B3"/>
</svg>
