<svg xmlns="http://www.w3.org/2000/svg" width="18" height="18" viewBox="0 0 18 18" fill="none">
  <g clip-path="url(#clip0_29496_41745)">
    <path fill-rule="evenodd" clip-rule="evenodd" d="M2.42578 9.0024C2.42578 8.9106 2.46225 8.82255 2.52717 8.75764C2.59208 8.69272 2.68013 8.65625 2.77194 8.65625H15.2335C15.3253 8.65625 15.4133 8.69272 15.4782 8.75764C15.5432 8.82255 15.5796 8.9106 15.5796 9.0024C15.5796 9.09421 15.5432 9.18226 15.4782 9.24717C15.4133 9.31209 15.3253 9.34856 15.2335 9.34856H2.77194C2.68013 9.34856 2.59208 9.31209 2.52717 9.24717C2.46225 9.18226 2.42578 9.09421 2.42578 9.0024Z" fill="#FF5050"/>
    <path fill-rule="evenodd" clip-rule="evenodd" d="M9.0015 16.963C13.3983 16.963 16.963 13.3983 16.963 9.0015C16.963 4.60466 13.3983 1.03996 9.0015 1.03996C4.60466 1.03996 1.03996 4.60466 1.03996 9.0015C1.03996 13.3983 4.60466 16.963 9.0015 16.963ZM9.0015 17.6553C13.7812 17.6553 17.6553 13.7812 17.6553 9.0015C17.6553 4.22181 13.7812 0.347656 9.0015 0.347656C4.22181 0.347656 0.347656 4.22181 0.347656 9.0015C0.347656 13.7812 4.22181 17.6553 9.0015 17.6553Z" fill="#FF5050"/>
  </g>
  <defs>
    <clipPath id="clip0_29496_41745">
      <rect width="18" height="18" fill="white"/>
    </clipPath>
  </defs>
</svg>