<svg width="20" height="20" viewBox="0 0 20 20" fill="none" xmlns="http://www.w3.org/2000/svg">
<path fill-rule="evenodd" clip-rule="evenodd" d="M6.254 -0.000213623H13.747C17.608 -0.000213623 20 2.39279 20 6.25579V13.7558C20 17.6078 17.608 19.9998 13.747 19.9998H6.244C2.392 19.9998 2.18733e-06 17.6078 0.00100219 13.7528C0.00100219 13.3308 0.344002 12.9878 0.766002 12.9878C1.189 12.9878 1.531 13.3308 1.531 13.7528C1.531 16.7868 3.202 18.4668 6.254 18.4668H13.747C16.79 18.4668 18.47 16.7958 18.47 13.7528V6.25279C18.47 3.20979 16.8 1.52979 13.747 1.52979H6.253C3.21 1.52979 1.53 3.20979 1.53 6.25279V8.56579V8.58379C1.53 9.00179 1.192 9.33979 0.774002 9.33979H0.765002H0.763002C0.341002 9.33979 -0.000997813 8.99679 2.1874e-06 8.57479V6.25279C2.1874e-06 2.39279 2.41 -0.000213623 6.254 -0.000213623ZM5.52026 8.80377C6.18126 8.80377 6.71826 9.34077 6.71826 9.99977C6.71826 10.6598 6.18126 11.1968 5.52026 11.1968C4.86026 11.1968 4.32226 10.6598 4.32226 9.99977C4.32226 9.34077 4.86026 8.80377 5.52026 8.80377ZM9.99976 8.80377C10.6608 8.80377 11.1978 9.34077 11.1978 9.99977C11.1978 10.6598 10.6608 11.1968 9.99976 11.1968C9.33976 11.1968 8.80176 10.6598 8.80176 9.99977C8.80176 9.34077 9.33976 8.80377 9.99976 8.80377ZM15.6772 9.99979C15.6772 9.34079 15.1402 8.80379 14.4792 8.80379C13.8192 8.80379 13.2812 9.34079 13.2812 9.99979C13.2812 10.6598 13.8192 11.1968 14.4792 11.1968C15.1402 11.1968 15.6772 10.6598 15.6772 9.99979Z" fill="#607087"/>
</svg>
