<svg width="24" height="24" viewBox="0 0 24 24" fill="none" xmlns="http://www.w3.org/2000/svg">
<path fill-rule="evenodd" clip-rule="evenodd" d="M8.254 2H15.747C19.608 2 22 4.393 22 8.256V15.756C22 19.608 19.608 22 15.747 22H8.244C4.392 22 2 19.608 2.001 15.753C2.001 15.331 2.344 14.988 2.766 14.988C3.189 14.988 3.531 15.331 3.531 15.753C3.531 18.787 5.202 20.467 8.254 20.467H15.747C18.79 20.467 20.47 18.796 20.47 15.753V8.253C20.47 5.21 18.8 3.53 15.747 3.53H8.253C5.21 3.53 3.53 5.21 3.53 8.253V10.566V10.584C3.53 11.002 3.192 11.34 2.774 11.34H2.765H2.763C2.341 11.34 1.999 10.997 2 10.575V8.253C2 4.393 4.41 2 8.254 2ZM7.52026 10.804C8.18126 10.804 8.71826 11.341 8.71826 12C8.71826 12.66 8.18126 13.197 7.52026 13.197C6.86026 13.197 6.32226 12.66 6.32226 12C6.32226 11.341 6.86026 10.804 7.52026 10.804ZM11.9998 10.804C12.6608 10.804 13.1978 11.341 13.1978 12C13.1978 12.66 12.6608 13.197 11.9998 13.197C11.3398 13.197 10.8018 12.66 10.8018 12C10.8018 11.341 11.3398 10.804 11.9998 10.804ZM17.6772 12C17.6772 11.341 17.1402 10.804 16.4792 10.804C15.8192 10.804 15.2812 11.341 15.2812 12C15.2812 12.66 15.8192 13.197 16.4792 13.197C17.1402 13.197 17.6772 12.66 17.6772 12Z" fill="white"/>
</svg>
