<svg xmlns="http://www.w3.org/2000/svg" width="120" height="120" viewBox="0 0 120 120" fill="none">
  <path opacity="0.2" d="M69 120C55.474 120 42.5019 114.627 32.9376 105.062C23.3732 95.4981 18 82.526 18 69C18 55.474 23.3732 42.5019 32.9376 32.9376C42.5019 23.3732 55.474 18 69 18C82.526 18 95.4981 23.3732 105.062 32.9376C114.627 42.5019 120 55.474 120 69C120 82.526 114.627 95.4981 105.062 105.062C95.4981 114.627 82.526 120 69 120Z" fill="#9EA8B7"/>
  <path fill-rule="evenodd" clip-rule="evenodd" d="M9 60C9 66.6974 10.3192 73.3293 12.8821 79.5169C15.4451 85.7045 19.2018 91.3267 23.9376 96.0625C28.6733 100.798 34.2955 104.555 40.4831 107.118C46.6708 109.681 53.3026 111 60 111C66.6974 111 73.3293 109.681 79.5169 107.118C85.7045 104.555 91.3267 100.798 96.0625 96.0625C100.798 91.3267 104.555 85.7045 107.118 79.5169C109.681 73.3293 111 66.6974 111 60C111 46.474 105.627 33.5019 96.0625 23.9376C86.4981 14.3732 73.526 9 60 9C46.474 9 33.5019 14.3732 23.9376 23.9376C14.3732 33.5019 9 46.474 9 60ZM105 60C105 71.9347 100.259 83.3807 91.8198 91.8198C83.3807 100.259 71.9347 105 60 105C48.0653 105 36.6193 100.259 28.1802 91.8198C19.7411 83.3807 15 71.9347 15 60C15 48.0653 19.7411 36.6193 28.1802 28.1802C36.6193 19.7411 48.0653 15 60 15C71.9347 15 83.3807 19.7411 91.8198 28.1802C100.259 36.6193 105 48.0653 105 60Z" fill="#9EA8B7"/>
  <path fill-rule="evenodd" clip-rule="evenodd" d="M39 60C39 86.376 47.652 108 60 108C72.348 108 81 86.376 81 60C81 33.624 72.348 12 60 12C47.652 12 39 33.624 39 60ZM75 60C75 83.334 67.53 102 60 102C52.47 102 45 83.334 45 60C45 36.666 52.47 18 60 18C67.53 18 75 36.666 75 60Z" fill="#9EA8B7"/>
  <path d="M22.41 31.8719L26.43 27.4199C27.072 27.9959 27.756 28.5599 28.488 29.1059C36.396 35.0339 48.876 38.6459 62.478 38.6459C74.076 38.6459 84.9 36.0239 92.808 31.5059C94.63 30.475 96.3515 29.2758 97.95 27.9239L101.85 32.4839C100.062 34.0139 98.034 35.4239 95.79 36.7079C86.928 41.7779 75.078 44.6459 62.478 44.6459C47.658 44.6459 33.906 40.6679 24.888 33.9059C24.0311 33.2643 23.2042 32.5896 22.41 31.8719ZM22.41 88.1999L26.43 92.6399C27.072 92.0639 27.756 91.4999 28.488 90.9599C36.396 85.0319 48.876 81.4199 62.478 81.4199C74.076 81.4199 84.9 84.0359 92.808 88.5599C94.734 89.6639 96.456 90.8639 97.95 92.1359L101.85 87.5759C99.9664 85.9817 97.9375 84.5675 95.79 83.3519C86.928 78.2879 75.078 75.4199 62.478 75.4199C47.658 75.4199 33.906 79.3979 24.888 86.1539C24.012 86.8139 23.184 87.4979 22.41 88.1999ZM12 62.9999V56.9999H108V62.9999H12Z" fill="#9EA8B7"/>
  <path d="M6.90057 11.2675C6.32213 10.6883 5.99748 9.903 5.99805 9.0844C5.99861 8.2658 6.32434 7.48096 6.90357 6.90252C7.4828 6.32408 8.26809 5.99944 9.08669 6C9.90529 6.00056 10.6901 6.32629 11.2686 6.90552L113.095 108.732C113.673 109.31 113.998 110.094 113.998 110.913C113.998 111.731 113.673 112.515 113.095 113.094C112.516 113.672 111.732 113.997 110.914 113.997C110.096 113.997 109.311 113.672 108.733 113.094L6.90657 11.2675H6.90057Z" fill="#9EA8B7"/>
</svg>