<svg xmlns="http://www.w3.org/2000/svg" width="201" height="200" viewBox="0 0 251 250" fill="none">
  <path d="M193.86 63.705C183.14 54.305 172.36 44.335 160.41 36.765C141.2 24.595 114.265 20.045 96.7245 37.65C91.3245 43.075 90.2245 50.56 88.0745 57.575C85.7245 65.315 81.3445 71.035 74.3445 75.225C67.8445 79.115 60.5045 81.295 53.5095 84.19C44.5445 87.9 36.2695 93.32 32.0095 102.355C26.9545 113.12 29.2845 122.635 36.1495 131.815C42.8195 140.705 52.9995 149 51.3795 161.205C50.6995 166.42 48.5945 171.32 46.9295 176.305C45.2645 181.29 43.9995 186.635 45.1195 191.775C48.7145 208.575 74.6945 212.935 88.2695 207.36C111.77 197.71 134.92 210.86 158.6 211.395C175.245 211.775 196.845 207.025 201.905 188.635C206.26 172.82 190.64 155.36 202.855 141.56C212.39 130.79 221.615 116.98 220.555 101.925C219.52 87.31 208.37 76.22 197.885 67.205C196.545 66.0683 195.203 64.9017 193.86 63.705Z" fill="#FFBE62"/>
  <path opacity="0.7" d="M193.86 63.705C183.14 54.305 172.36 44.335 160.41 36.765C141.2 24.595 114.265 20.045 96.7245 37.65C91.3245 43.075 90.2245 50.56 88.0745 57.575C85.7245 65.315 81.3445 71.035 74.3445 75.225C67.8445 79.115 60.5045 81.295 53.5095 84.19C44.5445 87.9 36.2695 93.32 32.0095 102.355C26.9545 113.12 29.2845 122.635 36.1495 131.815C42.8195 140.705 52.9995 149 51.3795 161.205C50.6995 166.42 48.5945 171.32 46.9295 176.305C45.2645 181.29 43.9995 186.635 45.1195 191.775C48.7145 208.575 74.6945 212.935 88.2695 207.36C111.77 197.71 134.92 210.86 158.6 211.395C175.245 211.775 196.845 207.025 201.905 188.635C206.26 172.82 190.64 155.36 202.855 141.56C212.39 130.79 221.615 116.98 220.555 101.925C219.52 87.31 208.37 76.22 197.885 67.205C196.545 66.0683 195.203 64.9017 193.86 63.705Z" fill="white"/>
  <path d="M89.6292 223.044C102.362 223.044 112.684 220.98 112.684 218.434C112.684 215.888 102.362 213.824 89.6292 213.824C76.8963 213.824 66.5742 215.888 66.5742 218.434C66.5742 220.98 76.8963 223.044 89.6292 223.044Z" fill="#FFBE62"/>
  <path opacity="0.5" d="M89.6292 223.044C102.362 223.044 112.684 220.98 112.684 218.434C112.684 215.888 102.362 213.824 89.6292 213.824C76.8963 213.824 66.5742 215.888 66.5742 218.434C66.5742 220.98 76.8963 223.044 89.6292 223.044Z" fill="white"/>
  <path d="M178.128 174.107C205.436 146.799 205.436 102.525 178.128 75.2177C150.821 47.9103 106.547 47.9103 79.2394 75.2177C51.932 102.525 51.932 146.799 79.2394 174.107C106.547 201.414 150.821 201.414 178.128 174.107Z" fill="#FFBE62" stroke="#607087" stroke-miterlimit="10" stroke-linecap="round"/>
  <path d="M128.686 188.511C163.949 188.511 192.536 159.924 192.536 124.661C192.536 89.3972 163.949 60.8105 128.686 60.8105C93.4226 60.8105 64.8359 89.3972 64.8359 124.661C64.8359 159.924 93.4226 188.511 128.686 188.511Z" fill="#607087" stroke="#607087" stroke-miterlimit="10" stroke-linecap="round"/>
  <path d="M128.685 183.74C161.314 183.74 187.765 157.289 187.765 124.66C187.765 92.0311 161.314 65.5801 128.685 65.5801C96.0565 65.5801 69.6055 92.0311 69.6055 124.66C69.6055 157.289 96.0565 183.74 128.685 183.74Z" fill="white" stroke="#607087" stroke-miterlimit="10" stroke-linecap="round"/>
  <path d="M128.686 71.2441C118.12 71.2441 107.792 74.3773 99.0066 80.2474C90.2216 86.1175 83.3746 94.4608 79.3315 104.222C75.2884 113.984 74.2308 124.725 76.2925 135.088C78.3541 145.45 83.4424 154.969 90.9138 162.44C98.3852 169.91 107.904 174.998 118.267 177.058C128.63 179.119 139.371 178.06 149.132 174.016C158.893 169.972 167.236 163.125 173.105 154.339C178.974 145.554 182.107 135.225 182.106 124.659C182.106 117.644 180.724 110.698 178.039 104.217C175.355 97.736 171.42 91.8474 166.459 86.8873C161.498 81.9272 155.609 77.9927 149.128 75.3087C142.647 72.6246 135.701 71.2435 128.686 71.2441ZM128.686 173.744C118.974 173.744 109.48 170.864 101.404 165.468C93.3291 160.073 87.0352 152.404 83.3185 143.431C79.6019 134.458 78.6295 124.585 80.5242 115.059C82.4189 105.534 87.0957 96.7841 93.9632 89.9167C100.831 83.0492 109.58 78.3724 119.106 76.4777C128.631 74.5829 138.505 75.5554 147.477 79.272C156.45 82.9887 164.119 89.2826 169.515 97.3579C174.911 105.433 177.791 114.927 177.791 124.639C177.793 131.089 176.525 137.477 174.058 143.437C171.592 149.397 167.975 154.813 163.415 159.375C158.855 163.936 153.441 167.555 147.482 170.024C141.523 172.493 135.136 173.764 128.686 173.764V173.744Z" fill="#FFBE62" stroke="#607087" stroke-miterlimit="10" stroke-linecap="round"/>
  <path d="M128.685 95.2539C122.868 95.2539 117.182 96.9789 112.346 100.211C107.509 103.443 103.739 108.036 101.514 113.41C99.2878 118.785 98.7057 124.698 99.8409 130.403C100.976 136.108 103.778 141.349 107.891 145.462C112.005 149.575 117.246 152.375 122.951 153.509C128.656 154.644 134.57 154.061 139.944 151.834C145.317 149.607 149.91 145.837 153.141 141C156.372 136.162 158.096 130.476 158.095 124.659C158.095 120.797 157.335 116.973 155.857 113.405C154.379 109.837 152.212 106.595 149.481 103.865C146.75 101.134 143.508 98.9682 139.94 97.4908C136.372 96.0134 132.547 95.2532 128.685 95.2539ZM128.685 151.689C123.339 151.689 118.113 150.104 113.668 147.134C109.223 144.163 105.759 139.942 103.713 135.003C101.667 130.064 101.132 124.629 102.175 119.386C103.218 114.142 105.792 109.326 109.572 105.546C113.353 101.766 118.169 99.1912 123.412 98.1483C128.655 97.1053 134.09 97.6406 139.029 99.6864C143.968 101.732 148.19 105.197 151.16 109.642C154.13 114.087 155.715 119.313 155.715 124.659C155.715 131.828 152.868 138.703 147.799 143.772C142.729 148.841 135.854 151.689 128.685 151.689Z" fill="#FFBE62" stroke="#607087" stroke-miterlimit="10" stroke-linecap="round"/>
  <path d="M128.686 107.66C125.323 107.66 122.036 108.657 119.241 110.525C116.445 112.393 114.266 115.048 112.98 118.155C111.693 121.261 111.356 124.679 112.012 127.977C112.668 131.274 114.287 134.303 116.665 136.681C119.042 139.058 122.071 140.678 125.369 141.333C128.667 141.989 132.085 141.653 135.191 140.366C138.298 139.079 140.953 136.9 142.821 134.105C144.689 131.309 145.686 128.022 145.686 124.66C145.686 122.428 145.246 120.217 144.391 118.155C143.537 116.092 142.285 114.218 140.706 112.639C139.128 111.061 137.254 109.809 135.191 108.954C133.129 108.1 130.918 107.66 128.686 107.66ZM129.991 110.325C132.986 110.593 135.822 111.796 138.096 113.765L130.001 121.87L129.991 110.325ZM127.386 121.87L119.281 113.765C121.554 111.795 124.39 110.592 127.386 110.325V121.87ZM125.546 123.71H114.321C114.511 120.758 115.612 117.937 117.471 115.635L125.546 123.71ZM125.546 126.31L117.791 134.07C115.898 131.886 114.711 129.181 114.386 126.31H125.546ZM127.386 128.155V139C124.558 138.749 121.869 137.663 119.661 135.88L127.386 128.155ZM129.991 128.155L137.716 135.88C135.509 137.661 132.824 138.747 130.001 139L129.991 128.155ZM131.831 126.31H143.001C142.673 129.181 141.486 131.885 139.596 134.07L131.831 126.31ZM131.831 123.71L139.901 115.635C141.759 117.937 142.86 120.758 143.051 123.71H131.831Z" fill="#FFBE62" stroke="#607087" stroke-miterlimit="10" stroke-linecap="round"/>
  <path d="M128.685 134.289C134.003 134.289 138.315 129.978 138.315 124.659C138.315 119.341 134.003 115.029 128.685 115.029C123.366 115.029 119.055 119.341 119.055 124.659C119.055 129.978 123.366 134.289 128.685 134.289Z" fill="white" stroke="#607087" stroke-miterlimit="10" stroke-linecap="round"/>
  <g style="mix-blend-mode:multiply">
    <path d="M198.265 131.61C127.265 109.535 78.5602 143.49 65.3652 154.35C71.8666 168.207 82.7344 179.548 96.3016 186.634C109.869 193.72 125.386 196.159 140.473 193.578C155.56 190.996 169.383 183.537 179.823 172.343C190.262 161.149 196.741 146.84 198.265 131.61Z" fill="#FEEBCF"/>
  </g>
  <path d="M192.506 66.4492H191.231C189.188 66.4492 187.531 68.1058 187.531 70.1492V77.4992C187.531 79.5427 189.188 81.1992 191.231 81.1992H192.506C194.55 81.1992 196.206 79.5427 196.206 77.4992V70.1492C196.206 68.1058 194.55 66.4492 192.506 66.4492Z" fill="#607087" stroke="#607087" stroke-miterlimit="10" stroke-linecap="round"/>
  <path d="M192.506 170.125H191.231C189.188 170.125 187.531 171.782 187.531 173.825V181.175C187.531 183.218 189.188 184.875 191.231 184.875H192.506C194.55 184.875 196.206 183.218 196.206 181.175V173.825C196.206 171.782 194.55 170.125 192.506 170.125Z" fill="#607087" stroke="#607087" stroke-miterlimit="10" stroke-linecap="round"/>
  <path d="M129.325 66.4492H128.05C126.006 66.4492 124.35 68.1058 124.35 70.1492V77.4992C124.35 79.5427 126.006 81.1992 128.05 81.1992H129.325C131.368 81.1992 133.025 79.5427 133.025 77.4992V70.1492C133.025 68.1058 131.368 66.4492 129.325 66.4492Z" fill="#607087" stroke="#607087" stroke-miterlimit="10" stroke-linecap="round"/>
  <path d="M129.325 170.125H128.05C126.006 170.125 124.35 171.782 124.35 173.825V181.175C124.35 183.218 126.006 184.875 128.05 184.875H129.325C131.368 184.875 133.025 183.218 133.025 181.175V173.825C133.025 171.782 131.368 170.125 129.325 170.125Z" fill="#607087" stroke="#607087" stroke-miterlimit="10" stroke-linecap="round"/>
  <path d="M128.685 51.2243C129.464 51.2243 130.095 50.593 130.095 49.8143C130.095 49.0356 129.464 48.4043 128.685 48.4043C127.907 48.4043 127.275 49.0356 127.275 49.8143C127.275 50.593 127.907 51.2243 128.685 51.2243Z" fill="white" stroke="#607087" stroke-miterlimit="10" stroke-linecap="round"/>
  <path d="M104.416 53.844C104.32 53.5823 104.149 53.3547 103.924 53.1902C103.7 53.0256 103.431 52.9313 103.153 52.9193C102.874 52.9072 102.598 52.978 102.36 53.1225C102.122 53.2671 101.932 53.479 101.814 53.7315C101.696 53.984 101.656 54.2658 101.698 54.5412C101.74 54.8167 101.863 55.0735 102.051 55.2792C102.239 55.4849 102.484 55.6303 102.754 55.697C103.025 55.7637 103.309 55.7487 103.571 55.654C103.746 55.5909 103.906 55.494 104.043 55.3688C104.18 55.2436 104.291 55.0926 104.369 54.9244C104.448 54.7563 104.492 54.5743 104.5 54.3889C104.508 54.2035 104.48 54.0183 104.416 53.844Z" fill="white" stroke="#607087" stroke-miterlimit="10" stroke-linecap="round"/>
  <path d="M81.6557 66.4197C81.475 66.2083 81.2358 66.055 80.9683 65.9792C80.7008 65.9034 80.4168 65.9084 80.1521 65.9935C79.8873 66.0787 79.6537 66.2402 79.4806 66.4578C79.3074 66.6754 79.2024 66.9393 79.1789 67.2164C79.1553 67.4934 79.2142 67.7713 79.3482 68.015C79.4821 68.2587 79.6852 68.4573 79.9317 68.5859C80.1783 68.7145 80.4573 68.7674 80.7338 68.7378C81.0103 68.7082 81.2719 68.5975 81.4857 68.4197C81.6298 68.3006 81.7487 68.154 81.8355 67.9884C81.9222 67.8229 81.9751 67.6416 81.9909 67.4554C82.0067 67.2691 81.9852 67.0816 81.9277 66.9037C81.8701 66.7259 81.7776 66.5613 81.6557 66.4197Z" fill="white" stroke="#607087" stroke-miterlimit="10" stroke-linecap="round"/>
  <path d="M64.5745 85.9996C64.3342 85.8581 64.0573 85.7911 63.7789 85.807C63.5004 85.8229 63.233 85.921 63.0103 86.0889C62.7876 86.2568 62.6197 86.487 62.5279 86.7503C62.436 87.0137 62.4243 87.2983 62.4943 87.5683C62.5642 87.8383 62.7127 88.0815 62.9208 88.2671C63.129 88.4527 63.3875 88.5724 63.6637 88.6111C63.9399 88.6497 64.2213 88.6056 64.4725 88.4843C64.7236 88.363 64.9331 88.17 65.0745 87.9296C65.2628 87.607 65.3158 87.2231 65.2222 86.8616C65.1285 86.5001 64.8957 86.1902 64.5745 85.9996Z" fill="white" stroke="#607087" stroke-miterlimit="10" stroke-linecap="round"/>
  <path d="M55.2198 110.275C54.9452 110.227 54.6625 110.261 54.4075 110.374C54.1524 110.486 53.9364 110.672 53.7868 110.907C53.6372 111.142 53.5606 111.416 53.5668 111.695C53.5729 111.974 53.6616 112.244 53.8215 112.473C53.9814 112.701 54.2053 112.877 54.4651 112.978C54.7249 113.079 55.0088 113.101 55.281 113.041C55.5532 112.98 55.8014 112.841 55.9943 112.64C56.1872 112.438 56.3161 112.185 56.3648 111.91C56.3971 111.728 56.3932 111.54 56.3531 111.359C56.3131 111.178 56.2377 111.007 56.1314 110.855C56.025 110.703 55.8897 110.574 55.7333 110.474C55.5769 110.375 55.4024 110.307 55.2198 110.275Z" fill="white" stroke="#607087" stroke-miterlimit="10" stroke-linecap="round"/>
  <path d="M54.7302 136.27C54.4558 136.318 54.2019 136.447 54.0007 136.64C53.7994 136.833 53.6599 137.081 53.5997 137.353C53.5395 137.626 53.5613 137.91 53.6624 138.169C53.7634 138.429 53.9393 138.653 54.1676 138.813C54.3959 138.973 54.6665 139.062 54.9452 139.068C55.2239 139.074 55.4981 138.997 55.7333 138.848C55.9685 138.698 56.1541 138.482 56.2665 138.227C56.379 137.972 56.4134 137.689 56.3653 137.415C56.3333 137.232 56.2655 137.058 56.166 136.901C56.0665 136.745 55.9371 136.609 55.7852 136.503C55.6334 136.397 55.462 136.321 55.281 136.281C55.1 136.241 54.9128 136.237 54.7302 136.27Z" fill="white" stroke="#607087" stroke-miterlimit="10" stroke-linecap="round"/>
  <path d="M63.1599 160.865C62.9195 161.006 62.7265 161.215 62.6052 161.467C62.4839 161.718 62.4398 161.999 62.4785 162.275C62.5171 162.552 62.6369 162.81 62.8225 163.018C63.0081 163.226 63.2513 163.375 63.5212 163.445C63.7912 163.515 64.0759 163.503 64.3392 163.411C64.6025 163.319 64.8327 163.151 65.0006 162.929C65.1686 162.706 65.2667 162.439 65.2825 162.16C65.2984 161.882 65.2314 161.605 65.0899 161.365C64.9965 161.204 64.8723 161.065 64.7246 160.953C64.5768 160.841 64.4084 160.759 64.229 160.713C64.0496 160.666 63.8628 160.656 63.6793 160.682C63.4958 160.708 63.3193 160.77 63.1599 160.865Z" fill="white" stroke="#607087" stroke-miterlimit="10" stroke-linecap="round"/>
  <path d="M79.4995 181.089C79.3222 181.303 79.2122 181.565 79.1834 181.842C79.1545 182.118 79.2081 182.397 79.3373 182.643C79.4666 182.89 79.6657 183.092 79.9097 183.225C80.1537 183.359 80.4317 183.417 80.7087 183.393C80.9857 183.369 81.2493 183.263 81.4665 183.089C81.6836 182.916 81.8446 182.682 81.9291 182.417C82.0136 182.152 82.0179 181.868 81.9415 181.601C81.865 181.333 81.7112 181.094 81.4995 180.914C81.3572 180.793 81.1923 180.702 81.0144 180.645C80.8364 180.588 80.6489 180.567 80.4629 180.583C80.2768 180.6 80.0958 180.653 79.9304 180.74C79.765 180.826 79.6186 180.945 79.4995 181.089Z" fill="white" stroke="#607087" stroke-miterlimit="10" stroke-linecap="round"/>
  <path d="M101.76 194.5C101.665 194.763 101.65 195.047 101.717 195.317C101.783 195.588 101.929 195.833 102.135 196.021C102.34 196.209 102.597 196.331 102.873 196.374C103.148 196.416 103.43 196.375 103.682 196.257C103.935 196.14 104.147 195.949 104.291 195.711C104.436 195.473 104.506 195.197 104.494 194.919C104.482 194.64 104.388 194.372 104.224 194.147C104.059 193.922 103.831 193.751 103.57 193.655C103.396 193.591 103.21 193.562 103.025 193.57C102.839 193.577 102.657 193.622 102.488 193.7C102.32 193.779 102.169 193.89 102.044 194.027C101.919 194.165 101.822 194.326 101.76 194.5Z" fill="white" stroke="#607087" stroke-miterlimit="10" stroke-linecap="round"/>
  <path d="M127.275 199.5C127.274 199.78 127.357 200.054 127.512 200.288C127.667 200.521 127.888 200.703 128.147 200.811C128.405 200.919 128.69 200.947 128.965 200.893C129.24 200.838 129.493 200.704 129.691 200.505C129.889 200.307 130.024 200.055 130.078 199.78C130.133 199.505 130.104 199.22 129.997 198.961C129.889 198.702 129.707 198.481 129.473 198.326C129.24 198.171 128.966 198.089 128.685 198.09C128.311 198.09 127.953 198.238 127.688 198.503C127.424 198.767 127.275 199.126 127.275 199.5Z" fill="white" stroke="#607087" stroke-miterlimit="10" stroke-linecap="round"/>
  <path d="M152.961 195.499C153.056 195.761 153.227 195.989 153.452 196.153C153.677 196.318 153.946 196.412 154.224 196.424C154.502 196.436 154.778 196.365 155.016 196.221C155.255 196.076 155.445 195.864 155.563 195.612C155.681 195.359 155.721 195.078 155.679 194.802C155.637 194.527 155.514 194.27 155.326 194.064C155.138 193.859 154.893 193.713 154.623 193.646C154.352 193.58 154.068 193.595 153.806 193.689C153.631 193.753 153.471 193.849 153.334 193.975C153.197 194.1 153.086 194.251 153.007 194.419C152.929 194.587 152.884 194.769 152.876 194.955C152.868 195.14 152.897 195.325 152.961 195.499Z" fill="white" stroke="#607087" stroke-miterlimit="10" stroke-linecap="round"/>
  <path d="M175.715 182.904C175.895 183.118 176.135 183.273 176.403 183.351C176.672 183.428 176.957 183.424 177.224 183.34C177.49 183.256 177.725 183.094 177.9 182.876C178.075 182.658 178.181 182.393 178.206 182.115C178.23 181.836 178.171 181.557 178.037 181.312C177.903 181.066 177.699 180.867 177.451 180.737C177.204 180.608 176.923 180.554 176.645 180.584C176.368 180.614 176.105 180.725 175.89 180.904C175.746 181.023 175.627 181.17 175.54 181.335C175.454 181.501 175.401 181.682 175.384 181.868C175.368 182.054 175.389 182.241 175.446 182.419C175.502 182.597 175.594 182.762 175.715 182.904Z" fill="white" stroke="#607087" stroke-miterlimit="10" stroke-linecap="round"/>
  <path d="M192.8 163.311C193.041 163.452 193.318 163.519 193.596 163.503C193.874 163.487 194.142 163.389 194.365 163.221C194.587 163.053 194.755 162.823 194.847 162.56C194.939 162.297 194.95 162.012 194.881 161.742C194.811 161.472 194.662 161.229 194.454 161.043C194.246 160.858 193.987 160.738 193.711 160.699C193.435 160.66 193.153 160.705 192.902 160.826C192.651 160.947 192.442 161.14 192.3 161.381C192.112 161.703 192.059 162.087 192.153 162.449C192.246 162.81 192.479 163.12 192.8 163.311Z" fill="white" stroke="#607087" stroke-miterlimit="10" stroke-linecap="round"/>
  <path d="M202.151 139.051C202.426 139.099 202.708 139.065 202.963 138.952C203.218 138.84 203.434 138.654 203.584 138.419C203.734 138.184 203.81 137.909 203.804 137.631C203.798 137.352 203.709 137.081 203.549 136.853C203.389 136.625 203.165 136.449 202.906 136.348C202.646 136.247 202.362 136.225 202.09 136.285C201.818 136.345 201.569 136.485 201.377 136.686C201.184 136.887 201.055 137.141 201.006 137.416C200.974 137.598 200.978 137.786 201.018 137.967C201.058 138.148 201.133 138.319 201.239 138.471C201.346 138.623 201.481 138.752 201.637 138.852C201.794 138.951 201.968 139.019 202.151 139.051Z" fill="white" stroke="#607087" stroke-miterlimit="10" stroke-linecap="round"/>
  <path d="M202.641 113.054C202.915 113.006 203.169 112.877 203.37 112.684C203.571 112.491 203.711 112.243 203.771 111.97C203.831 111.698 203.809 111.414 203.708 111.155C203.607 110.895 203.432 110.671 203.203 110.511C202.975 110.351 202.704 110.262 202.426 110.256C202.147 110.25 201.873 110.327 201.637 110.476C201.402 110.626 201.217 110.842 201.104 111.097C200.992 111.352 200.957 111.635 201.006 111.909C201.038 112.092 201.105 112.266 201.205 112.423C201.304 112.579 201.434 112.714 201.586 112.821C201.737 112.927 201.909 113.003 202.09 113.043C202.271 113.083 202.458 113.087 202.641 113.054Z" fill="white" stroke="#607087" stroke-miterlimit="10" stroke-linecap="round"/>
  <path d="M194.211 88.4595C194.452 88.3187 194.646 88.1095 194.768 87.8584C194.89 87.6073 194.935 87.3256 194.897 87.0491C194.858 86.7725 194.739 86.5135 194.553 86.3049C194.368 86.0963 194.125 85.9475 193.854 85.8773C193.584 85.8071 193.299 85.8187 193.036 85.9107C192.772 86.0026 192.542 86.1707 192.374 86.3937C192.206 86.6167 192.108 86.8846 192.092 87.1633C192.076 87.4421 192.144 87.7192 192.286 87.9595C192.476 88.2804 192.785 88.5131 193.145 88.6067C193.506 88.7004 193.889 88.6475 194.211 88.4595Z" fill="white" stroke="#607087" stroke-miterlimit="10" stroke-linecap="round"/>
  <path d="M177.88 68.2341C178.06 68.0199 178.172 67.7573 178.202 67.4795C178.233 67.2016 178.18 66.921 178.052 66.673C177.923 66.4249 177.723 66.2206 177.479 66.0858C177.234 65.9509 176.955 65.8916 176.676 65.9152C176.398 65.9389 176.132 66.0445 175.914 66.2188C175.695 66.393 175.533 66.628 175.448 66.8943C175.363 67.1605 175.359 67.446 175.436 67.7146C175.512 67.9833 175.667 68.2232 175.88 68.4041C176.023 68.5248 176.187 68.6161 176.365 68.673C176.543 68.7298 176.73 68.7509 176.916 68.7351C177.102 68.7193 177.282 68.6669 177.448 68.5809C177.614 68.4949 177.761 68.377 177.88 68.2341Z" fill="white" stroke="#607087" stroke-miterlimit="10" stroke-linecap="round"/>
  <path d="M155.61 54.8089C155.706 54.5467 155.721 54.2622 155.654 53.9913C155.588 53.7204 155.442 53.4754 155.236 53.2872C155.03 53.099 154.773 52.9761 154.498 52.9341C154.222 52.892 153.94 52.9327 153.687 53.051C153.435 53.1692 153.223 53.3598 153.078 53.5985C152.934 53.8372 152.864 54.1133 152.876 54.392C152.889 54.6706 152.984 54.9392 153.15 55.1639C153.315 55.3885 153.543 55.559 153.805 55.6539C153.979 55.7175 154.164 55.7461 154.349 55.738C154.534 55.73 154.716 55.6854 154.884 55.6068C155.051 55.5283 155.202 55.4174 155.327 55.2804C155.451 55.1435 155.548 54.9833 155.61 54.8089Z" fill="white" stroke="#607087" stroke-miterlimit="10" stroke-linecap="round"/>
  <path d="M128.256 36.4105V33.3105" stroke="#607087" stroke-miterlimit="10" stroke-linecap="round"/>
  <path d="M128.256 45.845V38.25" stroke="#607087" stroke-miterlimit="10" stroke-linecap="round"/>
  <path d="M128.256 211.289V203.154" stroke="#607087" stroke-miterlimit="10" stroke-linecap="round"/>
  <path d="M200.945 125.039H213.42" stroke="#607087" stroke-miterlimit="10" stroke-linecap="round"/>
  <path d="M40.3203 125.039H56.2553" stroke="#607087" stroke-miterlimit="10" stroke-linecap="round"/>
  <path d="M36.5859 125.039H38.0109" stroke="#607087" stroke-miterlimit="10" stroke-linecap="round"/>
  <path d="M216.135 125.039H219.045" stroke="#607087" stroke-miterlimit="10" stroke-linecap="round"/>
  <path d="M99.15 216.001C98.1405 215.585 97.1628 215.095 96.225 214.536C96.225 214.536 101.635 187.646 101.835 178.816C102.035 169.986 103.24 151.711 103.24 151.711H79C79 151.711 80.205 169.981 80.405 178.816C80.605 187.651 84.905 214.536 84.905 214.536C83.9652 215.095 82.9859 215.584 81.975 216.001C80.675 216.501 79.05 217.136 79.86 217.461C80.9603 217.82 82.1262 217.933 83.275 217.791C84.9747 217.339 86.6133 216.682 88.155 215.836C88.805 215.336 89.655 162.956 89.655 162.956H91.39C91.39 162.956 92.3 215.351 92.95 215.836C94.4921 216.681 96.1306 217.338 97.83 217.791C98.9788 217.933 100.145 217.82 101.245 217.461C102.075 217.151 100.45 216.501 99.15 216.001Z" fill="#607087" stroke="#607087" stroke-linecap="round" stroke-linejoin="round"/>
  <path d="M77.5 118.371C76.6599 118.446 75.8514 118.728 75.1466 119.191C74.4417 119.654 73.8623 120.285 73.46 121.026C72.105 123.571 71.425 135.606 71.935 136.966C72.445 138.326 73.63 139.676 76 137.811C78.37 135.946 78.545 134.081 78.545 134.081L77.5 118.371Z" fill="white" stroke="#607087" stroke-linecap="round" stroke-linejoin="round"/>
  <path d="M105.055 118.091C105.055 118.091 108.555 117.466 109.245 120.181C109.935 122.896 112.805 130.861 111.79 134.081C110.775 137.301 106.87 137.136 104.16 135.436C101.45 133.736 105.055 118.091 105.055 118.091Z" fill="white" stroke="#607087" stroke-linecap="round" stroke-linejoin="round"/>
  <path d="M89.0748 113.771L77.5098 118.371L79.0198 151.726H103.24L105.055 118.091L94.8398 113.926L89.0748 113.771Z" fill="white" stroke="#607087" stroke-linecap="round" stroke-linejoin="round"/>
  <path d="M87.6743 123.73H79.6543V125.02H87.6743V123.73Z" fill="#607087" stroke="#607087" stroke-linecap="round" stroke-linejoin="round"/>
  <path d="M103.286 123.73H95.2656V125.02H103.286V123.73Z" fill="#607087" stroke="#607087" stroke-linecap="round" stroke-linejoin="round"/>
  <path d="M103.31 147.646H79.0195V151.726H103.31V147.646Z" fill="#607087" stroke="#607087" stroke-linecap="round" stroke-linejoin="round"/>
  <path d="M93.3043 147.477H89.4043V149.682H93.3043V147.477Z" fill="white" stroke="#607087" stroke-miterlimit="10" stroke-linecap="round"/>
  <path d="M96.8241 114.941L105.484 118.126L104.299 120.001L96.4141 117.241L96.8241 114.941Z" fill="#607087" stroke="#607087" stroke-linecap="round" stroke-linejoin="round"/>
  <path d="M90.2549 118.501L87.0349 121.556C87.0349 121.556 85.1699 116.301 85.1699 115.451C85.1699 114.601 87.3699 112.061 87.3699 112.061L95.6799 111.891L98.7299 115.621L96.1899 121.386L92.6299 118.671L90.2549 118.501Z" fill="white" stroke="#607087" stroke-linecap="round" stroke-linejoin="round"/>
  <path d="M85.1709 115.43L76.5059 118.62L77.6909 120.495L85.5759 117.735L85.1709 115.43Z" fill="#607087" stroke="#607087" stroke-linecap="round" stroke-linejoin="round"/>
  <path d="M96.1006 116.126L91.8256 119.866L87.6406 116.126V106.156H96.1006V116.126Z" fill="white"/>
  <mask id="mask0_21000_58776" style="mask-type:luminance" maskUnits="userSpaceOnUse" x="87" y="106" width="10" height="14">
    <path d="M96.1006 116.126L91.8256 119.866L87.6406 116.126V106.156H96.1006V116.126Z" fill="white"/>
  </mask>
  <g mask="url(#mask0_21000_58776)">
    <g style="mix-blend-mode:multiply">
      <path d="M87.5098 112.586L90.5398 116.101H93.2998L96.0998 113.011L95.8298 110.081L87.6398 109.691L87.5098 112.586Z" fill="#FFBE62"/>
    </g>
  </g>
  <path d="M96.1006 116.126L91.8256 119.866L87.6406 116.126V106.156H96.1006V116.126Z" stroke="#607087" stroke-linecap="round" stroke-linejoin="round"/>
  <path d="M86.7255 103.501C86.7255 103.501 85.1605 103.091 85.3155 104.186C85.4705 105.281 85.9455 107.326 86.7255 107.796L87.5105 108.266L86.7255 103.501Z" fill="white" stroke="#607087" stroke-linecap="round" stroke-linejoin="round"/>
  <path d="M97.2244 103.501C97.2244 103.501 98.7945 103.091 98.6345 104.186C98.4745 105.281 98.0094 107.326 97.2244 107.796L96.4395 108.266L97.2244 103.501Z" fill="white" stroke="#607087" stroke-linecap="round" stroke-linejoin="round"/>
  <path d="M97.9649 101.685C97.9658 100.824 97.7801 99.973 97.4208 99.1908C97.0614 98.4085 96.5369 97.7134 95.8832 97.1532C95.2295 96.593 94.4622 96.1811 93.6342 95.9458C92.8061 95.7104 91.9369 95.6573 91.0863 95.79C90.2357 95.9227 89.424 96.238 88.7069 96.7144C87.9899 97.1907 87.3845 97.8168 86.9325 98.5494C86.4806 99.2821 86.1926 100.104 86.0886 100.959C85.9846 101.813 86.0669 102.68 86.3299 103.5L87.8299 110.635L90.5999 114.525H93.2749L95.9649 111.135L97.6099 103.665C97.84 103.03 97.96 102.36 97.9649 101.685Z" fill="white" stroke="#607087" stroke-linecap="round" stroke-linejoin="round"/>
  <path d="M87.5 102.87C87.5 102.87 88.455 101.835 89.32 102.18C90.185 102.525 89.845 103.565 92.35 103.825C93.7603 103.997 95.1913 103.846 96.535 103.385L96.67 101.215L87.5 99.9297V102.87Z" fill="#FFBE62"/>
  <path d="M96.6797 101.215C96.3464 101.962 96.1354 102.757 96.0547 103.57C96.0547 104.51 96.8397 106.39 96.8397 106.39C96.8397 106.39 98.7197 102.47 98.5647 101.06C98.4097 99.6502 96.5247 100.745 96.6797 101.215Z" fill="#607087" stroke="#607087" stroke-linecap="round" stroke-linejoin="round"/>
  <path d="M86.7999 106.081C86.7999 106.081 86.7999 105.836 86.8399 105.471C86.9299 104.471 87.1649 102.506 87.7399 102.156C88.5249 101.686 88.4449 99.2156 88.4449 99.2156C88.4449 99.2156 87.3499 100.451 91.1149 101.716C94.8799 102.981 97.9349 102.481 99.9749 99.8156C102.015 97.1506 100.13 95.2656 99.8199 96.2056C99.5099 97.1456 98.8749 98.4056 97.7799 97.4606C96.6849 96.5156 94.9549 94.6406 91.8199 94.6406C88.6849 94.6406 87.2699 97.4606 87.2699 97.4606C86.7671 97.7072 86.341 98.086 86.0371 98.5564C85.7332 99.0267 85.563 99.5709 85.5449 100.131C85.5449 102.001 86.7999 106.081 86.7999 106.081Z" fill="#607087" stroke="#607087" stroke-linecap="round" stroke-linejoin="round"/>
  <path d="M97.8355 101.116C95.6155 101.206 93.7255 99.7111 91.7955 98.3911C89.8655 97.0711 88.5605 98.3911 88.5605 98.3911C88.7101 97.6739 89.0919 97.026 89.6469 96.5478C90.2019 96.0697 90.8991 95.7878 91.6305 95.7461C94.2505 95.5761 95.1305 99.1761 97.5455 99.4911" stroke="white" stroke-width="0.5" stroke-linecap="round" stroke-linejoin="round"/>
  <path d="M91.5751 105.951H86.3301L86.8851 107.681C86.9379 107.845 87.0414 107.988 87.1807 108.09C87.3199 108.191 87.4878 108.246 87.6601 108.246H90.3701C90.5508 108.246 90.7262 108.185 90.8684 108.074C91.0107 107.962 91.1116 107.807 91.1551 107.631L91.5751 105.951Z" fill="#607087" stroke="#607087" stroke-linecap="round" stroke-linejoin="round"/>
  <path d="M97.4004 105.951H92.1504L92.7054 107.681C92.7583 107.845 92.8617 107.988 93.001 108.09C93.1402 108.191 93.3081 108.246 93.4804 108.246H96.1904C96.3717 108.246 96.5479 108.186 96.691 108.074C96.834 107.963 96.9359 107.807 96.9804 107.631L97.4004 105.951Z" fill="#607087" stroke="#607087" stroke-linecap="round" stroke-linejoin="round"/>
  <path d="M86.3295 105.95L86.0645 103.385" stroke="#607087" stroke-linecap="round" stroke-linejoin="round"/>
  <path d="M97.4004 105.951L97.9954 103.516" stroke="#607087" stroke-linecap="round" stroke-linejoin="round"/>
  <path d="M91.5742 105.951H92.1492" stroke="#607087" stroke-linecap="round" stroke-linejoin="round"/>
  <path d="M91.4297 106.766H92.3597" stroke="#607087" stroke-linecap="round" stroke-linejoin="round"/>
  <path d="M92.9544 110.08C92.9544 110.08 92.5594 110.675 92.0944 110.675C91.6294 110.675 91.2344 110.08 91.2344 110.08" stroke="#607087" stroke-linecap="round" stroke-linejoin="round"/>
  <path d="M78.8943 149.17C78.8943 149.17 74.6543 151.035 74.6543 152.225C74.6543 153.415 76.0093 161.04 76.8593 162.725C77.7093 164.41 78.3843 165.1 79.9093 164.08C81.4343 163.06 78.8943 149.17 78.8943 149.17Z" fill="#607087" stroke="#607087" stroke-linecap="round" stroke-linejoin="round"/>
  <path d="M105.346 145.271H102.971V160.021H105.346V145.271Z" fill="#607087" stroke="#607087" stroke-linecap="round" stroke-linejoin="round"/>
  <path d="M106.53 142.221H101.785V146.631H106.53V142.221Z" fill="#607087" stroke="#607087" stroke-linecap="round" stroke-linejoin="round"/>
  <path d="M111.62 131.37C111.62 131.37 112.62 135.1 110.09 136.455C109.135 136.955 104.665 136.115 99.4101 134.76C94.1551 133.405 91.2701 132.385 91.2701 132.385L76.5201 132.045C76.5201 132.045 75.1651 129.335 77.2001 127.805C79.2351 126.275 86.7001 128.485 86.7001 128.485L101.96 128.825C101.96 128.825 105.18 127.325 109.59 128.655" fill="white"/>
  <path d="M111.62 131.37C111.62 131.37 112.62 135.1 110.09 136.455C109.135 136.955 104.665 136.115 99.4101 134.76C94.1551 133.405 91.2701 132.385 91.2701 132.385L76.5201 132.045C76.5201 132.045 75.1651 129.335 77.2001 127.805C79.2351 126.275 86.7001 128.485 86.7001 128.485L101.96 128.825C101.96 128.825 105.18 127.325 109.59 128.655" stroke="#607087" stroke-linecap="round" stroke-linejoin="round"/>
  <path d="M74.4995 132.386C74.4995 132.386 78.0595 129.506 80.7745 128.486C83.4895 127.466 98.5795 127.131 98.5795 127.131C98.5795 127.131 102.814 128.486 101.969 128.826C101.124 129.166 97.7295 129.506 96.2045 130.181C94.6795 130.856 85.8595 136.966 75.2045 138.491C72.8645 138.826 72.3195 138.661 71.8145 136.286" fill="white"/>
  <path d="M74.4995 132.386C74.4995 132.386 78.0595 129.506 80.7745 128.486C83.4895 127.466 98.5795 127.131 98.5795 127.131C98.5795 127.131 102.814 128.486 101.969 128.826C101.124 129.166 97.7295 129.506 96.2045 130.181C94.6795 130.856 85.8595 136.966 75.2045 138.491C72.8645 138.826 72.3195 138.661 71.8145 136.286" stroke="#607087" stroke-linecap="round" stroke-linejoin="round"/>
  <path d="M96.125 127.31L96.41 129.745H97.415L97.555 127.17L96.125 127.31Z" fill="#607087" stroke="#607087" stroke-linecap="round" stroke-linejoin="round"/>
</svg>