<svg width="37" height="38" viewBox="0 0 37 38" fill="none" xmlns="http://www.w3.org/2000/svg">
<path opacity="0.4" d="M26.279 0.666992H10.3858C4.17267 0.666992 0 5.02666 0 11.5148V26.4877C0 32.974 4.17267 37.3337 10.3858 37.3337H26.2772C32.4903 37.3337 36.6667 32.974 36.6667 26.4877V11.5148C36.6667 5.02666 32.4922 0.666992 26.279 0.666992Z" fill="#FFBE62"/>
<path d="M8.98832 15.5449L8.98826 15.5448C8.89579 15.4915 8.819 15.4147 8.76562 15.3222C8.71223 15.2297 8.68412 15.1248 8.68412 15.018C8.68412 14.9112 8.71223 14.8064 8.76562 14.7139C8.819 14.6214 8.89579 14.5446 8.98826 14.4912L8.98836 14.4912L17.6967 9.47149L17.6976 9.47094L17.6976 9.47095C17.7901 9.41856 17.8945 9.39102 18.0008 9.39102C18.107 9.39102 18.2115 9.41856 18.3039 9.47095L18.3048 9.47149L18.3048 9.47149L27.0132 14.4912L27.0133 14.4912C27.1057 14.5446 27.1825 14.6214 27.2359 14.7139L27.106 14.7889L27.2359 14.7139C27.2893 14.8064 27.3174 14.9112 27.3174 15.018C27.3174 15.1248 27.2893 15.2297 27.2359 15.3222L27.106 15.2472L27.2359 15.3222C27.1825 15.4147 27.1057 15.4915 27.0133 15.5448L27.0132 15.5449L18.3052 20.568C18.3052 20.568 18.3051 20.5681 18.305 20.5681L18.3049 20.5682L18.2299 20.4383C18.1603 20.4787 18.0813 20.5 18.0008 20.5C17.9203 20.5 17.8412 20.4787 17.7716 20.4383L8.98832 15.5449ZM8.98832 15.5449L17.6963 20.568L8.98832 15.5449ZM18.0008 19.3402L10.5103 15.019L17.9992 10.7013L25.4912 15.019L18.0008 19.3402ZM9.59902 21.7699L9.52344 21.8994L9.59902 21.7699C9.53 21.7296 9.45372 21.7033 9.37455 21.6926C9.29538 21.6818 9.21486 21.6867 9.13759 21.707C9.06032 21.7274 8.98781 21.7627 8.9242 21.8111C8.86059 21.8594 8.80713 21.9198 8.76687 21.9889C8.72661 22.0579 8.70034 22.1342 8.68955 22.2133C8.67877 22.2925 8.68368 22.373 8.70402 22.4503C8.72435 22.5276 8.75971 22.6001 8.80807 22.6637L8.80807 22.6637C8.85642 22.7273 8.91683 22.7807 8.98585 22.821C8.98585 22.821 8.98585 22.821 8.98586 22.821L17.6936 27.9008C17.6936 27.9009 17.6937 27.9009 17.6938 27.9009C17.7868 27.9558 17.8928 27.9847 18.0008 27.9847C18.1087 27.9847 18.2147 27.9558 18.3077 27.901C18.3078 27.9009 18.3079 27.9009 18.308 27.9008L27.0157 22.821C27.0847 22.7808 27.1451 22.7273 27.1935 22.6637L27.0741 22.5729L27.1935 22.6637C27.2418 22.6001 27.2772 22.5276 27.2975 22.4503C27.3179 22.373 27.3228 22.2925 27.312 22.2133C27.3012 22.1342 27.2749 22.0579 27.2347 21.9889C27.1944 21.9198 27.1409 21.8594 27.0773 21.8111C27.0137 21.7627 26.9412 21.7274 26.8639 21.707C26.7867 21.6867 26.7062 21.6818 26.627 21.6926C26.5478 21.7033 26.4715 21.7296 26.4025 21.7699L18.0008 26.6712L9.59902 21.7699ZM9.59902 18.1032L9.52344 18.2328L9.59902 18.1032C9.53 18.063 9.45372 18.0367 9.37455 18.0259C9.29538 18.0151 9.21486 18.02 9.13759 18.0404C9.06032 18.0607 8.98781 18.0961 8.9242 18.1444C8.86059 18.1928 8.80713 18.2532 8.76687 18.3222C8.72661 18.3912 8.70034 18.4675 8.68955 18.5467C8.67877 18.6258 8.68368 18.7064 8.70402 18.7836L8.84897 18.7455L8.70402 18.7836C8.72435 18.8609 8.75971 18.9334 8.80807 18.997C8.85642 19.0606 8.91684 19.1141 8.98585 19.1543L17.6936 24.2341C17.6937 24.2342 17.6938 24.2343 17.6939 24.2344C17.7869 24.2891 17.8929 24.318 18.0008 24.318C18.1086 24.318 18.2146 24.2891 18.3075 24.2344C18.3077 24.2343 18.3078 24.2342 18.308 24.2341L27.0157 19.1543C27.0847 19.1141 27.1451 19.0606 27.1935 18.997C27.2418 18.9334 27.2772 18.8609 27.2975 18.7836C27.3179 18.7064 27.3228 18.6258 27.312 18.5467C27.3012 18.4675 27.2749 18.3912 27.2347 18.3222C27.1944 18.2532 27.1409 18.1928 27.0773 18.1444C27.0137 18.0961 26.9412 18.0607 26.8639 18.0404C26.7867 18.02 26.7062 18.0151 26.627 18.0259C26.5478 18.0367 26.4715 18.063 26.4025 18.1032L18.0008 23.0045L9.59902 18.1032Z" fill="#FFBE62" stroke="#FFBE62" stroke-width="0.3"/>
</svg>
