<svg width="13" height="15" viewBox="0 0 13 15" fill="none" xmlns="http://www.w3.org/2000/svg">
<path d="M5.5625 8.75H9.625M3.375 8.75H3.6875M3.375 6.5625H3.6875M3.375 10.9375H3.6875M5.5625 6.5625H9.625M5.5625 10.9375H9.625" stroke="#607087" stroke-linecap="round"/>
<path d="M4 2.1875C4 1.93886 4.09877 1.7004 4.27459 1.52459C4.4504 1.34877 4.68886 1.25 4.9375 1.25H8.0625C8.31114 1.25 8.5496 1.34877 8.72541 1.52459C8.90123 1.7004 9 1.93886 9 2.1875V2.8125C9 3.06114 8.90123 3.2996 8.72541 3.47541C8.5496 3.65123 8.31114 3.75 8.0625 3.75H4.9375C4.68886 3.75 4.4504 3.65123 4.27459 3.47541C4.09877 3.2996 4 3.06114 4 2.8125V2.1875Z" stroke="#607087"/>
<path d="M12.125 10.0007C12.125 11.7688 12.125 12.6526 11.5756 13.202C11.0269 13.7507 10.1425 13.7507 8.375 13.7507H4.625C2.8575 13.7507 1.97312 13.7507 1.42437 13.202C0.875 12.652 0.875 11.7688 0.875 10.0007V8.1257M9 2.50195C10.3594 2.50945 11.0956 2.57008 11.5756 3.05008C12.125 3.59945 12.125 4.4832 12.125 6.2507V7.5007M4 2.50195C2.64063 2.50945 1.90437 2.57008 1.42437 3.05008C0.94375 3.53008 0.88375 4.26633 0.87625 5.6257" stroke="#607087" stroke-linecap="round"/>
</svg>
