<svg width="42" height="42" viewBox="0 0 42 42" fill="none" xmlns="http://www.w3.org/2000/svg">
<path d="M4.61253 15.4558L20.6613 24.205C20.7896 24.2754 20.9343 24.3106 21.0806 24.3071C21.2269 24.3036 21.3696 24.2614 21.4944 24.1849L37.1031 14.6728C37.228 14.5966 37.3306 14.4889 37.4007 14.3605C37.4707 14.2321 37.5057 14.0875 37.5022 13.9413C37.4987 13.7951 37.4567 13.6523 37.3806 13.5275C37.3044 13.4026 37.1967 13.3 37.0683 13.2299L21.0197 4.48733C20.891 4.41839 20.7465 4.38401 20.6005 4.38752C20.4545 4.39104 20.3119 4.43235 20.1866 4.5074L4.57776 14.0129C4.45289 14.089 4.35026 14.1968 4.2802 14.3252C4.21014 14.4536 4.17512 14.5981 4.17864 14.7444C4.18216 14.8906 4.22412 15.0333 4.30028 15.1582C4.37644 15.2831 4.48414 15.3857 4.61253 15.4558ZM20.6438 6.18354L35.0014 14.0032L21.0373 22.5138L6.67958 14.6858L20.6437 6.18021L20.6438 6.18354ZM36.5507 26.4795L21.3585 35.8399L5.733 27.2222C5.63715 27.1694 5.53182 27.1359 5.42304 27.1237C5.31425 27.1116 5.20414 27.121 5.09898 27.1514C4.99382 27.1818 4.89568 27.2326 4.81016 27.3009C4.72465 27.3692 4.65342 27.4537 4.60056 27.5496C4.5477 27.6454 4.51424 27.7508 4.50208 27.8596C4.48992 27.9683 4.49931 28.0785 4.52971 28.1836C4.56011 28.2888 4.61093 28.3869 4.67926 28.4724C4.74758 28.5579 4.83209 28.6292 4.92794 28.682L20.9792 37.5346C21.1082 37.6065 21.2542 37.6426 21.4018 37.6391C21.5495 37.6355 21.6936 37.5924 21.819 37.5143L37.4252 27.8989C37.5184 27.8415 37.5993 27.7663 37.6635 27.6775C37.7276 27.5888 37.7736 27.4884 37.7989 27.3819C37.8242 27.2754 37.8283 27.1649 37.8109 27.0568C37.7935 26.9488 37.755 26.8452 37.6976 26.752C37.6402 26.6588 37.565 26.5778 37.4763 26.5137C37.3876 26.4496 37.2871 26.4035 37.1806 26.3782C37.0741 26.3529 36.9637 26.3489 36.8556 26.3662C36.7475 26.3836 36.6439 26.4221 36.5507 26.4795ZM36.3901 19.8148L21.1979 29.1752L5.57239 20.5575C5.47654 20.5046 5.37121 20.4712 5.26242 20.459C5.15364 20.4468 5.04352 20.4562 4.93837 20.4866C4.83321 20.517 4.73507 20.5678 4.64955 20.6362C4.56403 20.7045 4.49281 20.789 4.43995 20.8849C4.38709 20.9807 4.35362 21.086 4.34147 21.1948C4.32931 21.3036 4.3387 21.4137 4.3691 21.5189C4.3995 21.624 4.45031 21.7222 4.51864 21.8077C4.58697 21.8932 4.67147 21.9644 4.76733 22.0173L20.8186 30.8698C20.9476 30.9418 21.0935 30.9779 21.2412 30.9743C21.3889 30.9708 21.533 30.9277 21.6583 30.8496L37.2646 21.2342C37.3578 21.1767 37.4387 21.1015 37.5029 21.0128C37.567 20.9241 37.613 20.8236 37.6383 20.7171C37.6636 20.6106 37.6677 20.5002 37.6503 20.3921C37.6329 20.284 37.5944 20.1804 37.537 20.0873C37.4796 19.9941 37.4044 19.9131 37.3157 19.849C37.227 19.7848 37.1265 19.7388 37.02 19.7135C36.9135 19.6882 36.803 19.6841 36.695 19.7015C36.5869 19.7189 36.4833 19.7574 36.3901 19.8148Z" fill="#607087"/>
</svg>
