<svg width="13" height="13" viewBox="0 0 13 13" fill="none" xmlns="http://www.w3.org/2000/svg">
<path d="M4.9375 0.25C4.68886 0.25 4.4504 0.348772 4.27459 0.524587C4.09877 0.700403 4 0.93886 4 1.1875V1.8125C4 2.06114 4.09877 2.2996 4.27459 2.47541C4.4504 2.65123 4.68886 2.75 4.9375 2.75H8.0625C8.31114 2.75 8.5496 2.65123 8.72541 2.47541C8.90123 2.2996 9 2.06114 9 1.8125V1.1875C9 0.93886 8.90123 0.700403 8.72541 0.524587C8.5496 0.348772 8.31114 0.25 8.0625 0.25H4.9375Z" fill="#130F26"/>
<path fill-rule="evenodd" clip-rule="evenodd" d="M3.0625 1.52344C2.27625 1.56719 1.78 1.69219 1.42437 2.04844C0.875 2.59781 0.875 3.48156 0.875 5.24906V8.99906C0.875 10.7672 0.875 11.6509 1.42437 12.2003C1.97312 12.7491 2.8575 12.7491 4.625 12.7491H8.375C10.1425 12.7491 11.0269 12.7491 11.5756 12.2003C12.125 11.6503 12.125 10.7672 12.125 8.99906V5.24906C12.125 3.48156 12.125 2.59781 11.5756 2.04844C11.22 1.69219 10.7238 1.56719 9.9375 1.52344V1.81281C9.9375 2.31009 9.73996 2.78701 9.38833 3.13864C9.03669 3.49027 8.55978 3.68781 8.0625 3.68781H4.9375C4.44022 3.68781 3.96331 3.49027 3.61167 3.13864C3.26004 2.78701 3.0625 2.31009 3.0625 1.81281V1.52344ZM3.375 5.09406C3.25068 5.09406 3.13145 5.14345 3.04354 5.23136C2.95564 5.31926 2.90625 5.43849 2.90625 5.56281C2.90625 5.68713 2.95564 5.80636 3.04354 5.89427C3.13145 5.98218 3.25068 6.03156 3.375 6.03156H3.6875C3.81182 6.03156 3.93105 5.98218 4.01896 5.89427C4.10686 5.80636 4.15625 5.68713 4.15625 5.56281C4.15625 5.43849 4.10686 5.31926 4.01896 5.23136C3.93105 5.14345 3.81182 5.09406 3.6875 5.09406H3.375ZM5.5625 5.09406C5.43818 5.09406 5.31895 5.14345 5.23104 5.23136C5.14314 5.31926 5.09375 5.43849 5.09375 5.56281C5.09375 5.68713 5.14314 5.80636 5.23104 5.89427C5.31895 5.98218 5.43818 6.03156 5.5625 6.03156H9.625C9.74932 6.03156 9.86855 5.98218 9.95646 5.89427C10.0444 5.80636 10.0938 5.68713 10.0938 5.56281C10.0938 5.43849 10.0444 5.31926 9.95646 5.23136C9.86855 5.14345 9.74932 5.09406 9.625 5.09406H5.5625ZM3.375 7.28156C3.25068 7.28156 3.13145 7.33095 3.04354 7.41886C2.95564 7.50676 2.90625 7.62599 2.90625 7.75031C2.90625 7.87463 2.95564 7.99386 3.04354 8.08177C3.13145 8.16968 3.25068 8.21906 3.375 8.21906H3.6875C3.81182 8.21906 3.93105 8.16968 4.01896 8.08177C4.10686 7.99386 4.15625 7.87463 4.15625 7.75031C4.15625 7.62599 4.10686 7.50676 4.01896 7.41886C3.93105 7.33095 3.81182 7.28156 3.6875 7.28156H3.375ZM5.5625 7.28156C5.43818 7.28156 5.31895 7.33095 5.23104 7.41886C5.14314 7.50676 5.09375 7.62599 5.09375 7.75031C5.09375 7.87463 5.14314 7.99386 5.23104 8.08177C5.31895 8.16968 5.43818 8.21906 5.5625 8.21906H9.625C9.74932 8.21906 9.86855 8.16968 9.95646 8.08177C10.0444 7.99386 10.0938 7.87463 10.0938 7.75031C10.0938 7.62599 10.0444 7.50676 9.95646 7.41886C9.86855 7.33095 9.74932 7.28156 9.625 7.28156H5.5625ZM3.375 9.46906C3.25068 9.46906 3.13145 9.51845 3.04354 9.60636C2.95564 9.69426 2.90625 9.81349 2.90625 9.93781C2.90625 10.0621 2.95564 10.1814 3.04354 10.2693C3.13145 10.3572 3.25068 10.4066 3.375 10.4066H3.6875C3.81182 10.4066 3.93105 10.3572 4.01896 10.2693C4.10686 10.1814 4.15625 10.0621 4.15625 9.93781C4.15625 9.81349 4.10686 9.69426 4.01896 9.60636C3.93105 9.51845 3.81182 9.46906 3.6875 9.46906H3.375ZM5.5625 9.46906C5.43818 9.46906 5.31895 9.51845 5.23104 9.60636C5.14314 9.69426 5.09375 9.81349 5.09375 9.93781C5.09375 10.0621 5.14314 10.1814 5.23104 10.2693C5.31895 10.3572 5.43818 10.4066 5.5625 10.4066H9.625C9.74932 10.4066 9.86855 10.3572 9.95646 10.2693C10.0444 10.1814 10.0938 10.0621 10.0938 9.93781C10.0938 9.81349 10.0444 9.69426 9.95646 9.60636C9.86855 9.51845 9.74932 9.46906 9.625 9.46906H5.5625Z" fill="#130F26"/>
</svg>
