<svg width="16" height="15" viewBox="0 0 16 15" fill="none" xmlns="http://www.w3.org/2000/svg">
<path d="M11.75 8.18125V6.25H13V8.18125C12.7937 8.15 12.5875 8.125 12.375 8.125C12.1625 8.125 11.9563 8.15 11.75 8.18125ZM9.5625 6.875H6.4375C6.2625 6.875 6.125 7.0125 6.125 7.1875V8.125H9.875V7.1875C9.875 7.0125 9.7375 6.875 9.5625 6.875ZM4.25 11.875V6.25H3V13.125H8.84375C8.70625 12.7312 8.625 12.3125 8.625 11.875H4.25ZM13.625 5.625H2.375V1.875H13.625V5.625ZM12.375 3.125H3.625V4.375H12.375V3.125ZM14.5875 10.55L13.7 9.66875L12.375 10.9937L11.05 9.66875L10.1688 10.55L11.4937 11.875L10.1688 13.2L11.05 14.0875L12.375 12.7563L13.7 14.0875L14.5875 13.2L13.2563 11.875L14.5875 10.55Z" fill="#607087"/>
</svg>
