<svg width="49" height="49" viewBox="0 0 49 49" fill="none" xmlns="http://www.w3.org/2000/svg">
<rect width="49" height="49" rx="10" fill="#E6F1FC"/>
<path d="M28.6667 29.6669H35.6667M32.1667 26.1669V33.1669M34.5 22.6669V20.3335C34.4996 19.9244 34.3916 19.5225 34.1868 19.1682C33.982 18.814 33.6877 18.5198 33.3333 18.3152L25.1667 13.6485C24.812 13.4438 24.4096 13.3359 24 13.3359C23.5904 13.3359 23.188 13.4438 22.8333 13.6485L14.6667 18.3152C14.3123 18.5198 14.018 18.814 13.8132 19.1682C13.6084 19.5225 13.5004 19.9244 13.5 20.3335V29.6669C13.5004 30.0761 13.6084 30.4779 13.8132 30.8322C14.018 31.1864 14.3123 31.4806 14.6667 31.6852L22.8333 36.3519C23.188 36.5567 23.5904 36.6645 24 36.6645C24.4096 36.6645 24.812 36.5567 25.1667 36.3519L27.5 35.0219M18.75 15.9819L29.25 21.9902" stroke="#1976D2" stroke-width="2" stroke-linecap="round" stroke-linejoin="round"/>
<path d="M13.8379 19.167L23.9996 25.0003M23.9996 25.0003L34.1612 19.167M23.9996 25.0003V36.667" stroke="#1976D2" stroke-width="2" stroke-linecap="round" stroke-linejoin="round"/>
</svg>
