<svg width="38" height="38" viewBox="0 0 38 38" fill="none" xmlns="http://www.w3.org/2000/svg">
<path opacity="0.4" d="M26.9431 0.6663H11.0499C4.83673 0.6663 0.664062 5.02597 0.664062 11.5141V26.487C0.664062 32.9733 4.83673 37.333 11.0499 37.333H26.9412C33.1544 37.333 37.3307 32.9733 37.3307 26.487V11.5141C37.3307 5.02597 33.1562 0.6663 26.9431 0.6663Z" fill="#FFBE62"/>
<path fill-rule="evenodd" clip-rule="evenodd" d="M17.743 17.6222H28.193C28.9447 17.6222 29.568 18.2456 29.568 18.9972V22.3889C29.568 23.1589 28.9447 23.7639 28.193 23.7639C27.423 23.7639 26.818 23.1589 26.818 22.3889V20.3722H24.3797V22.3889C24.3797 23.1589 23.7564 23.7639 23.0047 23.7639C22.2347 23.7639 21.6297 23.1589 21.6297 22.3889V20.3722H17.743C17.1564 22.3339 15.3597 23.7639 13.2147 23.7639C10.5747 23.7639 8.42969 21.6372 8.42969 18.9972C8.42969 16.3756 10.5747 14.2306 13.2147 14.2306C15.3597 14.2306 17.1564 15.6606 17.743 17.6222ZM11.1797 18.9972C11.1797 20.1156 12.0964 21.0139 13.2147 21.0139C14.3147 21.0139 15.2314 20.1156 15.2314 18.9972C15.2314 17.8789 14.3147 16.9806 13.2147 16.9806C12.0964 16.9806 11.1797 17.8789 11.1797 18.9972Z" fill="#FFBE62"/>
</svg>
