<svg width="13" height="12" viewBox="0 0 13 12" fill="none" xmlns="http://www.w3.org/2000/svg">
<path d="M7.65837 1.40837C7.7153 1.34943 7.74679 1.27049 7.74608 1.18856C7.74537 1.10662 7.7125 1.02824 7.65456 0.970303C7.59662 0.912363 7.51825 0.879498 7.43631 0.878786C7.35437 0.878074 7.27543 0.909572 7.2165 0.966496L6.49993 1.68306L5.78337 0.966496C5.75454 0.936649 5.72006 0.912842 5.68194 0.896465C5.64381 0.880087 5.6028 0.871466 5.56131 0.871106C5.51982 0.870745 5.47867 0.878652 5.44026 0.894364C5.40186 0.910077 5.36696 0.933281 5.33762 0.962623C5.30828 0.991964 5.28508 1.02686 5.26936 1.06526C5.25365 1.10367 5.24574 1.14482 5.24611 1.18631C5.24647 1.2278 5.25509 1.26881 5.27146 1.30694C5.28784 1.34506 5.31165 1.37954 5.3415 1.40837L6.05806 2.12493L5.3415 2.8415C5.28457 2.90043 5.25307 2.97937 5.25379 3.06131C5.2545 3.14325 5.28736 3.22162 5.3453 3.27956C5.40324 3.3375 5.48162 3.37037 5.56356 3.37108C5.6455 3.37179 5.72443 3.3403 5.78337 3.28337L6.49993 2.56681L7.2165 3.28337C7.27513 3.34197 7.35465 3.37487 7.43754 3.37484C7.52044 3.37481 7.59993 3.34185 7.65853 3.28322C7.71712 3.22458 7.75003 3.14506 7.75 3.06217C7.74997 2.97927 7.71701 2.89978 7.65837 2.84118L6.94181 2.12493L7.65837 1.40837ZM9.609 9.05743C9.62197 9.09638 9.62715 9.1375 9.62423 9.17844C9.62132 9.21939 9.61036 9.25936 9.59199 9.29607C9.57362 9.33278 9.5482 9.36551 9.51717 9.3924C9.48615 9.41928 9.45014 9.43979 9.41118 9.45275L8.00493 9.9215C7.92628 9.94769 7.84044 9.94156 7.76631 9.90446C7.69217 9.86736 7.63581 9.80234 7.60962 9.72368C7.58343 9.64503 7.58956 9.5592 7.62666 9.48506C7.66375 9.41092 7.72878 9.35456 7.80743 9.32837L9.21368 8.85962C9.25263 8.84664 9.29375 8.84147 9.3347 8.84438C9.37564 8.8473 9.41561 8.85826 9.45232 8.87663C9.48903 8.895 9.52176 8.92042 9.54865 8.95144C9.57553 8.98247 9.59604 9.01848 9.609 9.05743Z" fill="#607087"/>
<path fill-rule="evenodd" clip-rule="evenodd" d="M1.08889 7.2653L2.12514 7.61062V10.25C2.12514 10.315 2.1454 10.3783 2.18309 10.4313C2.22079 10.4842 2.27405 10.5241 2.33545 10.5453L6.39545 11.9506C6.45962 11.9737 6.52959 11.9749 6.59451 11.9541L6.59889 11.9528L6.60358 11.9512L10.6648 10.5453C10.7262 10.5241 10.7795 10.4842 10.8172 10.4313C10.8549 10.3783 10.8751 10.315 10.8751 10.25V7.61062L11.9114 7.2653C11.9592 7.24941 12.0024 7.22219 12.0375 7.18598C12.0725 7.14976 12.0982 7.10562 12.1125 7.05731C12.1267 7.009 12.1291 6.95795 12.1194 6.90853C12.1097 6.8591 12.0882 6.81275 12.0567 6.77343L10.8067 5.21093C10.7696 5.16477 10.7202 5.13009 10.6642 5.11093L6.60233 3.70468C6.53613 3.68177 6.46415 3.68177 6.39795 3.70468L2.33608 5.11093C2.28006 5.13008 2.23063 5.16476 2.19358 5.21093L0.943578 6.77343C0.912089 6.81275 0.890573 6.8591 0.880862 6.90853C0.871151 6.95795 0.873533 7.009 0.887805 7.05731C0.902077 7.10562 0.927815 7.14976 0.962828 7.18598C0.997841 7.22219 1.04109 7.24941 1.08889 7.2653ZM5.66233 8.55405L6.18764 7.80405V11.2175L2.75014 10.0275V7.81874L5.30764 8.67124C5.37153 8.69248 5.44057 8.69251 5.50448 8.67134C5.56839 8.65017 5.62375 8.60923 5.66233 8.55405ZM3.39295 5.40624L6.50014 6.48187L9.60733 5.40624L6.50014 4.33062L3.39295 5.40624ZM7.33795 8.55405L6.81264 7.80437V11.2178L10.2501 10.0278V7.81874L7.69264 8.67124C7.62875 8.69248 7.55971 8.69251 7.4958 8.67134C7.43189 8.65017 7.37653 8.60923 7.33795 8.55405ZM2.54389 5.77374L1.7117 6.81405L3.43389 7.38812L5.28389 8.00468L6.0067 6.97249L5.96451 6.9578L2.54389 5.77343V5.77374ZM11.2886 6.81405L10.4564 5.77343L6.99358 6.97249L7.71639 8.00468L11.2886 6.81405Z" fill="#607087"/>
</svg>
