<svg width="15" height="12" viewBox="0 0 15 12" fill="none" xmlns="http://www.w3.org/2000/svg">
<path d="M3.68062 1.34375C3.80495 1.34375 3.92417 1.29436 4.01208 1.20646C4.09999 1.11855 4.14937 0.99932 4.14937 0.875C4.14937 0.75068 4.09999 0.631451 4.01208 0.543544C3.92417 0.455636 3.80495 0.40625 3.68062 0.40625V1.34375ZM6.25 0.40625C6.12568 0.40625 6.00645 0.455636 5.91854 0.543544C5.83064 0.631451 5.78125 0.75068 5.78125 0.875C5.78125 0.99932 5.83064 1.11855 5.91854 1.20646C6.00645 1.29436 6.12568 1.34375 6.25 1.34375V0.40625ZM11.3194 1.34375C12.3881 1.34375 13.2812 2.24375 13.2812 3.3875H14.2188C14.2188 1.75625 12.935 0.40625 11.3194 0.40625V1.34375ZM3.68062 0.40625C2.065 0.40625 0.781875 1.75625 0.781875 3.3875H1.71937C1.71937 2.24375 2.61187 1.34375 3.68062 1.34375V0.40625ZM13.2812 3.3875C13.2812 4.42938 12.5375 5.2725 11.5981 5.41125L11.7356 6.33875C13.1512 6.12937 14.2188 4.8775 14.2188 3.3875H13.2812ZM3.40188 5.41125C2.46187 5.2725 1.71937 4.43 1.71937 3.3875H0.78125C0.78125 4.8775 1.84875 6.12937 3.265 6.33875L3.40188 5.41125ZM6.25 1.34375H11.3194V0.40625H6.25V1.34375Z" fill="white"/>
<path d="M7.5 4.625V7.75M7.5 7.75L8.75 6.29187M7.5 7.75L6.25 6.29187" stroke="white" stroke-linecap="round" stroke-linejoin="round"/>
<path d="M3.125 5.25C3.125 4.07125 3.125 3.4825 3.49125 3.11625C3.8575 2.75 4.44625 2.75 5.625 2.75H9.375C10.5538 2.75 11.1425 2.75 11.5087 3.11625C11.875 3.4825 11.875 4.07125 11.875 5.25V9C11.875 10.1788 11.875 10.7675 11.5087 11.1337C11.1425 11.5 10.5538 11.5 9.375 11.5H5.625C4.44625 11.5 3.8575 11.5 3.49125 11.1337C3.125 10.7675 3.125 10.1788 3.125 9V5.25Z" stroke="white"/>
<path d="M3.125 9.625H8.125M11.875 9.625H10.625" stroke="white" stroke-linecap="round" stroke-linejoin="round"/>
</svg>
