<svg width="36" height="37" viewBox="0 0 36 37" fill="none" xmlns="http://www.w3.org/2000/svg">
<path d="M34.6663 18.5C34.6663 23.2133 34.6663 25.5717 33.2013 27.035C32.133 28.105 30.5897 28.3933 27.9997 28.4717M7.99967 28.4717C5.41134 28.3933 3.86634 28.105 2.79801 27.035C1.33301 25.5717 1.33301 23.2133 1.33301 18.5C1.33301 13.7867 1.33301 11.4283 2.79801 9.965C4.26134 8.5 6.61967 8.5 11.333 8.5H24.6663C29.3797 8.5 31.738 8.5 33.2013 9.965C33.7013 10.465 34.0313 11.0683 34.248 11.8333M12.9997 15.1667H7.99967M29.6663 23.5H6.33301" stroke="#607087" stroke-width="2" stroke-linecap="round"/>
<path d="M27.9717 8.50065C27.8933 5.91232 27.605 4.36732 26.535 3.29898C25.0717 1.83398 22.7133 1.83398 18 1.83398C13.2867 1.83398 10.9283 1.83398 9.465 3.29898C8.395 4.36732 8.10667 5.91232 8.02833 8.50065M28 23.5007V25.1673C28 29.8807 28 32.239 26.535 33.7023C25.4667 34.7723 23.9233 35.0607 21.3333 35.139M8 23.5007V25.1673C8 29.8807 8 32.239 9.465 33.7023C10.5333 34.7723 12.0783 35.0607 14.6667 35.139" stroke="#607087" stroke-width="2" stroke-linecap="round"/>
<path d="M26.9993 15.1667C26.9993 15.5349 26.7009 15.8333 26.3327 15.8333C25.9645 15.8333 25.666 15.5349 25.666 15.1667C25.666 14.7985 25.9645 14.5 26.3327 14.5C26.7009 14.5 26.9993 14.7985 26.9993 15.1667Z" fill="white" stroke="#607087" stroke-width="2"/>
</svg>
