<svg width="89" height="67" viewBox="0 0 89 67" fill="none" xmlns="http://www.w3.org/2000/svg">
<path d="M23.3818 13.3459L34.7536 13.5306L29.1928 5.73047L23.3818 13.3459Z" fill="#607087"/>
<path d="M-6.41406 51.7887L6.24094 51.7303L18.8959 51.7116L44.206 51.6719L69.516 51.7093L82.171 51.7303L94.826 51.7887L82.171 51.8449L69.516 51.8659L44.206 51.9033L18.8959 51.8659L6.24094 51.8449L-6.41406 51.7887Z" fill="#FFBE62"/>
<path d="M79.1655 23.5352H9.24512V51.7857H79.1655V23.5352Z" fill="#130F26"/>
<path d="M9.24468 25.1016H7.77441V51.793H9.24468V25.1016Z" fill="#FFBE62"/>
<path d="M80.6382 25.1016H79.168V51.793H80.6382V25.1016Z" fill="#FFBE62"/>
<path opacity="0.1" d="M67.9981 23.5352H20.4121V51.7857H67.9981V23.5352Z" fill="black"/>
<path d="M17.4773 48.1992H12.1807V49.8471H17.4773V48.1992Z" fill="#455A64"/>
<path d="M62.716 40.457H25.6953V51.7867H62.716V40.457Z" fill="#455A64"/>
<path d="M61.3532 41.9023H27.0557V51.7898H61.3532V41.9023Z" fill="#130F26"/>
<path d="M61.3532 41.9023H27.0557V46.1238H61.3532V41.9023Z" fill="#FFBE62"/>
<path opacity="0.4" d="M79.1655 25.1016H9.24512V27.8387H79.1655V25.1016Z" fill="#FDFEFF"/>
<path opacity="0.4" d="M79.1655 29.0742H9.24512V29.9274H79.1655V29.0742Z" fill="#FDFEFF"/>
<path d="M73.5832 35.1899C74.6237 35.1899 75.4672 34.3464 75.4672 33.3059C75.4672 32.2654 74.6237 31.4219 73.5832 31.4219C72.5427 31.4219 71.6992 32.2654 71.6992 33.3059C71.6992 34.3464 72.5427 35.1899 73.5832 35.1899Z" fill="#455A64"/>
<path d="M62.4908 7.53125H25.9189V23.5405H62.4908V7.53125Z" fill="#FFBE62"/>
<path d="M60.0396 0.585938H28.374V23.5398H60.0396V0.585938Z" fill="white"/>
<path d="M60.0375 0.585686L44.1825 0.641785L28.3743 0.669835L28.4584 0.585686L28.4911 23.5395L28.3743 23.4227L60.0375 23.4671L59.9674 23.5395L59.9931 12.086L60.0375 0.585686ZM60.0375 0.585686L60.0819 12.0392L60.1006 23.5395V23.612H60.0281L28.3649 23.6564H28.248V23.5395L28.2808 0.585686V0.492188H28.3649L44.2199 0.520238L60.0375 0.585686Z" fill="#130F26"/>
<path d="M75.6735 36.3906H71.4941V36.9914H75.6735V36.3906Z" fill="#455A64"/>
<path d="M75.6735 37.5391H71.4941V38.1398H75.6735V37.5391Z" fill="#455A64"/>
<path d="M73.337 64.208H15.0781L25.6972 51.7891H62.7179L73.337 64.208Z" fill="#FFBE62"/>
<path d="M73.337 64.207H15.0781V65.8853H73.337V64.207Z" fill="#130F26"/>
<path d="M29.3973 45.9913L59.436 45.9609C64.7747 52.8518 63.253 59.7473 68.9541 66.6428H19.3789C25.2506 59.7566 23.8855 52.8751 29.3973 45.9913Z" fill="white"/>
<path d="M29.3978 45.9928L59.3991 45.918H59.4715L59.5042 45.9624C64.8804 52.8532 63.3751 59.7534 69.1346 66.6396L69.1977 66.7097H69.0107L19.3327 66.6863H19.2041L19.2485 66.6396C22.3106 63.1941 23.2573 59.7487 24.3068 56.3033C25.4662 52.8672 26.7214 49.4312 29.3978 45.9928ZM29.3978 45.9928C26.7541 49.4405 25.5503 52.8859 24.4423 56.329C23.4256 59.7674 22.5069 63.2035 19.5056 66.6396L19.4215 66.5928L68.8938 66.5694L68.7699 66.6396C63.139 59.7487 64.6583 52.8532 59.364 45.9624L59.4692 46.0068L29.3978 45.9928Z" fill="#FFBE62"/>
<path d="M21.1778 64.2773H67.2258C67.4595 64.6794 67.7354 65.0814 68.0299 65.4835H20.3457C20.6472 65.0814 20.9231 64.6794 21.1778 64.2773Z" fill="#FFBE62"/>
<path d="M67.2164 64.2738H42.084C42.8102 63.8406 43.5192 63.4082 44.2111 62.9766H66.5058C66.7208 63.409 66.9546 63.8367 67.2164 64.2738Z" fill="#FFBE62"/>
<path d="M68.2001 65.7214H41.9785C42.3502 65.5625 42.7195 65.4035 43.0818 65.2539H67.8589C67.9648 65.4019 68.0786 65.5578 68.2001 65.7214Z" fill="#130F26"/>
<path d="M67.693 65.0104H53.9814L54.9001 64.5312H67.3798C67.4803 64.6995 67.5808 64.8585 67.693 65.0104Z" fill="#130F26"/>
<path d="M39.295 63.7791C39.295 63.8165 39.2016 63.8469 39.094 63.8469C38.9865 63.8469 38.9047 63.8165 38.9094 63.7791C38.9444 63.5454 38.9772 63.2953 39.0099 63.0522C39.0099 63.0148 39.1057 62.9844 39.2086 62.9844C39.3114 62.9844 39.3932 63.0148 39.3885 63.0522C39.3675 63.2953 39.3371 63.536 39.295 63.7791Z" fill="#FFBE62"/>
<path d="M38.0101 63.0523C38.0101 63.0172 38.1059 62.9845 38.2041 62.9845C38.3022 62.9845 38.3864 63.0172 38.3817 63.0523C38.3466 63.286 38.3116 63.5198 38.2718 63.7675C38.2718 63.7886 38.2415 63.8096 38.1877 63.8236C38.101 63.8448 38.0099 63.84 37.9259 63.8096L36.9114 63.258C36.8811 63.4286 36.8483 63.5969 36.8156 63.7652C36.8156 63.8003 36.7174 63.833 36.6146 63.833C36.5117 63.833 36.4299 63.8003 36.4369 63.7652C36.486 63.5315 36.5328 63.2977 36.5772 63.0523C36.5772 63.0149 36.6754 62.9845 36.7782 62.9845C36.8237 62.9833 36.869 62.9913 36.9114 63.0079H36.9278L37.9306 63.5548C37.9586 63.3935 37.9843 63.2229 38.0101 63.0523Z" fill="#FFBE62"/>
<path d="M34.9946 63H35.0179H35.0343H35.0483C35.2821 63.2337 35.5018 63.4792 35.7309 63.7176C35.7636 63.7503 35.7098 63.7924 35.607 63.8064C35.5271 63.8231 35.4439 63.8098 35.3732 63.769L34.8356 63.201C34.5668 63.3904 34.298 63.5797 34.0222 63.769C33.9416 63.808 33.851 63.8211 33.7627 63.8064C33.6692 63.7924 33.6365 63.7527 33.6832 63.7176C34.0315 63.4838 34.3845 63.2384 34.7094 63H34.7257H34.7444H34.7655H34.7959H34.9455H34.9735H34.9946Z" fill="#FFBE62"/>
<path d="M31.2415 63.7378C31.0545 63.6583 30.9563 63.5485 31.0077 63.4269C31.0591 63.3054 31.2158 63.1932 31.4518 63.1161C31.7266 63.0272 32.0139 62.983 32.3027 62.9852C32.575 62.9778 32.8463 63.0222 33.1021 63.1161C33.2914 63.1955 33.3896 63.3054 33.3545 63.4269C33.3195 63.5485 33.1629 63.6607 32.9268 63.7378C32.6389 63.8294 32.3383 63.8744 32.0362 63.8711C31.765 63.8806 31.4947 63.8353 31.2415 63.7378ZM31.3887 63.4269C31.363 63.5111 31.4308 63.5882 31.5547 63.642C31.7192 63.7057 31.8949 63.7359 32.0713 63.7308C32.2704 63.7334 32.4686 63.7034 32.658 63.642C32.8193 63.5882 32.9315 63.5111 32.9548 63.4269C32.9782 63.3428 32.9104 63.2657 32.7819 63.2142C32.6134 63.1497 32.4338 63.1195 32.2536 63.1254C32.0615 63.1241 31.8704 63.1541 31.6879 63.2142C31.5313 63.2657 31.4144 63.3428 31.3887 63.4269Z" fill="#FFBE62"/>
<path d="M30.343 63.7768C30.329 63.8142 30.2355 63.8446 30.128 63.8446C30.0205 63.8446 29.9457 63.8142 29.9597 63.7768C30.0485 63.543 30.1327 63.2929 30.2121 63.0522C30.2262 63.0148 30.3243 62.9844 30.4249 62.9844C30.5254 62.9844 30.6025 63.0148 30.5908 63.0522C30.5137 63.2929 30.4295 63.536 30.343 63.7768Z" fill="#FFBE62"/>
<path d="M29.549 63.4262C29.4579 63.66 28.8034 63.868 28.1092 63.8704C27.8527 63.8748 27.5968 63.8425 27.3495 63.7745C27.277 63.7488 27.2817 63.7067 27.3495 63.6763C27.4404 63.6441 27.5387 63.6392 27.6323 63.6623C27.8038 63.7121 27.982 63.735 28.1606 63.7301C28.3826 63.7309 28.6036 63.701 28.8174 63.6413C28.9951 63.5852 29.1213 63.5104 29.1517 63.4262C29.1821 63.3421 29.1143 63.2673 28.981 63.2135C28.7937 63.1503 28.5967 63.1203 28.399 63.1247C28.2052 63.1229 28.012 63.1457 27.824 63.1925C27.7349 63.2143 27.6415 63.2094 27.5552 63.1785C27.5084 63.1481 27.5388 63.1037 27.63 63.0803C27.8993 63.0148 28.1756 62.9826 28.4528 62.9845C29.1376 62.9845 29.6355 63.1831 29.549 63.4262Z" fill="#FFBE62"/>
<path d="M26.9534 63.0552C26.8553 63.289 26.7501 63.5391 26.6402 63.7798C26.6239 63.8196 26.528 63.8476 26.4205 63.8476H25.2845C25.184 63.8476 25.1092 63.8196 25.1279 63.7798C25.1466 63.7401 25.2518 63.7121 25.3616 63.7121H26.2966L26.3971 63.4783H25.5954C25.4925 63.4783 25.4224 63.4456 25.4388 63.4105C25.4551 63.3755 25.5556 63.3404 25.6585 63.3404H26.4415C26.4743 63.2656 26.5046 63.1908 26.5374 63.1067H25.6234C25.5229 63.1067 25.4481 63.0739 25.4645 63.0365C25.4808 62.9991 25.5837 62.9688 25.6819 62.9688H26.7828C26.909 62.9874 26.9675 63.0178 26.9534 63.0552Z" fill="#FFBE62"/>
<path d="M27.7977 57.1914L60.7676 57.1797C60.8471 57.5163 60.9242 57.8552 61.0013 58.1941H27.5312C27.6247 57.8669 27.7112 57.528 27.7977 57.1914Z" fill="white"/>
<path d="M27.5348 58.1992H61.0049C61.0844 58.5382 61.1662 58.8747 61.2503 59.2137H27.2637C27.3572 58.8747 27.446 58.5382 27.5348 58.1992Z" fill="#130F26"/>
<path d="M28.0558 56.1757L60.5301 56.1641C60.6096 56.5007 60.6867 56.8396 60.7638 57.1785L27.8057 57.1902L28.0558 56.1757Z" fill="#DBDBDB"/>
<path d="M28.3254 55.1664L60.2855 55.1523C60.3697 55.4889 60.4515 55.8279 60.5192 56.1668L28.0449 56.1785C28.1454 55.8419 28.2343 55.503 28.3254 55.1664Z" fill="white"/>
<path d="M28.6104 54.1468L60.0258 54.1328C60.1146 54.4694 60.2011 54.8083 60.2853 55.1473L28.3252 55.1613C28.4187 54.8224 28.5122 54.4858 28.6104 54.1468Z" fill="#DBDBDB"/>
<path d="M28.9189 53.1398L59.743 53.1211C59.8411 53.46 59.9346 53.799 60.0258 54.1379L28.6104 54.1519C28.7085 53.8153 28.8114 53.4764 28.9189 53.1398Z" fill="white"/>
<path d="M29.2454 52.1203L59.422 52.1016C59.5318 52.4405 59.6347 52.7794 59.7352 53.116L28.9111 53.1347C29.0233 52.7958 29.1355 52.4592 29.2454 52.1203Z" fill="#DBDBDB"/>
<path d="M29.6222 51.1156L50.2503 51.1016C50.2971 51.4382 50.3415 51.7771 50.3836 52.116L29.2529 52.1277C29.3698 51.7911 29.4937 51.4545 29.6222 51.1156Z" fill="#130F26"/>
<path d="M50.3828 52.1094H59.4288C60.1838 54.4772 60.6419 56.8451 61.2497 59.2129H51.0607C50.8339 56.8427 50.668 54.4866 50.3828 52.1094Z" fill="#C7C7C7"/>
<path d="M60.7658 57.1797L44.2797 57.1984H27.7959L44.282 57.1797H60.7658Z" fill="#FFBE62"/>
<path d="M60.53 56.1641L44.294 56.1828H28.0557L44.294 56.1641H60.53Z" fill="#FFBE62"/>
<path d="M60.2853 55.1508L44.3064 55.1695H28.3252L44.3064 55.1484L60.2853 55.1508Z" fill="#FFBE62"/>
<path d="M60.0258 54.1351L44.3181 54.1538H28.6104L44.3181 54.1328L60.0258 54.1351Z" fill="#FFBE62"/>
<path d="M59.743 53.1211L44.3298 53.1445H28.9189L44.3298 53.1234L59.743 53.1211Z" fill="#FFBE62"/>
<path d="M59.4295 52.1016L44.3412 52.1249H29.2529L44.3412 52.1039L59.4295 52.1016Z" fill="#FFBE62"/>
<path d="M59.3191 58.6995C58.2462 58.7205 57.1687 58.7229 56.0934 58.7252C55.0182 58.7276 53.9383 58.7252 52.8584 58.7019C53.9313 58.6808 55.0089 58.6785 56.0841 58.6761C57.1593 58.6738 58.2299 58.6832 59.3191 58.6995Z" fill="#FFBE62"/>
<path d="M59.1081 57.687C58.3087 57.7081 57.507 57.7104 56.7052 57.7128C55.9035 57.7151 55.0994 57.7128 54.293 57.6894C55.0924 57.666 55.8941 57.666 56.6959 57.6613C57.4976 57.6567 58.3017 57.666 59.1081 57.687Z" fill="#FFBE62"/>
<path d="M58.896 56.6724C57.8559 56.6934 56.811 56.6957 55.7662 56.6981C54.7213 56.7004 53.6741 56.6981 52.627 56.6747C53.6695 56.6537 54.7143 56.6513 55.7568 56.649C56.7993 56.6466 57.8465 56.6513 58.896 56.6724Z" fill="#FFBE62"/>
<path d="M58.6832 55.6558C57.8394 55.6768 56.9932 55.6792 56.1471 55.6815C55.3009 55.6838 54.4524 55.6815 53.6016 55.6581C54.4454 55.6371 55.2915 55.6348 56.1377 55.6301C56.9839 55.6254 57.8324 55.6348 58.6832 55.6558Z" fill="#FFBE62"/>
<path d="M58.4651 54.645C57.4576 54.6661 56.4455 54.6684 55.4264 54.6707C54.4073 54.6731 53.3998 54.6707 52.3877 54.6474C53.3975 54.6263 54.4073 54.624 55.4264 54.6216C56.4455 54.6193 57.446 54.624 58.4651 54.645Z" fill="#FFBE62"/>
<path d="M58.2301 53.6294C57.2413 53.6504 56.2479 53.6528 55.2545 53.6551C54.261 53.6574 53.2653 53.6551 52.2695 53.6317C53.2583 53.6107 54.2517 53.6084 55.2451 53.606C56.2385 53.6037 57.2203 53.6084 58.2301 53.6294Z" fill="#FFBE62"/>
<path d="M57.9568 52.6163C57.3701 52.635 56.7881 52.642 56.1874 52.642C55.5867 52.642 55.0023 52.642 54.4062 52.6186C54.9953 52.5976 55.575 52.5929 56.1757 52.5905C56.7764 52.5882 57.3585 52.5905 57.9568 52.6163Z" fill="#FFBE62"/>
<path d="M48.6459 58.6995C47.8372 58.7228 47.0284 58.7228 46.2196 58.7275C45.4109 58.7322 44.5998 58.7275 43.791 58.7018C44.5998 58.6808 45.4085 58.6784 46.2173 58.6761C47.0261 58.6737 47.8395 58.6854 48.6459 58.6995Z" fill="#FFBE62"/>
<path d="M48.5969 57.6941C47.7998 57.7152 47.0027 57.7151 46.2057 57.7198C45.4086 57.7245 44.6115 57.7198 43.8145 57.6941C44.6115 57.6731 45.4086 57.6707 46.2057 57.6684C47.0027 57.6661 47.7998 57.6731 48.5969 57.6941Z" fill="#FFBE62"/>
<path d="M48.5473 56.6785C47.7619 56.6995 46.9765 56.7019 46.1911 56.7042C45.4057 56.7065 44.6203 56.7042 43.835 56.6785C44.6203 56.6574 45.4057 56.6551 46.1911 56.6528C46.9765 56.6504 47.7596 56.6574 48.5473 56.6785Z" fill="#FFBE62"/>
<path d="M48.4924 55.6633C47.7187 55.6844 46.9473 55.6867 46.1736 55.689C45.3999 55.6914 44.6262 55.6891 43.8525 55.6657C44.6262 55.6423 45.3999 55.6423 46.1713 55.6376C46.9427 55.633 47.7117 55.647 48.4924 55.6633Z" fill="#FFBE62"/>
<path d="M48.4334 54.648C47.6761 54.669 46.9141 54.6714 46.1544 54.6737C45.3947 54.676 44.6327 54.6737 43.873 54.6503C44.6327 54.6293 45.3924 54.6269 46.1521 54.6223C46.9117 54.6176 47.6738 54.6269 48.4334 54.648Z" fill="#FFBE62"/>
<path d="M48.3725 53.6333C47.6269 53.6543 46.8789 53.6567 46.1332 53.659C45.3876 53.6614 44.6396 53.659 43.8916 53.6356C44.6396 53.6146 45.3852 53.6123 46.1309 53.6099C46.8765 53.6076 47.6245 53.6123 48.3725 53.6333Z" fill="#FFBE62"/>
<path d="M48.3062 52.6216C47.5745 52.6426 46.8429 52.645 46.1113 52.6496C45.3796 52.6543 44.6457 52.6496 43.9141 52.6239C44.6457 52.6029 45.3773 52.6005 46.1089 52.5982C46.8406 52.5959 47.5722 52.6005 48.3062 52.6216Z" fill="#FFBE62"/>
<path d="M41.6352 58.6993C40.8264 58.7203 40.0153 58.7227 39.2066 58.7274C38.3978 58.732 37.5867 58.7274 36.7803 58.7016C37.5914 58.6806 38.4025 58.6783 39.2112 58.6759C40.02 58.6736 40.8288 58.6993 41.6352 58.6993Z" fill="#FFBE62"/>
<path d="M40.466 52.6158C40.2322 52.6368 39.9985 52.6415 39.7647 52.6415C39.531 52.6415 39.2972 52.6415 39.0635 52.6158C39.2972 52.5971 39.531 52.5924 39.7647 52.5901C39.9985 52.5878 40.2322 52.6018 40.466 52.6158Z" fill="#FFBE62"/>
<path d="M40.3729 53.6351C40.1392 53.6538 39.9054 53.6585 39.6553 53.6608C39.4052 53.6631 39.1878 53.6608 38.9424 53.6351C39.1761 53.614 39.4216 53.6094 39.66 53.6094C39.8984 53.6094 40.1368 53.614 40.3729 53.6351Z" fill="#FFBE62"/>
<path d="M40.2883 54.6546C40.0545 54.6733 39.8021 54.678 39.559 54.6803C39.3159 54.6827 39.0728 54.6803 38.832 54.6546C39.0775 54.6336 39.3206 54.6289 39.5637 54.6289C39.8068 54.6289 40.0475 54.6336 40.2883 54.6546Z" fill="#FFBE62"/>
<path d="M40.2114 55.6626C39.9613 55.6836 39.7136 55.6883 39.4681 55.6883C39.2227 55.6883 38.9749 55.6883 38.7295 55.6649C38.9773 55.6439 39.225 55.6392 39.4728 55.6369C39.7206 55.6345 39.966 55.6626 40.2114 55.6626Z" fill="#FFBE62"/>
<path d="M40.1348 56.6785C39.8824 56.6995 39.6323 56.7042 39.3798 56.7042C39.1274 56.7042 38.8796 56.7042 38.6318 56.6785C38.8843 56.6598 39.1344 56.6551 39.3845 56.6528C39.6346 56.6504 39.8871 56.6574 40.1348 56.6785Z" fill="#FFBE62"/>
<path d="M40.0605 57.6937C39.8058 57.7124 39.5486 57.7171 39.2939 57.7194C39.0391 57.7217 38.7866 57.7194 38.5342 57.6937C38.789 57.6726 39.0437 57.668 39.2985 57.668C39.5533 57.668 39.8081 57.6726 40.0605 57.6937Z" fill="#FFBE62"/>
<path d="M40.1558 51.6054C39.7491 51.6264 39.3447 51.6311 38.9403 51.6335C38.5359 51.6358 38.1315 51.6335 37.7295 51.6077C38.1385 51.5867 38.5429 51.582 38.9473 51.582C39.3517 51.582 39.7654 51.5867 40.1558 51.6054Z" fill="#FFBE62"/>
<path d="M34.6225 58.7061C33.809 58.7272 33.0003 58.7295 32.1892 58.7318C31.3781 58.7342 30.5717 58.7318 29.7676 58.7085C30.581 58.6851 31.3898 58.6851 32.1985 58.6804C33.0073 58.6757 33.8137 58.6944 34.6225 58.7061Z" fill="#FFBE62"/>
<path d="M34.7766 57.6957C33.9748 57.7191 33.1778 57.7191 32.3807 57.7237C31.5836 57.7284 30.7865 57.7237 29.9941 57.698C30.7959 57.677 31.593 57.6746 32.39 57.6723C33.1871 57.67 33.9818 57.677 34.7766 57.6957Z" fill="#FFBE62"/>
<path d="M34.9301 56.6792C34.14 56.7003 33.3546 56.7026 32.5693 56.7049C31.7839 56.7073 30.9985 56.705 30.2178 56.6816C31.0078 56.6582 31.7932 56.6582 32.5786 56.6535C33.364 56.6488 34.1541 56.6582 34.9301 56.6792Z" fill="#FFBE62"/>
<path d="M35.0887 55.6602C34.3127 55.6813 33.539 55.6836 32.7653 55.6883C31.9916 55.693 31.2202 55.6883 30.4512 55.6626C31.2295 55.6415 32.0009 55.6392 32.7746 55.6369C33.5483 55.6345 34.315 55.6602 35.0887 55.6602Z" fill="#FFBE62"/>
<path d="M35.2483 54.659C34.4839 54.68 33.7219 54.6823 32.9622 54.6847C32.2026 54.687 31.4405 54.6847 30.6855 54.659C31.4499 54.6379 32.2119 54.6356 32.9716 54.6332C33.7313 54.6309 34.4909 54.6379 35.2483 54.659Z" fill="#FFBE62"/>
<path d="M35.4233 53.6402C34.673 53.6612 33.925 53.6635 33.177 53.6659C32.429 53.6682 31.6857 53.6659 30.9424 53.6425C31.695 53.6215 32.443 53.6191 33.1887 53.6145C33.9343 53.6098 34.6823 53.6191 35.4233 53.6402Z" fill="#FFBE62"/>
<path d="M35.6099 52.6213C34.8736 52.6447 34.1419 52.6447 33.408 52.6494C32.674 52.6541 31.9447 52.6494 31.2178 52.6237C31.9564 52.6026 32.688 52.6003 33.4197 52.598C34.1513 52.5956 34.8829 52.6073 35.6099 52.6213Z" fill="#FFBE62"/>
<path d="M35.8173 51.6089C35.0974 51.63 34.3821 51.6323 33.6645 51.6346C32.9469 51.637 32.234 51.6346 31.5234 51.6113C32.2457 51.5902 32.961 51.5879 33.6786 51.5832C34.3962 51.5785 35.1068 51.5879 35.8173 51.6089Z" fill="#FFBE62"/>
<path d="M62.6582 63.5289C61.5713 63.55 60.4797 63.5593 59.3858 63.5687C58.2918 63.578 57.1956 63.5687 56.1016 63.5803C55.0077 63.592 53.9068 63.5803 52.8105 63.5687L51.1626 63.5546C50.6133 63.5546 50.0663 63.5406 49.5264 63.5289C50.0733 63.5172 50.618 63.5126 51.1626 63.5055L52.7988 63.4892C53.8904 63.4892 54.9843 63.4892 56.0713 63.4775C57.1582 63.4658 58.2591 63.4775 59.3554 63.4892C60.4516 63.5009 61.5549 63.5079 62.6582 63.5289Z" fill="white"/>
<path d="M62.8851 64.025C61.6346 64.0461 60.3794 64.0554 59.1218 64.0648C57.8642 64.0741 56.6044 64.0648 55.3445 64.0648C54.0846 64.0648 52.82 64.0648 51.5578 64.0648L49.6668 64.0507L47.7734 64.0274C48.4022 64.0157 49.031 64.0087 49.6598 64.0016L51.5438 63.9853C52.8013 63.9853 54.0589 63.9853 55.3164 63.9736C56.574 63.9619 57.8315 63.9736 59.0938 63.9853C60.356 63.997 61.6159 64.004 62.8851 64.025Z" fill="white"/>
<path d="M61.735 61.003C60.772 61.0194 59.809 61.0264 58.8436 61.0311C57.8782 61.0358 56.9128 61.0311 55.9475 61.0311C54.9821 61.0311 54.0121 61.0311 53.0443 61.0311C52.0766 61.0311 51.1113 61.0171 50.1436 61.003C51.1066 60.9859 52.0712 60.9758 53.0373 60.9727C54.0004 60.9727 54.9657 60.9727 55.9311 60.9727H58.8296C59.8019 60.9797 60.7696 60.9867 61.735 61.003Z" fill="#FFBE62"/>
<path d="M61.6118 60.5676C61.0158 60.584 60.4174 60.591 59.8167 60.5957C59.2159 60.6003 58.6152 60.5957 58.0145 60.5957H56.2076C55.6046 60.5957 55.0015 60.5816 54.3984 60.5653C54.9968 60.5489 55.5952 60.5419 56.1959 60.5372C56.7967 60.5326 57.3974 60.5372 57.9958 60.5372C58.5942 60.5372 59.1996 60.5372 59.8003 60.5372C60.401 60.5372 61.0064 60.5513 61.6118 60.5676Z" fill="#FFBE62"/>
<path d="M61.5034 60.1366C60.676 60.153 59.8462 60.16 59.0164 60.167H56.5247C55.6925 60.167 54.8627 60.167 54.0306 60.167C53.1984 60.167 52.3663 60.167 51.5342 60.139C52.3616 60.1226 53.1914 60.1156 54.0212 60.1086C54.851 60.1016 55.6808 60.1086 56.5106 60.1086C57.3404 60.1086 58.1726 60.1086 59.0024 60.1086C59.8322 60.1086 60.6573 60.1203 61.5034 60.1366Z" fill="#FFBE62"/>
<path d="M58.7907 50.3085C58.2858 50.3249 57.7763 50.3319 57.269 50.3389C56.7618 50.3459 56.2476 50.3389 55.7357 50.3389C55.2238 50.3389 54.7119 50.3389 54.1976 50.3389C53.6834 50.3389 53.1715 50.3272 52.6572 50.3108C53.1645 50.2945 53.674 50.2875 54.1836 50.2805C54.6932 50.2734 55.2027 50.2805 55.7123 50.2805C56.2219 50.2805 56.7338 50.2805 57.248 50.2805C57.7622 50.2805 58.2741 50.2828 58.7907 50.3085Z" fill="#FFBE62"/>
<path d="M58.6196 49.8749C58.0423 49.8913 57.4509 49.9007 56.8782 49.9053C56.3055 49.91 55.7095 49.9053 55.1275 49.917C54.5454 49.9287 53.9587 49.917 53.372 49.917C52.7853 49.917 52.2033 49.917 51.6143 49.889C52.1939 49.8726 52.783 49.8656 53.358 49.8586C53.933 49.8516 54.5267 49.8586 55.1041 49.8586H56.8572C57.4415 49.8539 58.0282 49.8609 58.6196 49.8749Z" fill="#FFBE62"/>
<path d="M57.8525 48.1538C56.9923 48.1709 56.1297 48.1811 55.2649 48.1842L52.6633 48.1959L50.0477 48.1795C49.1781 48.1795 48.3109 48.1678 47.4414 48.1538C48.3063 48.1374 49.1711 48.1281 50.036 48.1211L52.6306 48.1094H55.2322C56.1087 48.1327 56.9782 48.1374 57.8525 48.1538Z" fill="#FFBE62"/>
<path d="M58.4398 49.4434C58.0939 49.4597 57.7386 49.4667 57.3973 49.4738C57.056 49.4808 56.6961 49.4738 56.3431 49.4738C55.9902 49.4738 55.6419 49.4738 55.2866 49.4738C54.9313 49.4738 54.5853 49.4597 54.2207 49.4457C54.569 49.4293 54.9219 49.42 55.2655 49.4153C55.6092 49.4106 55.9668 49.4153 56.3174 49.4036C56.668 49.3919 57.0186 49.4036 57.3739 49.4036C57.7292 49.4036 58.0822 49.4293 58.4398 49.4434Z" fill="#FFBE62"/>
<path d="M40.8557 49.032C39.9909 49.0483 39.126 49.0553 38.2612 49.0623L35.6689 49.074H33.079C32.2188 49.074 31.3586 49.0623 30.5078 49.046C31.3773 49.0296 32.2422 49.0226 33.1071 49.0156L35.697 49.0039H38.2682C39.1354 49.0086 39.9979 49.0156 40.8557 49.032Z" fill="#FFBE62"/>
<path d="M40.804 49.4551C40.0934 49.4722 39.3813 49.4824 38.6676 49.4855C37.9663 49.4855 37.2441 49.4855 36.5335 49.4855H34.4017C33.7005 49.4855 32.9852 49.4715 32.2793 49.4574C32.9961 49.4403 33.7098 49.4302 34.4204 49.427C35.1333 49.427 35.8416 49.427 36.5522 49.4154C37.2628 49.4037 37.971 49.4154 38.6793 49.4154C39.3875 49.4154 40.0958 49.4411 40.804 49.4551Z" fill="#FFBE62"/>
<path d="M40.9134 48.596C40.2636 48.6124 39.6114 48.6194 38.9616 48.6264C38.3118 48.6334 37.6597 48.6264 37.0099 48.6381C36.36 48.6498 35.7102 48.6381 35.0628 48.6381C34.4153 48.6381 33.7678 48.6241 33.125 48.6101C33.7795 48.5937 34.4316 48.5843 35.0815 48.5773C35.7313 48.5703 36.3811 48.5773 37.0309 48.5773H38.9733C39.6208 48.5727 40.2683 48.5797 40.9134 48.596Z" fill="#FFBE62"/>
<path d="M40.9694 48.1796C40.5019 48.196 40.0508 48.203 39.5903 48.21C39.1298 48.217 38.6717 48.21 38.2112 48.2217C37.7507 48.2334 37.2949 48.2217 36.8391 48.2217C36.3833 48.2217 35.9251 48.2217 35.4717 48.1937C35.9392 48.1773 36.4067 48.1703 36.8555 48.1633C37.3042 48.1563 37.7717 48.1633 38.2299 48.1633C38.688 48.1633 39.1438 48.1633 39.602 48.1633C40.0601 48.1633 40.5136 48.1539 40.9694 48.1796Z" fill="#FFBE62"/>
<path d="M57.7445 48.5082C57.5295 48.5923 57.3027 48.6718 57.0666 48.7419C56.812 48.8249 56.5508 48.8867 56.2859 48.9266H56.1737C56.1267 48.9337 56.0786 48.9264 56.0358 48.9055C55.9898 48.8811 55.9547 48.8402 55.9377 48.791C55.9107 48.7161 55.898 48.6368 55.9003 48.5572C55.899 48.4116 55.9107 48.2661 55.9353 48.1225C55.9828 47.8336 56.0612 47.5507 56.1691 47.2786C56.1959 47.2063 56.2338 47.1385 56.2813 47.0776C56.2969 47.0587 56.3159 47.0428 56.3374 47.0309C56.357 47.0188 56.3798 47.0131 56.4028 47.0145C56.4221 47.0108 56.4419 47.0108 56.4612 47.0145L56.494 47.0285C56.5459 47.0547 56.5883 47.0964 56.6155 47.1477C56.6811 47.286 56.7016 47.4414 56.674 47.5919C56.6519 47.739 56.6011 47.8804 56.5244 48.0079C56.4349 48.1791 56.2966 48.3199 56.127 48.4123C56.0058 48.4692 55.8749 48.5025 55.7413 48.5105C55.6636 48.519 55.5852 48.519 55.5076 48.5105C55.4355 48.4964 55.3671 48.4678 55.3065 48.4263C55.2552 48.3926 55.2012 48.3629 55.1453 48.3375C55.0838 48.3098 55.0159 48.2992 54.9489 48.3071C54.8303 48.3296 54.7149 48.3665 54.6053 48.417C54.5515 48.4404 54.5001 48.4637 54.444 48.4848L54.3529 48.5152C54.3116 48.5267 54.2679 48.5267 54.2266 48.5152C54.1542 48.4778 54.1565 48.4404 54.1168 48.4076C54.0926 48.3884 54.0649 48.3742 54.0352 48.3658C54.0055 48.3574 53.9745 48.3549 53.9438 48.3586C53.8399 48.3913 53.7414 48.4394 53.6516 48.5011C53.5651 48.5549 53.481 48.611 53.3968 48.6671C53.2285 48.7793 53.0602 48.9008 52.8826 49.006C52.7914 49.0598 52.7003 49.1159 52.5998 49.1673C52.5465 49.195 52.4919 49.2199 52.4361 49.2421L52.338 49.2725C52.3154 49.274 52.2928 49.274 52.2702 49.2725C52.2434 49.2722 52.217 49.2658 52.1931 49.2538C52.173 49.2414 52.1566 49.2238 52.1459 49.2027C52.1352 49.1817 52.1305 49.1581 52.1323 49.1346C52.1278 49.0973 52.1278 49.0597 52.1323 49.0224C52.1497 48.9486 52.174 48.8766 52.2047 48.8073C52.267 48.6556 52.3547 48.5157 52.4642 48.3936C52.4989 48.3574 52.5382 48.326 52.5811 48.3001C52.6208 48.28 52.6652 48.2712 52.7096 48.2744C52.752 48.2774 52.7941 48.2829 52.8359 48.2908C52.9726 48.3126 53.0992 48.3763 53.1982 48.4731C53.2065 48.4828 53.2112 48.4953 53.2112 48.5082C53.2112 48.521 53.2065 48.5335 53.1982 48.5432C53.184 48.5572 53.1662 48.567 53.1467 48.5713C53.1211 48.5747 53.0952 48.5747 53.0696 48.5713C52.9912 48.5674 52.9132 48.5589 52.8359 48.5456C52.6816 48.5198 52.532 48.4895 52.3824 48.4591L51.9383 48.3726C51.8658 48.3585 51.791 48.3469 51.7185 48.3375C51.6845 48.3316 51.6502 48.3277 51.6157 48.3258C51.5886 48.3221 51.561 48.3221 51.5339 48.3258C51.4371 48.3642 51.346 48.4153 51.2627 48.4778C51.1944 48.5147 51.1183 48.5347 51.0407 48.5362C51.0074 48.5377 50.9741 48.533 50.9425 48.5222C50.9074 48.5058 50.9028 48.4871 50.9004 48.4754C50.8967 48.4553 50.8967 48.4347 50.9004 48.4147C50.9145 48.3819 50.9145 48.3399 50.9004 48.3375C50.843 48.3296 50.7848 48.3296 50.7275 48.3375C50.6019 48.3566 50.4788 48.3895 50.3605 48.4357C50.3044 48.4567 50.2459 48.4801 50.1782 48.5011C50.0974 48.5265 50.0124 48.536 49.9281 48.5292C49.7824 48.5061 49.6412 48.4603 49.5096 48.3936C49.4529 48.3662 49.3943 48.3428 49.3343 48.3235C49.3063 48.3235 49.2806 48.3118 49.2759 48.3235C49.2473 48.3302 49.2192 48.3388 49.1917 48.3492C49.0795 48.3913 48.972 48.4404 48.8668 48.4894C48.6724 48.5816 48.4876 48.6928 48.3152 48.8214C48.2427 48.8821 48.175 48.9499 48.1866 49.013C48.1983 49.0762 48.3409 49.1112 48.4928 49.1229C48.7985 49.1486 49.1058 49.1486 49.4115 49.1229C49.5574 49.1103 49.7025 49.0901 49.8462 49.0621C49.9106 49.0498 49.9738 49.0326 50.0356 49.0107C50.0893 48.9897 50.1361 48.9616 50.115 48.9359C50.0676 48.9009 50.0122 48.8784 49.9538 48.8705C49.886 48.8541 49.8088 48.8447 49.734 48.8307C49.5844 48.8073 49.4348 48.784 49.2806 48.7676C48.6705 48.6998 48.0487 48.6998 47.4316 48.6858C48.0464 48.6858 48.6705 48.6858 49.2899 48.7489C49.4442 48.7629 49.5985 48.784 49.7574 48.8073L49.9912 48.8494C50.0634 48.8588 50.1319 48.887 50.1898 48.9312C50.2249 48.9827 50.1524 49.0201 50.0963 49.0411C50.0305 49.0661 49.9624 49.0849 49.893 49.0972C49.7456 49.1278 49.5965 49.1497 49.4465 49.1626C49.1305 49.1954 48.8121 49.2001 48.4952 49.1767C48.4164 49.1704 48.3382 49.1579 48.2614 49.1393C48.182 49.1159 48.1212 49.0715 48.1142 49.0294C48.1002 48.9429 48.1773 48.8728 48.2498 48.8073C48.4241 48.6722 48.6131 48.5569 48.8131 48.4637C48.9183 48.4123 49.0258 48.3632 49.145 48.3188C49.1785 48.3055 49.2128 48.2946 49.2479 48.2861C49.301 48.2772 49.3555 48.2812 49.4068 48.2978C49.4738 48.3185 49.5393 48.3435 49.6031 48.3726C49.7165 48.4311 49.8378 48.4728 49.9631 48.4965C50.0742 48.4886 50.1828 48.46 50.2833 48.4123C50.4115 48.3597 50.5458 48.3236 50.683 48.3048C50.7723 48.285 50.8649 48.285 50.9542 48.3048C51.015 48.3258 51.0243 48.3585 51.0243 48.3796C51.0229 48.3995 51.019 48.4191 51.0126 48.438C51.0095 48.4542 51.0095 48.4709 51.0126 48.4871C51.0126 48.4871 51.0126 48.4871 51.0267 48.4871C51.0807 48.4857 51.1336 48.4713 51.1809 48.445C51.2725 48.3774 51.3733 48.3231 51.4801 48.2838C51.5237 48.2735 51.5686 48.2696 51.6134 48.2721C51.6549 48.2733 51.6962 48.2772 51.7372 48.2838L51.971 48.3235L52.4151 48.4123L52.8592 48.4965C52.9302 48.5095 53.0021 48.5173 53.0743 48.5198C53.1257 48.5198 53.1467 48.5011 53.1234 48.4708C53.0421 48.3899 52.9374 48.3367 52.8242 48.3188C52.791 48.3117 52.7575 48.307 52.7237 48.3048C52.7018 48.3043 52.6801 48.3091 52.6605 48.3188C52.621 48.3417 52.5848 48.37 52.553 48.403C52.4426 48.5213 52.3526 48.6572 52.2865 48.805C52.2554 48.8736 52.2304 48.9448 52.2117 49.0177C52.2034 49.0529 52.1994 49.089 52.2001 49.1252C52.1977 49.144 52.2001 49.163 52.207 49.1806C52.214 49.1982 52.2252 49.2137 52.2398 49.2258C52.2678 49.2445 52.352 49.2257 52.4011 49.2C52.4556 49.1804 52.5087 49.1569 52.56 49.1299C52.6605 49.0785 52.754 49.0247 52.8452 48.971C53.0252 48.8611 53.1935 48.7372 53.3665 48.6367C53.4506 48.5806 53.5371 48.5245 53.6259 48.4708C53.72 48.4066 53.8232 48.3569 53.9321 48.3235C54.0094 48.3139 54.0874 48.3349 54.1495 48.3819C54.1892 48.417 54.2033 48.4614 54.25 48.4824C54.2783 48.4904 54.3082 48.4904 54.3365 48.4824C54.3652 48.4741 54.3933 48.464 54.4206 48.4521L54.5796 48.3866C54.6927 48.331 54.8131 48.2916 54.9372 48.2697C55.0169 48.2612 55.0973 48.2733 55.171 48.3048C55.2301 48.3308 55.2871 48.3613 55.3416 48.396C55.3943 48.4311 55.4529 48.4564 55.5146 48.4708C55.5861 48.4778 55.6581 48.4778 55.7296 48.4708C55.8782 48.4637 56.0225 48.4182 56.1483 48.3387C56.274 48.2592 56.377 48.1485 56.4472 48.0173C56.5194 47.8904 56.5663 47.7507 56.5851 47.6059C56.6091 47.4594 56.587 47.3092 56.522 47.1758C56.4997 47.1363 56.4675 47.1033 56.4285 47.08H56.4145H56.3981C56.382 47.0899 56.3678 47.1025 56.3561 47.1174C56.3102 47.1763 56.2731 47.2417 56.2462 47.3114C56.1375 47.58 56.0591 47.8599 56.0125 48.1458C55.9841 48.2875 55.9684 48.4315 55.9657 48.5759C55.9651 48.6504 55.9762 48.7246 55.9984 48.7957C56.011 48.8368 56.0385 48.8719 56.0756 48.8938C56.1029 48.9028 56.1324 48.9028 56.1597 48.8938H56.2672C56.5307 48.8548 56.7909 48.7962 57.0456 48.7185C57.2794 48.6484 57.5131 48.5713 57.7469 48.4848L57.7445 48.5082Z" fill="#FFBE62"/>
<path d="M66.9918 60.3728H21.3506C23.3164 58.0704 24.401 55.7657 25.2284 53.4633C26.0278 51.2404 26.5888 49.0221 27.4724 46.7969C27.5893 46.5047 27.7061 46.2102 27.8417 45.918H60.8583C62.8545 50.7355 63.0065 55.5553 66.9918 60.3728Z" fill="white"/>
<path d="M67.1599 60.3728C63.1324 55.5553 62.9688 50.7355 60.9493 45.918H60.7646C62.2793 49.6135 62.7117 53.309 64.6121 57.0045C64.8154 57.4019 65.0351 57.7993 65.2782 58.1966L65.4278 58.4304C65.519 58.5753 65.6125 58.7226 65.7107 58.8675L65.8532 59.0779C65.9023 59.1527 65.9538 59.2251 66.0075 59.2999C66.0613 59.3747 66.1104 59.4472 66.1665 59.5196C66.3558 59.7791 66.5568 60.0409 66.7695 60.3027H66.9332L66.8186 60.3635L66.7695 60.3027L21.5023 60.3331L21.4649 60.3752C21.4368 60.3635 21.4135 60.3471 21.3854 60.3331H21.5023C21.7968 59.9949 22.0703 59.6544 22.3227 59.3116C22.6009 58.9423 22.851 58.573 23.0824 58.2037C23.9927 56.7204 24.7128 55.1286 25.2259 53.4656C25.5064 52.6054 25.7565 51.7453 26.0089 50.8944C26.446 49.5293 26.9018 48.1713 27.4698 46.8085C27.5914 46.5164 27.7176 46.2218 27.8532 45.9297H27.7947C27.0625 47.5379 26.4256 49.1879 25.8874 50.871C24.922 54.0406 24.0501 57.2126 21.2311 60.3845L21.1914 60.4289H21.3083L67.0454 60.45H67.216L67.1599 60.3728Z" fill="#FFBE62"/>
<path d="M23.0014 58.1992H65.3889C65.6227 58.5685 65.8564 58.9379 66.1299 59.3095H22.2324C22.5145 58.9386 22.7708 58.5685 23.0014 58.1992Z" fill="#FFBE62"/>
<path d="M65.3899 58.1999H42.249C42.9199 57.8026 43.5697 57.4052 44.2078 57.0078H64.733C64.9325 57.4036 65.1515 57.801 65.3899 58.1999Z" fill="#FFBE62"/>
<path d="M66.2969 59.5293H42.1533L43.1725 59.0898H65.9744C66.0772 59.2363 66.1847 59.3828 66.2969 59.5293Z" fill="#130F26"/>
<path d="M65.8274 58.8808H53.2051L54.0512 58.4414H65.5398C65.6333 58.5863 65.7292 58.7336 65.8274 58.8808Z" fill="#130F26"/>
<path d="M39.619 57.0078C39.5231 57.0078 39.439 57.0335 39.4343 57.0709C39.4063 57.293 39.3759 57.515 39.3408 57.7394C39.3408 57.7722 39.4156 57.8002 39.5115 57.8002C39.6073 57.8002 39.6914 57.7722 39.6961 57.7371C39.7265 57.515 39.7546 57.293 39.7826 57.0709C39.7849 57.0335 39.7125 57.0078 39.619 57.0078Z" fill="#FFBE62"/>
<path d="M38.6796 57.0078C38.5884 57.0078 38.5066 57.0359 38.502 57.0709C38.4762 57.2275 38.4529 57.3841 38.4248 57.5384L37.5039 57.0359H37.4898C37.45 57.019 37.4069 57.011 37.3636 57.0125C37.2725 57.0125 37.1883 57.0405 37.1813 57.0756C37.1416 57.2953 37.0995 57.5127 37.0527 57.7348C37.0527 57.7652 37.1182 57.7955 37.2164 57.7955C37.3145 57.7955 37.394 57.7652 37.3987 57.7348C37.4314 57.5782 37.4595 57.4215 37.4875 57.2673L38.4225 57.7722C38.4973 57.7997 38.5786 57.8045 38.6562 57.7862C38.7053 57.7745 38.7334 57.7535 38.7334 57.7348C38.7684 57.5127 38.8035 57.2953 38.8362 57.0756C38.8456 57.0359 38.7754 57.0078 38.6796 57.0078Z" fill="#FFBE62"/>
<path d="M36.4056 57.707L35.7908 57.0478L35.7768 57.0362H35.7628C35.7558 57.0352 35.7487 57.0352 35.7417 57.0362H35.7137H35.5571H35.529C35.5221 57.0348 35.5149 57.0348 35.508 57.0362H35.4893C35.4893 57.0362 35.4893 57.0361 35.4753 57.0478C35.1636 57.2676 34.8519 57.4873 34.5403 57.707C34.4959 57.7374 34.5286 57.7748 34.6151 57.7888C34.6947 57.8027 34.7768 57.7904 34.8488 57.7537C35.1036 57.5808 35.3537 57.4055 35.5992 57.2302C35.7628 57.4055 35.9287 57.5808 36.0947 57.7537C36.1602 57.7923 36.2381 57.804 36.3121 57.7865C36.3869 57.7748 36.4383 57.7374 36.4056 57.707Z" fill="#FFBE62"/>
<path d="M33.9738 57.1277C33.738 57.0423 33.4882 57.0019 33.2375 57.0085C32.9718 57.0067 32.7075 57.0469 32.4545 57.1277C32.2371 57.2025 32.0828 57.303 32.0454 57.4129C32.008 57.5228 32.0992 57.6256 32.2791 57.7027C32.5097 57.7897 32.7552 57.8302 33.0014 57.822C33.2797 57.8261 33.5568 57.7851 33.8219 57.7004C34.0393 57.6256 34.1865 57.5251 34.2169 57.4129C34.2473 57.3007 34.1538 57.2025 33.9738 57.1277ZM33.8476 57.4129C33.8265 57.4924 33.7214 57.5625 33.5741 57.6116C33.3998 57.6681 33.2174 57.6957 33.0341 57.6934C32.8745 57.6965 32.7158 57.6687 32.5667 57.6116C32.4521 57.5625 32.3913 57.4924 32.4147 57.4129C32.4449 57.3631 32.4849 57.32 32.5324 57.2863C32.5798 57.2525 32.6336 57.2288 32.6905 57.2166C32.8591 57.1632 33.035 57.1364 33.2118 57.1371C33.3774 57.1323 33.5425 57.1593 33.698 57.2166C33.8055 57.2656 33.871 57.3381 33.8476 57.4129Z" fill="#FFBE62"/>
<path d="M31.519 57.0078C31.4255 57.0078 31.3343 57.0335 31.3226 57.0686C31.2502 57.2906 31.173 57.515 31.0889 57.7371C31.0889 57.7722 31.1496 57.8002 31.2431 57.8002C31.3366 57.8002 31.4301 57.7722 31.4442 57.7371C31.5236 57.515 31.5984 57.2906 31.6779 57.0686C31.6849 57.0335 31.6148 57.0078 31.519 57.0078Z" fill="#FFBE62"/>
<path d="M29.7139 57.0079C29.458 57.0056 29.2029 57.0347 28.9542 57.0944C28.87 57.1178 28.842 57.1575 28.8864 57.1856C28.9664 57.2096 29.0518 57.2096 29.1318 57.1856C29.3056 57.1438 29.4837 57.1234 29.6624 57.1248C29.8441 57.1203 30.0252 57.1472 30.1977 57.2043C30.3216 57.2557 30.3847 57.3258 30.3567 57.403C30.3286 57.4801 30.2117 57.5479 30.0481 57.5993C29.8517 57.6539 29.6489 57.6814 29.445 57.6811C29.2799 57.686 29.115 57.6647 28.9565 57.618C28.8703 57.5996 28.7808 57.6045 28.6971 57.632C28.6293 57.6601 28.6223 57.6998 28.6971 57.7209C28.9252 57.7848 29.1614 57.8148 29.3983 57.8097C30.0388 57.8097 30.6372 57.6274 30.7236 57.403C30.8101 57.1786 30.3356 57.0079 29.7139 57.0079Z" fill="#FFBE62"/>
<path d="M28.176 57.0078H27.1429C27.0517 57.0078 26.9582 57.0359 26.9442 57.0686C26.9302 57.1013 26.9979 57.1317 27.0891 57.1317H27.9376C27.9096 57.2018 27.8792 57.2719 27.8488 57.3397H27.1148C27.0213 57.3397 26.9278 57.3701 26.9115 57.4052C26.8951 57.4402 26.9629 57.466 27.0564 57.466H27.795C27.7623 57.5361 27.7319 57.6039 27.7015 57.674H26.839C26.7455 57.674 26.6497 57.702 26.6333 57.7371C26.6169 57.7722 26.6847 57.8002 26.7759 57.8002H27.8207C27.9212 57.8002 28.0101 57.7722 28.0264 57.7371C28.1269 57.515 28.2204 57.2906 28.3116 57.0686C28.335 57.0359 28.2719 57.0078 28.176 57.0078Z" fill="#FFBE62"/>
<path d="M29.0982 51.6836H59.4524L59.6698 52.6186H28.8574C28.9392 52.296 29.0117 51.9851 29.0982 51.6836Z" fill="white"/>
<path d="M28.8593 52.6172H59.6717C59.7465 52.9281 59.8213 53.239 59.9054 53.5522H28.6162C28.6957 53.2273 28.7798 52.9164 28.8593 52.6172Z" fill="#130F26"/>
<path d="M29.3394 50.7461L59.2355 50.7344L59.4529 51.6694H29.0986C29.1781 51.3608 29.2576 51.0499 29.3394 50.7461Z" fill="#DBDBDB"/>
<path d="M29.5833 49.8148L59.0073 49.8008C59.0844 50.1117 59.1592 50.4249 59.241 50.7358L29.3379 50.7498C29.4174 50.4381 29.4992 50.1265 29.5833 49.8148Z" fill="white"/>
<path d="M29.8491 48.8796L58.7705 48.8633C58.8523 49.1765 58.9318 49.4874 59.0042 49.7983L29.585 49.8146C29.6714 49.4991 29.7579 49.1882 29.8491 48.8796Z" fill="#DBDBDB"/>
<path d="M30.1301 47.9461L58.5092 47.9297C58.6004 48.2406 58.6868 48.5515 58.771 48.8647L29.8496 48.881C29.9478 48.5678 30.0343 48.2569 30.1301 47.9461Z" fill="white"/>
<path d="M30.4408 47.0086L58.2308 46.9922C58.3313 47.3031 58.4272 47.6163 58.5183 47.9272L30.1299 47.9435C30.2304 47.6327 30.3332 47.3194 30.4408 47.0086Z" fill="#DBDBDB"/>
<path d="M30.7803 46.0742L49.7722 46.0625C49.8143 46.3734 49.854 46.6843 49.8937 46.9975L30.4414 47.0092C30.5489 46.6983 30.6635 46.3874 30.7803 46.0742Z" fill="#130F26"/>
<path d="M49.8916 47.0117H58.22C58.9212 49.1926 59.3373 51.3711 59.8959 53.5566H50.5157C50.3077 51.3594 50.1534 49.1785 49.8916 47.0117Z" fill="#C7C7C7"/>
<path d="M59.4529 51.6602L44.2758 51.6812H29.0986L44.2758 51.6648L59.4529 51.6602Z" fill="#FFBE62"/>
<path d="M59.2359 50.7289L44.2762 50.7453H29.3281L44.2762 50.7266L59.2359 50.7289Z" fill="#FFBE62"/>
<path d="M59.0089 49.793L44.2969 49.8117H29.585L44.2969 49.793H59.0089Z" fill="#FFBE62"/>
<path d="M58.771 48.8633L44.3091 48.8843H29.8496L44.3091 48.8656L58.771 48.8633Z" fill="#FFBE62"/>
<path d="M58.509 47.932L44.3206 47.9507H30.1299L44.3206 47.9297L58.509 47.932Z" fill="#FFBE62"/>
<path d="M58.2319 46.9922L44.3427 47.0132H30.4512L44.3427 46.9945L58.2319 46.9922Z" fill="#FFBE62"/>
<path d="M58.1207 53.0636C57.132 53.0847 56.1409 53.0847 55.1498 53.0893C54.1587 53.094 53.1676 53.0893 52.1719 53.066C53.1606 53.0449 54.1517 53.0449 55.1428 53.0403C56.1339 53.0356 57.125 53.0449 58.1207 53.0636Z" fill="#FFBE62"/>
<path d="M57.9221 52.131C57.1858 52.152 56.4471 52.1543 55.7085 52.1567C54.9698 52.159 54.2312 52.1567 53.4902 52.1333C54.2242 52.1146 54.9628 52.1123 55.7015 52.1099C56.4401 52.1076 57.1787 52.1123 57.9221 52.131Z" fill="#FFBE62"/>
<path d="M57.7292 51.1964C56.7708 51.2151 55.8101 51.2175 54.8471 51.2198C53.8841 51.2221 52.9234 51.2198 51.958 51.1988C52.9187 51.1777 53.8794 51.1777 54.8401 51.1731C55.8008 51.1684 56.7638 51.1777 57.7292 51.1964Z" fill="#FFBE62"/>
<path d="M57.5304 50.2638C56.7544 50.2848 55.976 50.2848 55.1929 50.2895C54.4099 50.2942 53.6338 50.2895 52.8555 50.2661C53.6315 50.2474 54.4122 50.2451 55.1929 50.2427C55.9736 50.2404 56.752 50.2451 57.5304 50.2638Z" fill="#FFBE62"/>
<path d="M57.3279 49.3286C56.3929 49.3473 55.4696 49.3496 54.5393 49.352C53.609 49.3543 52.6694 49.352 51.7344 49.331C52.6694 49.3099 53.6043 49.3076 54.5253 49.3052C55.4463 49.3029 56.3929 49.3076 57.3279 49.3286Z" fill="#FFBE62"/>
<path d="M57.1098 48.3966C56.1982 48.4176 55.2843 48.4176 54.368 48.4223C53.4517 48.427 52.5378 48.4223 51.6191 48.3989C52.5307 48.3802 53.4447 48.3779 54.3586 48.3756C55.2726 48.3732 56.1889 48.3779 57.1098 48.3966Z" fill="#FFBE62"/>
<path d="M56.8662 47.4624C56.3262 47.4811 55.7816 47.4858 55.23 47.4882C54.6783 47.4905 54.1407 47.4882 53.5938 47.4648C54.1337 47.4461 54.6783 47.4414 55.23 47.4414C55.7816 47.4414 56.3169 47.4461 56.8662 47.4624Z" fill="#FFBE62"/>
<path d="M48.2993 53.0675C47.556 53.0886 46.8103 53.0886 46.0647 53.0932C45.319 53.0979 44.5734 53.0932 43.8301 53.0699C44.5757 53.0488 45.319 53.0488 46.0647 53.0442C46.8103 53.0395 47.5537 53.0488 48.2993 53.0675Z" fill="#FFBE62"/>
<path d="M48.2485 52.1332C47.5145 52.1519 46.7806 52.1542 46.0466 52.1566C45.3127 52.1589 44.5787 52.1566 43.8447 52.1332C44.5787 52.1145 45.3127 52.1121 46.0466 52.1098C46.7806 52.1075 47.5145 52.1145 48.2485 52.1332Z" fill="#FFBE62"/>
<path d="M48.2012 51.2013C47.4789 51.2223 46.7567 51.2223 46.0344 51.227C45.3121 51.2317 44.5875 51.227 43.8652 51.2036C44.5875 51.1849 45.3098 51.1826 46.0321 51.1802C46.7543 51.1779 47.4789 51.1826 48.2012 51.2013Z" fill="#FFBE62"/>
<path d="M48.1514 50.2668C47.4502 50.2855 46.7279 50.2878 46.0173 50.2901C45.3067 50.2925 44.5938 50.2901 43.8809 50.2691C44.5821 50.2481 45.3044 50.2481 46.0173 50.2434C46.7302 50.2387 47.4385 50.2481 48.1514 50.2668Z" fill="#FFBE62"/>
<path d="M48.099 49.3341C47.3978 49.3551 46.6966 49.3575 45.9953 49.3598C45.2941 49.3621 44.5928 49.3598 43.8916 49.3364C44.5928 49.3177 45.2941 49.3154 45.9953 49.3131C46.6966 49.3107 47.3978 49.3154 48.099 49.3341Z" fill="#FFBE62"/>
<path d="M48.0426 48.4129C47.3554 48.4339 46.6682 48.4339 45.9786 48.4386C45.2891 48.4433 44.6042 48.4386 43.917 48.4152C44.6042 48.3942 45.2914 48.3942 45.9786 48.3895C46.6658 48.3848 47.3531 48.3825 48.0426 48.4129Z" fill="#FFBE62"/>
<path d="M47.9813 47.4743C47.3081 47.493 46.6326 47.4954 45.9594 47.4977C45.2862 47.5 44.6107 47.4977 43.9375 47.4767C44.6107 47.4556 45.2839 47.4533 45.9594 47.451C46.6349 47.4486 47.3058 47.4439 47.9813 47.4743Z" fill="#FFBE62"/>
<path d="M41.8378 53.0668C41.0898 53.0855 40.3441 53.0878 39.6008 53.0902C38.8575 53.0925 38.1095 53.0902 37.3662 53.0691C38.1142 53.0481 38.8598 53.0457 39.6032 53.0434C40.3465 53.0411 41.0921 53.0481 41.8378 53.0668Z" fill="#FFBE62"/>
<path d="M40.76 47.4733C40.5426 47.492 40.3276 47.4967 40.1125 47.499C39.8975 47.5014 39.6824 47.499 39.4697 47.4756C39.6871 47.4569 39.9022 47.4523 40.1172 47.4499C40.3322 47.4476 40.5473 47.4499 40.76 47.4733Z" fill="#FFBE62"/>
<path d="M40.6754 48.4102C40.4556 48.4288 40.2359 48.4312 40.0162 48.4335C39.7965 48.4359 39.5768 48.4335 39.3594 48.4102C39.5814 48.3915 39.8012 48.3868 40.0209 48.3868C40.2406 48.3868 40.465 48.3844 40.6754 48.4102Z" fill="#FFBE62"/>
<path d="M40.6005 49.344C40.3667 49.3627 40.1517 49.3674 39.9273 49.3674C39.7029 49.3674 39.4808 49.3674 39.2588 49.344C39.4925 49.3253 39.7099 49.3206 39.932 49.3206C40.154 49.3206 40.3784 49.3159 40.6005 49.344Z" fill="#FFBE62"/>
<path d="M40.5268 50.2829C40.2931 50.3016 40.071 50.3063 39.8443 50.3086C39.6175 50.311 39.3768 50.3086 39.1641 50.2853C39.3978 50.2666 39.6199 50.2619 39.8466 50.2595C40.0733 50.2572 40.3024 50.2525 40.5268 50.2829Z" fill="#FFBE62"/>
<path d="M40.466 51.2155C40.2322 51.2342 39.9985 51.2365 39.7647 51.2389C39.531 51.2412 39.2972 51.2389 39.0635 51.2155C39.2972 51.1968 39.531 51.1921 39.7647 51.1921C39.9985 51.1921 40.2322 51.1851 40.466 51.2155Z" fill="#FFBE62"/>
<path d="M40.3888 52.1367C40.1551 52.1554 39.9213 52.16 39.6876 52.16C39.4538 52.16 39.2201 52.16 38.9863 52.1367C39.2201 52.118 39.4538 52.1133 39.6876 52.1133C39.9213 52.1133 40.1551 52.118 40.3888 52.1367Z" fill="#FFBE62"/>
<path d="M40.4657 46.5436C40.0917 46.5623 39.72 46.567 39.346 46.5693C38.972 46.5717 38.6027 46.5693 38.2334 46.546C38.6097 46.5273 38.9814 46.5226 39.353 46.5202C39.7247 46.5179 40.1057 46.5202 40.4657 46.5436Z" fill="#FFBE62"/>
<path d="M35.3784 53.0746C34.6304 53.0933 33.8848 53.0956 33.1391 53.098C32.3935 53.1003 31.6502 53.098 30.9092 53.0746C31.6572 53.0559 32.4028 53.0536 33.1485 53.0512C33.8941 53.0489 34.6374 53.0559 35.3784 53.0746Z" fill="#FFBE62"/>
<path d="M35.5239 52.1546C34.7853 52.1733 34.0513 52.1756 33.3173 52.1779C32.5834 52.1803 31.8494 52.1779 31.1201 52.1546C31.8588 52.1359 32.5927 52.1335 33.3267 52.1312C34.0606 52.1288 34.7923 52.1218 35.5239 52.1546Z" fill="#FFBE62"/>
<path d="M35.6641 51.2148C34.9395 51.2359 34.2149 51.2359 33.4926 51.2405C32.7703 51.2452 32.0457 51.2405 31.3281 51.2172C32.0551 51.1985 32.7774 51.1961 33.502 51.1938C34.2266 51.1915 34.9465 51.1844 35.6641 51.2148Z" fill="#FFBE62"/>
<path d="M35.8096 50.2835C35.0943 50.3045 34.3814 50.3045 33.6685 50.3092C32.9556 50.3139 32.2473 50.3092 31.5391 50.2858C32.2543 50.2648 32.9673 50.2648 33.6778 50.2601C34.3884 50.2555 35.1014 50.2555 35.8096 50.2835Z" fill="#FFBE62"/>
<path d="M35.9594 49.3456C35.2581 49.3643 34.5569 49.3667 33.8557 49.369C33.1544 49.3713 32.4532 49.369 31.752 49.348C32.4532 49.3269 33.1544 49.3269 33.8557 49.3222C34.5569 49.3176 35.2628 49.3199 35.9594 49.3456Z" fill="#FFBE62"/>
<path d="M36.1198 48.4108C35.4185 48.4295 34.7383 48.4318 34.0511 48.4342C33.3639 48.4365 32.6767 48.4342 31.9941 48.4131C32.6954 48.3921 33.3732 48.3898 34.0605 48.3874C34.7477 48.3851 35.4349 48.3874 36.1198 48.4108Z" fill="#FFBE62"/>
<path d="M36.2948 47.4791C35.6169 47.5001 34.9414 47.5024 34.2659 47.5048C33.5903 47.5071 32.9195 47.5048 32.251 47.4814C32.9288 47.4627 33.6044 47.4604 34.2776 47.458C34.9507 47.4557 35.6239 47.4557 36.2948 47.4791Z" fill="#FFBE62"/>
<path d="M36.4917 46.5413C35.8279 46.5623 35.1687 46.5647 34.5095 46.567C33.8504 46.5693 33.1912 46.567 32.5391 46.5436C33.2029 46.5249 33.8621 46.5226 34.5212 46.5203C35.1804 46.5179 35.8279 46.5203 36.4917 46.5413Z" fill="#FFBE62"/>
<path d="M61.1911 57.511C60.1906 57.5297 59.1855 57.539 58.1804 57.5484C57.1753 57.5577 56.1632 57.5484 55.1558 57.5484C54.1483 57.5484 53.1362 57.5484 52.1171 57.5484L50.6094 57.532L49.0947 57.511C49.5973 57.4993 50.0998 57.4946 50.6024 57.4876L52.1124 57.4736C53.1175 57.4736 54.1249 57.4736 55.13 57.4619C56.1351 57.4502 57.1449 57.4619 58.1547 57.4736C59.1645 57.4852 60.1766 57.4923 61.1911 57.511Z" fill="white"/>
<path d="M61.4028 57.9672C60.2528 57.9883 59.0957 57.9953 57.9387 58.0046C56.7816 58.014 55.6199 58.0046 54.4605 58.0046C53.3012 58.0046 52.1371 58.0046 50.9754 58.0046L49.2316 57.9953L47.4902 57.9719C48.0699 57.9602 48.6473 57.9555 49.227 57.9485L50.9614 57.9345C52.1301 57.9345 53.2754 57.9345 54.4325 57.9228C55.5895 57.9111 56.7513 57.9228 57.9106 57.9345C59.07 57.9462 60.2341 57.9485 61.4028 57.9672Z" fill="white"/>
<path d="M60.3482 55.1942C59.4647 55.2082 58.5764 55.2152 57.6882 55.2199C56.8 55.2246 55.9094 55.2199 55.0212 55.2199C54.1329 55.2199 53.24 55.2199 52.3494 55.2199C51.4589 55.2199 50.5683 55.2082 49.6777 55.1942C50.566 55.1778 51.4542 55.1708 52.3424 55.1661C53.2307 55.1615 54.1189 55.1661 55.0071 55.1661H57.6742C58.5648 55.1638 59.4553 55.1685 60.3482 55.1942Z" fill="#FFBE62"/>
<path d="M60.2315 54.7866C59.6822 54.803 59.1306 54.81 58.579 54.8147C58.0273 54.8194 57.4733 54.8147 56.9194 54.8147C56.3654 54.8147 55.8114 54.8147 55.2551 54.8147C54.6988 54.8147 54.1471 54.803 53.5908 54.789C54.1401 54.775 54.6941 54.7679 55.2457 54.7609C55.7974 54.7539 56.3514 54.7609 56.903 54.7609C57.4546 54.7609 58.011 54.7609 58.5649 54.7609C59.1189 54.7609 59.6752 54.7726 60.2315 54.7866Z" fill="#FFBE62"/>
<path d="M60.1196 54.3851C59.3576 54.3991 58.5956 54.4061 57.8313 54.4131H55.5359C54.7715 54.4131 54.0048 54.4131 53.2381 54.4131C52.4715 54.4131 51.7071 54.4014 50.9404 54.3874C51.7024 54.3734 52.4668 54.3664 53.2311 54.3594H55.5242C56.2885 54.3594 57.0529 54.3594 57.8172 54.3594C58.5816 54.3594 59.3506 54.3711 60.1196 54.3851Z" fill="#FFBE62"/>
</svg>
