<svg width="44" height="44" viewBox="0 0 44 44" fill="none" xmlns="http://www.w3.org/2000/svg">
<path opacity="0.4" d="M31.5348 0H12.463C5.0072 0 0 5.2316 0 13.0174V30.9848C0 38.7684 5.0072 44 12.463 44H31.5326C38.9884 44 44 38.7684 44 30.9848V13.0174C44 5.2316 38.9906 0 31.5348 0Z" fill="#FFBE62"/>
<path d="M15.0016 28.2H12.8016C12.2181 28.2 11.6585 27.9682 11.2459 27.5556C10.8333 27.1431 10.6016 26.5835 10.6016 26V20.5C10.6016 19.9165 10.8333 19.3569 11.2459 18.9444C11.6585 18.5318 12.2181 18.3 12.8016 18.3H30.4016C30.985 18.3 31.5446 18.5318 31.9572 18.9444C32.3698 19.3569 32.6016 19.9165 32.6016 20.5V26C32.6016 26.5835 32.3698 27.1431 31.9572 27.5556C31.5446 27.9682 30.985 28.2 30.4016 28.2H28.2016" stroke="#FFBE62" stroke-width="2" stroke-linecap="round" stroke-linejoin="round"/>
<path d="M28.2 23.8H15V32.6H28.2V23.8Z" stroke="#FFBE62" stroke-width="2" stroke-linecap="round" stroke-linejoin="round"/>
<path d="M15 18.3V10.6H28.2V18.3" stroke="#FFBE62" stroke-width="2" stroke-linecap="round" stroke-linejoin="round"/>
</svg>
