<svg width="16" height="15" viewBox="0 0 16 15" fill="none" xmlns="http://www.w3.org/2000/svg">
<path d="M9.5625 6.875C9.7375 6.875 9.875 7.0125 9.875 7.1875V8.125H6.125V7.1875C6.125 7.0125 6.2625 6.875 6.4375 6.875H9.5625ZM13 8.46875V6.25H11.75V8.1625C12.1812 8.2125 12.6 8.31875 13 8.46875ZM13.625 5.625H2.375V1.875H13.625V5.625ZM12.375 3.125H3.625V4.375H12.375V3.125ZM6.03125 11.875H4.25V6.25H3V13.125H6.6125C6.4625 12.8813 6.325 12.6187 6.2125 12.3438L6.03125 11.875ZM11.125 11.25C10.775 11.25 10.5 11.525 10.5 11.875C10.5 12.225 10.775 12.5 11.125 12.5C11.475 12.5 11.75 12.225 11.75 11.875C11.75 11.525 11.475 11.25 11.125 11.25ZM14.875 11.875C14.2875 13.3375 12.8313 14.375 11.125 14.375C9.41875 14.375 7.9625 13.3375 7.375 11.875C7.9625 10.4125 9.41875 9.375 11.125 9.375C12.8313 9.375 14.2875 10.4125 14.875 11.875ZM12.6875 11.875C12.6875 11.4606 12.5229 11.0632 12.2299 10.7701C11.9368 10.4771 11.5394 10.3125 11.125 10.3125C10.7106 10.3125 10.3132 10.4771 10.0201 10.7701C9.72712 11.0632 9.5625 11.4606 9.5625 11.875C9.5625 12.2894 9.72712 12.6868 10.0201 12.9799C10.3132 13.2729 10.7106 13.4375 11.125 13.4375C11.5394 13.4375 11.9368 13.2729 12.2299 12.9799C12.5229 12.6868 12.6875 12.2894 12.6875 11.875Z" fill="#607087"/>
</svg>
