<svg width="16" height="15" viewBox="0 0 16 15" fill="none" xmlns="http://www.w3.org/2000/svg">
<path d="M9.5625 6.875C9.7375 6.875 9.875 7.0125 9.875 7.1875V8.125H6.125V7.1875C6.125 7.0125 6.2625 6.875 6.4375 6.875H9.5625ZM13 8.46875V6.25H11.75V8.1625C12.1812 8.2125 12.6 8.31875 13 8.46875ZM13.625 5.625H2.375V1.875H13.625V5.625ZM12.375 3.125H3.625V4.375H12.375V3.125ZM6.03125 11.875H4.25V6.25H3V13.125H6.6125C6.4625 12.8813 6.325 12.6187 6.2125 12.3438L6.03125 11.875Z" fill="#607087"/>
<path d="M10.1344 10.5263L11.125 11.4618V11.4145C11.125 11.1789 11.0262 10.953 10.8504 10.7865C10.6746 10.6199 10.4361 10.5263 10.1875 10.5263H10.1344ZM8.79063 10.7632L9.275 11.222C9.25937 11.2842 9.25 11.3464 9.25 11.4145C9.25 11.65 9.34877 11.8759 9.52459 12.0425C9.7004 12.2091 9.93886 12.3026 10.1875 12.3026C10.2562 12.3026 10.325 12.2938 10.3906 12.2789L10.875 12.7378C10.6656 12.8355 10.4344 12.8947 10.1875 12.8947C9.7731 12.8947 9.37567 12.7388 9.08265 12.4612C8.78962 12.1836 8.625 11.8071 8.625 11.4145C8.625 11.1806 8.6875 10.9615 8.79063 10.7632ZM7.0625 9.12599L7.775 9.80099L7.91562 9.93421C7.4 10.3191 6.99375 10.8224 6.75 11.4145C7.29062 12.7141 8.625 13.6349 10.1875 13.6349C10.6719 13.6349 11.1344 13.5461 11.5562 13.3862L11.6906 13.5105L12.6031 14.375L13 13.999L7.45938 8.75M10.1875 9.93421C10.6019 9.93421 10.9993 10.0902 11.2924 10.3678C11.5854 10.6454 11.75 11.0219 11.75 11.4145C11.75 11.6039 11.7094 11.7875 11.6375 11.9533L12.5531 12.8207C13.0219 12.4507 13.3969 11.9651 13.625 11.4145C13.0844 10.1148 11.75 9.19408 10.1875 9.19408C9.75 9.19408 9.33125 9.26809 8.9375 9.40132L9.61562 10.0378C9.79375 9.9727 9.98438 9.93421 10.1875 9.93421Z" fill="#607087"/>
</svg>
