<svg width="41" height="41" viewBox="0 0 41 41" fill="none" xmlns="http://www.w3.org/2000/svg">
<mask id="path-1-outside-1_20487_55054" maskUnits="userSpaceOnUse" x="6.375" y="6.375" width="28" height="28" fill="black">
<rect fill="white" x="6.375" y="6.375" width="28" height="28"/>
<path d="M16.75 7.375H9.25C8.75272 7.375 8.27581 7.57254 7.92417 7.92417C7.57254 8.27581 7.375 8.75272 7.375 9.25V16.75C7.375 17.2473 7.57254 17.7242 7.92417 18.0758C8.27581 18.4275 8.75272 18.625 9.25 18.625H16.75C17.2473 18.625 17.7242 18.4275 18.0758 18.0758C18.4275 17.7242 18.625 17.2473 18.625 16.75V9.25C18.625 8.75272 18.4275 8.27581 18.0758 7.92417C17.7242 7.57254 17.2473 7.375 16.75 7.375ZM17.375 16.75C17.375 16.9158 17.3092 17.0747 17.1919 17.1919C17.0747 17.3092 16.9158 17.375 16.75 17.375H9.25C9.08424 17.375 8.92527 17.3092 8.80806 17.1919C8.69085 17.0747 8.625 16.9158 8.625 16.75V9.25C8.625 9.08424 8.69085 8.92527 8.80806 8.80806C8.92527 8.69085 9.08424 8.625 9.25 8.625H16.75C16.9158 8.625 17.0747 8.69085 17.1919 8.80806C17.3092 8.92527 17.375 9.08424 17.375 9.25V16.75ZM16.75 22.375H9.25C8.75272 22.375 8.27581 22.5725 7.92417 22.9242C7.57254 23.2758 7.375 23.7527 7.375 24.25V31.75C7.375 32.2473 7.57254 32.7242 7.92417 33.0758C8.27581 33.4275 8.75272 33.625 9.25 33.625H16.75C17.2473 33.625 17.7242 33.4275 18.0758 33.0758C18.4275 32.7242 18.625 32.2473 18.625 31.75V24.25C18.625 23.7527 18.4275 23.2758 18.0758 22.9242C17.7242 22.5725 17.2473 22.375 16.75 22.375ZM17.375 31.75C17.375 31.9158 17.3092 32.0747 17.1919 32.1919C17.0747 32.3092 16.9158 32.375 16.75 32.375H9.25C9.08424 32.375 8.92527 32.3092 8.80806 32.1919C8.69085 32.0747 8.625 31.9158 8.625 31.75V24.25C8.625 24.0842 8.69085 23.9253 8.80806 23.8081C8.92527 23.6908 9.08424 23.625 9.25 23.625H16.75C16.9158 23.625 17.0747 23.6908 17.1919 23.8081C17.3092 23.9253 17.375 24.0842 17.375 24.25V31.75ZM31.75 7.375H24.25C23.7527 7.375 23.2758 7.57254 22.9242 7.92417C22.5725 8.27581 22.375 8.75272 22.375 9.25V16.75C22.375 17.2473 22.5725 17.7242 22.9242 18.0758C23.2758 18.4275 23.7527 18.625 24.25 18.625H31.75C32.2473 18.625 32.7242 18.4275 33.0758 18.0758C33.4275 17.7242 33.625 17.2473 33.625 16.75V9.25C33.625 8.75272 33.4275 8.27581 33.0758 7.92417C32.7242 7.57254 32.2473 7.375 31.75 7.375ZM32.375 16.75C32.375 16.9158 32.3092 17.0747 32.1919 17.1919C32.0747 17.3092 31.9158 17.375 31.75 17.375H24.25C24.0842 17.375 23.9253 17.3092 23.8081 17.1919C23.6908 17.0747 23.625 16.9158 23.625 16.75V9.25C23.625 9.08424 23.6908 8.92527 23.8081 8.80806C23.9253 8.69085 24.0842 8.625 24.25 8.625H31.75C31.9158 8.625 32.0747 8.69085 32.1919 8.80806C32.3092 8.92527 32.375 9.08424 32.375 9.25V16.75ZM22.375 28V23C22.375 22.8342 22.4408 22.6753 22.5581 22.5581C22.6753 22.4408 22.8342 22.375 23 22.375C23.1658 22.375 23.3247 22.4408 23.4419 22.5581C23.5592 22.6753 23.625 22.8342 23.625 23V28C23.625 28.1658 23.5592 28.3247 23.4419 28.4419C23.3247 28.5592 23.1658 28.625 23 28.625C22.8342 28.625 22.6753 28.5592 22.5581 28.4419C22.4408 28.3247 22.375 28.1658 22.375 28ZM33.625 25.5C33.625 25.6658 33.5592 25.8247 33.4419 25.9419C33.3247 26.0592 33.1658 26.125 33 26.125H28.625V33C28.625 33.1658 28.5592 33.3247 28.4419 33.4419C28.3247 33.5592 28.1658 33.625 28 33.625H23C22.8342 33.625 22.6753 33.5592 22.5581 33.4419C22.4408 33.3247 22.375 33.1658 22.375 33C22.375 32.8342 22.4408 32.6753 22.5581 32.5581C22.6753 32.4408 22.8342 32.375 23 32.375H27.375V23C27.375 22.8342 27.4408 22.6753 27.5581 22.5581C27.6753 22.4408 27.8342 22.375 28 22.375C28.1658 22.375 28.3247 22.4408 28.4419 22.5581C28.5592 22.6753 28.625 22.8342 28.625 23V24.875H33C33.1658 24.875 33.3247 24.9408 33.4419 25.0581C33.5592 25.1753 33.625 25.3342 33.625 25.5ZM33.625 30.5V33C33.625 33.1658 33.5592 33.3247 33.4419 33.4419C33.3247 33.5592 33.1658 33.625 33 33.625C32.8342 33.625 32.6753 33.5592 32.5581 33.4419C32.4408 33.3247 32.375 33.1658 32.375 33V30.5C32.375 30.3342 32.4408 30.1753 32.5581 30.0581C32.6753 29.9408 32.8342 29.875 33 29.875C33.1658 29.875 33.3247 29.9408 33.4419 30.0581C33.5592 30.1753 33.625 30.3342 33.625 30.5Z"/>
</mask>
<path d="M16.75 7.375H9.25C8.75272 7.375 8.27581 7.57254 7.92417 7.92417C7.57254 8.27581 7.375 8.75272 7.375 9.25V16.75C7.375 17.2473 7.57254 17.7242 7.92417 18.0758C8.27581 18.4275 8.75272 18.625 9.25 18.625H16.75C17.2473 18.625 17.7242 18.4275 18.0758 18.0758C18.4275 17.7242 18.625 17.2473 18.625 16.75V9.25C18.625 8.75272 18.4275 8.27581 18.0758 7.92417C17.7242 7.57254 17.2473 7.375 16.75 7.375ZM17.375 16.75C17.375 16.9158 17.3092 17.0747 17.1919 17.1919C17.0747 17.3092 16.9158 17.375 16.75 17.375H9.25C9.08424 17.375 8.92527 17.3092 8.80806 17.1919C8.69085 17.0747 8.625 16.9158 8.625 16.75V9.25C8.625 9.08424 8.69085 8.92527 8.80806 8.80806C8.92527 8.69085 9.08424 8.625 9.25 8.625H16.75C16.9158 8.625 17.0747 8.69085 17.1919 8.80806C17.3092 8.92527 17.375 9.08424 17.375 9.25V16.75ZM16.75 22.375H9.25C8.75272 22.375 8.27581 22.5725 7.92417 22.9242C7.57254 23.2758 7.375 23.7527 7.375 24.25V31.75C7.375 32.2473 7.57254 32.7242 7.92417 33.0758C8.27581 33.4275 8.75272 33.625 9.25 33.625H16.75C17.2473 33.625 17.7242 33.4275 18.0758 33.0758C18.4275 32.7242 18.625 32.2473 18.625 31.75V24.25C18.625 23.7527 18.4275 23.2758 18.0758 22.9242C17.7242 22.5725 17.2473 22.375 16.75 22.375ZM17.375 31.75C17.375 31.9158 17.3092 32.0747 17.1919 32.1919C17.0747 32.3092 16.9158 32.375 16.75 32.375H9.25C9.08424 32.375 8.92527 32.3092 8.80806 32.1919C8.69085 32.0747 8.625 31.9158 8.625 31.75V24.25C8.625 24.0842 8.69085 23.9253 8.80806 23.8081C8.92527 23.6908 9.08424 23.625 9.25 23.625H16.75C16.9158 23.625 17.0747 23.6908 17.1919 23.8081C17.3092 23.9253 17.375 24.0842 17.375 24.25V31.75ZM31.75 7.375H24.25C23.7527 7.375 23.2758 7.57254 22.9242 7.92417C22.5725 8.27581 22.375 8.75272 22.375 9.25V16.75C22.375 17.2473 22.5725 17.7242 22.9242 18.0758C23.2758 18.4275 23.7527 18.625 24.25 18.625H31.75C32.2473 18.625 32.7242 18.4275 33.0758 18.0758C33.4275 17.7242 33.625 17.2473 33.625 16.75V9.25C33.625 8.75272 33.4275 8.27581 33.0758 7.92417C32.7242 7.57254 32.2473 7.375 31.75 7.375ZM32.375 16.75C32.375 16.9158 32.3092 17.0747 32.1919 17.1919C32.0747 17.3092 31.9158 17.375 31.75 17.375H24.25C24.0842 17.375 23.9253 17.3092 23.8081 17.1919C23.6908 17.0747 23.625 16.9158 23.625 16.75V9.25C23.625 9.08424 23.6908 8.92527 23.8081 8.80806C23.9253 8.69085 24.0842 8.625 24.25 8.625H31.75C31.9158 8.625 32.0747 8.69085 32.1919 8.80806C32.3092 8.92527 32.375 9.08424 32.375 9.25V16.75ZM22.375 28V23C22.375 22.8342 22.4408 22.6753 22.5581 22.5581C22.6753 22.4408 22.8342 22.375 23 22.375C23.1658 22.375 23.3247 22.4408 23.4419 22.5581C23.5592 22.6753 23.625 22.8342 23.625 23V28C23.625 28.1658 23.5592 28.3247 23.4419 28.4419C23.3247 28.5592 23.1658 28.625 23 28.625C22.8342 28.625 22.6753 28.5592 22.5581 28.4419C22.4408 28.3247 22.375 28.1658 22.375 28ZM33.625 25.5C33.625 25.6658 33.5592 25.8247 33.4419 25.9419C33.3247 26.0592 33.1658 26.125 33 26.125H28.625V33C28.625 33.1658 28.5592 33.3247 28.4419 33.4419C28.3247 33.5592 28.1658 33.625 28 33.625H23C22.8342 33.625 22.6753 33.5592 22.5581 33.4419C22.4408 33.3247 22.375 33.1658 22.375 33C22.375 32.8342 22.4408 32.6753 22.5581 32.5581C22.6753 32.4408 22.8342 32.375 23 32.375H27.375V23C27.375 22.8342 27.4408 22.6753 27.5581 22.5581C27.6753 22.4408 27.8342 22.375 28 22.375C28.1658 22.375 28.3247 22.4408 28.4419 22.5581C28.5592 22.6753 28.625 22.8342 28.625 23V24.875H33C33.1658 24.875 33.3247 24.9408 33.4419 25.0581C33.5592 25.1753 33.625 25.3342 33.625 25.5ZM33.625 30.5V33C33.625 33.1658 33.5592 33.3247 33.4419 33.4419C33.3247 33.5592 33.1658 33.625 33 33.625C32.8342 33.625 32.6753 33.5592 32.5581 33.4419C32.4408 33.3247 32.375 33.1658 32.375 33V30.5C32.375 30.3342 32.4408 30.1753 32.5581 30.0581C32.6753 29.9408 32.8342 29.875 33 29.875C33.1658 29.875 33.3247 29.9408 33.4419 30.0581C33.5592 30.1753 33.625 30.3342 33.625 30.5Z" fill="#607087"/>
<path d="M16.75 7.375H9.25C8.75272 7.375 8.27581 7.57254 7.92417 7.92417C7.57254 8.27581 7.375 8.75272 7.375 9.25V16.75C7.375 17.2473 7.57254 17.7242 7.92417 18.0758C8.27581 18.4275 8.75272 18.625 9.25 18.625H16.75C17.2473 18.625 17.7242 18.4275 18.0758 18.0758C18.4275 17.7242 18.625 17.2473 18.625 16.75V9.25C18.625 8.75272 18.4275 8.27581 18.0758 7.92417C17.7242 7.57254 17.2473 7.375 16.75 7.375ZM17.375 16.75C17.375 16.9158 17.3092 17.0747 17.1919 17.1919C17.0747 17.3092 16.9158 17.375 16.75 17.375H9.25C9.08424 17.375 8.92527 17.3092 8.80806 17.1919C8.69085 17.0747 8.625 16.9158 8.625 16.75V9.25C8.625 9.08424 8.69085 8.92527 8.80806 8.80806C8.92527 8.69085 9.08424 8.625 9.25 8.625H16.75C16.9158 8.625 17.0747 8.69085 17.1919 8.80806C17.3092 8.92527 17.375 9.08424 17.375 9.25V16.75ZM16.75 22.375H9.25C8.75272 22.375 8.27581 22.5725 7.92417 22.9242C7.57254 23.2758 7.375 23.7527 7.375 24.25V31.75C7.375 32.2473 7.57254 32.7242 7.92417 33.0758C8.27581 33.4275 8.75272 33.625 9.25 33.625H16.75C17.2473 33.625 17.7242 33.4275 18.0758 33.0758C18.4275 32.7242 18.625 32.2473 18.625 31.75V24.25C18.625 23.7527 18.4275 23.2758 18.0758 22.9242C17.7242 22.5725 17.2473 22.375 16.75 22.375ZM17.375 31.75C17.375 31.9158 17.3092 32.0747 17.1919 32.1919C17.0747 32.3092 16.9158 32.375 16.75 32.375H9.25C9.08424 32.375 8.92527 32.3092 8.80806 32.1919C8.69085 32.0747 8.625 31.9158 8.625 31.75V24.25C8.625 24.0842 8.69085 23.9253 8.80806 23.8081C8.92527 23.6908 9.08424 23.625 9.25 23.625H16.75C16.9158 23.625 17.0747 23.6908 17.1919 23.8081C17.3092 23.9253 17.375 24.0842 17.375 24.25V31.75ZM31.75 7.375H24.25C23.7527 7.375 23.2758 7.57254 22.9242 7.92417C22.5725 8.27581 22.375 8.75272 22.375 9.25V16.75C22.375 17.2473 22.5725 17.7242 22.9242 18.0758C23.2758 18.4275 23.7527 18.625 24.25 18.625H31.75C32.2473 18.625 32.7242 18.4275 33.0758 18.0758C33.4275 17.7242 33.625 17.2473 33.625 16.75V9.25C33.625 8.75272 33.4275 8.27581 33.0758 7.92417C32.7242 7.57254 32.2473 7.375 31.75 7.375ZM32.375 16.75C32.375 16.9158 32.3092 17.0747 32.1919 17.1919C32.0747 17.3092 31.9158 17.375 31.75 17.375H24.25C24.0842 17.375 23.9253 17.3092 23.8081 17.1919C23.6908 17.0747 23.625 16.9158 23.625 16.75V9.25C23.625 9.08424 23.6908 8.92527 23.8081 8.80806C23.9253 8.69085 24.0842 8.625 24.25 8.625H31.75C31.9158 8.625 32.0747 8.69085 32.1919 8.80806C32.3092 8.92527 32.375 9.08424 32.375 9.25V16.75ZM22.375 28V23C22.375 22.8342 22.4408 22.6753 22.5581 22.5581C22.6753 22.4408 22.8342 22.375 23 22.375C23.1658 22.375 23.3247 22.4408 23.4419 22.5581C23.5592 22.6753 23.625 22.8342 23.625 23V28C23.625 28.1658 23.5592 28.3247 23.4419 28.4419C23.3247 28.5592 23.1658 28.625 23 28.625C22.8342 28.625 22.6753 28.5592 22.5581 28.4419C22.4408 28.3247 22.375 28.1658 22.375 28ZM33.625 25.5C33.625 25.6658 33.5592 25.8247 33.4419 25.9419C33.3247 26.0592 33.1658 26.125 33 26.125H28.625V33C28.625 33.1658 28.5592 33.3247 28.4419 33.4419C28.3247 33.5592 28.1658 33.625 28 33.625H23C22.8342 33.625 22.6753 33.5592 22.5581 33.4419C22.4408 33.3247 22.375 33.1658 22.375 33C22.375 32.8342 22.4408 32.6753 22.5581 32.5581C22.6753 32.4408 22.8342 32.375 23 32.375H27.375V23C27.375 22.8342 27.4408 22.6753 27.5581 22.5581C27.6753 22.4408 27.8342 22.375 28 22.375C28.1658 22.375 28.3247 22.4408 28.4419 22.5581C28.5592 22.6753 28.625 22.8342 28.625 23V24.875H33C33.1658 24.875 33.3247 24.9408 33.4419 25.0581C33.5592 25.1753 33.625 25.3342 33.625 25.5ZM33.625 30.5V33C33.625 33.1658 33.5592 33.3247 33.4419 33.4419C33.3247 33.5592 33.1658 33.625 33 33.625C32.8342 33.625 32.6753 33.5592 32.5581 33.4419C32.4408 33.3247 32.375 33.1658 32.375 33V30.5C32.375 30.3342 32.4408 30.1753 32.5581 30.0581C32.6753 29.9408 32.8342 29.875 33 29.875C33.1658 29.875 33.3247 29.9408 33.4419 30.0581C33.5592 30.1753 33.625 30.3342 33.625 30.5Z" stroke="#607087" stroke-width="0.8" mask="url(#path-1-outside-1_20487_55054)"/>
</svg>
