<svg width="24" height="26" viewBox="0 0 24 26" fill="none" xmlns="http://www.w3.org/2000/svg">
<path fill-rule="evenodd" clip-rule="evenodd" d="M7.3168 0.683594H16.9142C20.9113 0.683594 23.3052 3.11099 23.316 7.16397V19.0813C23.316 23.1342 20.9329 25.5616 16.925 25.5616H13.372C12.9164 25.5107 12.5715 25.1203 12.5715 24.6555C12.5715 24.1907 12.9164 23.8003 13.372 23.7493H16.9142C19.9689 23.7493 21.507 22.1787 21.507 19.0813V7.16397C21.507 4.06657 19.9689 2.4959 16.9142 2.4959H7.3168C4.26211 2.4959 2.7131 4.06657 2.7131 7.16397V19.0813C2.7131 22.1787 4.26211 23.7493 7.3168 23.7493C7.77245 23.8003 8.11734 24.1907 8.11734 24.6555C8.11734 25.1203 7.77245 25.5107 7.3168 25.5616C3.31971 25.5616 0.925781 23.1342 0.925781 19.0813V7.16397C0.925781 3.1 3.31971 0.683594 7.3168 0.683594ZM7.63 8.76765H11.0422C11.4978 8.7167 11.8427 8.32631 11.8427 7.86149C11.8427 7.39667 11.4978 7.00628 11.0422 6.95534H7.63C7.17435 7.00628 6.82946 7.39667 6.82946 7.86149C6.82946 8.32631 7.17435 8.7167 7.63 8.76765ZM16.5894 14.0288H7.63111H7.62028C7.16463 13.9778 6.81974 13.5874 6.81974 13.1226C6.81974 12.6578 7.16463 12.2674 7.62028 12.2165H16.5894C16.9321 12.1781 17.2663 12.342 17.4496 12.6382C17.6328 12.9344 17.6328 13.3108 17.4496 13.607C17.2663 13.9032 16.9321 14.0671 16.5894 14.0288ZM16.5896 19.2899H7.63136H7.62052C7.12996 19.2899 6.73228 18.8867 6.73228 18.3892C6.73228 17.8918 7.12996 17.4886 7.62052 17.4886H16.5896C17.0802 17.4886 17.4779 17.8918 17.4779 18.3892C17.4779 18.8867 17.0802 19.2899 16.5896 19.2899Z" fill="#FF0000"/>
</svg>
