<svg width="40" height="41" viewBox="0 0 40 41" fill="none" xmlns="http://www.w3.org/2000/svg">
<path d="M12.5 26.75V4.25L15 5.5L17.5 4.25L19.9953 5.5L22.5242 4.25L25 5.5L27.4836 4.25L29.9781 5.5L32.5 4.25L35.0008 5.5L37.5 4.25V21.75" stroke="#607087" stroke-width="2" stroke-linejoin="round"/>
<path d="M37.5 21.75V30.5C37.5 32.1576 36.8416 33.7473 35.6695 34.9194C34.4974 36.0915 32.9076 36.75 31.25 36.75M31.25 36.75C29.5924 36.75 28.0027 36.0915 26.8306 34.9194C25.6585 33.7473 25 32.1576 25 30.5V26.75H3.75005C3.58549 26.7485 3.42229 26.7799 3.26997 26.8422C3.11766 26.9045 2.97928 26.9965 2.86291 27.1129C2.74655 27.2292 2.65453 27.3676 2.59223 27.5199C2.52993 27.6722 2.49859 27.8354 2.50005 28C2.50005 33 3.02661 36.75 8.75005 36.75H31.25Z" stroke="#607087" stroke-width="2" stroke-linejoin="round"/>
<path d="M17.5 11.75H32.5M22.5 18H32.5" stroke="#607087" stroke-width="2" stroke-linecap="round" stroke-linejoin="round"/>
</svg>
