<svg width="22" height="22" viewBox="0 0 22 22" fill="none" xmlns="http://www.w3.org/2000/svg">
<path d="M21 11C21 13.828 21 15.243 20.121 16.121C19.48 16.763 18.554 16.936 17 16.983M5 16.983C3.447 16.936 2.52 16.763 1.879 16.121C1 15.243 1 13.828 1 11C1 8.172 1 6.757 1.879 5.879C2.757 5 4.172 5 7 5H15C17.828 5 19.243 5 20.121 5.879C20.421 6.179 20.619 6.541 20.749 7M8 9H5M18 14H4" stroke="#FFBE62" stroke-width="1.5" stroke-linecap="round"/>
<path d="M16.983 5C16.936 3.447 16.763 2.52 16.121 1.879C15.243 1 13.828 1 11 1C8.172 1 6.757 1 5.879 1.879C5.237 2.52 5.064 3.447 5.017 5M17 14V15C17 17.828 17 19.243 16.121 20.121C15.48 20.763 14.554 20.936 13 20.983M5 14V15C5 17.828 5 19.243 5.879 20.121C6.52 20.763 7.447 20.936 9 20.983" stroke="#FFBE62" stroke-width="1.5" stroke-linecap="round"/>
<path d="M16 10C16.5523 10 17 9.55228 17 9C17 8.44772 16.5523 8 16 8C15.4477 8 15 8.44772 15 9C15 9.55228 15.4477 10 16 10Z" fill="#FFBE62"/>
</svg>
