<svg xmlns="http://www.w3.org/2000/svg" width="14" height="14" viewBox="0 0 14 14" fill="none">
  <g clip-path="url(#clip0_28023_77077)">
    <path fill-rule="evenodd" clip-rule="evenodd" d="M1.88477 6.9997C1.88477 6.9283 1.91313 6.85981 1.96362 6.80932C2.01411 6.75883 2.08259 6.73047 2.154 6.73047H11.8463C11.9177 6.73047 11.9862 6.75883 12.0367 6.80932C12.0872 6.85981 12.1155 6.9283 12.1155 6.9997C12.1155 7.0711 12.0872 7.13958 12.0367 7.19007C11.9862 7.24057 11.9177 7.26893 11.8463 7.26893H2.154C2.08259 7.26893 2.01411 7.24057 1.96362 7.19007C1.91313 7.13958 1.88477 7.0711 1.88477 6.9997Z" fill="#FF5050"/>
    <path fill-rule="evenodd" clip-rule="evenodd" d="M7.0003 13.1926C10.4201 13.1926 13.1926 10.4201 13.1926 7.0003C13.1926 3.58053 10.4201 0.807993 7.0003 0.807993C3.58053 0.807993 0.807993 3.58053 0.807993 7.0003C0.807993 10.4201 3.58053 13.1926 7.0003 13.1926ZM7.0003 13.7311C10.7178 13.7311 13.7311 10.7178 13.7311 7.0003C13.7311 3.28276 10.7178 0.269531 7.0003 0.269531C3.28276 0.269531 0.269531 3.28276 0.269531 7.0003C0.269531 10.7178 3.28276 13.7311 7.0003 13.7311Z" fill="#FF5050"/>
  </g>
  <defs>
    <clipPath id="clip0_28023_77077">
      <rect width="14" height="14" fill="white"/>
    </clipPath>
  </defs>
</svg>