<svg width="65" height="15" viewBox="0 0 65 15" fill="none" xmlns="http://www.w3.org/2000/svg">
<g clip-path="url(#clip0_2_3729)">
<path d="M0.875 0.5H0V14.5H0.875V0.5Z" fill="white"/>
<path d="M6.125 0.5H5.25V14.5H6.125V0.5Z" fill="white"/>
<path d="M7.875 0.5H7V14.5H7.875V0.5Z" fill="white"/>
<path d="M4.375 0.5H2.625V14.5H4.375V0.5Z" fill="white"/>
<path d="M8.75 0.5H7.875V14.5H8.75V0.5Z" fill="white"/>
<path d="M14 0.5H13.125V14.5H14V0.5Z" fill="white"/>
<path d="M15.75 0.5H14.875V14.5H15.75V0.5Z" fill="white"/>
<path d="M12.25 0.5H10.5V14.5H12.25V0.5Z" fill="white"/>
<path d="M19.25 0.5H18.375V14.5H19.25V0.5Z" fill="white"/>
<path d="M21 0.5H20.125V14.5H21V0.5Z" fill="white"/>
<path d="M17.5 0.5H15.75V14.5H17.5V0.5Z" fill="white"/>
<path d="M21.875 0.5H21V14.5H21.875V0.5Z" fill="white"/>
<path d="M27.125 0.5H26.25V14.5H27.125V0.5Z" fill="white"/>
<path d="M28.875 0.5H28V14.5H28.875V0.5Z" fill="white"/>
<path d="M25.375 0.5H23.625V14.5H25.375V0.5Z" fill="white"/>
<path d="M59.5 0.5H58.625V14.5H59.5V0.5Z" fill="white"/>
<path d="M64.75 0.5H63.875V14.5H64.75V0.5Z" fill="white"/>
<path d="M63 0.5H61.25V14.5H63V0.5Z" fill="white"/>
<path d="M30.625 0.5H29.75V14.5H30.625V0.5Z" fill="white"/>
<path d="M35.875 0.5H35V14.5H35.875V0.5Z" fill="white"/>
<path d="M37.625 0.5H36.75V14.5H37.625V0.5Z" fill="white"/>
<path d="M34.125 0.5H32.375V14.5H34.125V0.5Z" fill="white"/>
<path d="M38.5 0.5H37.625V14.5H38.5V0.5Z" fill="white"/>
<path d="M43.75 0.5H42.875V14.5H43.75V0.5Z" fill="white"/>
<path d="M45.5 0.5H44.625V14.5H45.5V0.5Z" fill="white"/>
<path d="M42 0.5H40.25V14.5H42V0.5Z" fill="white"/>
<path d="M49 0.5H48.125V14.5H49V0.5Z" fill="white"/>
<path d="M50.75 0.5H49.875V14.5H50.75V0.5Z" fill="white"/>
<path d="M47.25 0.5H45.5V14.5H47.25V0.5Z" fill="white"/>
<path d="M51.625 0.5H50.75V14.5H51.625V0.5Z" fill="white"/>
<path d="M56.875 0.5H56V14.5H56.875V0.5Z" fill="white"/>
<path d="M58.625 0.5H57.75V14.5H58.625V0.5Z" fill="white"/>
<path d="M55.125 0.5H53.375V14.5H55.125V0.5Z" fill="white"/>
</g>
<defs>
<clipPath id="clip0_2_3729">
<rect width="64.75" height="14" fill="white" transform="translate(0 0.5)"/>
</clipPath>
</defs>
</svg>
