<svg width="24" height="25" viewBox="0 0 24 25" fill="none" xmlns="http://www.w3.org/2000/svg">
<path d="M23.3821 22.5409L19.3718 18.6201L19.2778 18.4772C19.1031 18.3032 18.8641 18.2052 18.6147 18.2052C18.3653 18.2052 18.1263 18.3032 17.9515 18.4772C14.5434 21.6039 9.29182 21.7738 5.67966 18.8743C2.06749 15.9748 1.2156 10.9056 3.68895 7.02853C6.1623 3.15146 11.1934 1.66965 15.4456 3.56582C19.6979 5.46199 21.8518 10.1478 20.4788 14.5155C20.38 14.8311 20.4608 15.1742 20.6908 15.4157C20.9209 15.6572 21.2653 15.7603 21.5942 15.6863C21.9231 15.6122 22.1867 15.3722 22.2856 15.0567C23.9268 9.87341 21.448 4.29547 16.4528 1.93123C11.4576 -0.433017 5.44496 1.12596 2.30455 5.59965C-0.835867 10.0733 -0.16164 16.1192 3.89107 19.8261C7.94378 23.533 14.1587 23.7885 18.5155 20.4274L22.0662 23.8989C22.433 24.2559 23.0258 24.2559 23.3926 23.8989C23.7589 23.5369 23.7589 22.954 23.3926 22.592L23.3821 22.5409Z" fill="#8196B3"/>
</svg>
