<svg width="13" height="13" viewBox="0 0 13 13" fill="none" xmlns="http://www.w3.org/2000/svg">
<path fill-rule="evenodd" clip-rule="evenodd" d="M4.58863 3.29654C4.0741 3.58172 3.44296 3.57762 2.93235 3.28579L2.90987 3.26383C2.68011 3.12437 2.60964 2.82943 2.75246 2.60507C2.89528 2.38071 3.19731 2.3119 3.42706 2.45136C3.52961 2.5098 3.64566 2.5419 3.76436 2.54469C3.9463 2.55212 4.12379 2.48859 4.25772 2.3681C4.39164 2.24762 4.47101 2.08007 4.47831 1.90239C4.47485 1.00965 5.20042 0.276776 6.11421 0.25H6.88438C7.81581 0.25 8.57088 0.987344 8.57088 1.8969C8.56937 2.01267 8.60048 2.12662 8.66083 2.22628C8.75037 2.38058 8.89937 2.4935 9.07465 2.5399C9.24994 2.5863 9.43694 2.56233 9.59402 2.47332C10.3854 2.05261 11.3757 2.31371 11.8427 3.06621C11.9718 3.29585 11.8924 3.58402 11.6628 3.71948C11.4295 3.84955 11.1325 3.774 10.9938 3.5493C10.8033 3.23242 10.3869 3.12464 10.0606 3.30775C9.54438 3.58379 8.91811 3.57705 8.40822 3.28997C7.89834 3.00288 7.5786 2.47698 7.5646 1.90239C7.5707 1.72245 7.50173 1.5478 7.3735 1.41844C7.24527 1.28907 7.06875 1.21609 6.88438 1.21618H6.11421C5.92936 1.21613 5.7523 1.28895 5.62319 1.41813C5.49407 1.54732 5.42382 1.72193 5.42837 1.90239C5.42316 2.48011 5.10317 3.01137 4.58863 3.29654ZM5.42837 11.1196C5.43146 11.4873 5.73762 11.7838 6.11421 11.7838L6.10859 11.7948C6.28332 11.7948 6.44478 11.8858 6.53215 12.0336C6.61952 12.1814 6.61952 12.3634 6.53215 12.5112C6.44478 12.659 6.28332 12.75 6.10859 12.75C5.17716 12.75 4.42209 12.0127 4.42209 11.1031C4.42361 10.9873 4.39249 10.8734 4.33215 10.7737C4.14353 10.4548 3.72666 10.3445 3.39895 10.5267C2.60756 10.9474 1.61729 10.6863 1.15028 9.93379L0.768012 9.28052C0.337189 8.50771 0.60456 7.5407 1.37515 7.08465C1.47729 7.02598 1.56242 6.94284 1.6225 6.84311C1.73525 6.68965 1.77577 6.49658 1.73392 6.31218C1.69208 6.12779 1.57184 5.96951 1.40326 5.87692C0.632669 5.42088 0.365298 4.45386 0.79612 3.68105C0.868207 3.57522 0.980516 3.50182 1.10818 3.47709C1.23585 3.45237 1.36835 3.47835 1.47634 3.5493C1.68967 3.69095 1.75152 3.97121 1.61688 4.1861C1.43082 4.50447 1.54403 4.90985 1.86986 5.0919C2.11466 5.23838 2.31616 5.44461 2.45451 5.69027C2.88533 6.46308 2.61796 7.4301 1.84737 7.88614C1.52155 8.06819 1.40833 8.47357 1.5944 8.79194L1.98229 9.44521C2.07055 9.60089 2.22002 9.71467 2.39616 9.76026C2.57229 9.80585 2.75985 9.7793 2.91549 9.68676C3.16643 9.54463 3.45178 9.4707 3.74187 9.47266C4.6733 9.47266 5.42837 10.21 5.42837 11.1196ZM11.6178 7.07916C11.4608 6.9908 11.3463 6.84489 11.2999 6.6738C11.2535 6.50271 11.2789 6.3206 11.3705 6.16787C11.4306 6.06814 11.5157 5.985 11.6178 5.92633C11.8485 5.79098 11.9239 5.49904 11.7865 5.27306C11.6499 5.04999 11.3584 4.97038 11.1231 5.0919C10.3525 5.54794 10.0852 6.51496 10.516 7.28777C10.6528 7.55775 10.8653 7.78428 11.1287 7.94104C11.2854 8.02834 11.3997 8.17327 11.4462 8.34347C11.4927 8.51367 11.4674 8.69495 11.3761 8.84684L10.9938 9.50011C10.9018 9.65299 10.7527 9.76513 10.5778 9.81302C10.4026 9.85865 10.216 9.8329 10.0606 9.74166C9.54351 9.4652 8.9161 9.4725 8.40588 9.7609C7.89565 10.0493 7.57668 10.5769 7.5646 11.1525C7.59152 11.398 7.80366 11.5842 8.0565 11.5842C8.30933 11.5842 8.52148 11.398 8.54839 11.1525C8.54375 10.9127 8.67298 10.6893 8.88576 10.5694C9.09854 10.4496 9.36124 10.4521 9.57154 10.5761C10.3629 10.9968 11.3532 10.7357 11.8202 9.9832L12.2025 9.32993C12.6745 8.55032 12.4133 7.5448 11.6178 7.07916ZM6.49649 4.43862C5.64104 4.43862 4.86994 4.94212 4.54311 5.71411C4.21627 6.48609 4.39815 7.37433 5.00384 7.96423C5.60953 8.55413 6.51961 8.72937 7.30928 8.40816C8.09895 8.08694 8.61251 7.3326 8.61023 6.49725C8.61023 5.95031 8.38736 5.42586 7.99079 5.03963C7.59422 4.65341 7.05657 4.43716 6.49649 4.43862ZM6.49649 7.60067C5.87553 7.60067 5.37215 7.10911 5.37215 6.50273C5.37215 5.89636 5.87553 5.4048 6.49649 5.4048C7.11744 5.4048 7.62082 5.89636 7.62082 6.50273C7.62082 7.10911 7.11744 7.60067 6.49649 7.60067Z" fill="white"/>
</svg>
