<svg width="24" height="24" viewBox="0 0 24 24" fill="none" xmlns="http://www.w3.org/2000/svg">
<path fill-rule="evenodd" clip-rule="evenodd" d="M8.43244 6.02023C7.47198 6.55255 6.29385 6.54491 5.34072 6.00016L5.29874 5.95917C4.86987 5.69883 4.73832 5.14828 5.00491 4.72948C5.27151 4.31068 5.8353 4.18221 6.26417 4.44255C6.4556 4.55163 6.67222 4.61157 6.89379 4.61676C7.23341 4.63063 7.56473 4.51204 7.81473 4.28714C8.06473 4.06223 8.21287 3.74948 8.2265 3.41781C8.22005 1.75136 9.57443 0.383325 11.2802 0.333344H12.7178C14.4565 0.333344 15.866 1.70972 15.866 3.40756C15.8631 3.62367 15.9212 3.83637 16.0339 4.02241C16.201 4.31042 16.4791 4.52121 16.8063 4.60782C17.1335 4.69444 17.4826 4.64969 17.7758 4.48354C19.2531 3.69822 21.1016 4.1856 21.9733 5.59026C22.2143 6.01892 22.0661 6.55685 21.6375 6.8097C21.202 7.0525 20.6476 6.91148 20.3888 6.49203C20.0331 5.90053 19.2558 5.69933 18.6468 6.04115C17.6832 6.55643 16.5141 6.54384 15.5623 6.00795C14.6106 5.47205 14.0137 4.49038 13.9876 3.41781C13.999 3.08192 13.8702 2.7559 13.6309 2.51442C13.3915 2.27295 13.062 2.1367 12.7178 2.13689H11.2802C10.9351 2.13678 10.6046 2.27271 10.3636 2.51386C10.1226 2.755 9.99146 3.08095 9.99995 3.41781C9.99022 4.49622 9.39291 5.4879 8.43244 6.02023ZM9.99995 20.6232C10.0057 21.3097 10.5772 21.8632 11.2802 21.8631L11.2697 21.8836C11.5959 21.8836 11.8973 22.0536 12.0603 22.3294C12.2234 22.6052 12.2234 22.9451 12.0603 23.2209C11.8973 23.4968 11.5959 23.6667 11.2697 23.6667C9.53103 23.6667 8.12156 22.2903 8.12156 20.5925C8.12439 20.3764 8.06631 20.1636 7.95366 19.9776C7.60157 19.3824 6.82343 19.1764 6.2117 19.5165C4.73443 20.3018 2.88594 19.8144 2.01419 18.4098L1.30061 17.1903C0.496412 15.7477 0.995505 13.9426 2.43394 13.0914C2.62459 12.9818 2.7835 12.8266 2.89567 12.6405C3.10612 12.354 3.18176 11.9936 3.10365 11.6494C3.02555 11.3052 2.80109 11.0098 2.48641 10.8369C1.04797 9.98564 0.548881 8.18055 1.35308 6.73797C1.48764 6.54043 1.69729 6.40341 1.9356 6.35725C2.17392 6.31109 2.42124 6.3596 2.62283 6.49203C3.02104 6.75645 3.1365 7.27961 2.88517 7.68073C2.53785 8.27503 2.74919 9.03174 3.35739 9.37155C3.81435 9.64499 4.19048 10.03 4.44874 10.4885C5.25295 11.9311 4.75385 13.7362 3.31542 14.5875C2.70721 14.9273 2.49588 15.684 2.8432 16.2783L3.56727 17.4977C3.73202 17.7883 4.01103 18.0007 4.33982 18.0858C4.66861 18.1709 5.01872 18.1214 5.30923 17.9486C5.77767 17.6833 6.31031 17.5453 6.85182 17.549C8.59048 17.549 9.99995 18.9254 9.99995 20.6232ZM21.5536 13.0811C21.2604 12.9162 21.0468 12.6438 20.9601 12.3244C20.8734 12.0051 20.9209 11.6651 21.0919 11.38C21.204 11.1939 21.3629 11.0387 21.5536 10.9292C21.9842 10.6765 22.1249 10.1315 21.8684 9.70972C21.6135 9.29332 21.0693 9.14472 20.6301 9.37155C19.1917 10.2228 18.6926 12.0279 19.4968 13.4705C19.7523 13.9745 20.1489 14.3973 20.6406 14.69C20.9331 14.8529 21.1465 15.1235 21.2333 15.4412C21.32 15.7589 21.2729 16.0973 21.1024 16.3808L20.3888 17.6002C20.217 17.8856 19.9387 18.0949 19.6122 18.1843C19.2852 18.2695 18.9368 18.2214 18.6468 18.0511C17.6815 17.5351 16.5104 17.5487 15.558 18.087C14.6055 18.6254 14.0101 19.6103 13.9876 20.6847C14.0378 21.1429 14.4338 21.4905 14.9058 21.4905C15.3777 21.4905 15.7738 21.1429 15.824 20.6847C15.8153 20.237 16.0565 19.82 16.4537 19.5963C16.8509 19.3725 17.3413 19.3773 17.7339 19.6087C19.2111 20.394 21.0596 19.9067 21.9314 18.502L22.6449 17.2825C23.5261 15.8273 23.0385 13.9503 21.5536 13.0811ZM11.9938 8.1521C10.3969 8.1521 8.95755 9.09197 8.34746 10.533C7.73737 11.974 8.07687 13.6321 9.2075 14.7332C10.3381 15.8344 12.0369 16.1615 13.511 15.5619C14.985 14.9623 15.9437 13.5542 15.9394 11.9949C15.9394 10.9739 15.5234 9.99495 14.7831 9.27399C14.0429 8.55304 13.0393 8.14937 11.9938 8.1521ZM11.9938 14.0546C10.8347 14.0546 9.89501 13.137 9.89501 12.0051C9.89501 10.8732 10.8347 9.95564 11.9938 9.95564C13.1529 9.95564 14.0925 10.8732 14.0925 12.0051C14.0925 13.137 13.1529 14.0546 11.9938 14.0546Z" fill="#4F4F4F"/>
</svg>
