<svg width="80" height="77" viewBox="0 0 80 77" fill="none" xmlns="http://www.w3.org/2000/svg">
<path opacity="0.4" d="M56.9767 76.4173H23.0324C9.75768 76.4173 0.839844 67.4041 0.839844 53.9869V23.0182C0.839844 9.601 9.75768 0.583984 23.0324 0.583984H56.9806C70.2553 0.583984 79.1732 9.601 79.1732 23.0182V53.9869C79.1732 67.4041 70.2553 76.4173 56.9767 76.4173Z" fill="#9EA8B7"/>
<path fill-rule="evenodd" clip-rule="evenodd" d="M37.0573 25.8929C37.0573 31.0875 32.6903 35.3152 27.3244 35.3152C21.9547 35.3152 17.5915 31.0875 17.5915 25.8929C17.5915 20.6983 21.9547 16.4668 27.3244 16.4668C32.6903 16.4668 37.0573 20.6983 37.0573 25.8929ZM68.9934 46.4157C69.906 47.2726 70.5601 48.2508 70.9909 49.2935C72.2952 52.4482 71.6176 56.2399 70.2232 59.3642C68.5704 63.0838 65.4057 65.8934 61.4186 67.1219C59.6482 67.6717 57.7917 67.9068 55.9392 67.9068H23.1136C19.8471 67.9068 16.9566 67.1712 14.587 65.7911C13.1026 64.9266 12.8402 62.9359 13.9407 61.6392C15.7816 59.4779 17.5989 57.3091 19.4319 55.1213C22.9256 50.9353 25.2795 49.722 27.8958 50.7874C28.9572 51.2273 30.0226 51.8908 31.1192 52.5885C34.0411 54.4616 38.1027 57.0323 43.4528 54.2417C47.1099 52.3058 49.2328 48.9931 51.0805 46.1098L51.1177 46.0517C51.2421 45.8587 51.3654 45.6658 51.4883 45.4735C52.1166 44.4907 52.7354 43.5227 53.4364 42.6316C54.3059 41.5282 57.5332 38.0778 61.7045 40.5348C64.3639 42.0818 66.6003 44.1748 68.9934 46.4157Z" fill="#9EA8B7"/>
</svg>
