
<svg width="17" height="17" viewBox="0 0 17 17" fill="none" xmlns="http://www.w3.org/2000/svg">
<path d="M16.6667 5.10242C16.6707 5.04971 16.6707 4.99678 16.6667 4.94407L15 0.777085C14.9349 0.612369 14.819 0.472676 14.6692 0.378268C14.5194 0.28386 14.3433 0.239648 14.1667 0.252045H2.5C2.3331 0.251883 2.17 0.301844 2.03182 0.395456C1.89364 0.489069 1.78675 0.622019 1.725 0.777085L0.0583333 4.94407C0.0543164 4.99678 0.0543164 5.04971 0.0583333 5.10242C0.0306423 5.14881 0.0109246 5.19952 0 5.25243C0.00927549 5.82851 0.167688 6.39235 0.459787 6.88896C0.751886 7.38556 1.1677 7.79798 1.66667 8.08598V16.0866C1.66667 16.3076 1.75446 16.5196 1.91074 16.6759C2.06702 16.8322 2.27899 16.92 2.5 16.92H14.1667C14.3877 16.92 14.5996 16.8322 14.7559 16.6759C14.9122 16.5196 15 16.3076 15 16.0866V8.11932C15.5038 7.82845 15.9227 7.41078 16.2151 6.90784C16.5075 6.4049 16.6632 5.83419 16.6667 5.25243C16.6745 5.20273 16.6745 5.15212 16.6667 5.10242ZM9.16667 15.2532H7.5V11.9196H9.16667V15.2532ZM13.3333 15.2532H10.8333V11.0862C10.8333 10.8652 10.7455 10.6532 10.5893 10.4969C10.433 10.3406 10.221 10.2528 10 10.2528H6.66667C6.44565 10.2528 6.23369 10.3406 6.07741 10.4969C5.92113 10.6532 5.83333 10.8652 5.83333 11.0862V15.2532H3.33333V8.58602C3.80789 8.58334 4.27641 8.47936 4.70754 8.28102C5.13868 8.08268 5.5225 7.79456 5.83333 7.43593C6.14614 7.79065 6.53084 8.07474 6.96187 8.26933C7.39291 8.46392 7.86042 8.56456 8.33333 8.56456C8.80625 8.56456 9.27376 8.46392 9.70479 8.26933C10.1358 8.07474 10.5205 7.79065 10.8333 7.43593C11.1442 7.79456 11.528 8.08268 11.9591 8.28102C12.3903 8.47936 12.8588 8.58334 13.3333 8.58602V15.2532ZM13.3333 6.91923C12.8913 6.91923 12.4674 6.74362 12.1548 6.43103C11.8423 6.11845 11.6667 5.69449 11.6667 5.25243C11.6667 5.0314 11.5789 4.81942 11.4226 4.66313C11.2663 4.50684 11.0543 4.41903 10.8333 4.41903C10.6123 4.41903 10.4004 4.50684 10.2441 4.66313C10.0878 4.81942 10 5.0314 10 5.25243C10 5.69449 9.82441 6.11845 9.51184 6.43103C9.19928 6.74362 8.77536 6.91923 8.33333 6.91923C7.89131 6.91923 7.46738 6.74362 7.15482 6.43103C6.84226 6.11845 6.66667 5.69449 6.66667 5.25243C6.66667 5.0314 6.57887 4.81942 6.42259 4.66313C6.26631 4.50684 6.05435 4.41903 5.83333 4.41903C5.61232 4.41903 5.40036 4.50684 5.24408 4.66313C5.0878 4.81942 5 5.0314 5 5.25243C5.00821 5.47132 4.97323 5.68968 4.89705 5.89504C4.82088 6.10041 4.705 6.28876 4.55604 6.44934C4.40708 6.60992 4.22795 6.73959 4.02888 6.83094C3.82981 6.92228 3.6147 6.97352 3.39583 6.98173C2.95381 6.99831 2.5233 6.8386 2.19902 6.53774C2.03845 6.38876 1.90879 6.20962 1.81745 6.01054C1.72611 5.81145 1.67487 5.59633 1.66667 5.37744L3.06667 1.91884H13.6L15 5.37744C14.9684 5.79749 14.779 6.19 14.4698 6.47603C14.1606 6.76207 13.7545 6.92041 13.3333 6.91923Z" fill="#607087"/>
</svg>
