<svg width="190" height="190" viewBox="0 0 190 190" fill="none" xmlns="http://www.w3.org/2000/svg">
<path d="M126.582 13.6377C126.582 13.6377 98.6711 5.41831 71.1097 22.0395C43.5483 38.6607 29.4959 69.6649 17.4385 94.5359C5.38115 119.407 12.0653 143.776 32.9501 154.01C53.8349 164.243 68.2027 146.938 97.6147 144.685C127.027 142.431 134.908 146.094 159.414 128.877C183.92 111.659 188.583 73.6017 169.518 46.5495C150.454 19.4973 126.582 13.6377 126.582 13.6377Z" fill="#FFBE62"/>
<path opacity="0.7" d="M126.582 13.6377C126.582 13.6377 98.6711 5.41831 71.1097 22.0395C43.5483 38.6607 29.4959 69.6649 17.4385 94.5359C5.38115 119.407 12.0653 143.776 32.9501 154.01C53.8349 164.243 68.2027 146.938 97.6147 144.685C127.027 142.431 134.908 146.094 159.414 128.877C183.92 111.659 188.583 73.6017 169.518 46.5495C150.454 19.4973 126.582 13.6377 126.582 13.6377Z" fill="white"/>
<path d="M173.516 85.3711H20.8848V92.4467H173.516V85.3711Z" fill="#130F26"/>
<path d="M175.56 39.1406H18.6201V89.6806H175.56V39.1406Z" fill="white"/>
<mask id="mask0_22378_71914" style="mask-type:luminance" maskUnits="userSpaceOnUse" x="18" y="39" width="158" height="51">
<path d="M175.56 39.1406H18.6201V89.6806H175.56V39.1406Z" fill="white"/>
</mask>
<g mask="url(#mask0_22378_71914)">
<path d="M69.6774 39.1406V64.46H65.7634C60.8234 64.9806 57.9392 61.0704 58.9842 55.0702C60.0292 49.07 43.0736 58.4636 39.1634 55.0702C36.3932 52.6724 46.1668 44.0046 52.1138 39.1406H69.6774ZM146.745 52.8586C149.637 59.6986 180.242 40.6606 173.421 51.6198C166.6 62.579 159.566 70.0232 174.869 66.7172L175.561 66.5538V39.1406H161.041C154.098 42.762 144.902 48.519 146.745 52.8586Z" fill="#FFBE62"/>
<path opacity="0.5" d="M69.6774 39.1406V64.46H65.7634C60.8234 64.9806 57.9392 61.0704 58.9842 55.0702C60.0292 49.07 43.0736 58.4636 39.1634 55.0702C36.3932 52.6724 46.1668 44.0046 52.1138 39.1406H69.6774ZM146.745 52.8586C149.637 59.6986 180.242 40.6606 173.421 51.6198C166.6 62.579 159.566 70.0232 174.869 66.7172L175.561 66.5538V39.1406H161.041C154.098 42.762 144.902 48.519 146.745 52.8586Z" fill="white"/>
</g>
<path d="M175.56 39.1406H18.6201V89.6806H175.56V39.1406Z" stroke="#130F26" stroke-width="0.3" stroke-linecap="round" stroke-linejoin="round"/>
<path d="M124.598 39.1406H69.5781V89.6806H124.598V39.1406Z" fill="white"/>
<mask id="mask1_22378_71914" style="mask-type:luminance" maskUnits="userSpaceOnUse" x="69" y="39" width="56" height="51">
<path d="M124.598 39.1406H69.5781V89.6806H124.598V39.1406Z" fill="white"/>
</mask>
<g mask="url(#mask1_22378_71914)">
<path d="M106.241 66.1224C100.21 69.3448 82.7946 83.4086 75.1338 89.6824H124.602V39.7656C118.142 42.3952 93.522 52.6628 92.1654 56.6224C90.5998 61.1824 114.061 61.9424 106.241 66.1224Z" fill="#FFBE62"/>
<path opacity="0.5" d="M106.241 66.1224C100.21 69.3448 82.7946 83.4086 75.1338 89.6824H124.602V39.7656C118.142 42.3952 93.522 52.6628 92.1654 56.6224C90.5998 61.1824 114.061 61.9424 106.241 66.1224Z" fill="white"/>
</g>
<path d="M124.598 39.1406H69.5781V89.6806H124.598V39.1406Z" stroke="#130F26" stroke-width="0.3" stroke-linecap="round" stroke-linejoin="round"/>
<path d="M128.227 58.3716C129.857 61.9512 134.44 64.6948 136.648 65.3598C136.648 65.3598 142.561 67.427 146.995 63.9994C151.43 60.5718 152.406 53.9218 148.223 47.4466C144.039 40.9714 135.101 42.366 131.271 46.0102C127.44 49.6544 126.601 54.792 128.227 58.3716ZM140.6 52.4398C142.04 53.6938 142.12 55.4798 140.695 56.3424C140.294 56.5718 139.839 56.6886 139.378 56.6806C138.916 56.6726 138.465 56.54 138.073 56.2968C137.626 56.0539 137.286 55.6522 137.121 55.1709C136.955 54.6897 136.976 54.164 137.18 53.6976C137.598 52.6792 139.171 51.182 140.6 52.4398Z" fill="white" stroke="#130F26" stroke-width="0.3" stroke-miterlimit="10"/>
<path d="M131.48 46.5172C130.926 48.2918 130.656 48.7972 129.74 49.6712C128.824 50.5452 128.338 52.0006 128.448 52.7682C128.579 53.679 128.62 54.6006 128.57 55.5194C128.549 56.1495 128.676 56.7757 128.94 57.3483C129.204 57.9209 129.597 58.424 130.09 58.8178C130.9 59.4085 131.596 60.141 132.145 60.98C132.947 62.0858 132.685 62.3366 133.886 62.9408C135.087 63.545 137.355 64.7534 137.355 64.7534C137.355 64.7534 139.947 65.8934 141.11 65.4222C142.272 64.951 143.656 63.2524 144.56 62.8914C145.464 62.5304 145.886 63.4994 147.083 61.7514C148.28 60.0034 148.63 58.6582 149.363 57.9704C150.097 57.2826 150.271 54.862 149.276 53.817C148.271 52.8489 147.684 51.5259 147.642 50.131C147.494 48.402 147.007 47.3646 145.172 46.7452C143.336 46.1258 141.965 44.5564 141.277 43.9636C140.589 43.3708 138.731 43.5152 137.564 44.1232C136.398 44.7312 135.337 43.7432 134.11 44.2942C133.73 44.469 133.35 44.5792 133.05 44.7046C132.725 44.895 132.41 45.1031 132.107 45.3278C131.818 45.6766 131.605 46.0816 131.48 46.5172ZM137.34 52.8214C138.1 52.9658 138.522 51.5712 139.863 51.5408C141.205 51.5104 140.422 52.259 140.623 52.4528C140.936 52.7217 141.2 53.0417 141.406 53.399C141.635 53.6918 141.789 54.0362 141.854 54.4022C141.832 55.0254 142.02 55.6381 142.386 56.1426C142.816 56.7278 141.858 56.7696 141.022 56.9406C140.186 57.1116 140.125 57.0432 139.472 57.5372C138.818 58.0312 137.883 57.18 137.883 57.18C137.883 57.18 137.313 56.9748 136.762 56.002C136.211 55.0292 136.793 54.862 136.299 54.0716C135.805 53.2812 136.576 52.6542 137.34 52.8214Z" fill="white" stroke="#130F26" stroke-width="0.3" stroke-miterlimit="10"/>
<path d="M137.697 48.1349C138.062 48.1349 138.359 47.8389 138.359 47.4737C138.359 47.1085 138.062 46.8125 137.697 46.8125C137.332 46.8125 137.036 47.1085 137.036 47.4737C137.036 47.8389 137.332 48.1349 137.697 48.1349Z" fill="white" stroke="#130F26" stroke-width="0.3" stroke-miterlimit="10"/>
<path d="M133.726 49.3669C133.884 49.3669 134.011 49.2393 134.011 49.0819C134.011 48.9245 133.884 48.7969 133.726 48.7969C133.569 48.7969 133.441 48.9245 133.441 49.0819C133.441 49.2393 133.569 49.3669 133.726 49.3669Z" fill="white" stroke="#130F26" stroke-width="0.3" stroke-miterlimit="10"/>
<path d="M135.379 46.2418C135.614 46.2418 135.804 46.0513 135.804 45.8162C135.804 45.5812 135.614 45.3906 135.379 45.3906C135.144 45.3906 134.953 45.5812 134.953 45.8162C134.953 46.0513 135.144 46.2418 135.379 46.2418Z" fill="white" stroke="#130F26" stroke-width="0.3" stroke-miterlimit="10"/>
<path d="M133.346 52.3928C133.346 52.5431 133.302 52.6901 133.218 52.815C133.135 52.94 133.016 53.0374 132.877 53.095C132.738 53.1525 132.585 53.1675 132.438 53.1382C132.29 53.1089 132.155 53.0365 132.049 52.9302C131.942 52.8239 131.87 52.6885 131.841 52.5411C131.811 52.3937 131.827 52.2408 131.884 52.102C131.942 51.9631 132.039 51.8444 132.164 51.7609C132.289 51.6774 132.436 51.6328 132.586 51.6328C132.788 51.6328 132.981 51.7129 133.124 51.8554C133.266 51.9979 133.346 52.1912 133.346 52.3928Z" fill="white" stroke="#130F26" stroke-width="0.3" stroke-miterlimit="10"/>
<path d="M142.143 49.9815C142.143 50.0845 142.112 50.1852 142.055 50.2708C141.998 50.3564 141.917 50.4231 141.821 50.4625C141.726 50.5019 141.622 50.5122 141.521 50.4921C141.42 50.4721 141.327 50.4225 141.254 50.3497C141.181 50.2769 141.132 50.1841 141.112 50.0831C141.091 49.9821 141.102 49.8775 141.141 49.7823C141.181 49.6872 141.247 49.6059 141.333 49.5487C141.419 49.4915 141.519 49.461 141.622 49.461C141.691 49.4604 141.759 49.4736 141.822 49.4996C141.885 49.5255 141.943 49.5639 141.991 49.6123C142.04 49.6607 142.078 49.7183 142.104 49.7817C142.13 49.8451 142.143 49.913 142.143 49.9815Z" fill="white" stroke="#130F26" stroke-width="0.3" stroke-miterlimit="10"/>
<path d="M142.003 47.2848C142.238 47.2848 142.428 47.0942 142.428 46.8592C142.428 46.6241 142.238 46.4336 142.003 46.4336C141.768 46.4336 141.577 46.6241 141.577 46.8592C141.577 47.0942 141.768 47.2848 142.003 47.2848Z" fill="white" stroke="#130F26" stroke-width="0.3" stroke-miterlimit="10"/>
<path d="M145.92 50.4515C145.92 50.5733 145.884 50.6923 145.816 50.7936C145.748 50.8948 145.652 50.9737 145.54 51.0203C145.427 51.0669 145.303 51.0791 145.184 51.0553C145.065 51.0316 144.955 50.9729 144.869 50.8868C144.783 50.8007 144.724 50.6911 144.7 50.5716C144.677 50.4522 144.689 50.3284 144.735 50.216C144.782 50.1035 144.861 50.0073 144.962 49.9397C145.063 49.872 145.182 49.8359 145.304 49.8359C145.467 49.8369 145.623 49.9021 145.738 50.0173C145.854 50.1326 145.919 50.2886 145.92 50.4515Z" fill="white" stroke="#130F26" stroke-width="0.3" stroke-miterlimit="10"/>
<path d="M146.68 55.6573C146.68 55.7603 146.649 55.8609 146.592 55.9465C146.535 56.0322 146.454 56.0989 146.358 56.1383C146.263 56.1777 146.159 56.188 146.058 56.1679C145.957 56.1478 145.864 56.0982 145.791 56.0254C145.718 55.9526 145.669 55.8599 145.649 55.7589C145.629 55.6579 145.639 55.5532 145.678 55.4581C145.718 55.363 145.784 55.2817 145.87 55.2245C145.956 55.1673 146.056 55.1367 146.159 55.1367C146.297 55.1367 146.43 55.1916 146.527 55.2892C146.625 55.3868 146.68 55.5193 146.68 55.6573Z" fill="white" stroke="#130F26" stroke-width="0.3" stroke-miterlimit="10"/>
<path d="M143.469 60.9998C143.47 61.1127 143.437 61.2233 143.375 61.3175C143.313 61.4117 143.224 61.4854 143.12 61.5291C143.016 61.5728 142.901 61.5847 142.79 61.5631C142.679 61.5415 142.577 61.4876 142.497 61.408C142.417 61.3284 142.363 61.2269 142.34 61.1162C142.318 61.0055 142.329 60.8907 142.372 60.7864C142.415 60.682 142.488 60.5927 142.582 60.5299C142.676 60.4671 142.786 60.4336 142.899 60.4336C143.05 60.4336 143.194 60.4931 143.301 60.5992C143.408 60.7053 143.468 60.8493 143.469 60.9998Z" fill="white" stroke="#130F26" stroke-width="0.3" stroke-miterlimit="10"/>
<path d="M136.845 62.7024C137.315 62.7024 137.697 62.3213 137.697 61.8512C137.697 61.3811 137.315 61 136.845 61C136.375 61 135.994 61.3811 135.994 61.8512C135.994 62.3213 136.375 62.7024 136.845 62.7024Z" fill="white" stroke="#130F26" stroke-width="0.3" stroke-miterlimit="10"/>
<path d="M133.677 57.1207C133.912 57.1207 134.102 56.9302 134.102 56.6951C134.102 56.4601 133.912 56.2695 133.677 56.2695C133.442 56.2695 133.251 56.4601 133.251 56.6951C133.251 56.9302 133.442 57.1207 133.677 57.1207Z" fill="white" stroke="#130F26" stroke-width="0.3" stroke-miterlimit="10"/>
<path d="M138.267 58.8253C138.267 58.9005 138.245 58.9739 138.203 59.0364C138.161 59.0989 138.102 59.1476 138.032 59.1764C137.963 59.2051 137.886 59.2127 137.813 59.198C137.739 59.1834 137.671 59.1472 137.618 59.094C137.565 59.0409 137.529 58.9732 137.514 58.8994C137.499 58.8257 137.507 58.7493 137.536 58.6799C137.565 58.6105 137.613 58.5511 137.676 58.5094C137.738 58.4676 137.812 58.4453 137.887 58.4453C137.988 58.4453 138.084 58.4853 138.156 58.5566C138.227 58.6279 138.267 58.7245 138.267 58.8253Z" fill="white" stroke="#130F26" stroke-width="0.3" stroke-miterlimit="10"/>
<path d="M130.792 54.7212C130.792 54.7866 130.773 54.8505 130.736 54.9049C130.7 54.9593 130.648 55.0016 130.588 55.0267C130.528 55.0517 130.461 55.0582 130.397 55.0455C130.333 55.0327 130.274 55.0012 130.228 54.955C130.181 54.9088 130.15 54.8498 130.137 54.7857C130.124 54.7216 130.131 54.6551 130.156 54.5947C130.181 54.5343 130.223 54.4827 130.278 54.4463C130.332 54.41 130.396 54.3906 130.461 54.3906C130.549 54.3906 130.633 54.4255 130.695 54.4875C130.757 54.5495 130.792 54.6335 130.792 54.7212Z" fill="white" stroke="#130F26" stroke-width="0.3" stroke-miterlimit="10"/>
<path d="M133.441 46.1522C133.441 46.2086 133.424 46.2637 133.393 46.3106C133.362 46.3574 133.317 46.3939 133.265 46.4155C133.213 46.4371 133.156 46.4427 133.1 46.4317C133.045 46.4207 132.994 46.3936 132.955 46.3537C132.915 46.3139 132.888 46.2631 132.877 46.2078C132.866 46.1525 132.871 46.0952 132.893 46.0431C132.914 45.9911 132.951 45.9466 132.998 45.9152C133.045 45.8839 133.1 45.8672 133.156 45.8672C133.194 45.8667 133.231 45.8737 133.266 45.8879C133.301 45.902 133.332 45.923 133.359 45.9495C133.385 45.9761 133.406 46.0077 133.42 46.0425C133.435 46.0774 133.442 46.1146 133.441 46.1522Z" fill="white" stroke="#130F26" stroke-width="0.3" stroke-miterlimit="10"/>
<path d="M136.941 49.9816C136.941 50.0125 136.935 50.0432 136.923 50.0717C136.911 50.1003 136.894 50.1263 136.872 50.1482C136.85 50.1701 136.824 50.1874 136.796 50.1993C136.767 50.2111 136.736 50.2172 136.705 50.2172C136.648 50.2099 136.594 50.1817 136.556 50.138C136.517 50.0942 136.496 50.038 136.496 49.9797C136.496 49.9214 136.517 49.8651 136.556 49.8214C136.594 49.7777 136.648 49.7495 136.705 49.7422C136.768 49.7432 136.828 49.7689 136.872 49.8136C136.916 49.8584 136.941 49.9187 136.941 49.9816Z" fill="white" stroke="#130F26" stroke-width="0.3" stroke-miterlimit="10"/>
<path d="M143.846 53.2915C143.846 53.3569 143.826 53.4208 143.79 53.4752C143.754 53.5296 143.702 53.572 143.642 53.597C143.581 53.622 143.515 53.6285 143.451 53.6158C143.387 53.603 143.328 53.5715 143.281 53.5253C143.235 53.4791 143.204 53.4202 143.191 53.356C143.178 53.2919 143.185 53.2254 143.21 53.165C143.235 53.1046 143.277 53.053 143.331 53.0167C143.386 52.9803 143.45 52.9609 143.515 52.9609C143.559 52.9609 143.602 52.9695 143.642 52.9861C143.682 53.0027 143.718 53.0271 143.749 53.0578C143.78 53.0885 143.804 53.1249 143.821 53.165C143.837 53.2051 143.846 53.2481 143.846 53.2915Z" fill="white" stroke="#130F26" stroke-width="0.3" stroke-miterlimit="10"/>
<path d="M146.969 58.6365C146.97 58.7494 146.937 58.86 146.875 58.9542C146.813 59.0485 146.724 59.1221 146.62 59.1658C146.516 59.2096 146.401 59.2214 146.29 59.1998C146.179 59.1783 146.077 59.1243 145.997 59.0447C145.917 58.9652 145.863 58.8636 145.84 58.7529C145.818 58.6423 145.829 58.5275 145.872 58.4231C145.915 58.3187 145.988 58.2295 146.082 58.1667C146.176 58.1039 146.286 58.0703 146.399 58.0703C146.474 58.0698 146.548 58.0841 146.617 58.1123C146.686 58.1406 146.749 58.1822 146.802 58.2348C146.855 58.2874 146.897 58.35 146.926 58.419C146.954 58.4879 146.969 58.5619 146.969 58.6365Z" fill="white" stroke="#130F26" stroke-width="0.3" stroke-miterlimit="10"/>
<path d="M135.709 53.962C135.709 54.0651 135.679 54.1659 135.621 54.2516C135.564 54.3373 135.482 54.4041 135.387 54.4433C135.292 54.4826 135.187 54.4927 135.086 54.4723C134.984 54.4519 134.892 54.402 134.819 54.3288C134.746 54.2556 134.697 54.1625 134.678 54.0612C134.658 53.96 134.669 53.8552 134.709 53.7601C134.749 53.6651 134.816 53.584 134.902 53.5273C134.988 53.4706 135.089 53.4407 135.192 53.4414C135.261 53.4414 135.328 53.4549 135.391 53.4811C135.454 53.5073 135.511 53.5457 135.559 53.5941C135.607 53.6425 135.645 53.6999 135.671 53.7631C135.697 53.8262 135.71 53.8938 135.709 53.962Z" fill="white" stroke="#130F26" stroke-width="0.3" stroke-miterlimit="10"/>
<path d="M133.346 58.6339C133.346 58.7091 133.324 58.7825 133.282 58.845C133.24 58.9075 133.181 58.9562 133.111 58.985C133.042 59.0137 132.966 59.0213 132.892 59.0066C132.818 58.9919 132.75 58.9558 132.697 58.9026C132.644 58.8495 132.608 58.7818 132.593 58.708C132.579 58.6343 132.586 58.5579 132.615 58.4885C132.644 58.419 132.692 58.3597 132.755 58.3179C132.817 58.2762 132.891 58.2539 132.966 58.2539C133.067 58.2539 133.163 58.2939 133.235 58.3652C133.306 58.4365 133.346 58.5331 133.346 58.6339Z" fill="white" stroke="#130F26" stroke-width="0.3" stroke-miterlimit="10"/>
<path d="M131.267 51.5415C131.268 51.6356 131.241 51.7278 131.189 51.8064C131.137 51.885 131.064 51.9465 130.977 51.9831C130.89 52.0196 130.794 52.0295 130.702 52.0116C130.61 51.9937 130.525 51.9488 130.458 51.8825C130.391 51.8163 130.345 51.7316 130.327 51.6394C130.308 51.5471 130.317 51.4514 130.353 51.3644C130.389 51.2774 130.45 51.203 130.528 51.1506C130.606 51.0983 130.698 51.0703 130.792 51.0703C130.918 51.0703 131.038 51.1198 131.127 51.2081C131.216 51.2964 131.266 51.4162 131.267 51.5415Z" fill="white" stroke="#130F26" stroke-width="0.3" stroke-miterlimit="10"/>
<path d="M139.779 45.4882C139.78 45.5448 139.764 45.6002 139.733 45.6476C139.702 45.695 139.658 45.7321 139.606 45.7542C139.554 45.7764 139.496 45.7826 139.441 45.772C139.385 45.7614 139.334 45.7346 139.294 45.6949C139.254 45.6552 139.226 45.6044 139.215 45.549C139.203 45.4937 139.209 45.4362 139.23 45.3839C139.252 45.3316 139.288 45.2868 139.335 45.2553C139.382 45.2239 139.437 45.207 139.494 45.207C139.569 45.207 139.641 45.2365 139.694 45.2892C139.747 45.3418 139.778 45.4133 139.779 45.4882Z" fill="white" stroke="#130F26" stroke-width="0.3" stroke-miterlimit="10"/>
<path d="M43.3694 57.3234C43.2167 57.3087 43.0713 57.2508 42.9502 57.1566C42.8291 57.0624 42.7372 56.9358 42.6854 56.7914C42.2307 55.5338 41.4252 54.4328 40.3643 53.6186C39.3035 52.8045 38.0316 52.3113 36.6992 52.1973C35.3668 52.0834 34.0296 52.3535 32.8459 52.9758C31.6623 53.598 30.6816 54.5463 30.02 55.7084C29.9453 55.8419 29.8342 55.9514 29.6996 56.0241C29.565 56.0967 29.4125 56.1296 29.26 56.1188L28.3822 56.0428C28.2415 56.03 28.1 56.0546 27.9719 56.1141C27.8438 56.1736 27.7337 56.2658 27.6528 56.3815C27.5718 56.4972 27.5228 56.6322 27.5107 56.7729C27.4987 56.9136 27.524 57.055 27.5842 57.1828L29.1536 60.6826C29.279 60.9676 29.4044 61.2526 29.5108 61.5452C29.9929 62.8996 30.8804 64.0726 32.0526 64.9049C33.2248 65.7372 34.6249 66.1883 36.0625 66.1971C37.5001 66.2058 38.9055 65.7716 40.0877 64.9536C41.2699 64.1356 42.1716 62.9734 42.6702 61.625C42.9134 60.96 43.1718 60.295 43.472 59.6528L44.023 58.4748C44.0813 58.3577 44.1099 58.2281 44.1063 58.0974C44.1028 57.9667 44.0672 57.8389 44.0026 57.7251C43.9381 57.6114 43.8465 57.5153 43.7361 57.4452C43.6257 57.3752 43.4998 57.3333 43.3694 57.3234Z" fill="white" stroke="#130F26" stroke-width="0.3" stroke-miterlimit="10"/>
<path d="M43.3691 57.3253C43.2164 57.3105 43.071 57.2527 42.9499 57.1585C42.8288 57.0643 42.737 56.9376 42.6851 56.7932C42.5083 56.3067 42.2776 55.8415 41.9973 55.4062L40.6597 58.7806C38.4201 61.2255 36.0358 63.5337 33.5195 65.6928C34.341 66.0176 35.2164 66.1839 36.0997 66.183H36.3961C38.638 64.7617 40.7615 63.1618 42.7459 61.3989C42.9701 60.8061 43.1981 60.2171 43.4679 59.6471L44.0189 58.469C44.0755 58.3526 44.1029 58.2241 44.0987 58.0947C44.0946 57.9652 44.059 57.8388 43.995 57.7262C43.931 57.6136 43.8406 57.5182 43.7316 57.4484C43.6226 57.3785 43.4982 57.3363 43.3691 57.3253Z" fill="white" stroke="#130F26" stroke-width="0.3" stroke-miterlimit="10"/>
<path d="M36.1076 62.2465C41.8517 62.2465 46.5082 57.59 46.5082 51.8459C46.5082 46.1018 41.8517 41.4453 36.1076 41.4453C30.3635 41.4453 25.707 46.1018 25.707 51.8459C25.707 57.59 30.3635 62.2465 36.1076 62.2465Z" fill="white" stroke="#130F26" stroke-width="0.3" stroke-miterlimit="10"/>
<path d="M36.1073 60.8592C41.0854 60.8592 45.1209 56.8237 45.1209 51.8456C45.1209 46.8676 41.0854 42.832 36.1073 42.832C31.1293 42.832 27.0938 46.8676 27.0938 51.8456C27.0938 56.8237 31.1293 60.8592 36.1073 60.8592Z" fill="white" stroke="#130F26" stroke-width="0.3" stroke-miterlimit="10"/>
<path d="M36.108 58.8429C39.9738 58.8429 43.1076 55.7091 43.1076 51.8433C43.1076 47.9776 39.9738 44.8438 36.108 44.8438C32.2422 44.8438 29.1084 47.9776 29.1084 51.8433C29.1084 55.7091 32.2422 58.8429 36.108 58.8429Z" fill="white" stroke="#130F26" stroke-width="0.3" stroke-miterlimit="10"/>
<path d="M31.6615 46.9648L23.1077 42.6328L22.4199 44.7494L30.5139 48.9674C30.7087 49.1007 30.9391 49.1722 31.1751 49.1726C31.4495 49.1929 31.7221 49.1133 31.9424 48.9484C32.1627 48.7835 32.3159 48.5445 32.3738 48.2755C32.4317 48.0065 32.3903 47.7256 32.2573 47.4847C32.1243 47.2438 31.9086 47.0592 31.6501 46.9648H31.6615Z" fill="white" stroke="#130F26" stroke-width="0.3" stroke-miterlimit="10"/>
<path d="M23.5866 43.5931C23.5866 43.8186 23.5198 44.039 23.3945 44.2265C23.2693 44.4139 23.0912 44.5601 22.8829 44.6463C22.6746 44.7326 22.4454 44.7552 22.2242 44.7112C22.0031 44.6672 21.8 44.5587 21.6405 44.3992C21.4811 44.2398 21.3725 44.0367 21.3285 43.8155C21.2846 43.5944 21.3071 43.3652 21.3934 43.1569C21.4797 42.9486 21.6258 42.7705 21.8133 42.6453C22.0008 42.52 22.2212 42.4531 22.4466 42.4531C22.749 42.4531 23.039 42.5732 23.2527 42.787C23.4665 43.0008 23.5866 43.2908 23.5866 43.5931Z" fill="white" stroke="#130F26" stroke-width="0.3" stroke-miterlimit="10"/>
<path d="M78.2764 45.5352H101.08" stroke="#130F26" stroke-width="0.3" stroke-miterlimit="10"/>
<path d="M107.51 45.5352H117.059" stroke="#130F26" stroke-width="0.3" stroke-miterlimit="10"/>
<path d="M78.2764 49.4297H101.08" stroke="#130F26" stroke-width="0.3" stroke-miterlimit="10"/>
<path d="M107.51 49.4297H117.059" stroke="#130F26" stroke-width="0.3" stroke-miterlimit="10"/>
<path d="M78.2764 53.3281H101.08" stroke="#130F26" stroke-width="0.3" stroke-miterlimit="10"/>
<path d="M107.51 53.3281H117.059" stroke="#130F26" stroke-width="0.3" stroke-miterlimit="10"/>
<path d="M78.2764 57.2305H101.08" stroke="#130F26" stroke-width="0.3" stroke-miterlimit="10"/>
<path d="M107.51 57.2305H117.059" stroke="#130F26" stroke-width="0.3" stroke-miterlimit="10"/>
<path d="M78.2764 61.1289H101.08" stroke="#130F26" stroke-width="0.3" stroke-miterlimit="10"/>
<path d="M107.51 61.1289H117.059" stroke="#130F26" stroke-width="0.3" stroke-miterlimit="10"/>
<path d="M78.2764 69.1133H101.08" stroke="#130F26" stroke-width="0.3" stroke-miterlimit="10"/>
<path d="M107.51 69.1133H117.059" stroke="#130F26" stroke-width="0.3" stroke-miterlimit="10"/>
<path d="M78.2764 73.0156H101.08" stroke="#130F26" stroke-width="0.3" stroke-miterlimit="10"/>
<path d="M107.51 73.0156H117.059" stroke="#130F26" stroke-width="0.3" stroke-miterlimit="10"/>
<path d="M78.2764 76.9141H101.08" stroke="#130F26" stroke-width="0.3" stroke-miterlimit="10"/>
<path d="M107.51 76.9141H117.059" stroke="#130F26" stroke-width="0.3" stroke-miterlimit="10"/>
<path d="M78.2764 80.8125H101.08" stroke="#130F26" stroke-width="0.3" stroke-miterlimit="10"/>
<path d="M107.51 80.8125H117.059" stroke="#130F26" stroke-width="0.3" stroke-miterlimit="10"/>
<path d="M78.2764 84.707H101.08" stroke="#130F26" stroke-width="0.3" stroke-miterlimit="10"/>
<path d="M107.51 84.707H117.059" stroke="#130F26" stroke-width="0.3" stroke-miterlimit="10"/>
<path d="M130.507 69.1133H153.311" stroke="#130F26" stroke-width="0.3" stroke-miterlimit="10"/>
<path d="M159.74 69.1133H169.29" stroke="#130F26" stroke-width="0.3" stroke-miterlimit="10"/>
<path d="M130.507 73.0156H153.311" stroke="#130F26" stroke-width="0.3" stroke-miterlimit="10"/>
<path d="M159.74 73.0156H169.29" stroke="#130F26" stroke-width="0.3" stroke-miterlimit="10"/>
<path d="M130.507 76.9141H153.311" stroke="#130F26" stroke-width="0.3" stroke-miterlimit="10"/>
<path d="M159.74 76.9141H169.29" stroke="#130F26" stroke-width="0.3" stroke-miterlimit="10"/>
<path d="M130.507 80.8125H153.311" stroke="#130F26" stroke-width="0.3" stroke-miterlimit="10"/>
<path d="M159.74 80.8125H169.29" stroke="#130F26" stroke-width="0.3" stroke-miterlimit="10"/>
<path d="M130.507 84.707H153.311" stroke="#130F26" stroke-width="0.3" stroke-miterlimit="10"/>
<path d="M159.74 84.707H169.29" stroke="#130F26" stroke-width="0.3" stroke-miterlimit="10"/>
<path d="M23.9023 69.5078H46.7023" stroke="#130F26" stroke-width="0.3" stroke-miterlimit="10"/>
<path d="M53.1357 69.5078H62.6851" stroke="#130F26" stroke-width="0.3" stroke-miterlimit="10"/>
<path d="M23.9023 73.4062H46.7023" stroke="#130F26" stroke-width="0.3" stroke-miterlimit="10"/>
<path d="M53.1357 73.4062H62.6851" stroke="#130F26" stroke-width="0.3" stroke-miterlimit="10"/>
<path d="M23.9023 77.3047H46.7023" stroke="#130F26" stroke-width="0.3" stroke-miterlimit="10"/>
<path d="M53.1357 77.3047H62.6851" stroke="#130F26" stroke-width="0.3" stroke-miterlimit="10"/>
<path d="M23.9023 81.1992H46.7023" stroke="#130F26" stroke-width="0.3" stroke-miterlimit="10"/>
<path d="M53.1357 81.1992H62.6851" stroke="#130F26" stroke-width="0.3" stroke-miterlimit="10"/>
<path d="M23.9023 85.0977H46.7023" stroke="#130F26" stroke-width="0.3" stroke-miterlimit="10"/>
<path d="M53.1357 85.0977H62.6851" stroke="#130F26" stroke-width="0.3" stroke-miterlimit="10"/>
<path d="M38.1527 106.019C38.1527 106.019 38.1527 104.556 36.1083 102.512C34.0639 100.467 32.7453 99.2969 32.7453 99.2969C32.7453 99.2969 31.7231 102.66 33.6231 104.704C35.0207 106.143 36.5358 107.462 38.1527 108.649V106.019Z" fill="#FFBE62"/>
<path d="M35.1849 115.14C35.1849 115.14 35.1849 113.681 33.1367 111.637C31.0885 109.592 29.7775 108.422 29.7775 108.422C29.7775 108.422 28.7553 111.781 30.6553 113.825C32.0518 115.265 33.567 116.585 35.1849 117.77V115.14Z" fill="#FFBE62"/>
<path d="M38.0235 108.501C38.0235 108.501 38.1755 107.049 40.4251 105.233C42.6747 103.417 44.1073 102.391 44.1073 102.391C44.1073 102.391 44.7685 105.841 42.6633 107.673C41.1239 108.957 39.479 110.11 37.7461 111.119L38.0235 108.501Z" fill="#FFBE62"/>
<path d="M34.4358 119.278C34.4358 119.278 34.7436 117.849 37.1718 116.276C39.6 114.702 41.1314 113.84 41.1314 113.84C41.1314 113.84 41.4202 117.336 39.1402 118.939C37.4734 120.055 35.7153 121.027 33.8848 121.846L34.4358 119.278Z" fill="#FFBE62"/>
<path d="M35.1123 131.023C35.1123 131.023 35.1123 129.56 37.1567 127.516C39.2011 125.471 40.5159 124.305 40.5159 124.305C40.5159 124.305 41.5381 127.664 39.6381 129.708C38.2424 131.147 36.7285 132.467 35.1123 133.653V131.023Z" fill="#FFBE62"/>
<path d="M35.0784 133.886C35.0784 133.886 35.2836 132.442 33.5584 130.128C31.8332 127.814 30.6894 126.469 30.6894 126.469C30.6894 126.469 29.1998 129.649 30.7882 131.941C31.9653 133.568 33.2771 135.093 34.7098 136.501L35.0784 133.886Z" fill="#FFBE62"/>
<path d="M33.0605 142.386C33.0605 142.386 33.0605 140.927 35.1049 138.883C37.1493 136.838 38.4641 135.668 38.4641 135.668C38.4641 135.668 39.4863 139.027 37.5901 141.072C36.1937 142.511 34.6785 143.831 33.0605 145.016V142.386Z" fill="#FFBE62"/>
<path d="M34.425 150.1C34.425 150.1 34.045 148.687 35.5156 146.19C36.9862 143.693 37.9514 142.23 37.9514 142.23C37.9514 142.23 39.7944 145.221 38.4758 147.68C37.1572 150.138 34.7214 152.065 34.7214 152.065L34.425 150.1Z" fill="#FFBE62"/>
<path d="M38.3345 105.641C38.2319 107.162 38.0454 108.677 37.7759 110.178C36.9665 114.358 34.9449 117.048 34.1393 120.818C33.3337 124.587 35.6593 129.448 35.0285 134.296C34.3977 139.145 32.5205 141.836 33.0601 145.069C33.5997 148.303 35.7201 158.461 35.7201 158.461" stroke="#130F26" stroke-linecap="round" stroke-linejoin="round"/>
<path d="M38.0039 109.472L40.2041 107.781" stroke="#130F26" stroke-linecap="round" stroke-linejoin="round"/>
<path d="M38.1032 107.525L37.1836 105.887" stroke="#130F26" stroke-linecap="round" stroke-linejoin="round"/>
<path d="M34.2617 120.645C34.2617 120.645 36.1047 119.262 38.0047 117.879" stroke="#130F26" stroke-linecap="round" stroke-linejoin="round"/>
<path d="M35.1851 117.766C34.2694 115.989 33.1757 114.31 31.9209 112.754" stroke="#130F26" stroke-linecap="round" stroke-linejoin="round"/>
<path d="M35.1846 133.102C36.24 131.159 37.5726 129.38 39.1404 127.82" stroke="#130F26" stroke-linecap="round" stroke-linejoin="round"/>
<path d="M34.8239 135.148C34.2658 133.828 33.5971 132.556 32.8251 131.348C31.7497 129.76 31.5977 129.555 31.5977 129.555" stroke="#130F26" stroke-linecap="round" stroke-linejoin="round"/>
<path d="M33.0605 145.073C33.5291 143.912 34.0842 142.788 34.7211 141.71C35.3554 140.714 36.071 139.773 36.8605 138.895" stroke="#130F26" stroke-linecap="round" stroke-linejoin="round"/>
<path d="M34.5801 152.97C34.7721 151.736 35.134 150.533 35.6555 149.398C36.4155 147.909 37.2971 145.978 37.6543 145.195" stroke="#130F26" stroke-linecap="round" stroke-linejoin="round"/>
<path d="M21.4626 125.53C21.4626 125.53 21.303 124.614 22.3632 123.109C23.4234 121.604 24.1226 120.73 24.1226 120.73C24.1226 120.73 25.1296 122.725 24.1606 124.215C23.441 125.269 22.6338 126.261 21.7476 127.179L21.4626 125.53Z" fill="#FFBE62"/>
<path d="M24.3205 130.928C24.3205 130.928 24.1647 130.012 25.2249 128.508C26.2851 127.003 26.9805 126.125 26.9805 126.125C26.9805 126.125 27.9875 128.124 27.0185 129.61C26.2984 130.664 25.4913 131.657 24.6055 132.577L24.3205 130.928Z" fill="#FFBE62"/>
<path d="M21.8125 127.075C21.8125 127.075 21.5579 126.182 19.9505 125.286C18.3431 124.389 17.3361 123.902 17.3361 123.902C17.3361 123.902 17.2943 126.137 18.8143 127.06C19.9198 127.697 21.0764 128.241 22.2723 128.687L21.8125 127.075Z" fill="#FFBE62"/>
<path d="M25.232 133.441C25.232 133.441 24.8824 132.578 23.18 131.86C21.4776 131.142 20.4326 130.758 20.4326 130.758C20.4326 130.758 20.6264 132.985 22.2338 133.741C23.4002 134.258 24.6077 134.678 25.8438 134.995L25.232 133.441Z" fill="#FFBE62"/>
<path d="M26.0835 140.879C26.0835 140.879 25.9239 139.963 24.4191 138.903C22.9143 137.843 21.9643 137.254 21.9643 137.254C21.9643 137.254 21.6869 139.469 23.1043 140.545C24.136 141.297 25.2292 141.96 26.3723 142.528L26.0835 140.879Z" fill="#FFBE62"/>
<path d="M26.4183 142.673C26.4183 142.673 26.1295 141.792 26.9655 140.15C27.8015 138.509 28.3677 137.559 28.3677 137.559C28.3677 137.559 29.6483 139.394 28.8997 141.005C28.337 142.15 27.6799 143.245 26.9351 144.281L26.4183 142.673Z" fill="#FFBE62"/>
<path d="M28.983 150.064C28.983 150.064 29.0894 149.141 30.5296 147.993C31.9698 146.845 32.8894 146.207 32.8894 146.207C32.8894 146.207 33.2922 148.403 31.9432 149.559C30.9553 150.367 29.9016 151.092 28.793 151.725L28.983 150.064Z" fill="#FFBE62"/>
<path d="M28.6031 147.785C28.6031 147.785 28.4435 146.869 26.9387 145.809C25.4339 144.749 24.4839 144.156 24.4839 144.156C24.4839 144.156 24.2065 146.375 25.6239 147.451C26.6566 148.201 27.7496 148.865 28.8919 149.434L28.6031 147.785Z" fill="#FFBE62"/>
<path d="M28.5838 152.759C28.5838 152.759 28.6598 151.832 27.4742 150.426C26.2886 149.02 25.5172 148.199 25.5172 148.199C25.5172 148.199 24.6888 150.274 25.7832 151.676C26.5918 152.663 27.4816 153.581 28.4432 154.42L28.5838 152.759Z" fill="#FFBE62"/>
<path d="M21.3066 125.316C21.535 126.259 21.8166 127.188 22.1502 128.098C23.1078 130.629 24.6696 132.099 25.5702 134.379C26.4708 136.659 25.5702 139.954 26.4746 142.926C27.379 145.897 28.88 147.383 28.88 149.469C28.88 151.555 27.9262 157.7 27.9262 157.7" stroke="#130F26" stroke-linecap="round" stroke-linejoin="round"/>
<path d="M21.9299 127.684L20.3643 126.859" stroke="#130F26" stroke-linecap="round" stroke-linejoin="round"/>
<path d="M21.6562 126.472L22.0552 125.344" stroke="#130F26" stroke-linecap="round" stroke-linejoin="round"/>
<path d="M25.4911 134.279C25.4911 134.279 24.1839 133.614 22.8311 132.953" stroke="#130F26" stroke-linecap="round" stroke-linejoin="round"/>
<path d="M24.5977 132.578C24.9841 131.363 25.4934 130.19 26.1177 129.078" stroke="#130F26" stroke-linecap="round" stroke-linejoin="round"/>
<path d="M26.2627 142.193C25.3942 141.091 24.3702 140.12 23.2227 139.312" stroke="#130F26" stroke-linecap="round" stroke-linejoin="round"/>
<path d="M26.7109 143.439C26.9206 142.552 27.2027 141.684 27.5545 140.844C28.0561 139.73 28.1283 139.586 28.1283 139.586" stroke="#130F26" stroke-linecap="round" stroke-linejoin="round"/>
<path d="M28.8232 151.05C29.3323 150.419 29.8956 149.834 30.5066 149.302C30.8965 149.015 31.2624 148.697 31.601 148.352" stroke="#130F26" stroke-linecap="round" stroke-linejoin="round"/>
<path d="M28.8802 149.47C28.4604 148.794 27.9904 148.15 27.4742 147.543C26.9642 146.993 26.4101 146.484 25.8174 146.023" stroke="#130F26" stroke-linecap="round" stroke-linejoin="round"/>
<path d="M28.4433 154.432C28.3875 153.725 28.1449 153.046 27.7403 152.464C27.0981 151.612 26.3381 150.488 26.0303 150.043" stroke="#130F26" stroke-linecap="round" stroke-linejoin="round"/>
<path d="M100.012 60.7996C100.012 60.7996 110.5 70.9342 110.971 75.9996C111.443 81.065 103.664 85.1918 105.906 86.841C108.148 88.4902 114.266 92.8526 111.914 96.6222C109.562 100.392 108.38 101.338 109.204 102.163C110.029 102.987 112.032 103.683 111.914 105.697C111.796 107.711 109.44 109.44 109.44 109.44H72.2C72.2 109.44 70.1974 109.557 70.433 106.73C70.6686 103.903 74.6738 102.372 73.967 100.247C73.2602 98.1232 68.0732 96.4778 68.0732 92.2332C68.0732 87.9886 74.2026 86.2254 75.145 84.2228C76.0874 82.2202 72.0822 80.9206 71.2576 78.329C70.433 75.7374 74.6776 71.2572 77.2654 68.9012C79.8532 66.5452 90.231 59.709 94.3654 59.4734C98.4998 59.2378 100.012 60.7996 100.012 60.7996Z" fill="#130F26"/>
<mask id="mask2_22378_71914" style="mask-type:luminance" maskUnits="userSpaceOnUse" x="68" y="59" width="45" height="51">
<path d="M100.012 60.7996C100.012 60.7996 110.5 70.9342 110.971 75.9996C111.443 81.065 103.664 85.1918 105.906 86.841C108.148 88.4902 114.266 92.8526 111.914 96.6222C109.562 100.392 108.38 101.338 109.204 102.163C110.029 102.987 112.032 103.683 111.914 105.697C111.796 107.711 109.44 109.44 109.44 109.44H72.2C72.2 109.44 70.1974 109.557 70.433 106.73C70.6686 103.903 74.6738 102.372 73.967 100.247C73.2602 98.1232 68.0732 96.4778 68.0732 92.2332C68.0732 87.9886 74.2026 86.2254 75.145 84.2228C76.0874 82.2202 72.0822 80.9206 71.2576 78.329C70.433 75.7374 74.6776 71.2572 77.2654 68.9012C79.8532 66.5452 90.231 59.709 94.3654 59.4734C98.4998 59.2378 100.012 60.7996 100.012 60.7996Z" fill="white"/>
</mask>
<g mask="url(#mask2_22378_71914)">
<path d="M102.824 63.543C102.824 63.543 108.524 73.5028 107.624 77.413C106.723 81.3232 100.689 85.773 102.999 88.794C105.309 91.815 108.699 93.0614 107.27 96.7968C106.421 99.0316 105.154 101.084 103.535 102.843" stroke="#858585" stroke-width="0.2" stroke-linecap="round" stroke-linejoin="round"/>
<path d="M77.3949 77.2383C77.3949 77.2383 80.9517 82.7483 80.0549 84.3481C79.1581 85.9479 74.0091 87.9049 74.7349 91.9937C75.4607 96.0825 82.9163 102.485 82.9163 103.2" stroke="#858585" stroke-width="0.2" stroke-linecap="round" stroke-linejoin="round"/>
</g>
<path d="M100.012 60.7996C100.012 60.7996 110.5 70.9342 110.971 75.9996C111.443 81.065 103.664 85.1918 105.906 86.841C108.148 88.4902 114.266 92.8526 111.914 96.6222C109.562 100.392 108.38 101.338 109.204 102.163C110.029 102.987 112.032 103.683 111.914 105.697C111.796 107.711 109.44 109.44 109.44 109.44H72.2C72.2 109.44 70.1974 109.557 70.433 106.73C70.6686 103.903 74.6738 102.372 73.967 100.247C73.2602 98.1232 68.0732 96.4778 68.0732 92.2332C68.0732 87.9886 74.2026 86.2254 75.145 84.2228C76.0874 82.2202 72.0822 80.9206 71.2576 78.329C70.433 75.7374 74.6776 71.2572 77.2654 68.9012C79.8532 66.5452 90.231 59.709 94.3654 59.4734C98.4998 59.2378 100.012 60.7996 100.012 60.7996Z" stroke="#130F26" stroke-width="0.2" stroke-linecap="round" stroke-linejoin="round"/>
<path d="M113.476 103.844C113.476 103.844 127.726 126.074 129.816 128.734C131.906 131.394 129.626 135.764 126.396 138.044C123.166 140.324 117.759 138.333 114.954 135.433C112.15 132.534 109.296 125.694 109.296 125.694L113.476 103.844Z" fill="white" stroke="#130F26" stroke-width="0.2" stroke-linecap="round" stroke-linejoin="round"/>
<path d="M89.5357 96.4338C89.5357 96.4338 76.2357 100.424 72.0557 101.944C67.8757 103.464 66.7357 103.654 66.7357 105.174C66.7357 106.059 69.9087 123.277 69.5857 138.044C69.3539 148.714 65.5957 158.374 65.5957 158.374H114.046C114.046 158.374 110.071 149.311 110.056 138.424C110.033 123.167 113.92 104.513 113.476 103.844C112.716 102.704 91.2457 96.2438 89.5357 96.4338Z" fill="white" stroke="#130F26" stroke-width="0.2" stroke-linecap="round" stroke-linejoin="round"/>
<path d="M110.2 142.012C108.459 140.655 106.198 138.425 105.115 135.385C103.432 130.669 102.193 105.365 101.935 99.6649C101.034 99.3913 100.13 99.1177 99.2407 98.8555L99.6207 122.655H82.7107L81.2325 98.9771C80.3319 99.2545 79.4237 99.5395 78.5345 99.8207C78.5535 104.628 78.5535 127.051 77.2007 133.485C76.1633 138.425 71.8427 141.757 69.2207 143.365C68.5849 148.483 67.3779 153.514 65.6221 158.363H114.072C111.965 153.139 110.66 147.626 110.2 142.012Z" fill="#130F26"/>
<mask id="mask3_22378_71914" style="mask-type:luminance" maskUnits="userSpaceOnUse" x="65" y="98" width="50" height="61">
<path d="M110.2 142.012C108.459 140.655 106.198 138.425 105.115 135.385C103.432 130.669 102.193 105.365 101.935 99.6649C101.034 99.3913 100.13 99.1177 99.2407 98.8555L99.6207 122.655H82.7107L81.2325 98.9771C80.3319 99.2545 79.4237 99.5395 78.5345 99.8207C78.5535 104.628 78.5535 127.051 77.2007 133.485C76.1633 138.425 71.8427 141.757 69.2207 143.365C68.5849 148.483 67.3779 153.514 65.6221 158.363H114.072C111.965 153.139 110.66 147.626 110.2 142.012Z" fill="white"/>
</mask>
<g mask="url(#mask3_22378_71914)">
<path d="M79.0742 99.6445L78.5194 99.8193C78.5384 104.626 78.5384 127.05 77.1856 133.484C77.1096 133.841 77.0146 134.183 76.9082 134.521V158.374H79.0742V99.6445Z" fill="#607087"/>
<path d="M88.2139 122.656H86.0479V158.376H88.2139V122.656Z" fill="#607087"/>
<path d="M67.7695 151.136V158.356H69.9203V142.883C69.6619 143.054 69.4111 143.217 69.1793 143.362C68.8608 145.978 68.3901 148.574 67.7695 151.136Z" fill="#607087"/>
<path d="M74.503 138.848C73.8458 139.647 73.1225 140.389 72.3408 141.067V158.376H74.503V138.848Z" fill="#607087"/>
<path d="M81.4766 103.16V158.374H83.6426V122.654H82.6964L81.4766 103.16Z" fill="#607087"/>
<path d="M104.321 131.547V158.375H106.483V138.083C105.92 137.242 105.46 136.336 105.115 135.385C104.741 134.131 104.475 132.847 104.321 131.547Z" fill="#607087"/>
<path d="M108.89 140.891V158.371H111.056V148.202C110.651 146.157 110.365 144.09 110.201 142.012C109.786 141.689 109.342 141.312 108.89 140.891Z" fill="#607087"/>
<path d="M101.916 99.6614C101.194 99.4372 100.468 99.2206 99.7539 99.0078V158.375H101.916V99.6614Z" fill="#607087"/>
<path d="M97.3486 122.656H95.1826V158.376H97.3486V122.656Z" fill="#607087"/>
<path d="M92.7812 122.656H90.6152V158.376H92.7812V122.656Z" fill="#607087"/>
</g>
<path d="M110.2 142.012C108.459 140.655 106.198 138.425 105.115 135.385C103.432 130.669 102.193 105.365 101.935 99.6649C101.034 99.3913 100.13 99.1177 99.2407 98.8555L99.6207 122.655H82.7107L81.2325 98.9771C80.3319 99.2545 79.4237 99.5395 78.5345 99.8207C78.5535 104.628 78.5535 127.051 77.2007 133.485C76.1633 138.425 71.8427 141.757 69.2207 143.365C68.5849 148.483 67.3779 153.514 65.6221 158.363H114.072C111.965 153.139 110.66 147.626 110.2 142.012Z" stroke="#130F26" stroke-width="0.2" stroke-linecap="round" stroke-linejoin="round"/>
<path d="M87.9925 92.9562C87.9925 92.9562 83.0525 94.7232 82.0987 96.7258C81.1449 98.7284 81.6275 106.606 80.8029 108.981C79.9783 111.356 77.9757 113.108 79.0397 113.241C80.1037 113.374 83.2805 108.525 84.9297 109.114C86.5789 109.703 91.0591 115.832 91.4125 115.832C91.7659 115.832 95.1859 111.709 95.8927 110.413C96.5995 109.118 99.1911 111.12 100.369 114.065C101.547 117.01 101.889 115.965 101.889 114.89C101.889 113.814 100.476 109.232 100.711 108.407C100.947 107.582 100.593 103.467 100.593 99.3326C100.618 97.7058 100.062 96.1237 99.0245 94.87C97.9875 93.6164 96.5376 92.7735 94.9351 92.4926C92.3397 92.01 87.9925 92.9562 87.9925 92.9562Z" fill="white" stroke="#130F26" stroke-width="0.2" stroke-linecap="round" stroke-linejoin="round"/>
<path d="M85.751 90.0078V103.327C85.751 103.327 90.1134 117.702 91.6448 116.627C93.1762 115.551 96.714 103.901 96.714 103.901V90.1256C96.714 90.1256 91.2914 92.4854 85.751 90.0078Z" fill="white" stroke="#130F26" stroke-width="0.2" stroke-linecap="round" stroke-linejoin="round"/>
<path d="M85.751 90.0078V92.778C87.955 94.0434 90.5504 94.8984 92.8874 94.8984C94.2188 94.882 95.5284 94.5582 96.714 93.9522V90.1256C96.714 90.1256 91.2914 92.4854 85.751 90.0078Z" fill="#130F26" stroke="#130F26" stroke-width="0.2" stroke-linecap="round" stroke-linejoin="round"/>
<path d="M81.2748 75.5164C81.2748 75.5164 78.6832 72.0964 77.148 74.5702C75.6128 77.044 79.6256 81.642 80.8036 81.5242C81.9816 81.4064 81.2748 75.5164 81.2748 75.5164Z" fill="white" stroke="#130F26" stroke-width="0.2" stroke-linecap="round" stroke-linejoin="round"/>
<path d="M102.118 75.5164C102.118 75.5164 104.709 72.0964 106.244 74.5702C107.78 77.044 103.767 81.642 102.589 81.5242C101.411 81.4064 102.118 75.5164 102.118 75.5164Z" fill="white" stroke="#130F26" stroke-width="0.2" stroke-linecap="round" stroke-linejoin="round"/>
<path d="M80.9402 70.7265C80.9402 70.7265 79.633 82.5065 80.7768 85.9265C81.9206 89.3465 87.9702 93.1199 92.876 93.1199C97.7818 93.1199 101.863 88.3813 102.52 85.5997C103.178 82.8181 101.7 65.0037 100.719 63.0429C99.7388 61.0821 93.5296 60.9187 87.3166 64.0233C81.1036 67.1279 80.9402 70.7265 80.9402 70.7265Z" fill="white" stroke="#130F26" stroke-width="0.2" stroke-linecap="round" stroke-linejoin="round"/>
<path d="M93.1757 72.582C93.1757 72.582 92.1155 75.413 93.0579 77.0622C94.0003 78.7114 93.4113 79.8894 92.3511 79.8894C91.2909 79.8894 90.8311 78.1224 90.8311 78.1224" stroke="#130F26" stroke-width="0.2" stroke-linecap="round" stroke-linejoin="round"/>
<path d="M87.168 81.0508C87.168 81.0508 92.108 84.4708 96.478 81.0508" stroke="#130F26" stroke-width="0.2" stroke-linecap="round" stroke-linejoin="round"/>
<path d="M94.2402 70.9181C94.2402 70.9181 96.3644 68.5621 98.8382 71.1537" stroke="#130F26" stroke-width="0.2" stroke-linecap="round" stroke-linejoin="round"/>
<path d="M89.4062 70.6817C89.4062 70.6817 87.2858 68.4435 84.6904 70.4461" stroke="#130F26" stroke-width="0.2" stroke-linecap="round" stroke-linejoin="round"/>
<path d="M96.2429 75.8663C96.6333 75.8663 96.9497 75.2334 96.9497 74.4527C96.9497 73.672 96.6333 73.0391 96.2429 73.0391C95.8526 73.0391 95.5361 73.672 95.5361 74.4527C95.5361 75.2334 95.8526 75.8663 96.2429 75.8663Z" fill="#130F26"/>
<path d="M87.4041 75.8663C87.7944 75.8663 88.1109 75.2334 88.1109 74.4527C88.1109 73.672 87.7944 73.0391 87.4041 73.0391C87.0137 73.0391 86.6973 73.672 86.6973 74.4527C86.6973 75.2334 87.0137 75.8663 87.4041 75.8663Z" fill="#130F26"/>
<path d="M83.9795 76.4582C85.1899 76.2587 86.4247 76.2587 87.6351 76.4582" stroke="#130F26" stroke-width="0.2" stroke-linecap="round" stroke-linejoin="round"/>
<path d="M96.0068 76.5756C97.175 76.3602 98.3727 76.3602 99.5408 76.5756" stroke="#130F26" stroke-width="0.2" stroke-linecap="round" stroke-linejoin="round"/>
<path d="M75.2632 77.5216C75.2632 77.5216 93.7654 69.8608 98.2456 66.323C102.726 62.7852 103.9 55.9528 93.412 56.3062C82.924 56.6596 71.847 68.9184 70.9046 74.5728C69.9622 80.2272 73.7204 79.0416 73.7204 79.0416" fill="#130F26"/>
<mask id="mask4_22378_71914" style="mask-type:luminance" maskUnits="userSpaceOnUse" x="70" y="56" width="32" height="24">
<path d="M75.2632 77.5216C75.2632 77.5216 93.7654 69.8608 98.2456 66.323C102.726 62.7852 103.9 55.9528 93.412 56.3062C82.924 56.6596 71.847 68.9184 70.9046 74.5728C69.9622 80.2272 73.7204 79.0416 73.7204 79.0416" fill="white"/>
</mask>
<g mask="url(#mask4_22378_71914)">
<path d="M100.511 56.6211C96.2342 61.8309 91.0545 66.228 85.2195 69.6019C75.4383 75.3019 69.2139 76.3621 69.2139 76.3621" stroke="#858585" stroke-width="0.2" stroke-linecap="round" stroke-linejoin="round"/>
<path d="M93.5754 54.832C93.5754 54.832 84.862 68.512 68.6816 73.8586" stroke="#858585" stroke-width="0.2" stroke-linecap="round" stroke-linejoin="round"/>
</g>
<path d="M75.2632 77.5216C75.2632 77.5216 93.7654 69.8608 98.2456 66.323C102.726 62.7852 103.9 55.9528 93.412 56.3062C82.924 56.6596 71.847 68.9184 70.9046 74.5728C69.9622 80.2272 73.7204 79.0416 73.7204 79.0416" stroke="#130F26" stroke-width="0.2" stroke-linecap="round" stroke-linejoin="round"/>
<path d="M114.616 119.901C114.616 119.901 112.431 118.951 109.866 118.096C107.301 117.241 105.876 118.951 106.921 120.471C107.966 121.991 111.671 122.276 113.476 123.891C115.281 125.506 116.706 130.731 118.511 131.681C119.702 132.276 120.988 132.662 122.311 132.821V119.901H114.616Z" fill="white" stroke="#130F26" stroke-width="0.2" stroke-linecap="round" stroke-linejoin="round"/>
<path d="M125.791 135.434H114.954L112.529 113.078H128.216L125.791 135.434Z" fill="#FFBE62" stroke="#130F26" stroke-width="0.2" stroke-linecap="round" stroke-linejoin="round"/>
<path d="M128.588 109.574H112.153L110.721 112.584H130.196L128.588 109.574Z" fill="white" stroke="#130F26" stroke-width="0.2" stroke-linecap="round" stroke-linejoin="round"/>
<path d="M112.765 113.559H128.319L129.675 112.586H111.245L112.765 113.559Z" fill="white" stroke="#130F26" stroke-width="0.2" stroke-linecap="round" stroke-linejoin="round"/>
<path d="M126.457 129.305L127.848 116.48H112.898L114.289 129.305H126.457Z" fill="white" stroke="#130F26" stroke-width="0.2" stroke-linecap="round" stroke-linejoin="round"/>
<path d="M130.005 120.375C130.005 120.375 124.97 120.47 124.02 121.42C123.07 122.37 123.355 123.51 125.16 123.7C126.965 123.89 129.625 124.27 131.05 123.89C132.475 123.51 132.475 120.375 130.005 120.375Z" fill="white" stroke="#130F26" stroke-width="0.2" stroke-linecap="round" stroke-linejoin="round"/>
<path d="M128.85 130.539C128.85 130.539 124.852 130.615 124.1 131.371C123.348 132.127 123.572 133.028 125.004 133.18C126.437 133.332 128.546 133.632 129.678 133.328C130.811 133.024 130.807 130.539 128.85 130.539Z" fill="white" stroke="#130F26" stroke-width="0.2" stroke-linecap="round" stroke-linejoin="round"/>
<path d="M130.955 124.26C130.955 124.26 124.4 124.26 122.785 124.545C121.17 124.83 120.6 126.445 122.975 126.92C125.35 127.395 130.195 127.68 131.715 127.49C133.235 127.3 133.33 124.172 130.955 124.26Z" fill="white" stroke="#130F26" stroke-width="0.2" stroke-linecap="round" stroke-linejoin="round"/>
<path d="M130.576 127.681C130.576 127.681 125.351 127.491 123.546 128.156C121.741 128.821 122.406 129.771 124.116 130.151C125.826 130.531 129.626 131.006 131.051 130.531C132.476 130.056 132.476 127.499 130.576 127.681Z" fill="white" stroke="#130F26" stroke-width="0.2" stroke-linecap="round" stroke-linejoin="round"/>
<path d="M49.7803 94.1567C49.7803 94.1567 48.7733 94.7609 49.4801 97.7857L50.1831 100.807L54.5151 100.001C54.5151 100.001 52.6151 96.5811 51.7943 95.0611C50.9735 93.5411 49.9969 93.7539 49.7803 94.1567Z" fill="white" stroke="#130F26" stroke-width="0.2" stroke-linecap="round" stroke-linejoin="round"/>
<path d="M46.36 99.7035C46.36 99.7035 60.1616 97.3855 64.296 95.9757C67.4061 94.9702 70.567 94.1293 73.7656 93.4563C74.5921 93.2654 75.4367 93.1635 76.285 93.1523C76.285 93.1523 76.6878 93.1523 76.589 94.8661C76.4902 96.5799 78.8044 118.848 80.921 125.699C83.0376 132.551 84.341 135.777 84.341 135.777C84.341 135.777 71.9492 138.296 60.4618 138.296C54.1113 138.338 47.7705 137.797 41.5188 136.681C41.116 136.681 46.4588 116.541 46.2536 109.679C46.0636 102.74 46.36 99.7035 46.36 99.7035Z" fill="#FFBE62" stroke="#130F26" stroke-width="0.2" stroke-linecap="round" stroke-linejoin="round"/>
<path d="M80.9397 125.699C78.8231 118.859 76.5051 96.5799 76.6077 94.8661C76.7103 93.1523 76.3037 93.1523 76.3037 93.1523C75.8309 93.159 75.3589 93.1933 74.8901 93.2549C74.8369 93.689 74.8369 94.128 74.8901 94.5621C74.8901 94.5621 74.7837 105.548 74.4797 118.563C74.2289 129.347 74.3923 135.549 74.4569 137.35C80.1911 136.64 84.3369 135.796 84.3369 135.796C84.3369 135.796 83.0487 132.551 80.9397 125.699Z" fill="#FFBE62" stroke="#130F26" stroke-width="0.2" stroke-linecap="round" stroke-linejoin="round"/>
<path d="M76.0949 93.6556V98.6944C76.0949 100.306 76.3989 101.111 75.7909 101.111C75.1829 101.111 70.1517 102.019 61.9893 103.631C56.8022 104.666 51.5493 105.339 46.2687 105.645C45.6645 105.645 46.3713 99.7014 46.3713 99.7014C46.3713 99.7014 61.6853 97.2808 66.6215 95.6696C69.5587 94.7075 72.554 93.9332 75.5895 93.3516" fill="#FFBE62"/>
<path d="M76.0949 93.6556V98.6944C76.0949 100.306 76.3989 101.111 75.7909 101.111C75.1829 101.111 70.1517 102.019 61.9893 103.631C56.8022 104.666 51.5493 105.339 46.2687 105.645C45.6645 105.645 46.3713 99.7014 46.3713 99.7014C46.3713 99.7014 61.6853 97.2808 66.6215 95.6696C69.5587 94.7075 72.554 93.9332 75.5895 93.3516" stroke="#130F26" stroke-width="0.2" stroke-linecap="round" stroke-linejoin="round"/>
<path d="M58.4631 90.0288C58.4631 90.0288 59.4701 87.7108 62.1909 89.2232C64.9117 90.7356 66.7243 96.1772 66.3215 97.283C65.9187 98.3888 64.6077 98.6966 63.4981 97.587C62.3885 96.4774 59.5689 92.4494 58.8659 91.3398C58.1629 90.2302 58.4631 90.0288 58.4631 90.0288Z" fill="white" stroke="#130F26" stroke-width="0.2" stroke-linecap="round" stroke-linejoin="round"/>
<path d="M55.4382 91.4374C55.4382 91.4374 60.5302 98.8626 61.484 99.501C62.4378 100.139 64.2124 100.504 63.6994 98.2926C63.2168 96.1912 61.2826 92.1442 59.9716 90.7344C58.6606 89.3246 57.7562 89.1232 56.6466 89.7274C55.537 90.3316 55.2368 90.6318 55.4382 91.4374Z" fill="white" stroke="#130F26" stroke-width="0.2" stroke-linecap="round" stroke-linejoin="round"/>
<path d="M55.8604 91.0355C55.8604 91.0355 60.5952 97.0813 61.0018 98.4949C61.4084 99.9085 60.5952 102.223 58.4824 100.912C56.3696 99.6007 54.4506 95.2687 53.2422 93.7563C52.0338 92.2439 54.1276 89.9297 55.8604 91.0355Z" fill="white" stroke="#130F26" stroke-width="0.2" stroke-linecap="round" stroke-linejoin="round"/>
<path d="M53.0218 92.5469C53.0218 92.5469 49.9818 92.9497 49.6018 94.5609C49.2218 96.1721 51.8172 99.7023 53.9338 100.306C56.0504 100.911 56.6546 99.1969 56.0504 97.7871C55.4462 96.3773 54.0288 92.8509 53.0218 92.5469Z" fill="white" stroke="#130F26" stroke-width="0.2" stroke-linecap="round" stroke-linejoin="round"/>
<path d="M163.009 151.435H130.132L137.823 115.734H170.701L163.009 151.435Z" fill="#130F26" stroke="#130F26" stroke-linecap="round" stroke-linejoin="round"/>
<path d="M170.7 115.734H137.822C137.822 115.734 156.438 120.23 170.7 115.734Z" fill="#6B6B6B" stroke="#130F26" stroke-linecap="round" stroke-linejoin="round"/>
<path d="M148.36 131.145L144.895 141.804L150.804 145.786L153.114 139.109L148.36 131.145Z" fill="#3B3B3B" stroke="#130F26" stroke-linecap="round" stroke-linejoin="round"/>
<path d="M148.36 131.145H159.791L161.588 137.954L153.114 139.109L148.36 131.145Z" fill="#3B3B3B" stroke="#130F26" stroke-linecap="round" stroke-linejoin="round"/>
<path d="M158.495 157.469C157.907 149.575 155.492 141.926 151.442 135.125L142.429 157.469H158.495Z" fill="#3B3B3B" stroke="#130F26" stroke-linecap="round" stroke-linejoin="round"/>
<path d="M172.676 157.469C172.911 147.038 167.496 135.125 167.496 135.125H151.441C155.492 141.926 157.906 149.575 158.494 157.469H172.676Z" fill="#6B6B6B" stroke="#130F26" stroke-linecap="round" stroke-linejoin="round"/>
<path d="M177.958 156.285H16.2227V160.363H177.958V156.285Z" fill="white" stroke="#130F26" stroke-linecap="round" stroke-linejoin="round"/>
</svg>
