<svg width="40" height="40" viewBox="0 0 40 40" fill="none" xmlns="http://www.w3.org/2000/svg">
<rect width="40" height="40" rx="20" fill="#F4F6F9"/>
<path d="M19.9993 18.3327C21.8403 18.3327 23.3327 16.8403 23.3327 14.9993C23.3327 13.1584 21.8403 11.666 19.9993 11.666C18.1584 11.666 16.666 13.1584 16.666 14.9993C16.666 16.8403 18.1584 18.3327 19.9993 18.3327Z" fill="#130F26"/>
<path d="M19.9993 18.3327C21.8403 18.3327 23.3327 16.8403 23.3327 14.9993C23.3327 13.1584 21.8403 11.666 19.9993 11.666C18.1584 11.666 16.666 13.1584 16.666 14.9993C16.666 16.8403 18.1584 18.3327 19.9993 18.3327Z" fill="black" fill-opacity="0.2"/>
<g opacity="0.5">
<path d="M19.9993 27.4987C23.221 27.4987 25.8327 26.0063 25.8327 24.1654C25.8327 22.3244 23.221 20.832 19.9993 20.832C16.7777 20.832 14.166 22.3244 14.166 24.1654C14.166 26.0063 16.7777 27.4987 19.9993 27.4987Z" fill="#130F26"/>
<path d="M19.9993 27.4987C23.221 27.4987 25.8327 26.0063 25.8327 24.1654C25.8327 22.3244 23.221 20.832 19.9993 20.832C16.7777 20.832 14.166 22.3244 14.166 24.1654C14.166 26.0063 16.7777 27.4987 19.9993 27.4987Z" fill="black" fill-opacity="0.2"/>
</g>
</svg>
