<svg width="36" height="36" viewBox="0 0 36 36" fill="none" xmlns="http://www.w3.org/2000/svg">
<path d="M33.8985 7.6918V2.1875C33.8985 1.42695 33.284 0.8125 32.5235 0.8125H3.47659C2.71604 0.8125 2.10159 1.42695 2.10159 2.1875V7.6918C1.38401 7.73477 0.812527 8.33203 0.812527 9.0625V14.7215C0.809775 15.7615 1.02036 16.7911 1.43128 17.7465C1.61604 18.1848 1.84378 18.5973 2.10159 18.9883V33.8125C2.10159 34.5687 2.71604 35.1875 3.47659 35.1875H15.25V27.625H20.75V35.1875H32.5235C33.284 35.1875 33.8985 34.573 33.8985 33.8125V18.9883C34.1603 18.5963 34.3848 18.1805 34.5688 17.7465C34.977 16.7883 35.1875 15.7699 35.1875 14.7215V9.0625C35.1875 8.33203 34.616 7.73477 33.8985 7.6918ZM30.8047 32.098H23.5V26.25C23.5 25.4895 22.8856 24.875 22.125 24.875H13.875C13.1145 24.875 12.5 25.4895 12.5 26.25V32.098H5.19534V21.691C5.31995 21.7512 5.44885 21.8113 5.58206 21.8629C6.54026 22.2668 7.55862 22.4688 8.60706 22.4688C9.6555 22.4688 10.6696 22.2668 11.6321 21.8629C12.225 21.6137 12.7836 21.2957 13.2949 20.9133C13.3035 20.909 13.3121 20.909 13.3207 20.9133C13.8336 21.2973 14.3922 21.6163 14.9836 21.8629C15.9418 22.2668 16.9602 22.4688 18.0086 22.4688C19.0571 22.4688 20.0711 22.2668 21.0336 21.8629C21.6266 21.6137 22.1852 21.2957 22.6965 20.9133C22.7051 20.909 22.7137 20.909 22.7223 20.9133C23.2352 21.2973 23.7938 21.6163 24.3852 21.8629C25.3434 22.2668 26.3617 22.4688 27.4102 22.4688C28.4586 22.4688 29.4727 22.2668 30.4352 21.8629C30.5641 21.807 30.693 21.7512 30.8219 21.691V32.098H30.8047ZM30.8047 7.6875H5.19534V3.90625H30.8047V7.6875Z" fill="#FEB032"/>
</svg>
