<svg width="24" height="24" viewBox="0 0 24 24" fill="none" xmlns="http://www.w3.org/2000/svg">
<circle cx="12" cy="12" r="12" fill="url(#paint0_linear_21258_70086)"/>
<path d="M8.48813 17.5544C8.17933 17.7128 7.82893 17.4352 7.89133 17.0808L8.55533 13.2968L5.73693 10.612C5.47373 10.3608 5.61053 9.90161 5.96333 9.85201L9.88173 9.29521L11.6289 5.83361C11.7865 5.52161 12.2129 5.52161 12.3705 5.83361L14.1177 9.29521L18.0361 9.85201C18.3889 9.90161 18.5257 10.3608 18.2617 10.612L15.4441 13.2968L16.1081 17.0808C16.1705 17.4352 15.8201 17.7128 15.5113 17.5544L11.9985 15.7496L8.48733 17.5544H8.48813Z" fill="white"/>
<defs>
<linearGradient id="paint0_linear_21258_70086" x1="0.96" y1="-4.05657e-07" x2="24" y2="21.6" gradientUnits="userSpaceOnUse">
<stop stop-color="#F2C94C"/>
<stop offset="1" stop-color="#FFB84B"/>
</linearGradient>
</defs>
</svg>
