<svg width="40" height="34" viewBox="0 0 40 34" fill="none" xmlns="http://www.w3.org/2000/svg">
<path d="M19.4196 14.6435C23.1004 14.5548 26.0124 11.4989 25.9237 7.81811C25.835 4.13729 22.7792 1.22529 19.0983 1.314C15.4175 1.4027 12.5055 4.45851 12.5942 8.13934C12.6829 11.8202 15.7387 14.7322 19.4196 14.6435Z" stroke="#607087" stroke-width="2"/>
<path d="M29.3765 12.7362C32.1373 12.6697 34.33 10.7496 34.2746 8.45028C34.2192 6.15095 31.9366 4.33875 29.1757 4.40529M9.38227 13.218C6.6214 13.2846 4.33875 11.4724 4.28333 9.17304C4.22792 6.87371 6.42064 4.95366 9.1815 4.88712M28.2794 22.7655C29.1528 23.7248 29.6684 24.851 29.6977 26.0657C29.7864 29.7479 25.3829 32.8382 19.8612 32.9713C14.3395 33.1044 9.79223 30.2298 9.70349 26.5475C9.61475 22.8652 14.0182 19.7749 19.54 19.6419C20.1065 19.6282 20.6654 19.6464 21.2084 19.6933M33.1104 29.3177C36.0174 28.6058 38.0543 26.9329 38.0085 25.0318C37.9627 23.1307 35.8475 21.5579 32.9096 20.9868M6.45143 29.9602C3.51349 29.3891 1.39832 27.8163 1.3525 25.9152C1.30669 24.0141 3.34364 22.3412 6.25067 21.6293" stroke="#607087" stroke-width="2" stroke-linecap="round"/>
</svg>
