<svg width="24" height="22" viewBox="0 0 24 22" fill="none" xmlns="http://www.w3.org/2000/svg">
<path opacity="0.4" d="M5.82355 12.0389C5.22142 12.0389 4.73398 12.5336 4.73398 13.1447L4.43359 18.4866C4.43359 19.2653 5.05621 19.8958 5.82355 19.8958C6.5909 19.8958 7.21214 19.2653 7.21214 18.4866L6.91313 13.1447C6.91313 12.5336 6.42568 12.0389 5.82355 12.0389Z" fill="white"/>
<path d="M7.30913 1.28569C7.30913 1.28569 6.99645 0.964207 6.80257 0.824252C6.5213 0.608084 6.1745 0.5 5.82905 0.5C5.44129 0.5 5.08083 0.621941 4.78727 0.851966C4.73402 0.906008 4.50737 1.10971 4.32031 1.29955C3.14608 2.40949 1.22499 5.30697 0.637877 6.82431C0.545031 7.05433 0.34432 7.63632 0.332031 7.9481C0.332031 8.24464 0.39757 8.5301 0.531377 8.80031C0.718434 9.13841 1.01199 9.41001 1.3588 9.55828C1.5991 9.65389 2.31866 9.80216 2.33231 9.80216C3.12014 9.95182 4.40087 10.0322 5.8154 10.0322C7.16303 10.0322 8.39051 9.95182 9.19062 9.82988C9.20428 9.81602 10.0972 9.66775 10.4044 9.50424C10.9643 9.20631 11.3124 8.62432 11.3124 8.00215V7.9481C11.2988 7.5421 10.9506 6.68851 10.9383 6.68851C10.3512 5.25293 8.52295 2.42334 7.30913 1.28569Z" fill="white"/>
<path opacity="0.4" d="M18.1751 9.96122C18.7772 9.96122 19.2647 9.46652 19.2647 8.85541L19.5637 3.51345C19.5637 2.73467 18.9425 2.10417 18.1751 2.10417C17.4078 2.10417 16.7852 2.73467 16.7852 3.51345L17.0855 8.85541C17.0855 9.46652 17.573 9.96122 18.1751 9.96122Z" fill="white"/>
<path d="M23.4646 13.1995C23.2776 12.8614 22.984 12.5912 22.6372 12.4415C22.3969 12.3459 21.676 12.1976 21.6637 12.1976C20.8759 12.048 19.5952 11.9676 18.1806 11.9676C16.833 11.9676 15.6055 12.048 14.8054 12.1699C14.7917 12.1838 13.8988 12.3334 13.5916 12.4956C13.0304 12.7935 12.6836 13.3755 12.6836 13.9991V14.0531C12.6972 14.4591 13.0441 15.3114 13.0577 15.3114C13.6448 16.747 15.4717 19.578 16.6869 20.7143C16.6869 20.7143 16.9996 21.0358 17.1934 21.1744C17.4734 21.3919 17.8202 21.5 18.1683 21.5C18.5547 21.5 18.9138 21.3781 19.2087 21.148C19.262 21.094 19.4887 20.8903 19.6757 20.7018C20.8486 19.5905 22.771 16.6929 23.3568 15.1769C23.451 14.9469 23.6517 14.3635 23.664 14.0531C23.664 13.7552 23.5984 13.4697 23.4646 13.1995Z" fill="white"/>
</svg>
