<svg width="24" height="22" viewBox="0 0 24 22" fill="none" xmlns="http://www.w3.org/2000/svg">
<path fill-rule="evenodd" clip-rule="evenodd" d="M5.62173 17.3609C5.62173 17.8977 6.0524 18.3333 6.58305 18.3333C7.1137 18.3333 7.54437 17.8977 7.54437 17.3609V3.82769L10.6065 6.93678C10.9808 7.31796 11.5883 7.31796 11.9652 6.93937C12.342 6.56079 12.3433 5.94493 11.9677 5.56375L7.26367 0.786011C6.98937 0.505959 6.57408 0.424277 6.21647 0.573379C5.85629 0.723777 5.62173 1.07773 5.62173 1.47188V17.3609ZM1.87848 7.2228C1.63366 7.2228 1.38756 7.12815 1.20042 6.93886C0.823586 6.56027 0.822304 5.94571 1.19786 5.56453L3.06923 3.66251C3.44479 3.28133 4.05234 3.28133 4.42918 3.65991C4.80474 4.0385 4.80602 4.65436 4.43174 5.03554L2.55909 6.93626C2.37195 7.12815 2.12457 7.2228 1.87848 7.2228ZM17.6691 21.4261C17.7871 21.4754 17.9114 21.5 18.0357 21.5C18.2869 21.5 18.533 21.4015 18.7163 21.2135L22.7423 17.1229C23.1166 16.7417 23.1153 16.1259 22.7398 15.7473C22.3629 15.3687 21.7541 15.37 21.3798 15.7499L18.997 18.1731V4.63724C18.997 4.10048 18.5677 3.66484 18.0357 3.66484C17.5051 3.66484 17.0744 4.10048 17.0744 4.63724V20.5276C17.0744 20.9217 17.309 21.2757 17.6691 21.4261ZM14.5211 18.3354C14.7095 18.5273 14.9569 18.6219 15.203 18.6219C15.4478 18.6219 15.6939 18.5273 15.8811 18.338C16.2579 17.9594 16.2592 17.3449 15.8849 16.9637L14.0136 15.0617C13.6367 14.6805 13.0292 14.6805 12.6536 15.0591C12.2768 15.4377 12.2755 16.0535 12.6498 16.4347L14.5211 18.3354Z" fill="#4F4F4F"/>
</svg>
