<svg width="100" height="90" viewBox="0 0 100 90" fill="none" xmlns="http://www.w3.org/2000/svg">
<path opacity="0.4" d="M23.5273 49.4531C20.9467 49.4531 18.8577 51.5732 18.8577 54.1922L17.5703 77.0858C17.5703 80.4234 20.2387 83.1255 23.5273 83.1255C26.8159 83.1255 29.4784 80.4234 29.4784 77.0858L28.1969 54.1922C28.1969 51.5732 26.1078 49.4531 23.5273 49.4531Z" fill="#9EA8B7"/>
<path d="M29.9018 3.36724C29.9018 3.36724 28.5618 1.98946 27.7309 1.38965C26.5254 0.463218 25.0391 0 23.5587 0C21.8968 0 20.352 0.522605 19.0939 1.50843C18.8657 1.74004 17.8943 2.61302 17.0926 3.42662C12.0602 8.18351 3.82697 20.6013 1.31077 27.1042C0.912855 28.09 0.0526647 30.5842 0 31.9204C0 33.1913 0.280878 34.4147 0.854338 35.5727C1.65601 37.0218 2.91411 38.1858 4.40043 38.8212C5.43031 39.231 8.51412 39.8664 8.57264 39.8664C11.949 40.5078 17.4379 40.8522 23.5002 40.8522C29.2757 40.8522 34.5363 40.5078 37.9654 39.9852C38.0239 39.9258 41.8509 39.2904 43.1675 38.5896C45.5667 37.3128 47.0588 34.8185 47.0588 32.1521V31.9204C47.0003 30.1804 45.5081 26.5222 45.4555 26.5222C42.9393 20.3697 35.1039 8.2429 29.9018 3.36724Z" fill="#9EA8B7"/>
<path opacity="0.4" d="M76.4736 40.5481C79.0541 40.5481 81.1432 38.4279 81.1432 35.8089L82.4247 12.9148C82.4247 9.57716 79.7622 6.875 76.4736 6.875C73.1849 6.875 70.5166 9.57716 70.5166 12.9148L71.804 35.8089C71.804 38.4279 73.893 40.5481 76.4736 40.5481Z" fill="#9EA8B7"/>
<path d="M99.1459 54.428C98.3442 52.979 97.0861 51.8209 95.5998 51.1795C94.5699 50.7697 91.4803 50.1343 91.4276 50.1343C88.0512 49.4929 82.5624 49.1484 76.5001 49.1484C70.7245 49.1484 65.4639 49.4929 62.0348 50.0155C61.9763 50.0749 58.1494 50.7163 56.8327 51.4111C54.4277 52.688 52.9414 55.1823 52.9414 57.8547V58.0864C52.9999 59.8264 54.4862 63.4788 54.5448 63.4788C57.061 69.6314 64.8904 81.7644 70.0984 86.6342C70.0984 86.6342 71.4384 88.012 72.2693 88.6059C73.4689 89.5383 74.9552 90.0015 76.4474 90.0015C78.1034 90.0015 79.6424 89.4789 80.9064 88.4931C81.1346 88.2615 82.1059 87.3885 82.9076 86.5808C87.9342 81.8179 96.1733 69.3998 98.6836 62.9027C99.0874 61.9169 99.9476 59.4166 100 58.0864C100 56.8095 99.7194 55.5861 99.1459 54.428Z" fill="#9EA8B7"/>
</svg>
