<svg xmlns="http://www.w3.org/2000/svg" width="251" height="250" viewBox="0 0 251 250" fill="none">
  <path d="M207.39 123.45C206.39 122.875 205.39 122.305 204.34 121.75L35.5898 219.175C36.5548 219.775 37.5348 220.36 38.5398 220.94C85.1698 247.86 160.77 247.86 207.39 220.94C254.01 194.02 254 150.37 207.39 123.45Z" fill="#FAFAFA"/>
  <path d="M30.285 222.531C30.2344 222.53 30.1848 222.517 30.141 222.491C30.0972 222.466 30.0607 222.43 30.035 222.386C30.0153 222.353 30.0024 222.316 29.997 222.278C29.9916 222.24 29.9939 222.201 30.0036 222.164C30.0134 222.127 30.0305 222.092 30.0539 222.061C30.0773 222.031 30.1066 222.005 30.14 221.986L214.355 115.616C214.42 115.592 214.491 115.592 214.556 115.615C214.621 115.638 214.676 115.683 214.711 115.743C214.746 115.802 214.759 115.872 214.748 115.94C214.737 116.009 214.702 116.071 214.65 116.116L30.435 222.501C30.388 222.522 30.3366 222.533 30.285 222.531Z" fill="#E0E0E0"/>
  <path d="M178.559 233.221L96.4995 185.846L51.8145 211.646L100.814 239.936C126.999 242.776 154.499 240.541 178.559 233.221Z" fill="#F0F0F0"/>
  <path d="M138.924 161.361L222.924 209.891C236.769 197.676 243.204 183.481 242.234 169.426L183.604 135.566L138.924 161.361Z" fill="#F0F0F0"/>
  <path d="M131.785 78.3891V79.8891C131.785 80.3591 132.115 80.5491 132.525 80.3141L133.96 79.4841V76.2891L132.525 77.1241C132.311 77.2619 132.132 77.4483 132.004 77.6681C131.875 77.8879 131.8 78.1349 131.785 78.3891Z" fill="#F5F5F5"/>
  <path d="M133.965 130.574L127.965 134.039C127.752 134.179 127.574 134.368 127.446 134.589C127.318 134.811 127.244 135.059 127.23 135.314V136.814C127.23 137.284 127.56 137.474 127.965 137.239L133.965 133.769V130.574Z" fill="#F5F5F5"/>
  <path d="M127.221 77.1148V78.6148C127.221 79.0848 127.551 79.2798 127.956 79.0448L133.956 75.5748V72.3848L127.956 75.8498C127.743 75.9888 127.566 76.1755 127.438 76.3952C127.311 76.6148 127.236 76.8612 127.221 77.1148Z" fill="#F5F5F5"/>
  <path d="M130.47 97.2791L123.65 101.219C123.435 101.358 123.255 101.546 123.127 101.768C122.998 101.989 122.924 102.238 122.91 102.494V103.994C122.91 104.464 123.24 104.654 123.65 104.419L130.47 100.499C130.684 100.359 130.862 100.171 130.99 99.9492C131.117 99.7278 131.191 99.4793 131.205 99.2241V97.7241C131.205 97.2391 130.875 97.0441 130.47 97.2791Z" fill="#F5F5F5"/>
  <path d="M133.965 114.889L127.965 118.354C127.751 118.495 127.573 118.684 127.446 118.906C127.318 119.129 127.244 119.378 127.23 119.634V121.134C127.23 121.604 127.56 121.794 127.965 121.559L133.965 118.094V114.889Z" fill="#F5F5F5"/>
  <path d="M127.221 58.9987V60.4987C127.221 60.9687 127.551 61.1587 127.956 60.9237L133.956 57.4537V54.2637L127.956 57.7287C127.743 57.8687 127.566 58.0564 127.438 58.2769C127.311 58.4973 127.236 58.7444 127.221 58.9987Z" fill="#F5F5F5"/>
  <path d="M133.965 154.1L127.965 157.565C127.752 157.705 127.574 157.893 127.446 158.114C127.318 158.336 127.244 158.584 127.23 158.84V160.34C127.23 160.81 127.56 161 127.965 160.765L133.965 157.295V154.1Z" fill="#F5F5F5"/>
  <path d="M120.385 111.884V113.384C120.385 113.849 120.715 114.044 121.125 113.809L127.945 109.869C128.159 109.729 128.337 109.541 128.464 109.319C128.592 109.098 128.666 108.849 128.68 108.594V107.094C128.68 106.624 128.35 106.434 127.945 106.669L121.125 110.609C120.909 110.748 120.73 110.936 120.601 111.158C120.473 111.379 120.398 111.628 120.385 111.884Z" fill="#F5F5F5"/>
  <path d="M127.221 96.11V97.61C127.221 98.08 127.551 98.27 127.956 98.035L133.956 94.57V91.375L127.956 94.84C127.743 94.9801 127.566 95.1678 127.438 95.3882C127.311 95.6087 127.236 95.8558 127.221 96.11Z" fill="#F5F5F5"/>
  <path d="M126.641 121.45V119.95C126.641 119.48 126.311 119.29 125.906 119.525L119.081 123.5C118.867 123.64 118.689 123.828 118.561 124.049C118.433 124.271 118.36 124.519 118.346 124.775V126.275C118.346 126.745 118.676 126.935 119.081 126.7L125.906 122.76C126.124 122.616 126.305 122.422 126.433 122.194C126.561 121.966 126.632 121.711 126.641 121.45Z" fill="#F5F5F5"/>
  <path d="M123.65 159.303L130.47 155.363C130.684 155.223 130.862 155.035 130.99 154.813C131.117 154.592 131.191 154.344 131.205 154.088V152.588C131.205 152.118 130.875 151.928 130.47 152.163L123.65 156.098C123.435 156.238 123.255 156.427 123.127 156.65C122.998 156.872 122.924 157.122 122.91 157.378V158.878C122.91 159.348 123.24 159.538 123.65 159.303Z" fill="#F5F5F5"/>
  <path d="M126.675 54.5832L119.855 58.5232C119.64 58.662 119.46 58.85 119.332 59.0716C119.203 59.2933 119.129 59.5423 119.115 59.7982V61.2982C119.115 61.7682 119.445 61.9582 119.855 61.7232L126.675 57.7882C126.889 57.6471 127.067 57.4578 127.195 57.2355C127.323 57.0133 127.396 56.7641 127.41 56.5082V55.0082C127.41 54.5382 127.08 54.3482 126.675 54.5832Z" fill="#F5F5F5"/>
  <path d="M130.47 60.1788L123.65 64.1188C123.435 64.2576 123.255 64.4456 123.127 64.6672C122.998 64.8889 122.924 65.1379 122.91 65.3938V66.8938C122.91 67.3638 123.24 67.5588 123.65 67.3238L130.47 63.3838C130.684 63.2438 130.862 63.0554 130.99 62.8339C131.117 62.6124 131.191 62.364 131.205 62.1088V60.6088C131.205 60.1338 130.875 59.9438 130.47 60.1788Z" fill="#F5F5F5"/>
  <path d="M130.47 78.2881L123.65 82.2281C123.435 82.367 123.255 82.5549 123.127 82.7766C122.998 82.9982 122.924 83.2472 122.91 83.5031V85.0031C122.91 85.4731 123.24 85.6631 123.65 85.4281L130.47 81.4981C130.684 81.3571 130.862 81.1678 130.99 80.9455C131.117 80.7232 131.191 80.4741 131.205 80.2181V78.7181C131.205 78.2431 130.875 78.0531 130.47 78.2881Z" fill="#F5F5F5"/>
  <path d="M123.65 127.938L130.47 123.998C130.684 123.858 130.862 123.67 130.99 123.448C131.117 123.227 131.191 122.978 131.205 122.723V121.223C131.205 120.753 130.875 120.558 130.47 120.793L123.65 124.733C123.435 124.872 123.255 125.06 123.127 125.282C122.998 125.503 122.924 125.752 122.91 126.008V127.508C122.91 127.998 123.24 128.173 123.65 127.938Z" fill="#F5F5F5"/>
  <path d="M133.965 138.414L127.965 141.879C127.751 142.02 127.573 142.209 127.446 142.432C127.318 142.654 127.244 142.903 127.23 143.159V144.659C127.23 145.129 127.56 145.319 127.965 145.084L133.965 141.614V138.414Z" fill="#F5F5F5"/>
  <path d="M188.616 51.1937V52.6937C188.602 52.9496 188.528 53.1986 188.399 53.4203C188.27 53.6419 188.091 53.8299 187.876 53.9687L186.436 54.7987V51.5987L187.876 50.7687C188.286 50.5337 188.616 50.7237 188.616 51.1937Z" fill="#F5F5F5"/>
  <path d="M186.436 105.498L192.436 102.028C192.846 101.793 193.176 101.983 193.176 102.453V103.953C193.162 104.209 193.088 104.458 192.959 104.68C192.83 104.902 192.651 105.09 192.436 105.228L186.436 108.693V105.498Z" fill="#F5F5F5"/>
  <path d="M193.181 44.6442V46.1442C193.168 46.4001 193.093 46.6491 192.965 46.8707C192.836 47.0924 192.657 47.2803 192.441 47.4192L186.441 50.8842V47.6892L192.441 44.2192C192.851 43.9992 193.181 44.1742 193.181 44.6442Z" fill="#F5F5F5"/>
  <path d="M189.93 68.1686L196.75 64.2287C197.16 63.9937 197.49 64.1887 197.49 64.6587V66.1587C197.477 66.4146 197.402 66.6636 197.274 66.8852C197.145 67.1068 196.966 67.2948 196.75 67.4336L189.93 71.3736C189.525 71.6086 189.195 71.4186 189.195 70.9486V69.4486C189.208 69.1925 189.282 68.9431 189.41 68.7207C189.537 68.4983 189.716 68.3091 189.93 68.1686Z" fill="#F5F5F5"/>
  <path d="M186.436 89.8099L192.436 86.3449C192.846 86.1099 193.176 86.2999 193.176 86.7699V88.2699C193.162 88.5258 193.088 88.7748 192.959 88.9965C192.83 89.2181 192.651 89.4061 192.436 89.5449L186.436 93.0149V89.8099Z" fill="#F5F5F5"/>
  <path d="M193.181 26.144V27.644C193.168 27.8999 193.093 28.1489 192.965 28.3706C192.836 28.5922 192.657 28.7802 192.441 28.919L186.441 32.389V29.184L192.441 25.714C192.851 25.499 193.181 25.674 193.181 26.144Z" fill="#F5F5F5"/>
  <path d="M186.436 125.834L192.436 122.364C192.846 122.129 193.176 122.319 193.176 122.789V124.289C193.162 124.546 193.088 124.796 192.959 125.018C192.83 125.241 192.651 125.43 192.436 125.569L186.436 129.034V125.834Z" fill="#F5F5F5"/>
  <path d="M200 71.1293V72.6293C199.986 72.8859 199.912 73.1356 199.784 73.358C199.655 73.5804 199.476 73.7693 199.26 73.9093L192.44 77.8443C192.035 78.0793 191.705 77.8893 191.705 77.4193V75.9193C191.719 75.664 191.793 75.4156 191.92 75.1941C192.048 74.9726 192.226 74.7843 192.44 74.6443L199.26 70.7043C199.685 70.4693 200 70.6593 200 71.1293Z" fill="#F5F5F5"/>
  <path d="M193.181 63.2449V64.7449C193.168 65.0008 193.093 65.2498 192.965 65.4714C192.836 65.6931 192.657 65.8811 192.441 66.0199L186.441 69.4899V66.2949L192.441 62.8299C192.851 62.5849 193.181 62.7749 193.181 63.2449Z" fill="#F5F5F5"/>
  <path d="M193.76 87.9132V86.4132C193.776 86.1592 193.851 85.9125 193.98 85.6928C194.108 85.4732 194.286 85.2866 194.5 85.1482L201.32 81.2082C201.73 80.9732 202.06 81.1632 202.06 81.6332V83.1332C202.045 83.3889 201.971 83.6376 201.842 83.8591C201.714 84.0806 201.535 84.2687 201.32 84.4082L194.5 88.3382C194.09 88.5732 193.76 88.3832 193.76 87.9132Z" fill="#F5F5F5"/>
  <path d="M196.75 119.129L189.93 123.069C189.525 123.304 189.195 123.114 189.195 122.644V121.144C189.209 120.888 189.283 120.639 189.411 120.417C189.538 120.194 189.716 120.005 189.93 119.864L196.75 115.929C197.16 115.694 197.49 115.884 197.49 116.354V117.854C197.477 118.11 197.402 118.359 197.274 118.58C197.145 118.802 196.966 118.99 196.75 119.129Z" fill="#F5F5F5"/>
  <path d="M189.93 31.0681L196.75 27.1281C197.16 26.8931 197.49 27.0831 197.49 27.5531V29.0531C197.477 29.309 197.402 29.558 197.274 29.7797C197.145 30.0013 196.966 30.1893 196.75 30.3281L189.93 34.2631C189.525 34.4981 189.195 34.3081 189.195 33.8381V32.3381C189.21 32.0837 189.284 31.8363 189.412 31.6157C189.539 31.3952 189.717 31.2076 189.93 31.0681Z" fill="#F5F5F5"/>
  <path d="M189.93 49.574L196.75 45.634C197.16 45.399 197.49 45.589 197.49 46.059V47.559C197.477 47.8155 197.402 48.0652 197.274 48.2877C197.145 48.5101 196.966 48.699 196.75 48.839L189.93 52.774C189.525 53.009 189.195 52.819 189.195 52.349V50.849C189.209 50.5937 189.283 50.3453 189.411 50.1238C189.538 49.9023 189.716 49.714 189.93 49.574Z" fill="#F5F5F5"/>
  <path d="M196.75 90.9483L189.93 94.8883C189.525 95.1233 189.195 94.9333 189.195 94.4633V92.9633C189.209 92.708 189.283 92.4596 189.411 92.2381C189.538 92.0166 189.716 91.8283 189.93 91.6883L196.75 87.7483C197.16 87.5133 197.49 87.7083 197.49 88.1733V89.6733C197.477 89.9292 197.402 90.1782 197.274 90.3999C197.145 90.6215 196.966 90.8095 196.75 90.9483Z" fill="#F5F5F5"/>
  <path d="M186.436 113.333L192.436 109.868C192.846 109.633 193.176 109.823 193.176 110.293V111.793C193.162 112.049 193.088 112.298 192.959 112.52C192.83 112.742 192.651 112.929 192.436 113.068L186.436 116.538V113.333Z" fill="#F5F5F5"/>
  <path d="M44.6855 128.669V130.169C44.6855 130.639 45.0155 130.829 45.4205 130.594L46.8605 129.764V126.574L45.4205 127.404C45.2079 127.543 45.0308 127.73 44.9031 127.95C44.7755 128.169 44.701 128.416 44.6855 128.669Z" fill="#F5F5F5"/>
  <path d="M46.86 180.854L40.86 184.319C40.646 184.46 40.468 184.649 40.3404 184.871C40.2127 185.093 40.139 185.343 40.125 185.599V187.099C40.125 187.569 40.455 187.759 40.86 187.524L46.86 184.054V180.854Z" fill="#F5F5F5"/>
  <path d="M40.1211 127.393V128.893C40.1211 129.363 40.4511 129.553 40.8561 129.318L46.8561 125.848V122.658L40.8561 126.123C40.6428 126.263 40.4653 126.45 40.3376 126.671C40.21 126.891 40.1358 127.139 40.1211 127.393Z" fill="#F5F5F5"/>
  <path d="M43.3705 147.563L36.5455 151.498C36.3315 151.639 36.1535 151.829 36.0259 152.051C35.8983 152.273 35.8245 152.522 35.8105 152.778V154.278C35.8105 154.748 36.1405 154.938 36.5455 154.703L43.3705 150.763C43.5832 150.624 43.7603 150.437 43.8879 150.218C44.0156 149.998 44.0901 149.752 44.1055 149.498V147.998C44.1055 147.498 43.7755 147.328 43.3705 147.563Z" fill="#F5F5F5"/>
  <path d="M46.86 165.17L40.86 168.64C40.6461 168.78 40.4681 168.968 40.3404 169.19C40.2127 169.411 40.1389 169.66 40.125 169.915V171.415C40.125 171.885 40.455 172.075 40.86 171.84L46.86 168.375V165.17Z" fill="#F5F5F5"/>
  <path d="M40.1211 109.29V110.79C40.1211 111.26 40.4511 111.45 40.8561 111.215L46.8561 107.75V104.555L40.8561 108.02C40.6434 108.16 40.4662 108.347 40.3386 108.568C40.2111 108.788 40.1366 109.035 40.1211 109.29Z" fill="#F5F5F5"/>
  <path d="M46.86 204.379L40.86 207.844C40.646 207.985 40.468 208.174 40.3404 208.397C40.2127 208.619 40.139 208.868 40.125 209.124V210.624C40.125 211.094 40.455 211.284 40.86 211.049L46.86 207.579V204.379Z" fill="#F5F5F5"/>
  <path d="M33.2852 162.169V163.669C33.2852 164.139 33.6152 164.329 34.0202 164.094L40.8402 160.154C41.0556 160.015 41.2349 159.827 41.3636 159.606C41.4922 159.384 41.5665 159.135 41.5802 158.879V157.379C41.5802 156.909 41.2502 156.719 40.8402 156.954L34.0002 160.889C33.7898 161.033 33.6158 161.223 33.4917 161.445C33.3676 161.667 33.2969 161.915 33.2852 162.169Z" fill="#F5F5F5"/>
  <path d="M40.1211 146.389V147.889C40.1211 148.359 40.4511 148.549 40.8561 148.314L46.8561 144.849V141.654L40.8561 145.124C40.6435 145.263 40.4663 145.45 40.3387 145.67C40.2111 145.889 40.1366 146.136 40.1211 146.389Z" fill="#F5F5F5"/>
  <path d="M39.5406 171.729V170.229C39.5406 169.759 39.2106 169.569 38.8006 169.804L32.0006 173.754C31.7867 173.894 31.6087 174.082 31.481 174.304C31.3534 174.525 31.2796 174.774 31.2656 175.029V176.529C31.2656 176.999 31.5956 177.189 32.0006 176.954L38.8006 172.999C39.0148 172.86 39.1934 172.673 39.3219 172.452C39.4504 172.231 39.5254 171.984 39.5406 171.729Z" fill="#F5F5F5"/>
  <path d="M36.5455 209.585L43.3705 205.649C43.5846 205.508 43.7625 205.319 43.8902 205.097C44.0178 204.875 44.0916 204.625 44.1055 204.37V202.87C44.1055 202.4 43.7755 202.21 43.3705 202.445L36.5455 206.384C36.3316 206.524 36.1536 206.713 36.026 206.934C35.8983 207.156 35.8245 207.404 35.8105 207.66V209.16C35.8105 209.63 36.1405 209.82 36.5455 209.585Z" fill="#F5F5F5"/>
  <path d="M39.57 104.864L32.75 108.804C32.5333 108.943 32.3524 109.13 32.222 109.352C32.0917 109.574 32.0156 109.823 32 110.079V111.579C32 112.049 32.33 112.239 32.735 112.004L39.555 108.064C39.7704 107.926 39.9498 107.738 40.0784 107.516C40.2071 107.294 40.2813 107.045 40.295 106.789V105.289C40.31 104.819 40 104.629 39.57 104.864Z" fill="#F5F5F5"/>
  <path d="M43.3705 110.464L36.5455 114.399C36.3316 114.539 36.1536 114.728 36.026 114.949C35.8983 115.17 35.8245 115.419 35.8105 115.674V117.174C35.8105 117.644 36.1405 117.834 36.5455 117.599L43.3705 113.659C43.5845 113.519 43.7624 113.331 43.8901 113.109C44.0178 112.888 44.0916 112.639 44.1055 112.384V110.884C44.1055 110.419 43.7755 110.229 43.3705 110.464Z" fill="#F5F5F5"/>
  <path d="M43.3705 128.569L36.5455 132.499C36.3316 132.639 36.1536 132.828 36.026 133.049C35.8983 133.271 35.8245 133.519 35.8105 133.774V135.274C35.8105 135.744 36.1405 135.939 36.5455 135.704L43.3705 131.764C43.5832 131.625 43.7603 131.439 43.8879 131.219C44.0156 130.999 44.0901 130.753 44.1055 130.499V128.999C44.1055 128.524 43.7755 128.334 43.3705 128.569Z" fill="#F5F5F5"/>
  <path d="M36.5455 178.218L43.3705 174.278C43.5851 174.138 43.7635 173.949 43.8912 173.726C44.0189 173.504 44.0924 173.255 44.1055 172.998V171.498C44.1055 171.028 43.7755 170.838 43.3705 171.073L36.5455 175.008C36.3315 175.149 36.1535 175.339 36.0259 175.561C35.8983 175.783 35.8245 176.032 35.8105 176.288V177.788C35.8105 178.263 36.1405 178.453 36.5455 178.218Z" fill="#F5F5F5"/>
  <path d="M46.86 188.693L40.86 192.163C40.6461 192.303 40.4681 192.492 40.3404 192.713C40.2127 192.935 40.1389 193.183 40.125 193.438V194.938C40.125 195.408 40.455 195.598 40.86 195.363L46.86 191.898V188.693Z" fill="#F5F5F5"/>
  <path d="M101.501 101.498V102.998C101.487 103.253 101.413 103.502 101.286 103.723C101.158 103.945 100.98 104.133 100.766 104.273L99.3262 105.103V101.913L100.766 101.083C101.181 100.813 101.501 100.998 101.501 101.498Z" fill="#F5F5F5"/>
  <path d="M99.3359 155.775L105.336 152.31C105.741 152.075 106.071 152.265 106.071 152.735V154.235C106.057 154.49 105.983 154.738 105.856 154.96C105.728 155.181 105.55 155.37 105.336 155.51L99.3359 158.98V155.775Z" fill="#F5F5F5"/>
  <path d="M106.075 94.9285V96.4285C106.061 96.6838 105.987 96.9322 105.859 97.1537C105.732 97.3752 105.554 97.5635 105.34 97.7035L99.3398 101.173V97.9785L105.34 94.5135C105.745 94.2685 106.075 94.4585 106.075 94.9285Z" fill="#F5F5F5"/>
  <path d="M102.825 118.449L109.65 114.499C110.055 114.264 110.385 114.454 110.385 114.924V116.424C110.371 116.679 110.297 116.928 110.169 117.149C110.042 117.371 109.864 117.559 109.65 117.699L102.825 121.639C102.42 121.874 102.09 121.684 102.09 121.214V119.714C102.106 119.461 102.181 119.215 102.308 118.995C102.436 118.776 102.613 118.589 102.825 118.449Z" fill="#F5F5F5"/>
  <path d="M99.3359 140.089L105.336 136.624C105.741 136.389 106.071 136.579 106.071 137.049V138.549C106.057 138.804 105.983 139.053 105.856 139.274C105.728 139.496 105.55 139.684 105.336 139.824L99.3359 143.294V140.089Z" fill="#F5F5F5"/>
  <path d="M106.075 76.4246V77.9246C106.061 78.1799 105.987 78.4283 105.859 78.6498C105.732 78.8712 105.554 79.0596 105.34 79.1996L99.3398 82.6696V79.4746L105.34 76.0096C105.745 75.7646 106.075 75.9546 106.075 76.4246Z" fill="#F5F5F5"/>
  <path d="M99.3359 176.114L105.336 172.644C105.741 172.409 106.071 172.599 106.071 173.069V174.569C106.057 174.824 105.983 175.072 105.856 175.294C105.728 175.515 105.55 175.704 105.336 175.844L99.3359 179.309V176.114Z" fill="#F5F5F5"/>
  <path d="M112.91 121.409V122.909C112.896 123.164 112.823 123.413 112.695 123.634C112.567 123.856 112.389 124.044 112.175 124.184L105.355 128.124C104.945 128.359 104.615 128.164 104.615 127.699V126.199C104.629 125.943 104.703 125.694 104.832 125.473C104.96 125.251 105.14 125.063 105.355 124.924L112.175 120.999C112.58 120.749 112.91 120.939 112.91 121.409Z" fill="#F5F5F5"/>
  <path d="M106.075 113.524V115.024C106.06 115.28 105.987 115.529 105.859 115.751C105.731 115.973 105.554 116.163 105.34 116.304L99.3398 119.769V116.574L105.34 113.109C105.745 112.864 106.075 113.054 106.075 113.524Z" fill="#F5F5F5"/>
  <path d="M106.656 138.198V136.698C106.67 136.442 106.744 136.193 106.873 135.972C107.001 135.75 107.181 135.562 107.396 135.423L114.216 131.498C114.621 131.263 114.951 131.458 114.951 131.928V133.428C114.937 133.683 114.864 133.932 114.736 134.153C114.608 134.375 114.43 134.563 114.216 134.703L107.396 138.643C107.001 138.858 106.656 138.668 106.656 138.198Z" fill="#F5F5F5"/>
  <path d="M109.65 169.408L102.825 173.348C102.42 173.583 102.09 173.393 102.09 172.923V171.423C102.104 171.167 102.178 170.918 102.305 170.696C102.433 170.474 102.611 170.284 102.825 170.143L109.65 166.208C110.055 165.973 110.385 166.163 110.385 166.633V168.133C110.371 168.388 110.297 168.637 110.169 168.858C110.042 169.08 109.864 169.268 109.65 169.408Z" fill="#F5F5F5"/>
  <path d="M102.825 81.3481L109.65 77.4081C110.055 77.1781 110.385 77.3681 110.385 77.8381V79.3381C110.371 79.5934 110.297 79.8418 110.169 80.0633C110.042 80.2848 109.864 80.4731 109.65 80.6131L102.825 84.5531C102.42 84.7881 102.09 84.5981 102.09 84.1281V82.6281C102.103 82.372 102.176 82.1226 102.304 81.9001C102.432 81.6777 102.61 81.4886 102.825 81.3481Z" fill="#F5F5F5"/>
  <path d="M102.825 99.8533L109.65 95.9133C110.055 95.6783 110.385 95.8683 110.385 96.3383V97.8383C110.371 98.0935 110.297 98.3419 110.169 98.5634C110.042 98.7849 109.864 98.9733 109.65 99.1133L102.825 103.053C102.42 103.283 102.09 103.093 102.09 102.623V101.123C102.105 100.869 102.179 100.621 102.306 100.401C102.434 100.18 102.612 99.9928 102.825 99.8533Z" fill="#F5F5F5"/>
  <path d="M109.65 141.228L102.825 145.168C102.42 145.403 102.09 145.213 102.09 144.743V143.243C102.104 142.988 102.178 142.738 102.305 142.516C102.433 142.294 102.611 142.105 102.825 141.963L109.65 138.028C110.055 137.793 110.385 137.983 110.385 138.453V139.953C110.371 140.209 110.297 140.457 110.169 140.679C110.042 140.9 109.864 141.088 109.65 141.228Z" fill="#F5F5F5"/>
  <path d="M99.3359 163.615L105.336 160.15C105.741 159.915 106.071 160.105 106.071 160.575V162.075C106.057 162.33 105.983 162.578 105.856 162.8C105.728 163.021 105.55 163.21 105.336 163.35L99.3359 166.82V163.615Z" fill="#F5F5F5"/>
  <path d="M138.922 51.3651L138.927 159.49L181.472 134.96V26.8301L138.922 51.3651Z" fill="#FFBE62"/>
  <path opacity="0.6" d="M138.922 51.3651L138.927 159.49L181.472 134.96V26.8301L138.922 51.3651Z" fill="white"/>
  <path opacity="0.5" d="M145.076 53.6543L147.036 55.1543L147.041 144.814L145.081 148.584L145.076 53.6543Z" fill="#FFBE62"/>
  <path opacity="0.5" d="M174.707 131.45V36.5254L172.637 40.3404V130L174.707 131.45Z" fill="#FFBE62"/>
  <path opacity="0.2" d="M174.707 131.45L172.637 130L147.042 144.815L145.082 148.585L174.707 131.45Z" fill="#FFBE62"/>
  <path opacity="0.2" d="M145.076 53.6554L147.036 55.1554L172.636 40.3404L174.706 36.5254L145.076 53.6554Z" fill="#FFBE62"/>
  <path d="M136.861 158.299L138.926 159.489L138.921 51.3638L136.861 50.1738V158.299Z" fill="#607087"/>
  <path d="M179.406 25.6348L136.861 50.1748L138.921 51.3648L181.471 26.8298L179.406 25.6348Z" fill="#37474F"/>
  <path d="M139.926 101.699L140.651 102.114L140.656 113.184L139.926 112.764V101.699Z" fill="#E0E0E0"/>
  <path d="M140.65 102.114L144.565 99.8535V110.924L140.655 113.184L140.65 102.114Z" fill="#FAFAFA"/>
  <path d="M144.566 99.8545L143.841 99.4395L139.926 101.699L140.651 102.114L144.566 99.8545Z" fill="#EBEBEB"/>
  <path d="M142.155 103.76L143.95 104.795L144.665 103.55L142.87 102.5C142.812 102.473 142.748 102.462 142.685 102.468C142.622 102.475 142.561 102.498 142.51 102.535C142.363 102.632 142.241 102.762 142.154 102.915C142.067 103.068 142.018 103.24 142.01 103.415C142 103.481 142.008 103.547 142.034 103.608C142.06 103.669 142.101 103.722 142.155 103.76Z" fill="#E0E0E0"/>
  <path opacity="0.1" d="M143.926 103.12V104.56L143.736 104.67L142.151 103.755C142.136 103.749 142.122 103.738 142.111 103.725L143.541 102.9L143.926 103.12Z" fill="#607087"/>
  <path d="M142.666 104.61V106.49L149.846 102.35V100.465L142.666 104.61Z" fill="#FAFAFA"/>
  <path d="M142.666 104.609L142.016 104.229V106.114L142.666 106.489V104.609Z" fill="#E0E0E0"/>
  <path d="M149.846 100.465L149.191 100.09L142.016 104.23L142.666 104.61L149.846 100.465Z" fill="#EBEBEB"/>
  <path d="M141.951 108.655C141.963 108.426 142.03 108.202 142.144 108.003C142.259 107.805 142.419 107.635 142.611 107.51C142.976 107.3 143.271 107.47 143.271 107.89C143.253 108.238 143.111 108.568 142.871 108.82V110.05C142.867 110.127 142.844 110.201 142.806 110.268C142.768 110.335 142.715 110.392 142.651 110.435L142.571 110.48C142.451 110.555 142.351 110.48 142.351 110.355V109.125C142.116 109.14 141.951 108.965 141.951 108.655Z" fill="#607087"/>
  <path d="M186.426 21.4455V133.945L183.056 135.885L181.476 134.96V26.8255L138.926 51.3855V161.385L135.556 163.33L133.961 162.41V49.9105C134.005 49.1007 134.239 48.3127 134.643 47.61C135.048 46.9073 135.613 46.3097 136.291 45.8655L182.501 19.1755C182.736 19.0029 183.013 18.8965 183.303 18.8675C183.594 18.8384 183.886 18.8878 184.151 19.0105L185.736 19.9305C185.786 19.9586 185.835 19.9903 185.881 20.0255C186.07 20.2082 186.216 20.43 186.31 20.6753C186.404 20.9205 186.444 21.1834 186.426 21.4455Z" fill="#EBEBEB"/>
  <path d="M140.081 50.7146L138.926 51.3846V161.385L135.556 163.33L133.961 162.41V49.9096C133.988 49.0937 134.224 48.2983 134.646 47.5996L136.246 48.4996L140.081 50.7146Z" fill="#E0E0E0"/>
  <path d="M186.42 21.4455V133.945L183.05 135.885V25.9105L181.5 26.8255L140.105 50.7155L138.95 51.3855V161.385L135.58 163.325V50.8255C135.624 50.0156 135.857 49.2275 136.262 48.5247C136.667 47.822 137.231 47.2244 137.91 46.7805L184.115 20.1055C184.349 19.9352 184.625 19.8302 184.913 19.8012C185.201 19.7722 185.492 19.8203 185.755 19.9405C185.806 19.9686 185.854 20.0003 185.9 20.0355C186.195 20.3067 186.374 20.6809 186.4 21.0805C186.414 21.2016 186.421 21.3235 186.42 21.4455Z" fill="#FAFAFA"/>
  <path d="M185.132 20.1654C185.277 20.164 185.42 20.2001 185.547 20.2704L185.632 20.3304C185.851 20.5378 185.987 20.8192 186.012 21.1204C186.02 21.2286 186.02 21.3372 186.012 21.4454V133.715L183.422 135.215V25.9104C183.422 25.8417 183.403 25.7741 183.369 25.7145C183.335 25.6549 183.286 25.6052 183.227 25.5704C183.167 25.5365 183.1 25.5192 183.032 25.5204C182.963 25.5197 182.896 25.5369 182.837 25.5704L181.282 26.5004L139.887 50.3954L138.732 51.0604C138.672 51.0952 138.623 51.1449 138.589 51.2045C138.555 51.2641 138.537 51.3317 138.537 51.4004V161.15L135.947 162.65V50.8154C135.99 50.0743 136.205 49.3535 136.576 48.7102C136.946 48.067 137.462 47.5192 138.082 47.1104L184.287 20.4354C184.54 20.2735 184.831 20.1804 185.132 20.1654ZM185.132 19.7754C184.763 19.7891 184.404 19.8994 184.092 20.0954L137.887 46.7704C137.208 47.2144 136.643 47.8119 136.239 48.5146C135.834 49.2174 135.6 50.0056 135.557 50.8154V163.315L138.927 161.375V51.3754L140.082 50.7054L181.502 26.8254L183.077 25.9104V135.91L186.447 133.97V21.4704C186.455 21.3455 186.455 21.2203 186.447 21.0954C186.42 20.6958 186.241 20.3216 185.947 20.0504C185.733 19.8875 185.471 19.7996 185.202 19.8004L185.132 19.7754Z" fill="#E0E0E0"/>
  <path d="M181.471 134.961L181.476 26.8263L183.051 25.9062L183.056 135.886L181.471 134.961Z" fill="#E0E0E0"/>
  <path d="M183.056 135.886L138.926 161.361V159.491L181.471 134.961L183.056 135.886Z" fill="#F0F0F0"/>
  <path d="M99.3194 71.7252V184.225L95.9544 186.165L94.3694 185.24V77.1052L51.8194 101.665V211.64L48.4544 213.585L46.8594 212.665V100.165C46.9033 99.3561 47.1371 98.5688 47.5419 97.8669C47.9467 97.165 48.5111 96.5683 49.1894 96.1252L95.3844 69.4502C95.6193 69.2769 95.8967 69.1705 96.1873 69.1423C96.4778 69.1141 96.7706 69.1652 97.0344 69.2902C97.4594 69.5302 98.1994 69.9652 98.6194 70.2052C98.6713 70.2309 98.72 70.2628 98.7644 70.3002C98.9564 70.482 99.1058 70.704 99.2017 70.9504C99.2977 71.1968 99.3379 71.4614 99.3194 71.7252Z" fill="#EBEBEB"/>
  <path d="M52.9998 100.999L51.8448 101.669V211.639L48.4798 213.584L46.8848 212.664V100.164C46.9112 99.3499 47.1471 98.5561 47.5698 97.8594L49.1648 98.7794L52.9998 100.999Z" fill="#E0E0E0"/>
  <path d="M99.3135 71.725V184.225L95.9485 186.165V76.19L94.3685 77.105L52.9985 101L51.8435 101.67V211.64L48.4785 213.58V101.08C48.5067 100.264 48.7443 99.4681 49.1685 98.77C49.561 98.0633 50.125 97.4667 50.8085 97.035L96.9985 70.375C97.2328 70.2047 97.508 70.0997 97.7962 70.0707C98.0844 70.0417 98.375 70.0898 98.6385 70.21C98.6905 70.2357 98.7392 70.2676 98.7835 70.305C99.0849 70.574 99.2726 70.9476 99.3085 71.35C99.3179 71.4748 99.3196 71.6 99.3135 71.725Z" fill="#FAFAFA"/>
  <path d="M98.0236 70.4505C98.1699 70.4467 98.3147 70.4812 98.4436 70.5506L98.5236 70.6105C98.7482 70.8165 98.8843 71.1014 98.9036 71.4055C98.9117 71.5121 98.9117 71.619 98.9036 71.7255V184.001L96.3186 185.501V76.1906C96.3193 76.1392 96.3096 76.0881 96.2903 76.0405C96.2709 75.9929 96.2422 75.9496 96.2059 75.9133C96.1695 75.8769 96.1263 75.8482 96.0786 75.8289C96.031 75.8095 95.98 75.7999 95.9286 75.8006C95.8603 75.7994 95.7929 75.8167 95.7336 75.8505L94.1536 76.7655L52.7586 100.661L51.6036 101.326C51.5443 101.36 51.4951 101.41 51.4609 101.47C51.4267 101.529 51.4087 101.597 51.4086 101.666V211.416L48.8236 212.916V101.096C48.8666 100.354 49.082 99.6336 49.4527 98.9904C49.8233 98.3472 50.339 97.7994 50.9586 97.3905L97.1586 70.7155C97.4126 70.5556 97.7037 70.4643 98.0036 70.4505M98.0036 70.0605C97.6355 70.0736 97.2771 70.1822 96.9636 70.3755L50.7636 97.0506C50.0801 97.4822 49.5161 98.0788 49.1236 98.7856C48.6994 99.4837 48.4618 100.279 48.4336 101.096V213.596L51.7986 211.656V101.666L52.9986 101.001L94.3936 77.1105L95.9736 76.1955V186.196L99.3386 184.256V71.7555C99.3463 71.6307 99.3463 71.5054 99.3386 71.3805C99.3027 70.9782 99.115 70.6045 98.8136 70.3355C98.7692 70.2982 98.7205 70.2663 98.6686 70.2405C98.4853 70.1385 98.2783 70.0868 98.0686 70.0905L98.0036 70.0605Z" fill="#E0E0E0"/>
  <path d="M94.3691 185.239V77.1045L95.9491 76.1895V186.164L94.3691 185.239Z" fill="#E0E0E0"/>
  <path d="M95.9503 186.165L51.8203 211.64V209.775L94.3703 185.24L95.9503 186.165Z" fill="#F0F0F0"/>
  <path d="M94.3703 185.24L51.8203 160.71V101.665L94.3703 77.1055V185.24Z" fill="#EBEBEB"/>
  <path d="M51.8853 170.991L51.8203 183.136L81.7503 165.856L71.2603 159.801L51.8853 170.991Z" fill="#FFBE62"/>
  <path opacity="0.2" d="M51.8853 170.991L51.8203 183.136L81.7503 165.856L71.2603 159.801L51.8853 170.991Z" fill="white"/>
  <path d="M81.7503 165.855V177.965L51.8203 195.245V183.135L81.7503 165.855Z" fill="#FFBE62"/>
  <path d="M71.2603 147.695L51.8203 158.915V146.805L60.7703 141.635L71.2553 147.69L71.2603 147.695Z" fill="#FFBE62"/>
  <path opacity="0.4" d="M71.2603 147.695L51.8203 158.915V146.805L60.7703 141.635L71.2553 147.69L71.2603 147.695Z" fill="white"/>
  <path d="M71.2603 147.689V159.799L51.8203 171.024V158.914L71.2553 147.689H71.2603Z" fill="#FFBE62"/>
  <path opacity="0.1" d="M71.2603 147.689V159.799L51.8203 171.024V158.914L71.2553 147.689H71.2603Z" fill="white"/>
  <path d="M60.7703 129.53L51.8203 134.695V124.365L60.7653 129.525L60.7703 129.53Z" fill="#FFBE62"/>
  <path opacity="0.6" d="M60.7703 129.53L51.8203 134.695V124.365L60.7653 129.525L60.7703 129.53Z" fill="white"/>
  <path d="M51.8203 134.7V146.805L60.7703 141.635V129.53V129.525H60.7653L51.8203 134.695V134.7Z" fill="#FFBE62"/>
  <path opacity="0.3" d="M51.8203 134.7V146.805L60.7703 141.635V129.53V129.525H60.7653L51.8203 134.695V134.7Z" fill="white"/>
  <path d="M174.239 173.501L178.169 171.231C178.256 171.203 178.332 171.149 178.386 171.075C178.44 171.001 178.469 170.912 178.469 170.821C178.469 170.729 178.44 170.64 178.386 170.567C178.332 170.493 178.256 170.438 178.169 170.411L155.499 157.331C155.277 157.22 155.032 157.162 154.784 157.162C154.536 157.162 154.291 157.22 154.069 157.331L150.139 159.601C150.052 159.63 149.977 159.685 149.924 159.759C149.87 159.833 149.842 159.922 149.842 160.013C149.842 160.104 149.87 160.193 149.924 160.267C149.977 160.341 150.052 160.397 150.139 160.426L172.814 173.501C173.034 173.614 173.278 173.673 173.526 173.673C173.774 173.673 174.018 173.614 174.239 173.501Z" fill="#E0E0E0"/>
  <path d="M192.439 174.735C204.176 174.735 213.689 169.242 213.689 162.465C213.689 155.689 204.176 150.195 192.439 150.195C180.703 150.195 171.189 155.689 171.189 162.465C171.189 169.242 180.703 174.735 192.439 174.735Z" fill="#E0E0E0"/>
  <path d="M92.6884 209.906C88.9334 208.131 85.2334 206.156 81.3484 204.711C78.1684 203.526 74.8484 202.686 71.8934 201.001C70.7869 200.421 69.8209 199.605 69.0634 198.611C68.6894 198.112 68.4327 197.535 68.3123 196.923C68.192 196.311 68.2112 195.68 68.3684 195.076C68.8434 193.576 70.2084 193.076 71.6534 193.001C75.2234 192.856 78.7684 193.781 82.0534 195.191C85.3384 196.601 88.3834 198.486 91.4234 200.366C94.2437 202.173 97.2967 203.588 100.498 204.571C103.878 205.571 107.368 206.411 110.498 208.146C111.314 208.531 112.007 209.135 112.498 209.891C113.498 211.661 111.838 213.491 110.148 213.861C108.107 214.248 106.011 214.239 103.973 213.836C99.9984 213.156 96.3234 211.626 92.6884 209.906Z" fill="#E0E0E0"/>
  <path d="M33.8042 222.5C38.3042 225.125 38.3042 229.375 33.8042 232C29.3042 234.625 22.0292 234.625 17.5392 232C13.0492 229.375 13.0392 225.13 17.5392 222.5C22.0392 219.87 29.3142 219.895 33.8042 222.5Z" fill="#E0E0E0"/>
  <path d="M228.765 119.961C233.475 122.461 233.66 126.841 229.17 129.731C224.68 132.621 217.23 132.931 212.515 130.426C207.8 127.921 207.625 123.546 212.115 120.656C216.605 117.766 224.055 117.456 228.765 119.961Z" fill="#E0E0E0"/>
  <path d="M18.7741 228.815C15.0791 225 12.9141 215.385 16.4991 212.365H34.8291C38.4291 215.365 36.2641 225 32.5741 228.815L32.4741 228.92L32.3491 229.045C32.2441 229.145 32.1341 229.245 32.0141 229.345L31.9241 229.415L31.6491 229.625C31.4884 229.738 31.3215 229.841 31.1491 229.935C28.1141 231.705 23.1891 231.705 20.1491 229.935C19.9891 229.845 19.8291 229.735 19.6491 229.625L19.3891 229.425L19.2791 229.34C19.1641 229.245 19.0591 229.15 18.9591 229.05L18.8141 228.905L18.7741 228.815Z" fill="#EBEBEB"/>
  <path d="M33.2388 211.144C37.4188 213.584 37.4188 217.544 33.2388 219.984C29.0588 222.424 22.2837 222.424 18.1037 219.984C13.9237 217.544 13.9237 213.584 18.1037 211.144C22.2837 208.704 29.0588 208.704 33.2388 211.144Z" fill="#FAFAFA"/>
  <path d="M31.23 212.319C34.3 214.109 34.3 217.014 31.23 218.819C28.16 220.624 23.185 220.609 20.115 218.819C17.045 217.029 17.045 214.119 20.115 212.319C23.185 210.519 28.16 210.529 31.23 212.319Z" fill="#EBEBEB"/>
  <path d="M20.1134 215.399C23.1834 213.609 28.1584 213.609 31.2284 215.399C31.9729 215.807 32.605 216.393 33.0684 217.104C32.605 217.815 31.9729 218.401 31.2284 218.809C28.1584 220.599 23.1834 220.599 20.1134 218.809C19.37 218.4 18.7383 217.814 18.2734 217.104C18.7383 216.394 19.37 215.809 20.1134 215.399Z" fill="white"/>
  <path d="M23.1652 197.79C21.9302 199.355 18.2152 200.04 16.3652 196.215C14.6252 192.625 12.7902 189.215 12.2402 187.915C12.1627 187.742 12.121 187.556 12.1174 187.367C12.1139 187.178 12.1487 186.99 12.2197 186.815C12.2907 186.639 12.3965 186.48 12.5307 186.347C12.6648 186.214 12.8245 186.109 13.0002 186.04C13.0002 186.04 12.9552 184 16.5002 185.115C20.0452 186.23 22.6402 188.115 24.4002 191.4C26.1602 194.685 25.4352 197.16 23.1652 197.79Z" fill="#F0F0F0"/>
  <path d="M25.0547 202.894C24.9409 202.208 24.789 201.528 24.5997 200.859C24.2101 199.54 23.7273 198.25 23.1547 196.999C21.9834 194.438 20.4493 192.058 18.5997 189.934C17.5678 188.725 16.4263 187.613 15.1896 186.614C15.1546 186.584 15.1296 186.664 15.1546 186.689C17.2465 188.573 19.0746 190.731 20.5897 193.104C22.0547 195.444 23.2078 197.965 24.0197 200.604C24.2447 201.339 24.4646 202.079 24.6596 202.824C24.8546 203.569 24.9946 204.354 25.1596 205.114C25.1596 205.189 25.2996 205.224 25.2996 205.114C25.2771 204.369 25.1952 203.626 25.0547 202.894Z" fill="#E0E0E0"/>
  <path opacity="0.1" d="M25.0547 202.894C24.9409 202.208 24.789 201.528 24.5997 200.859C24.2101 199.54 23.7273 198.25 23.1547 196.999C21.9834 194.438 20.4493 192.058 18.5997 189.934C17.5678 188.725 16.4263 187.613 15.1896 186.614C15.1546 186.584 15.1296 186.664 15.1546 186.689C17.2465 188.573 19.0746 190.731 20.5897 193.104C22.0547 195.444 23.2078 197.965 24.0197 200.604C24.2447 201.339 24.4646 202.079 24.6596 202.824C24.8546 203.569 24.9946 204.354 25.1596 205.114C25.1596 205.189 25.2996 205.224 25.2996 205.114C25.2771 204.369 25.1952 203.626 25.0547 202.894Z" fill="#607087"/>
  <path d="M27.194 195.049C23.969 196.049 21.574 193.549 22.404 189.584C23.234 185.619 27.379 181.259 28.944 182.434C29.944 181.459 32.074 181.809 33.089 185.014C34.104 188.219 33.179 196.444 27.194 195.049Z" fill="#E0E0E0"/>
  <path d="M29.0847 184.835C28.1681 187.133 27.4505 189.505 26.9397 191.925C26.392 194.376 25.9764 196.855 25.6947 199.35C25.1197 204.17 25.0197 203.9 25.0497 208.75C25.0497 210.095 25.0797 211.435 25.1047 212.78C25.1297 214.125 25.1047 215.555 25.2247 216.935C25.2747 217.46 26.0247 217.32 26.0297 216.835C26.0797 214.42 25.9447 211.995 25.9247 209.575C25.8958 208.908 25.9108 208.24 25.9697 207.575C26.0468 202.691 26.483 197.82 27.2747 193C27.5047 191.665 27.7747 190.33 28.0697 189C28.3647 187.67 28.7997 186.24 29.1647 184.86C29.1797 184.835 29.1147 184.76 29.0847 184.835Z" fill="#E0E0E0"/>
  <path opacity="0.1" d="M29.0847 184.835C28.1681 187.133 27.4505 189.505 26.9397 191.925C26.392 194.376 25.9764 196.855 25.6947 199.35C25.1197 204.17 25.0197 203.9 25.0497 208.75C25.0497 210.095 25.0797 211.435 25.1047 212.78C25.1297 214.125 25.1047 215.555 25.2247 216.935C25.2747 217.46 26.0247 217.32 26.0297 216.835C26.0797 214.42 25.9447 211.995 25.9247 209.575C25.8958 208.908 25.9108 208.24 25.9697 207.575C26.0468 202.691 26.483 197.82 27.2747 193C27.5047 191.665 27.7747 190.33 28.0697 189C28.3647 187.67 28.7997 186.24 29.1647 184.86C29.1797 184.835 29.1147 184.76 29.0847 184.835Z" fill="#607087"/>
  <path d="M20.0394 205.239C19.8044 207.189 17.2794 208.774 14.1394 207.739C10.9994 206.704 4.40439 199.274 7.07939 198.194C6.81939 196.769 15.0144 194.964 19.4994 199.694C22.7544 203.144 20.0394 205.239 20.0394 205.239Z" fill="#E0E0E0"/>
  <path d="M24.4545 208.809C24.0383 208.29 23.5908 207.798 23.1145 207.334C22.1495 206.379 21.1145 205.479 20.0795 204.624C17.9174 202.89 15.5836 201.382 13.1145 200.124C11.7546 199.398 10.3501 198.758 8.90946 198.209C8.86946 198.209 8.88446 198.274 8.90946 198.284C10.1095 198.854 11.3145 199.404 12.4745 200.054C13.6345 200.704 14.8445 201.474 15.9745 202.259C18.152 203.775 20.2082 205.459 22.1245 207.294C22.6645 207.794 23.1845 208.364 23.7295 208.879C24.2745 209.394 24.9145 209.909 25.4595 210.469C25.5395 210.554 25.6795 210.514 25.5945 210.399C25.2095 209.884 24.8595 209.329 24.4545 208.809Z" fill="#E0E0E0"/>
  <path opacity="0.1" d="M24.4545 208.809C24.0383 208.29 23.5908 207.798 23.1145 207.334C22.1495 206.379 21.1145 205.479 20.0795 204.624C17.9174 202.89 15.5836 201.382 13.1145 200.124C11.7546 199.398 10.3501 198.758 8.90946 198.209C8.86946 198.209 8.88446 198.274 8.90946 198.284C10.1095 198.854 11.3145 199.404 12.4745 200.054C13.6345 200.704 14.8445 201.474 15.9745 202.259C18.152 203.775 20.2082 205.459 22.1245 207.294C22.6645 207.794 23.1845 208.364 23.7295 208.879C24.2745 209.394 24.9145 209.909 25.4595 210.469C25.5395 210.554 25.6795 210.514 25.5945 210.399C25.2095 209.884 24.8595 209.329 24.4545 208.809Z" fill="#607087"/>
  <path d="M27.8889 209.499C26.1589 208.739 26.4889 206.549 29.2639 204.319C32.0389 202.089 37.9589 201.999 37.9989 203.199C39.2639 203.439 38.4989 207.409 34.9989 210.509C31.4989 213.609 27.5839 211.999 27.8889 209.499Z" fill="#E0E0E0"/>
  <path d="M32.1802 206.304C29.4633 207.504 27.1804 209.509 25.6402 212.049C25.5552 212.194 25.7752 212.474 25.8752 212.314C27.4254 209.809 29.5998 207.75 32.1852 206.339C32.1852 206.339 32.2102 206.289 32.1802 206.304Z" fill="#E0E0E0"/>
  <path opacity="0.1" d="M32.1802 206.304C29.4633 207.504 27.1804 209.509 25.6402 212.049C25.5552 212.194 25.7752 212.474 25.8752 212.314C27.4254 209.809 29.5998 207.75 32.1852 206.339C32.1852 206.339 32.2102 206.289 32.1802 206.304Z" fill="#607087"/>
  <path d="M28.2445 213.308C26.2445 215.278 28.4545 217.718 31.7045 218.928C34.4617 219.853 37.4645 219.713 40.1245 218.538C41.6945 217.753 42.0145 217.363 42.0145 217.363C41.6092 215.973 41.0526 214.632 40.3545 213.363C39.4948 212.013 38.264 210.94 36.8097 210.271C35.3554 209.602 33.7391 209.367 32.1545 209.593C27.9995 210.148 27.6495 211.878 28.2445 213.308Z" fill="#F0F0F0"/>
  <path d="M36.6586 214.79C35.0482 213.946 33.3358 213.312 31.5636 212.905C29.8186 212.57 27.6736 212.555 26.2586 213.795C25.7136 214.295 24.9836 215.32 25.4286 216.06C25.4736 216.135 25.6936 216.27 25.7436 216.125C25.8444 215.654 25.9952 215.194 26.1936 214.755C26.4554 214.319 26.8327 213.965 27.2836 213.73C28.4326 213.158 29.7252 212.939 30.9986 213.1C32.9986 213.295 34.8486 214.1 36.6736 214.835C36.6736 214.845 36.6736 214.8 36.6586 214.79Z" fill="#E0E0E0"/>
  <path opacity="0.1" d="M36.6586 214.79C35.0482 213.946 33.3358 213.312 31.5636 212.905C29.8186 212.57 27.6736 212.555 26.2586 213.795C25.7136 214.295 24.9836 215.32 25.4286 216.06C25.4736 216.135 25.6936 216.27 25.7436 216.125C25.8444 215.654 25.9952 215.194 26.1936 214.755C26.4554 214.319 26.8327 213.965 27.2836 213.73C28.4326 213.158 29.7252 212.939 30.9986 213.1C32.9986 213.295 34.8486 214.1 36.6736 214.835C36.6736 214.845 36.6736 214.8 36.6586 214.79Z" fill="#607087"/>
  <path d="M28.7948 200.9C28.2948 202.665 30.5398 204.31 33.3398 203.365C36.1398 202.42 39.0398 201.55 41.4248 201.52C43.8098 201.49 45.3198 199.925 44.8298 198.865C44.3398 197.805 43.7598 195.295 37.6848 194.575C31.6098 193.855 28.8698 196 27.5998 197.68C26.3298 199.36 27.7798 201.195 28.7948 200.9Z" fill="#F0F0F0"/>
  <path d="M40.0834 197.199C39.439 197.054 38.7785 196.994 38.1184 197.019C37.4853 197.021 36.8533 197.073 36.2284 197.174C34.9964 197.393 33.797 197.766 32.6584 198.284C30.5234 199.229 28.4034 200.469 27.0134 202.389C26.2663 203.418 25.6656 204.545 25.2284 205.739C25.1484 205.964 25.5884 206.094 25.6834 205.889C26.1176 204.887 26.6187 203.915 27.1834 202.979C27.8002 202.031 28.5907 201.208 29.5134 200.554C31.4628 199.159 33.6656 198.157 35.9984 197.604C36.6759 197.448 37.3647 197.346 38.0584 197.299C38.7477 197.289 39.437 197.315 40.1234 197.379C40.1884 197.384 40.1484 197.214 40.0834 197.199Z" fill="#E0E0E0"/>
  <path opacity="0.1" d="M40.0834 197.199C39.439 197.054 38.7785 196.994 38.1184 197.019C37.4853 197.021 36.8533 197.073 36.2284 197.174C34.9964 197.393 33.797 197.766 32.6584 198.284C30.5234 199.229 28.4034 200.469 27.0134 202.389C26.2663 203.418 25.6656 204.545 25.2284 205.739C25.1484 205.964 25.5884 206.094 25.6834 205.889C26.1176 204.887 26.6187 203.915 27.1834 202.979C27.8002 202.031 28.5907 201.208 29.5134 200.554C31.4628 199.159 33.6656 198.157 35.9984 197.604C36.6759 197.448 37.3647 197.346 38.0584 197.299C38.7477 197.289 39.437 197.315 40.1234 197.379C40.1884 197.384 40.1484 197.214 40.0834 197.199Z" fill="#607087"/>
  <path d="M23.8144 210.83C23.3144 209.02 21.0444 208.005 18.0394 207.78C16.5601 207.646 15.0733 207.935 13.7518 208.613C12.4303 209.291 11.3285 210.33 10.5744 211.61C9.00437 214.295 8.34937 216.435 9.30437 216.785C10.2594 217.135 14.3044 217.695 16.8994 217.925C19.4944 218.155 22.7494 217.69 24.8994 215.71C27.0494 213.73 26.2994 211.25 23.8144 210.83Z" fill="#E0E0E0"/>
  <path d="M23.9239 210.593C22.8664 210.317 21.7629 210.264 20.6839 210.438C19.6414 210.562 18.6155 210.799 17.6239 211.143C16.5783 211.511 15.5649 211.964 14.5939 212.498C14.0839 212.778 13.5839 213.073 13.0939 213.383C12.6245 213.659 12.1766 213.97 11.7539 214.313C11.7539 214.313 11.7539 214.388 11.7539 214.373C12.2539 214.153 12.7089 213.843 13.1789 213.578C13.6489 213.313 14.1789 213.013 14.7189 212.748C15.6866 212.251 16.6892 211.825 17.7189 211.473C18.7499 211.128 19.8167 210.899 20.8989 210.793C21.9126 210.738 22.9291 210.763 23.9389 210.868C24.1689 210.893 24.0489 210.633 23.9239 210.593Z" fill="#E0E0E0"/>
  <path opacity="0.1" d="M23.9239 210.593C22.8664 210.317 21.7629 210.264 20.6839 210.438C19.6414 210.562 18.6155 210.799 17.6239 211.143C16.5783 211.511 15.5649 211.964 14.5939 212.498C14.0839 212.778 13.5839 213.073 13.0939 213.383C12.6245 213.659 12.1766 213.97 11.7539 214.313C11.7539 214.313 11.7539 214.388 11.7539 214.373C12.2539 214.153 12.7089 213.843 13.1789 213.578C13.6489 213.313 14.1789 213.013 14.7189 212.748C15.6866 212.251 16.6892 211.825 17.7189 211.473C18.7499 211.128 19.8167 210.899 20.8989 210.793C21.9126 210.738 22.9291 210.763 23.9389 210.868C24.1689 210.893 24.0489 210.633 23.9239 210.593Z" fill="#607087"/>
  <path d="M213.569 126.791C209.789 122.871 207.569 112.956 211.254 109.846H230.029C233.719 112.956 231.499 122.846 227.719 126.791L227.614 126.896L227.484 127.026C227.374 127.131 227.264 127.236 227.139 127.336L227.049 127.406C226.958 127.484 226.863 127.558 226.764 127.626C226.604 127.741 226.439 127.851 226.264 127.946C223.154 129.771 218.109 129.771 214.999 127.946C214.829 127.851 214.669 127.741 214.499 127.626L214.234 127.421L214.124 127.331C214.007 127.239 213.897 127.138 213.794 127.031L213.644 126.886L213.569 126.791Z" fill="#EBEBEB"/>
  <path d="M228.4 108.595C232.685 111.095 232.685 115.18 228.4 117.695C224.115 120.21 217.17 120.195 212.9 117.695C208.63 115.195 208.62 111.105 212.9 108.595C217.18 106.085 224.115 106.08 228.4 108.595Z" fill="#FAFAFA"/>
  <path d="M226.34 109.8C229.485 111.65 229.485 114.64 226.34 116.485C223.195 118.33 218.095 118.33 214.945 116.485C211.795 114.64 211.8 111.65 214.945 109.8C218.09 107.95 223.195 107.955 226.34 109.8Z" fill="#EBEBEB"/>
  <path d="M214.944 113.001C218.094 111.156 223.194 111.156 226.339 113.001C227.103 113.42 227.751 114.023 228.224 114.756C227.751 115.489 227.103 116.092 226.339 116.511C223.194 118.356 218.094 118.356 214.944 116.511C214.18 116.09 213.533 115.487 213.059 114.756C213.533 114.024 214.18 113.422 214.944 113.001Z" fill="white"/>
  <path d="M218.074 94.8391C216.804 96.4491 212.999 97.1541 211.099 93.2141C209.319 89.5141 207.439 86.0292 206.874 84.6642C206.794 84.4871 206.751 84.2957 206.746 84.1014C206.742 83.9072 206.777 83.7141 206.85 83.5337C206.922 83.3534 207.03 83.1896 207.168 83.0522C207.305 82.9148 207.469 82.8066 207.649 82.7342C207.649 82.7342 207.599 80.6341 211.239 81.7791C214.879 82.9241 217.529 84.8891 219.334 88.2541C221.139 91.6191 220.399 94.1891 218.074 94.8391Z" fill="#F0F0F0"/>
  <path d="M219.999 100.095C219.883 99.3862 219.726 98.685 219.529 97.9946C219.128 96.6265 218.626 95.2896 218.029 93.9946C216.832 91.358 215.261 88.9078 213.364 86.7196C212.308 85.4719 211.136 84.3269 209.864 83.2996C209.824 83.2696 209.804 83.3496 209.829 83.3746C214.107 87.2269 217.248 92.1779 218.909 97.6896C219.144 98.4446 219.369 99.1896 219.569 99.9796C219.769 100.77 219.914 101.55 220.104 102.335C220.104 102.41 220.254 102.45 220.249 102.335C220.223 101.583 220.139 100.834 219.999 100.095Z" fill="#E0E0E0"/>
  <path opacity="0.1" d="M219.999 100.095C219.883 99.3862 219.726 98.685 219.529 97.9946C219.128 96.6265 218.626 95.2896 218.029 93.9946C216.832 91.358 215.261 88.9078 213.364 86.7196C212.308 85.4719 211.136 84.3269 209.864 83.2996C209.824 83.2696 209.804 83.3496 209.829 83.3746C214.107 87.2269 217.248 92.1779 218.909 97.6896C219.144 98.4446 219.369 99.1896 219.569 99.9796C219.769 100.77 219.914 101.55 220.104 102.335C220.104 102.41 220.254 102.45 220.249 102.335C220.223 101.583 220.139 100.834 219.999 100.095Z" fill="#607087"/>
  <path d="M222.2 91.9996C218.9 93.0246 216.445 90.4346 217.295 86.3696C218.145 82.3046 222.39 77.7946 223.995 79.0096C224.995 78.0096 227.205 78.3646 228.245 81.6646C229.285 84.9646 228.335 93.4546 222.2 91.9996Z" fill="#E0E0E0"/>
  <path d="M224.14 81.4992C223.2 83.8649 222.465 86.3073 221.945 88.7992C221.381 91.3227 220.954 93.8747 220.665 96.4442C220.075 101.409 219.975 101.134 220.005 106.129C220.005 107.514 220.035 108.894 220.06 110.279C220.085 111.664 220.06 113.139 220.185 114.559C220.235 115.099 221 114.954 221.01 114.459C221.06 111.959 220.925 109.459 220.9 106.959C220.87 106.264 220.885 105.568 220.945 104.874C221.029 99.8603 221.475 94.8589 222.28 89.9092C222.52 88.5342 222.78 87.1592 223.1 85.7992C223.435 84.3642 223.845 82.9542 224.22 81.5342C224.235 81.4992 224.17 81.4192 224.14 81.4992Z" fill="#E0E0E0"/>
  <path opacity="0.1" d="M224.14 81.4992C223.2 83.8649 222.465 86.3073 221.945 88.7992C221.381 91.3227 220.954 93.8747 220.665 96.4442C220.075 101.409 219.975 101.134 220.005 106.129C220.005 107.514 220.035 108.894 220.06 110.279C220.085 111.664 220.06 113.139 220.185 114.559C220.235 115.099 221 114.954 221.01 114.459C221.06 111.959 220.925 109.459 220.9 106.959C220.87 106.264 220.885 105.568 220.945 104.874C221.029 99.8603 221.475 94.8589 222.28 89.9092C222.52 88.5342 222.78 87.1592 223.1 85.7992C223.435 84.3642 223.845 82.9542 224.22 81.5342C224.235 81.4992 224.17 81.4192 224.14 81.4992Z" fill="#607087"/>
  <path d="M215.21 102.875C214.8 104.785 212.165 106.125 209.165 104.82C206.165 103.515 200.34 95.5353 203.075 94.7103C202.95 93.2753 211.195 92.2353 215.18 97.3403C218.075 101.05 215.21 102.875 215.21 102.875Z" fill="#E0E0E0"/>
  <path d="M219.395 106.191C218.971 105.661 218.511 105.159 218.02 104.691C217.032 103.707 215.994 102.774 214.91 101.896C212.693 100.118 210.301 98.572 207.77 97.2805C206.377 96.532 204.938 95.8739 203.46 95.3105C203.42 95.3105 203.435 95.3755 203.46 95.3905C204.69 95.9755 205.925 96.5405 207.115 97.2105C208.348 97.9058 209.545 98.6635 210.7 99.4806C212.93 101.037 215.037 102.764 217 104.646C217.555 105.186 218.085 105.751 218.65 106.281C219.215 106.811 219.86 107.341 220.42 107.921C220.5 108.006 220.645 107.966 220.56 107.846C220.165 107.296 219.81 106.726 219.395 106.191Z" fill="#E0E0E0"/>
  <path opacity="0.1" d="M219.395 106.191C218.971 105.661 218.511 105.159 218.02 104.691C217.032 103.707 215.994 102.774 214.91 101.896C212.693 100.118 210.301 98.572 207.77 97.2805C206.377 96.532 204.938 95.8739 203.46 95.3105C203.42 95.3105 203.435 95.3755 203.46 95.3905C204.69 95.9755 205.925 96.5405 207.115 97.2105C208.348 97.9058 209.545 98.6635 210.7 99.4806C212.93 101.037 215.037 102.764 217 104.646C217.555 105.186 218.085 105.751 218.65 106.281C219.215 106.811 219.86 107.341 220.42 107.921C220.5 108.006 220.645 107.966 220.56 107.846C220.165 107.296 219.81 106.726 219.395 106.191Z" fill="#607087"/>
  <path d="M222.914 106.894C221.139 106.109 221.479 103.854 224.324 101.554C227.169 99.254 233.234 99.194 233.294 100.404C234.589 100.659 233.794 104.744 230.214 107.939C226.634 111.134 222.604 109.449 222.914 106.894Z" fill="#E0E0E0"/>
  <path d="M227.315 103.605C224.527 104.846 222.187 106.912 220.61 109.525C220.52 109.675 220.75 109.96 220.85 109.8C222.432 107.22 224.661 105.098 227.315 103.645C227.315 103.645 227.34 103.595 227.315 103.605Z" fill="#E0E0E0"/>
  <path opacity="0.1" d="M227.315 103.605C224.527 104.846 222.187 106.912 220.61 109.525C220.52 109.675 220.75 109.96 220.85 109.8C222.432 107.22 224.661 105.098 227.315 103.645C227.315 103.645 227.34 103.595 227.315 103.605Z" fill="#607087"/>
  <path d="M223.279 110.824C221.224 112.824 223.494 115.364 226.824 116.609C229.649 117.565 232.731 117.421 235.454 116.204C237.064 115.399 237.394 114.994 237.394 114.994C236.977 113.57 236.407 112.196 235.694 110.894C234.816 109.505 233.555 108.398 232.063 107.707C230.572 107.016 228.912 106.77 227.284 106.999C222.999 107.564 222.669 109.344 223.279 110.824Z" fill="#F0F0F0"/>
  <path d="M231.905 112.344C230.253 111.476 228.497 110.824 226.68 110.404C224.89 110.059 222.68 110.039 221.245 111.319C220.685 111.819 219.94 112.889 220.395 113.654C220.44 113.729 220.665 113.869 220.715 113.719C220.822 113.235 220.976 112.763 221.175 112.309C221.445 111.862 221.832 111.498 222.295 111.254C223.464 110.666 224.782 110.441 226.08 110.609C228.115 110.804 230.03 111.609 231.9 112.394C231.92 112.404 231.92 112.354 231.905 112.344Z" fill="#E0E0E0"/>
  <path opacity="0.1" d="M231.905 112.344C230.253 111.476 228.497 110.824 226.68 110.404C224.89 110.059 222.68 110.039 221.245 111.319C220.685 111.819 219.94 112.889 220.395 113.654C220.44 113.729 220.665 113.869 220.715 113.719C220.822 113.235 220.976 112.763 221.175 112.309C221.445 111.862 221.832 111.498 222.295 111.254C223.464 110.666 224.782 110.441 226.08 110.609C228.115 110.804 230.03 111.609 231.9 112.394C231.92 112.404 231.92 112.354 231.905 112.344Z" fill="#607087"/>
  <path d="M223.839 98.0401C223.339 99.8551 225.634 101.54 228.499 100.58C231.364 99.6201 234.344 98.7101 236.789 98.6801C239.234 98.6501 240.789 97.0351 240.289 95.9451C239.789 94.8551 239.189 92.2651 232.964 91.5301C226.739 90.7951 223.929 93.0001 222.629 94.7251C221.329 96.4501 222.804 98.3451 223.839 98.0401Z" fill="#F0F0F0"/>
  <path d="M235.41 94.2287C234.755 94.0777 234.082 94.0155 233.41 94.0437C232.76 94.0471 232.112 94.1006 231.47 94.2037C230.207 94.4282 228.977 94.8112 227.81 95.3437C225.625 96.3437 223.45 97.5937 222.03 99.5737C221.263 100.634 220.646 101.795 220.195 103.024C220.115 103.259 220.565 103.389 220.665 103.179C221.119 102.146 221.64 101.144 222.225 100.179C222.857 99.2035 223.666 98.3555 224.61 97.6787C226.594 96.247 228.837 95.2146 231.215 94.6387C231.907 94.4779 232.611 94.3742 233.32 94.3287C234.028 94.3154 234.735 94.3421 235.44 94.4088C235.5 94.4188 235.5 94.2437 235.41 94.2287Z" fill="#E0E0E0"/>
  <path opacity="0.1" d="M235.41 94.2287C234.755 94.0777 234.082 94.0155 233.41 94.0437C232.76 94.0471 232.112 94.1006 231.47 94.2037C230.207 94.4282 228.977 94.8112 227.81 95.3437C225.625 96.3437 223.45 97.5937 222.03 99.5737C221.263 100.634 220.646 101.795 220.195 103.024C220.115 103.259 220.565 103.389 220.665 103.179C221.119 102.146 221.64 101.144 222.225 100.179C222.857 99.2035 223.666 98.3555 224.61 97.6787C226.594 96.247 228.837 95.2146 231.215 94.6387C231.907 94.4779 232.611 94.3742 233.32 94.3287C234.028 94.3154 234.735 94.3421 235.44 94.4088C235.5 94.4188 235.5 94.2437 235.41 94.2287Z" fill="#607087"/>
  <path d="M218.734 108.269C218.234 106.404 215.894 105.354 212.819 105.124C211.301 104.988 209.776 105.286 208.421 105.985C207.066 106.683 205.939 107.753 205.169 109.069C203.559 111.834 202.889 114.039 203.869 114.399C204.849 114.759 208.979 115.334 211.649 115.574C214.319 115.814 217.649 115.329 219.824 113.294C221.999 111.259 221.284 108.699 218.734 108.269Z" fill="#E0E0E0"/>
  <path d="M218.85 108.024C217.766 107.741 216.636 107.686 215.53 107.864C214.46 107.992 213.407 108.237 212.39 108.594C211.318 108.973 210.279 109.441 209.285 109.994C208.785 110.284 208.255 110.589 207.75 110.909C207.27 111.194 206.81 111.513 206.375 111.864C206.375 111.864 206.375 111.944 206.375 111.929C206.875 111.704 207.35 111.379 207.835 111.109C208.32 110.839 208.88 110.524 209.41 110.254C210.402 109.74 211.432 109.302 212.49 108.944C213.548 108.584 214.643 108.348 215.755 108.239C216.792 108.185 217.832 108.212 218.865 108.319C219.1 108.334 219 108.064 218.85 108.024Z" fill="#E0E0E0"/>
  <path opacity="0.1" d="M218.85 108.024C217.766 107.741 216.636 107.686 215.53 107.864C214.46 107.992 213.407 108.237 212.39 108.594C211.318 108.973 210.279 109.441 209.285 109.994C208.785 110.284 208.255 110.589 207.75 110.909C207.27 111.194 206.81 111.513 206.375 111.864C206.375 111.864 206.375 111.944 206.375 111.929C206.875 111.704 207.35 111.379 207.835 111.109C208.32 110.839 208.88 110.524 209.41 110.254C210.402 109.74 211.432 109.302 212.49 108.944C213.548 108.584 214.643 108.348 215.755 108.239C216.792 108.185 217.832 108.212 218.865 108.319C219.1 108.334 219 108.064 218.85 108.024Z" fill="#607087"/>
  <path d="M150.798 117.007L148.088 108.638C146.824 104.286 147.96 97.5631 147.96 97.5631C149.021 97.1727 150.051 97.1453 150.917 97.4844C151.784 97.8234 152.448 98.5136 152.826 99.467C153.898 101.763 155.689 110.54 156.111 112.418C156.486 114.046 156.625 115.818 156.524 117.678C156.45 120.031 155.568 124.586 155.245 126.999C155.096 128.118 155.018 129.17 154.916 130.289C154.765 131.456 154.545 132.637 154.257 133.824C154.138 134.39 153.895 134.961 153.553 135.475C153.344 135.802 153.03 135.983 152.83 136.306C152.629 136.629 152.602 136.992 152.308 137.311C152.014 137.631 151.586 137.74 151.303 138.08C151.029 138.46 150.742 138.828 150.441 139.181C150.158 139.416 149.905 139.714 149.705 140.048C149.532 140.374 149.39 140.977 149.033 141.115C148.675 141.254 148.558 140.884 148.488 140.549C148.446 139.852 148.608 139.079 148.95 138.339C149.244 137.561 149.572 136.79 149.934 136.028C150.288 135.309 150.521 134.557 150.615 133.827C150.701 133.331 150.619 132.808 150.128 133.296C149.539 133.904 148.94 134.842 148.188 135.096C147.669 135.256 147.606 134.847 147.872 134.321C148.311 133.483 148.705 132.627 149.05 131.761C149.404 130.876 149.684 129.983 150.057 129.105C150.261 128.642 150.486 128.185 150.73 127.737C151.4 126.487 151.272 125.303 151.261 124.148C151.249 122.51 150.946 119.017 150.798 117.007Z" fill="#FFBE62"/>
  <path d="M156.141 122.01L155.779 124.507C155.779 124.507 154.998 125.409 153.33 125.898C151.661 126.386 151.125 126.029 151.125 126.029L151.121 123.569L156.141 122.01Z" fill="#F0F0F0"/>
  <path d="M148.523 96.189C151.416 95.2925 152.501 96.6664 153.511 99.4732C154.56 102.349 155.828 109.38 156.139 110.824C156.589 112.535 156.811 114.393 156.8 116.35C156.676 118.472 156.447 120.626 156.114 122.802C155.378 123.483 154.564 123.979 153.75 124.241C151.497 125.117 151.045 124.544 151.045 124.544L150.589 117.116L146.907 106.825L148.523 96.189Z" fill="#607087"/>
  <path d="M117.956 191.387C117.742 191.376 117.593 192.057 117.657 192.38C117.85 193.312 118.725 194.23 120.223 194.565C121.721 194.9 124.964 194.133 125.917 194.019C126.871 193.905 128.375 194.395 129.278 194.522C130.92 194.748 132.222 194.056 132.949 193.305C133.075 193.154 133.18 192.982 133.259 192.802C133.337 192.622 133.386 192.437 133.404 192.258C133.565 191.428 133.544 191.264 133.47 191.277L117.956 191.387Z" fill="#607087"/>
  <path d="M133.779 188.875C133.736 189.843 133.573 190.848 133.293 191.859C133.117 192.146 132.901 192.405 132.659 192.617C132.417 192.829 132.156 192.99 131.892 193.088C130.669 193.569 129.471 193.664 128.429 193.363C127.692 193.162 126.897 193.102 126.067 193.183C125.078 193.323 122.863 193.76 121.88 193.846C120.953 193.931 120.09 193.774 119.349 193.386C118.786 193.051 117.987 192.273 117.905 191.653C118.011 190.171 118.319 189.276 119.105 188.717C119.891 188.159 120.976 187.951 122.413 187.713C122.847 187.641 123.384 187.575 123.619 187.522C124.495 187.345 125.313 187.205 125.969 187.106C126.519 187.069 127.098 186.878 127.663 186.545C127.923 186.393 128.158 186.149 128.327 185.858C128.544 185.461 128.66 184.906 128.928 184.858C128.928 184.858 133.534 185.549 133.917 185.572C134.299 185.595 133.883 186.442 133.779 188.875Z" fill="#37474F"/>
  <path d="M123.256 187.494C123.077 187.653 122.917 187.846 122.787 188.059C122.64 188.292 122.514 188.536 122.412 188.786C122.281 189.109 122.571 189.148 122.765 188.781C122.918 188.474 123.096 188.178 123.296 187.899C123.434 187.708 123.611 187.561 123.796 187.488L124.05 187.436C124.031 187.21 123.477 187.325 123.256 187.494Z" fill="#FAFAFA"/>
  <path d="M125.505 187.012C125.426 187.007 125.341 187.024 125.256 187.062C125.171 187.1 125.087 187.158 125.012 187.232C124.816 187.419 124.65 187.651 124.532 187.903C124.384 188.213 124.252 188.528 124.139 188.846C124.078 189.052 124.453 189.017 124.541 188.794C124.653 188.505 124.776 188.217 124.91 187.933C124.984 187.794 125.292 187.254 125.558 187.176L125.679 187.159C125.676 187.094 125.627 187.044 125.58 187.034L125.505 187.012Z" fill="#FAFAFA"/>
  <path d="M126.793 186.872C126.678 186.906 126.562 186.986 126.468 187.099C126.347 187.253 126.244 187.423 126.163 187.601C126.017 187.931 125.907 188.27 125.837 188.606C125.778 188.866 126.165 188.77 126.213 188.596C126.298 188.145 126.478 187.689 126.735 187.269C126.849 187.092 126.992 186.937 127.149 186.82C127.147 186.776 127.096 186.773 127.055 186.781C126.968 186.806 126.88 186.837 126.793 186.872Z" fill="#FAFAFA"/>
  <path d="M135.462 179.038C135.462 179.038 134.254 184.592 133.885 185.901C133.763 186.322 133.106 186.533 132.752 186.732C132.311 186.951 131.881 187.251 131.481 187.618C130.451 188.702 129.789 188.987 129.683 187.223C129.686 187.139 129.674 187.061 129.646 186.995C129.619 186.929 129.577 186.876 129.524 186.839C129.47 186.803 129.407 186.783 129.337 186.782C129.267 186.781 129.192 186.798 129.118 186.833C128.823 186.968 128.527 187.039 128.248 187.043C128.214 187.012 128.243 186.933 128.296 186.868C128.466 186.658 128.607 186.421 128.709 186.173C128.812 185.925 128.875 185.671 128.892 185.428C129.262 183.116 129.401 181.202 129.775 178.421L135.462 179.038Z" fill="#FFBE62"/>
  <path d="M136.844 128.816C136.844 128.816 134.811 132.744 133.739 138.878C132.77 144.57 132.089 150.209 131.698 155.763C131.486 158.269 131.327 160.059 130.944 164.616C130.635 168.406 129.127 182.662 129.127 182.662C129.99 183.116 130.95 183.389 131.98 183.473C133.179 183.448 134.293 183.175 134.7 182.77C134.7 182.77 135.975 177.842 137.539 171.438C138.296 168.474 138.877 165.522 139.276 162.605C139.383 160.834 139.364 159.105 139.22 157.436L148.154 136.022C148.893 134.605 149.452 133.125 149.806 131.649C150.924 127.427 149.089 122.871 149.089 122.871L136.844 128.816Z" fill="#607087"/>
  <path d="M146.558 129.387L134.681 134.674C134.289 136.082 133.971 137.489 133.73 138.883C132.832 144.121 132.189 149.311 131.805 154.429C132.186 156.533 132.608 158.65 132.971 160.117C133.938 163.914 134.557 166.625 135.258 168.058C135.924 169.237 136.699 170.306 137.577 171.253C138.316 168.351 138.882 165.46 139.27 162.603C139.378 160.831 139.359 159.103 139.215 157.433L145.702 141.881L146.091 137.786C147.748 133.654 147.443 131.226 146.558 129.387Z" fill="#607087"/>
  <path d="M154.184 177.774C153.456 176.831 152.764 175.166 151.073 170.953L145.717 178.425L149.422 183.217C149.544 183.493 149.642 183.79 149.715 184.104C150.5 184.97 154.184 177.774 154.184 177.774Z" fill="#FFBE62"/>
  <path d="M156.344 179.519C156.341 179.449 156.317 178.859 156.314 178.789C156.142 178.225 155.796 178.201 155.352 178.037C154.897 177.889 154.476 177.672 154.097 177.39C153.942 177.22 153.909 177.113 153.681 177.107C153.381 177.134 153.067 177.243 152.761 177.426C152.456 177.608 152.166 177.86 151.915 178.163C150.69 179.482 150.349 180.565 150.458 181.518C150.544 182.248 150.641 183.228 150.093 183.93C149.859 184.223 149.43 183.207 149.43 183.207C149.103 184.05 149.64 184.783 149.962 186.054C150.144 186.758 150.188 187.549 150.091 188.383C150.018 189.656 149.867 189.718 149.309 190.054C148.823 190.346 147.444 190.853 146.632 191.897C146.319 192.267 146.079 192.707 145.945 193.16C145.81 193.613 145.786 194.057 145.876 194.436C146.042 194.841 147.392 196.56 151.952 193.664C153.276 192.826 155.953 189.181 155.921 188.967C155.889 188.746 155.879 188.513 155.892 188.272C155.87 187.733 155.884 187.177 155.885 186.627C155.846 186.121 155.85 185.594 155.899 185.054C155.966 184.595 156.004 184.143 156.015 183.7C156.057 182.582 156.103 181.457 156.145 180.335C156.154 179.99 156.393 179.812 156.344 179.519Z" fill="#37474F"/>
  <path d="M156.916 179.046C157.393 179.343 157.171 180.937 156.636 182.961C156.219 184.277 156.056 185.586 156.161 186.78C156.366 188.139 156.421 188.801 156.129 189.608C155.675 190.874 153.058 193.402 151.504 194.516C152.396 192.541 152.874 190.49 152.886 188.584C152.912 185.373 153.038 183.251 154.232 181.3C155.739 178.833 156.916 179.046 156.916 179.046Z" fill="#607087"/>
  <path d="M145.868 194.421C145.868 194.421 146.864 196.012 150.419 194.348C151.815 193.701 152.532 192.583 152.467 190.124C152.387 187.163 152.469 184.099 153.236 182.267C154.002 180.436 155.297 179.136 156.324 178.786C156.568 178.762 156.779 178.85 156.916 179.031C156.916 179.031 155.872 179.104 154.341 181.332C153.209 182.981 152.991 185.464 153.13 188.369C153.182 189.623 153.314 191.014 153.033 192.106C152.911 192.579 152.7 193.05 152.418 193.48C152.136 193.909 151.791 194.286 151.41 194.579C149.504 196.063 146.825 196.208 146.106 195.571C145.989 195.44 145.908 195.27 145.867 195.072C145.826 194.874 145.826 194.652 145.868 194.421Z" fill="#607087"/>
  <path d="M149.994 189.185C149.851 189.373 149.756 189.597 149.727 189.813C149.721 190.068 149.775 190.297 149.883 190.478C149.99 190.658 150.149 190.784 150.342 190.841C150.558 190.898 150.743 190.764 150.384 190.395C150.147 190.081 150.012 189.663 149.994 189.185Z" fill="#FAFAFA"/>
  <path d="M150.124 187.576C150.124 187.576 150.013 187.711 150.003 188.138C150.083 188.625 150.336 188.99 150.711 189.161C151.094 189.204 150.872 188.799 150.689 188.632C150.419 188.362 150.227 188.002 150.124 187.576Z" fill="#FAFAFA"/>
  <path d="M149.926 185.949C149.926 185.949 149.809 186.042 149.951 186.554C150.136 186.825 150.421 186.978 150.76 186.987C150.999 186.916 151.112 186.724 150.805 186.611C150.497 186.499 149.983 186.204 149.926 185.949Z" fill="#FAFAFA"/>
  <path d="M144.326 125.485C145.722 126.691 146.581 128.554 146.78 130.809C146.962 133.002 146.442 135.474 145.306 137.814C145.164 145.601 145.756 159.919 145.756 159.919C147.427 161.666 148.707 163.873 149.538 166.441C150.243 168.412 152.861 175.137 152.861 175.137C149.073 176.229 147.961 181.613 147.961 181.613C147.961 181.613 143.751 176.558 140.343 172.652C137.847 169.79 136.155 167.577 135.357 165.592C134.625 163.765 134.053 161.415 133.219 156.76C132.384 152.105 131.499 145.88 130.991 141.155C130.484 136.431 130.367 129.34 130.367 129.34L144.326 125.485Z" fill="#607087"/>
  <path d="M150.168 128.954C149.65 128.988 149.191 128.824 148.855 128.485C148.691 128.213 148.567 127.902 148.487 127.56C148.328 126.997 148.124 126.467 147.877 125.975L147.56 126.284C147.797 126.761 147.993 127.274 148.144 127.82C148.233 128.199 148.374 128.543 148.563 128.839C148.96 129.259 149.52 129.449 150.153 129.378C150.16 129.217 150.164 129.078 150.168 128.954Z" fill="#607087"/>
  <path d="M141.869 137.056C141.946 137.023 142.022 136.98 142.096 136.929C142.607 136.57 142.988 135.993 143.747 134.454C144.322 133.282 144.232 132.666 144.096 131.638C144.039 131.267 143.595 129.317 143.55 128.783L143.216 129.155C143.263 129.709 143.689 131.458 143.742 131.842C143.886 132.861 143.956 133.323 143.467 134.319C142.768 135.74 142.431 136.261 142.011 136.56C141.079 136.996 140.145 137.195 139.281 137.14C138.993 137.044 138.414 134.509 138.045 132.216L137.691 132.429C137.878 133.587 138.537 137.379 139.094 137.569C139.651 137.758 141.153 137.4 141.869 137.056Z" fill="#607087"/>
  <path d="M137.906 98.3878L138.768 103.27L145.18 100.054L144.254 94.7625L137.906 98.3878Z" fill="#FFBE62"/>
  <path d="M134.371 90.5337C133.944 91.4615 132.655 94.0499 132.43 94.6643L133.963 94.8415L134.371 90.5337Z" fill="#FFBE62"/>
  <path d="M137.369 83.6337C135.374 84.4405 134.236 86.6159 134.168 91.3829C134.176 91.5677 133.952 91.9882 133.843 92.7386C133.365 96.0295 134.083 98.5437 134.643 99.0221C135.891 99.4024 137.205 99.1026 139.028 97.9703C140.416 97.1082 143.947 94.7626 145.541 91.804C147.42 88.3066 148.104 84.1607 146.386 83.0993C143.965 81.6026 138.472 83.1885 137.369 83.6337Z" fill="#FFBE62"/>
  <path d="M134.643 99.0215C134.938 99.2921 136.851 99.3305 137.997 98.815L137.788 97.9261C136.739 98.4479 135.681 98.8163 134.643 99.0215Z" fill="#FFBE62"/>
  <path d="M137.837 91.7077C137.865 91.7685 137.911 91.8121 137.969 91.8336C138.027 91.855 138.095 91.8535 138.165 91.829C138.236 91.8046 138.305 91.7583 138.367 91.6955C138.428 91.6327 138.478 91.5558 138.512 91.4737C138.683 91.0411 138.892 90.6169 139.134 90.2096C139.444 89.7282 139.861 89.3431 140.308 89.1273C141.975 88.385 141.829 90.9327 141.103 92.1666C139.917 94.1905 139.08 93.4183 139.08 93.4183C139.08 93.4183 138.371 96.1712 139.907 96.7542C139.907 96.7542 142.436 96.6 144.258 94.985C145.482 93.1662 146.522 91.2255 147.341 89.2267C149.23 84.7427 148.661 81.4498 147.114 81.2737C147.087 81.2859 147.023 80.6527 147.006 80.5839C146.929 80.3119 146.817 80.0659 146.674 79.8518C146.304 79.3314 145.785 78.9876 145.167 78.8538C143.471 78.454 141.457 79.1219 139.54 80.128C139.138 80.3646 138.729 80.5384 138.324 80.644C138.122 80.6936 137.93 80.6842 137.764 80.6165C137.599 80.5489 137.466 80.4252 137.377 80.2564C137.077 80.5585 136.834 80.9368 136.684 81.339C136.534 81.7413 136.484 82.1475 136.54 82.5016C136.414 82.539 136.293 82.5426 136.185 82.5121C136.077 82.4815 135.986 82.4176 135.919 82.3254C135.815 82.1833 135.727 81.963 135.534 82.0285C135.471 82.061 135.41 82.1081 135.357 82.1665C135.303 82.2248 135.257 82.2929 135.222 82.3657C134.968 82.8057 134.782 83.2748 134.674 83.7425C134.567 84.2102 134.542 84.6659 134.6 85.0799C134.664 85.49 134.822 85.8393 135.061 86.0982C135.299 86.357 135.61 86.5178 135.969 86.5667C136.319 86.604 136.702 86.5252 137.061 86.5434C137.109 86.542 137.152 86.5584 137.184 86.5904C137.212 86.6518 137.215 86.7317 137.193 86.8153C137.112 87.2382 137.119 87.6425 137.215 87.9915C137.311 88.3406 137.491 88.6236 137.741 88.815C137.787 88.8356 137.821 88.8755 137.839 88.9292C137.912 89.2475 137.657 89.8291 137.677 90.2017C137.697 90.5744 137.743 90.9968 137.787 91.3793C137.785 91.4984 137.802 91.6096 137.837 91.7077Z" fill="#607087"/>
  <path d="M148.522 96.1882C150.246 96.469 151.425 98.8747 151.218 103.21C150.989 108.364 150.303 109.763 149.981 114.129C149.775 116.41 149.724 118.644 149.83 120.811C149.912 122.784 150.319 126.668 150.319 126.668C150.319 126.668 148.193 130.723 142.021 133.878C134.139 137.896 130.536 137.379 130.536 137.379C130.536 137.379 130.121 128.472 130.078 122.828C130.019 114.434 129.937 112.008 130.999 108.681C131.358 107.677 131.688 105.642 132.961 104.704C133.967 103.961 137.403 101.551 138.324 100.978C139.872 100.732 143.824 99.0075 144.773 97.654L144.763 97.4142C146.291 96.7899 148.522 96.1882 148.522 96.1882Z" fill="#37474F"/>
  <path d="M146.064 96.9222C145.013 96.3725 144.86 96.3746 144.534 96.3771L144.608 96.8123C144.608 96.8123 144.468 97.46 142.562 98.517C139.252 100.362 138.19 99.9905 138.19 99.9905L138.136 99.6991C137.807 99.991 137.497 100.32 137.214 100.68C136.687 101.336 135.563 102.824 135.563 102.824L136.422 102.228C136.422 102.228 138.435 103.219 143.15 100.367C146.436 98.3796 146.064 96.9222 146.064 96.9222Z" fill="#607087"/>
  <path d="M138.105 149.956L137.843 167.457C137.832 168.302 137.284 168.999 136.623 169.675L134.98 171.332C134.794 171.548 134.582 171.728 134.36 171.859C134.137 171.991 133.909 172.071 133.69 172.095C133.383 172.123 133.09 172.1 132.817 172.025L132.785 172.039L132.696 172.013L116.036 167.484C115.438 167.321 114.946 166.949 114.607 166.405C114.269 165.861 114.096 165.164 114.108 164.385L114.346 148.466C114.36 148.264 114.415 148.051 114.507 147.846C114.598 147.641 114.724 147.449 114.874 147.284L117.71 144.419C117.869 144.269 118.045 144.156 118.222 144.089C118.399 144.021 118.574 144.001 118.731 144.031L137.607 149.165C137.758 149.212 137.881 149.311 137.963 149.454C138.052 149.589 138.101 149.761 138.105 149.956Z" fill="#37474F"/>
  <path d="M138.106 149.955L137.844 167.456C137.832 168.301 137.284 168.998 136.624 169.674L134.981 171.331C134.795 171.547 134.583 171.727 134.361 171.858C134.138 171.99 133.91 172.07 133.691 172.094C133.384 172.122 133.091 172.099 132.818 172.024C133.469 172.121 133.989 171.549 134.005 170.682L134.253 154.194C134.252 153.899 134.187 153.635 134.063 153.424L138.005 149.435C138.08 149.58 138.115 149.758 138.106 149.955Z" fill="#607087"/>
  <path d="M134.253 154.204C134.24 153.914 134.165 153.655 134.035 153.448C133.904 153.241 133.721 153.092 133.501 153.013L115.623 148.167C114.917 147.972 114.328 148.57 114.315 149.487L114.055 165.69C114.048 166.082 114.134 166.433 114.304 166.707C114.474 166.98 114.721 167.167 115.022 167.249L132.66 172.044C133.366 172.238 133.956 171.64 133.969 170.724L134.253 154.204Z" fill="#607087"/>
  <path d="M116.794 145.34L135.717 150.611C135.985 150.685 136.205 150.852 136.357 151.097C136.508 151.341 136.585 151.654 136.579 152.003L136.311 170.011L136.016 170.31L136.291 152.111C136.293 151.82 136.228 151.56 136.101 151.356C135.975 151.152 135.791 151.011 135.568 150.947L116.498 145.624L116.794 145.34Z" fill="#FFBE62"/>
  <path d="M123.55 145.008L123.509 147.723L122.553 148.688L122.605 145.103C122.597 144.918 122.727 144.795 122.868 144.833L123.55 145.008Z" fill="#FFBE62"/>
  <path opacity="0.3" d="M123.55 145.008L123.509 147.723L122.553 148.688L122.605 145.103C122.597 144.918 122.727 144.795 122.868 144.833L123.55 145.008Z" fill="#607087"/>
  <path d="M130.168 145.186L130.103 149.57L129.187 150.486L128.585 150.322L128.641 146.735C128.637 146.638 128.611 146.552 128.567 146.483C128.523 146.414 128.462 146.365 128.387 146.34L123.819 145.092L122.878 144.829C122.736 144.79 122.616 144.91 122.614 145.099L122.563 148.684L121.956 148.521L122.021 144.137C122.018 144.12 122.017 144.102 122.019 144.082C122.031 143.987 122.061 143.89 122.106 143.796C122.151 143.702 122.21 143.614 122.28 143.539L122.668 143.142C122.75 143.067 122.84 143.01 122.931 142.977C123.022 142.944 123.11 142.934 123.191 142.95L129.918 144.778C129.993 144.805 130.054 144.856 130.097 144.927C130.141 144.998 130.165 145.087 130.168 145.186Z" fill="#FFBE62"/>
  <path opacity="0.2" d="M129.255 146.11L129.186 150.497L128.584 150.332L128.64 146.746C128.635 146.649 128.61 146.562 128.566 146.494C128.522 146.425 128.46 146.376 128.386 146.35L123.818 145.102L122.876 144.84C122.735 144.801 122.614 144.921 122.613 145.11L122.561 148.694L121.955 148.532L122.02 144.148C122.016 144.131 122.016 144.112 122.017 144.093C122.039 143.941 122.147 143.852 122.274 143.887L129.002 145.715C129.075 145.741 129.136 145.791 129.18 145.86C129.224 145.928 129.25 146.014 129.255 146.11Z" fill="#607087"/>
  <path d="M123.191 144.227C123.579 142.726 123.887 141.229 124.113 139.747C124.416 137.78 124.609 135.836 124.691 133.928L129.863 133.36C129.518 134.861 129.285 136.349 129.168 137.806C129.063 139.206 129.451 140.377 129.332 141.753C129.321 142.173 129.235 142.616 129.079 143.056C128.657 144.119 127.375 145.061 127.69 146.152L128.382 146.353C128.477 146.392 128.551 146.468 128.595 146.571C128.64 146.674 128.653 146.801 128.634 146.937C128.466 147.207 128.25 147.439 128.011 147.607C127.91 147.677 127.806 147.734 127.702 147.775C127.596 147.822 127.475 147.8 127.374 147.844C127.274 147.889 127.167 148.013 127.048 148.066C126.929 148.115 126.81 148.146 126.694 148.157C126.468 148.218 126.255 148.2 126.082 148.104C125.929 147.989 125.867 147.737 125.683 147.666C125.498 147.596 125.086 147.856 124.764 147.953C124.611 147.994 124.464 147.988 124.34 147.936C124.215 147.883 124.117 147.786 124.054 147.654C124.013 147.499 123.938 147.371 123.834 147.279C123.71 147.212 123.527 147.288 123.369 147.282C123.281 147.268 123.202 147.229 123.139 147.17C123.076 147.111 123.029 147.032 123.001 146.937C122.747 146.196 122.964 145.137 123.191 144.227Z" fill="#FFBE62"/>
  <path d="M124.547 135.651L124.239 138.205C124.838 138.655 125.626 138.787 126.478 138.582C127.426 138.337 128.388 137.852 129.294 137.16L129.815 134.339L124.547 135.651Z" fill="#F0F0F0"/>
  <path d="M131.028 106.091C129.497 107.449 128.53 109.146 127.881 111.338C126.948 114.591 126.279 117.838 125.887 121.028C125.517 124.245 125.103 127.278 124.845 130.482C124.587 133.685 124.379 136.418 124.379 136.418C124.668 136.731 125.034 136.943 125.454 137.039C125.874 137.135 126.338 137.113 126.817 136.976C127.796 136.779 128.803 136.243 129.712 135.438C129.712 135.438 131.64 125.838 132.241 123.266C132.841 120.694 134.896 113.562 134.896 113.562C135.644 109.159 134.493 105.418 133.497 104.284C132.658 104.831 131.833 105.435 131.028 106.091Z" fill="#607087"/>
</svg>