<svg width="41" height="42" viewBox="0 0 41 42" fill="none" xmlns="http://www.w3.org/2000/svg">
<path d="M27.1013 8.69231C24.4633 6.18014 23.146 4.92317 21.4633 4.48525C19.7806 4.04567 18.0159 4.49831 14.4884 5.40356L12.4537 5.9244C9.48447 6.68449 7.99989 7.06536 7.00146 8.11139C6.00475 9.15904 5.69582 10.6602 5.07965 13.6626L4.65576 15.7201C3.92319 19.2888 3.55603 21.0715 4.0745 22.7311C4.59463 24.3908 5.91359 25.646 8.54988 28.1582L11.6725 31.1339C16.2626 35.5096 18.5558 37.6933 21.3384 37.6262C24.1226 37.5591 26.3079 35.2641 30.6803 30.6758C35.056 26.0874 37.2397 23.7941 37.1726 21.0099C37.1188 18.7739 35.6271 16.9226 32.6628 14.0132" stroke="#607087" stroke-width="2" stroke-linecap="round"/>
<path d="M14.8016 19.2426C15.4607 19.2267 16.1002 19.0158 16.6394 18.6364C17.1786 18.257 17.5932 17.7263 17.8307 17.1113C18.0682 16.4963 18.1181 15.8247 17.9739 15.1814C17.8298 14.5381 17.4981 13.9519 17.0208 13.4971C16.5435 13.0423 15.9421 12.7393 15.2926 12.6263C14.6431 12.5133 13.9747 12.5954 13.3718 12.8623C12.769 13.1292 12.2588 13.5688 11.9059 14.1257C11.5529 14.6825 11.373 15.3315 11.3889 15.9906M19.9978 31.8228L21.6239 30.1164M31.3458 19.9126L25.6207 25.9239" stroke="#607087" stroke-width="2" stroke-linecap="round"/>
</svg>
