<svg width="25" height="33" viewBox="0 0 25 33" fill="none" xmlns="http://www.w3.org/2000/svg">
<path d="M7.625 19.75L17.375 10M8.4375 10.8125H8.45375M16.5625 18.9375H16.5788M23.875 31.125V5.125C23.875 4.26305 23.5326 3.4364 22.9231 2.8269C22.3136 2.21741 21.487 1.875 20.625 1.875H4.375C3.51305 1.875 2.6864 2.21741 2.0769 2.8269C1.46741 3.4364 1.125 4.26305 1.125 5.125V31.125L6.8125 27.875L12.5 31.125L18.1875 27.875L23.875 31.125ZM9.25 10.8125C9.25 11.028 9.1644 11.2347 9.01202 11.387C8.85965 11.5394 8.65299 11.625 8.4375 11.625C8.22201 11.625 8.01535 11.5394 7.86298 11.387C7.7106 11.2347 7.625 11.028 7.625 10.8125C7.625 10.597 7.7106 10.3903 7.86298 10.238C8.01535 10.0856 8.22201 10 8.4375 10C8.65299 10 8.85965 10.0856 9.01202 10.238C9.1644 10.3903 9.25 10.597 9.25 10.8125ZM17.375 18.9375C17.375 19.153 17.2894 19.3597 17.137 19.512C16.9847 19.6644 16.778 19.75 16.5625 19.75C16.347 19.75 16.1403 19.6644 15.988 19.512C15.8356 19.3597 15.75 19.153 15.75 18.9375C15.75 18.722 15.8356 18.5153 15.988 18.363C16.1403 18.2106 16.347 18.125 16.5625 18.125C16.778 18.125 16.9847 18.2106 17.137 18.363C17.2894 18.5153 17.375 18.722 17.375 18.9375Z" stroke="#FFA412" stroke-width="2" stroke-linecap="round" stroke-linejoin="round"/>
</svg>
