<svg width="18" height="20" viewBox="0 0 18 20" fill="none" xmlns="http://www.w3.org/2000/svg">
<path fill-rule="evenodd" clip-rule="evenodd" d="M5.13788 0H12.8534C16.0668 0 17.9913 1.95143 18 5.20971V14.7903C18 18.0486 16.0842 20 12.8621 20H10.0058C9.6395 19.959 9.36224 19.6452 9.36224 19.2715C9.36224 18.8978 9.6395 18.584 10.0058 18.543H12.8534C15.3091 18.543 16.5457 17.2804 16.5457 14.7903V5.20971C16.5457 2.71965 15.3091 1.45695 12.8534 1.45695H5.13788C2.68215 1.45695 1.43686 2.71965 1.43686 5.20971V14.7903C1.43686 17.2804 2.68215 18.543 5.13788 18.543C5.50419 18.584 5.78145 18.8978 5.78145 19.2715C5.78145 19.6452 5.50419 19.959 5.13788 20C1.92453 20 0 18.0486 0 14.7903V5.20971C0 1.9426 1.92453 0 5.13788 0ZM5.38966 6.49895H8.13277C8.49908 6.45799 8.77634 6.14415 8.77634 5.77047C8.77634 5.39679 8.49908 5.08295 8.13277 5.04199H5.38966C5.02336 5.08295 4.74609 5.39679 4.74609 5.77047C4.74609 6.14415 5.02336 6.45799 5.38966 6.49895ZM12.5923 10.7285H5.39056H5.38185C5.01554 10.6875 4.73828 10.3737 4.73828 10C4.73828 9.62632 5.01554 9.31247 5.38185 9.27152H12.5923C12.8679 9.24071 13.1365 9.37243 13.2838 9.61057C13.4311 9.8487 13.4311 10.1513 13.2838 10.3894C13.1365 10.6276 12.8679 10.7593 12.5923 10.7285ZM12.5925 14.958H5.39076H5.38205C4.98767 14.958 4.66797 14.6338 4.66797 14.2339C4.66797 13.8341 4.98767 13.5099 5.38205 13.5099H12.5925C12.9869 13.5099 13.3066 13.8341 13.3066 14.2339C13.3066 14.6338 12.9869 14.958 12.5925 14.958Z" fill="#8196B3"/>
</svg>
