<svg width="104" height="76" viewBox="0 0 104 76" fill="none" xmlns="http://www.w3.org/2000/svg">
<path d="M51.761 49.7051C35.6311 49.7051 22.0215 52.3408 22.0215 62.5131C22.0215 72.6896 35.7191 75.2327 51.761 75.2327C67.8908 75.2327 81.5004 72.597 81.5004 62.4247C81.5004 52.2482 67.8028 49.7051 51.761 49.7051Z" fill="#9EA8B7"/>
<path opacity="0.4" d="M51.7579 40.0138C62.68 40.0138 71.4377 31.2057 71.4377 20.2208C71.4377 9.23166 62.68 0.427734 51.7579 0.427734C40.8359 0.427734 32.0781 9.23166 32.0781 20.2208C32.0781 31.2057 40.8359 40.0138 51.7579 40.0138Z" fill="#9EA8B7"/>
<path opacity="0.4" d="M94.4889 24.8287C97.3146 13.7133 89.03 3.73047 78.4805 3.73047C77.3334 3.73047 76.2366 3.85678 75.1649 4.07151C75.0226 4.10519 74.8635 4.17677 74.7798 4.30308C74.6835 4.46308 74.7547 4.67781 74.8593 4.81675C78.0284 9.28819 79.8494 14.7322 79.8494 20.5762C79.8494 26.1761 78.1791 31.397 75.2487 35.7294C74.9473 36.1758 75.2152 36.7778 75.7468 36.8705C76.4836 37.001 77.2372 37.0684 78.0074 37.0894C85.6893 37.2915 92.5841 32.319 94.4889 24.8287Z" fill="#9EA8B7"/>
<path d="M102.538 50.9997C101.131 47.9851 97.7359 45.9178 92.5742 44.9031C90.1378 44.3052 83.5444 43.4631 77.4114 43.5768C77.3193 43.5894 77.2691 43.6526 77.2607 43.6947C77.2482 43.7537 77.2733 43.8547 77.3947 43.9179C80.2288 45.3283 91.1844 51.4629 89.8071 64.4014C89.7485 64.9614 90.1964 65.4456 90.7532 65.3614C93.4491 64.974 100.386 63.4751 102.538 58.8058C103.727 56.3385 103.727 53.4712 102.538 50.9997Z" fill="#9EA8B7"/>
<path opacity="0.4" d="M28.8341 4.07346C27.7666 3.85452 26.6656 3.73242 25.5185 3.73242C14.9691 3.73242 6.68438 13.7153 9.51432 24.8307C11.4149 32.321 18.3097 37.2935 25.9916 37.0914C26.7619 37.0703 27.5196 36.9987 28.2522 36.8724C28.7838 36.7798 29.0518 36.1777 28.7504 35.7314C25.8199 31.3947 24.1496 26.178 24.1496 20.5782C24.1496 14.73 25.9748 9.28593 29.1439 4.8187C29.2443 4.67976 29.3197 4.46503 29.2192 4.30504C29.1355 4.17451 28.9806 4.10715 28.8341 4.07346Z" fill="#9EA8B7"/>
<path d="M11.4253 44.9016C6.26361 45.9163 2.87271 47.9836 1.46611 50.9982C0.273015 53.4697 0.273015 56.337 1.46611 58.8085C3.61787 63.4736 10.5546 64.9767 13.2505 65.3599C13.8073 65.4441 14.2511 64.9641 14.1925 64.3999C12.8152 51.4656 23.7707 45.331 26.609 43.9206C26.7262 43.8532 26.7514 43.7564 26.7388 43.6932C26.7304 43.6511 26.6844 43.5879 26.5923 43.5795C20.4552 43.4616 13.8659 44.3037 11.4253 44.9016Z" fill="#9EA8B7"/>
</svg>
