<svg width="20" height="20" viewBox="0 0 20 20" fill="none" xmlns="http://www.w3.org/2000/svg">
<path fill-rule="evenodd" clip-rule="evenodd" d="M0.774002 9.34C1.192 9.34 1.53 9.002 1.53 8.584V8.566V6.253C1.53 3.21 3.21 1.53 6.253 1.53H13.747C16.8 1.53 18.47 3.21 18.47 6.253V13.753C18.47 16.796 16.79 18.467 13.747 18.467H6.254C3.202 18.467 1.531 16.787 1.531 13.753C1.531 13.331 1.189 12.988 0.766002 12.988C0.343002 12.988 0.00100219 13.331 0.00100219 13.753C2.18733e-06 17.608 2.392 20 6.244 20H13.747C17.608 20 20 17.608 20 13.756V6.256C20 2.393 17.608 0 13.747 0H6.254C2.41 0 2.1874e-06 2.393 2.1874e-06 6.253V8.575C-0.000997813 8.997 0.341002 9.34 0.763002 9.34H0.765002H0.774002ZM9.2502 5.6338C9.2502 5.2198 9.5862 4.8838 10.0002 4.8838C10.4142 4.8838 10.7502 5.2198 10.7502 5.6338V9.5688L13.7762 11.3728C14.1312 11.5858 14.2482 12.0458 14.0362 12.4018C13.8962 12.6368 13.6462 12.7678 13.3912 12.7678C13.2602 12.7678 13.1282 12.7338 13.0072 12.6618L9.6162 10.6388C9.3892 10.5028 9.2502 10.2578 9.2502 9.9938V5.6338Z" fill="#9EA8B7"/>
</svg>
