<svg width="20" height="21" viewBox="0 0 20 21" fill="none" xmlns="http://www.w3.org/2000/svg">
<path fill-rule="evenodd" clip-rule="evenodd" d="M0.774002 9.84C1.192 9.84 1.53 9.502 1.53 9.084V9.066V6.753C1.53 3.71 3.21 2.03 6.253 2.03H13.747C16.8 2.03 18.47 3.71 18.47 6.753V14.253C18.47 17.296 16.79 18.967 13.747 18.967H6.254C3.202 18.967 1.531 17.287 1.531 14.253C1.531 13.831 1.189 13.488 0.766002 13.488C0.343002 13.488 0.00100219 13.831 0.00100219 14.253C2.18733e-06 18.108 2.392 20.5 6.244 20.5H13.747C17.608 20.5 20 18.108 20 14.256V6.756C20 2.893 17.608 0.5 13.747 0.5H6.254C2.41 0.5 2.1874e-06 2.893 2.1874e-06 6.753V9.075C-0.000997813 9.497 0.341002 9.84 0.763002 9.84H0.765002H0.774002ZM9.2502 6.1338C9.2502 5.7198 9.5862 5.3838 10.0002 5.3838C10.4142 5.3838 10.7502 5.7198 10.7502 6.1338V10.0688L13.7762 11.8728C14.1312 12.0858 14.2482 12.5458 14.0362 12.9018C13.8962 13.1368 13.6462 13.2678 13.3912 13.2678C13.2602 13.2678 13.1282 13.2338 13.0072 13.1618L9.6162 11.1388C9.3892 11.0028 9.2502 10.7578 9.2502 10.4938V6.1338Z" fill="#E47D05"/>
</svg>
