<svg width="16" height="16" viewBox="0 0 16 16" fill="none" xmlns="http://www.w3.org/2000/svg">
<path d="M15.1719 8.59744C15.0548 9.96016 14.5509 11.2611 13.7195 12.3471C12.8881 13.4332 11.7638 14.2592 10.4789 14.728C9.19402 15.1967 7.80196 15.2888 6.46653 14.9932C5.1311 14.6977 3.90785 14.0269 2.94071 13.0598C1.97357 12.0927 1.30278 10.8694 1.00726 9.53398C0.711734 8.19855 0.803774 6.80649 1.27255 5.52159C1.74132 4.23669 2.56733 3.11241 3.65338 2.28103C4.73944 1.44964 6.04035 0.945739 7.40307 0.828612C7.51496 0.819288 7.62597 0.854793 7.71168 0.927317C7.79739 0.999841 7.85078 1.10344 7.8601 1.21533C7.86942 1.32722 7.83392 1.43823 7.76139 1.52394C7.68887 1.60965 7.58527 1.66304 7.47338 1.67236C6.27052 1.77537 5.1221 2.21982 4.16328 2.95341C3.20446 3.687 2.47514 4.67921 2.06113 5.81327C1.64712 6.94732 1.56565 8.17604 1.82632 9.35483C2.08699 10.5336 2.67894 11.6134 3.53252 12.4672C4.3861 13.3209 5.46578 13.9131 6.64452 14.174C7.82325 14.4349 9.05199 14.3537 10.1861 13.9399C11.3203 13.5262 12.3126 12.797 13.0464 11.8384C13.7802 10.8797 14.2249 9.73138 14.3281 8.52853C14.3328 8.47313 14.3482 8.41918 14.3737 8.36976C14.3992 8.32035 14.4341 8.27643 14.4766 8.24052C14.5623 8.168 14.6733 8.13249 14.7852 8.14181C14.8406 8.14643 14.8945 8.16192 14.9439 8.18738C14.9934 8.21285 15.0373 8.2478 15.0732 8.29024C15.1091 8.33268 15.1363 8.38177 15.1532 8.43473C15.1702 8.48768 15.1765 8.54344 15.1719 8.59885V8.59744ZM7.57815 4.06299V8.00049C7.57815 8.11238 7.62259 8.21968 7.70171 8.2988C7.78083 8.37791 7.88813 8.42236 8.00002 8.42236H11.9375C12.0494 8.42236 12.1567 8.37791 12.2358 8.2988C12.3149 8.21968 12.3594 8.11238 12.3594 8.00049C12.3594 7.8886 12.3149 7.78129 12.2358 7.70218C12.1567 7.62306 12.0494 7.57861 11.9375 7.57861H8.4219V4.06299C8.4219 3.9511 8.37745 3.84379 8.29833 3.76468C8.21922 3.68556 8.11191 3.64111 8.00002 3.64111C7.88813 3.64111 7.78083 3.68556 7.70171 3.76468C7.62259 3.84379 7.57815 3.9511 7.57815 4.06299ZM10.25 2.23486C10.3891 2.23486 10.525 2.19362 10.6407 2.11636C10.7563 2.0391 10.8464 1.92929 10.8996 1.80081C10.9528 1.67233 10.9668 1.53096 10.9396 1.39456C10.9125 1.25817 10.8455 1.13289 10.7472 1.03455C10.6489 0.936219 10.5236 0.869252 10.3872 0.842122C10.2508 0.814992 10.1094 0.828916 9.98095 0.882134C9.85247 0.935352 9.74265 1.02547 9.66539 1.1411C9.58813 1.25673 9.5469 1.39267 9.5469 1.53174C9.5469 1.62407 9.56508 1.7155 9.60042 1.80081C9.63575 1.88612 9.68754 1.96363 9.75284 2.02892C9.8847 2.16078 10.0635 2.23486 10.25 2.23486ZM12.7813 3.92236C12.9203 3.92236 13.0563 3.88112 13.1719 3.80386C13.2875 3.7266 13.3777 3.61679 13.4309 3.48831C13.4841 3.35983 13.498 3.21846 13.4709 3.08206C13.4438 2.94567 13.3768 2.82039 13.2785 2.72205C13.1801 2.62372 13.0548 2.55675 12.9184 2.52962C12.7821 2.50249 12.6407 2.51642 12.5122 2.56963C12.3837 2.62285 12.2739 2.71297 12.1966 2.8286C12.1194 2.94423 12.0781 3.08017 12.0781 3.21924C12.0781 3.40572 12.1522 3.58456 12.2841 3.71642C12.4159 3.84828 12.5948 3.92236 12.7813 3.92236ZM14.4688 6.45361C14.6078 6.45361 14.7438 6.41237 14.8594 6.33511C14.975 6.25785 15.0652 6.14804 15.1184 6.01956C15.1716 5.89108 15.1855 5.74971 15.1584 5.61331C15.1313 5.47692 15.0643 5.35164 14.966 5.2533C14.8676 5.15497 14.7423 5.088 14.6059 5.06087C14.4696 5.03374 14.3282 5.04767 14.1997 5.10088C14.0712 5.1541 13.9614 5.24422 13.8841 5.35985C13.8069 5.47548 13.7656 5.61142 13.7656 5.75049C13.7656 5.93697 13.8397 6.11581 13.9716 6.24767C14.1034 6.37953 14.2823 6.45361 14.4688 6.45361Z" fill="#FF5050"/>
</svg>
