<svg width="16" height="16" viewBox="0 0 16 16" fill="none" xmlns="http://www.w3.org/2000/svg">
<path fill-rule="evenodd" clip-rule="evenodd" d="M0 2.93997C0 4.56073 1.33556 5.87995 2.97848 5.87995C4.62139 5.87995 5.95695 4.56073 5.95695 2.93997C5.95695 1.3183 4.62139 0 2.97848 0C2.75216 0 2.5277 0.0248215 2.30976 0.0753839C1.9335 0.16088 1.69972 0.532284 1.78727 0.902768C1.87482 1.27325 2.24923 1.50676 2.62642 1.41759C2.74005 1.39184 2.85926 1.37897 2.97848 1.37897C3.85116 1.37897 4.55992 2.07857 4.55992 2.93997C4.55992 3.80045 3.85116 4.50097 2.97848 4.50097C2.1058 4.50097 1.39703 3.80045 1.39703 2.93997C1.39703 2.85172 1.40449 2.76438 1.41846 2.68073C1.48272 2.30473 1.22473 1.94987 0.84474 1.88644C0.46009 1.82668 0.104312 2.07765 0.0409797 2.45365C0.0139703 2.61178 0 2.7745 0 2.93997ZM9.40783 3.62919H15.1347C15.5203 3.62919 15.8333 3.3203 15.8333 2.9397C15.8333 2.5591 15.5203 2.25021 15.1347 2.25021H9.40783C9.02225 2.25021 8.70931 2.5591 8.70931 2.9397C8.70931 3.3203 9.02225 3.62919 9.40783 3.62919ZM6.42636 12.791H0.698517C0.312936 12.791 0 12.4821 0 12.1015C0 11.7209 0.312936 11.412 0.698517 11.412H6.42636C6.81194 11.412 7.12487 11.7209 7.12487 12.1015C7.12487 12.4821 6.81194 12.791 6.42636 12.791ZM9.87638 12.1017C9.87638 13.7224 11.2119 15.0417 12.8549 15.0417C14.4968 15.0417 15.8333 13.7224 15.8333 12.1017C15.8333 11.9362 15.8194 11.7735 15.7924 11.6154C15.729 11.2394 15.3677 10.9856 14.9886 11.0482C14.6086 11.1116 14.3506 11.4664 14.4149 11.8424C14.4288 11.9261 14.4363 12.0134 14.4363 12.1017C14.4363 12.9622 13.7266 13.6627 12.8549 13.6627C11.9822 13.6627 11.2734 12.9622 11.2734 12.1017C11.2734 11.1226 12.242 10.3605 13.2106 10.5793C13.586 10.6648 13.9604 10.4304 14.047 10.0599C14.1327 9.68941 13.8961 9.31892 13.5198 9.23527C13.3019 9.18654 13.0784 9.16172 12.8549 9.16172C11.2119 9.16172 9.87638 10.48 9.87638 12.1017Z" fill="#607087"/>
</svg>
