<svg width="100" height="100" viewBox="0 0 100 100" fill="none" xmlns="http://www.w3.org/2000/svg">
<circle opacity="0.4" cx="50" cy="50" r="50" fill="#8196B3"/>
<path d="M44.2047 56.2871C34.7906 56.2871 26.75 57.7414 26.75 63.5537C26.75 69.3707 34.7395 70.875 44.2047 70.875C53.6187 70.875 61.6593 69.4208 61.6593 63.6084C61.6593 57.7914 53.6698 56.2871 44.2047 56.2871Z" fill="white"/>
<path opacity="0.4" d="M44.2059 50.7465C50.6175 50.7465 55.7556 45.7147 55.7556 39.4357C55.7556 33.1568 50.6175 28.125 44.2059 28.125C37.7967 28.125 32.6562 33.1568 32.6562 39.4357C32.6562 45.7147 37.7967 50.7465 44.2059 50.7465Z" fill="white"/>
<path opacity="0.4" d="M60.4136 39.6408C60.4136 42.8383 59.4329 45.8219 57.7132 48.3002C57.5343 48.5551 57.6923 48.8987 58.0037 48.9534C58.4359 49.0239 58.8798 49.0671 59.333 49.0762C63.8413 49.1923 67.8872 46.3498 69.0049 42.0691C70.6619 35.7173 65.8003 30.0141 59.6072 30.0141C58.9356 30.0141 58.2919 30.0824 57.6644 30.2076C57.5784 30.2258 57.4855 30.2668 57.439 30.3396C57.3786 30.4329 57.4227 30.5535 57.4831 30.6332C59.3446 33.1889 60.4136 36.2999 60.4136 39.6408Z" fill="white"/>
<path d="M73.7239 57.0272C72.8989 55.3044 70.9073 54.1233 67.877 53.543C66.4478 53.2016 62.5762 52.7168 58.9765 52.7851C58.9231 52.7919 58.8928 52.8284 58.8882 52.8511C58.8812 52.8875 58.8975 52.9421 58.9672 52.9808C60.6311 53.7865 67.0613 57.2912 66.2526 64.683C66.2177 65.0062 66.4803 65.2793 66.808 65.2337C68.3905 65.013 72.462 64.155 73.7239 61.4878C74.4233 60.0768 74.4233 58.4382 73.7239 57.0272Z" fill="white"/>
</svg>
