<svg width="13" height="11" viewBox="0 0 13 11" fill="none" xmlns="http://www.w3.org/2000/svg">
<path d="M6.47036 6.83789C4.45414 6.83789 2.75293 7.16735 2.75293 8.43889C2.75293 9.71096 4.46513 10.0288 6.47036 10.0288C8.48659 10.0288 10.1878 9.69938 10.1878 8.42784C10.1878 7.15578 8.4756 6.83789 6.47036 6.83789Z" fill="#130F26"/>
<path opacity="0.4" d="M6.46974 5.626C7.835 5.626 8.92971 4.52498 8.92971 3.15187C8.92971 1.77823 7.835 0.677734 6.46974 0.677734C5.10448 0.677734 4.00977 1.77823 4.00977 3.15187C4.00977 4.52498 5.10448 5.626 6.46974 5.626Z" fill="#130F26"/>
<path opacity="0.4" d="M11.8111 3.72713C12.1643 2.3377 11.1287 1.08984 9.81006 1.08984C9.66668 1.08984 9.52958 1.10563 9.39562 1.13247C9.37783 1.13668 9.35794 1.14563 9.34748 1.16142C9.33544 1.18142 9.34434 1.20826 9.35742 1.22563C9.75355 1.78456 9.98118 2.46506 9.98118 3.19557C9.98118 3.89554 9.77238 4.54815 9.40608 5.08972C9.36841 5.1455 9.4019 5.22076 9.46836 5.23234C9.56045 5.24866 9.65465 5.25708 9.75093 5.25971C10.7112 5.28497 11.573 4.66341 11.8111 3.72713Z" fill="#130F26"/>
<path d="M12.8172 6.99948C12.6414 6.62265 12.217 6.36424 11.5718 6.2374C11.2672 6.16266 10.443 6.0574 9.67643 6.07161C9.66492 6.07319 9.65864 6.08109 9.65759 6.08635C9.65602 6.09372 9.65916 6.10635 9.67434 6.11424C10.0286 6.29055 11.398 7.05737 11.2259 8.67469C11.2186 8.74469 11.2745 8.80521 11.3441 8.79468C11.6811 8.74627 12.5482 8.5589 12.8172 7.97524C12.9658 7.66683 12.9658 7.30842 12.8172 6.99948Z" fill="#130F26"/>
<path opacity="0.4" d="M3.60414 1.13443C3.4707 1.10706 3.33308 1.0918 3.18969 1.0918C1.87101 1.0918 0.835425 2.33965 1.18917 3.72908C1.42674 4.66537 2.28859 5.28693 3.24883 5.26166C3.34511 5.25903 3.43983 5.25008 3.5314 5.2343C3.59786 5.22272 3.63135 5.14746 3.59367 5.09167C3.22737 4.54958 3.01858 3.8975 3.01858 3.19752C3.01858 2.46649 3.24673 1.78599 3.64286 1.22758C3.65542 1.21021 3.66484 1.18337 3.65228 1.16337C3.64182 1.14706 3.62245 1.13864 3.60414 1.13443Z" fill="#130F26"/>
<path d="M1.42804 6.23696C0.782829 6.3638 0.358966 6.62222 0.183142 6.99905C0.0340048 7.30798 0.0340048 7.66639 0.183142 7.97533C0.452111 8.55847 1.3192 8.74636 1.6562 8.79425C1.72579 8.80478 1.78126 8.74478 1.77394 8.67426C1.60177 7.05746 2.97122 6.29065 3.32601 6.11434C3.34066 6.10592 3.3438 6.09381 3.34223 6.08592C3.34118 6.08065 3.33542 6.07276 3.32391 6.07171C2.55677 6.05697 1.73312 6.16223 1.42804 6.23696Z" fill="#130F26"/>
</svg>
