<svg width="13" height="11" viewBox="0 0 13 11" fill="none" xmlns="http://www.w3.org/2000/svg">
<path fill-rule="evenodd" clip-rule="evenodd" d="M4.63943 3.3618C4.63943 3.58638 4.45816 3.76864 4.23481 3.76864C4.01145 3.76864 3.83018 3.58638 3.83018 3.3618C3.83018 1.88144 5.02787 0.677734 6.50017 0.677734C7.97192 0.677734 9.16961 1.88144 9.16961 3.3618C9.16961 4.84216 7.97192 6.04587 6.50017 6.04587C5.89755 6.04587 5.32945 5.85113 4.85793 5.48226C4.68151 5.34448 4.64968 5.08898 4.78672 4.9116C4.92321 4.73367 5.17839 4.70221 5.35481 4.84053C5.68283 5.09657 6.07882 5.23219 6.50017 5.23219C7.5263 5.23219 8.36036 4.39301 8.36036 3.3618C8.36036 2.33059 7.5263 1.49142 6.50017 1.49142C5.47404 1.49142 4.63943 2.33059 4.63943 3.3618ZM3.5894 5.0522C3.5894 5.27678 3.40813 5.45904 3.18477 5.45904C2.01999 5.45904 1.07209 4.50649 1.07209 3.33533C1.07209 2.16417 2.01999 1.21108 3.18477 1.21108C3.40813 1.21108 3.5894 1.39334 3.5894 1.61792C3.5894 1.8425 3.40813 2.02476 3.18477 2.02476C2.46616 2.02476 1.88134 2.61278 1.88134 3.33533C1.88134 4.05788 2.46616 4.64536 3.18477 4.64536C3.40813 4.64536 3.5894 4.82763 3.5894 5.0522ZM2.42715 7.32374C2.16711 7.3411 1.90599 7.37961 1.65081 7.43711C1.25913 7.51468 0.989922 7.64704 0.920327 7.7935C0.867995 7.90471 0.867995 8.03327 0.920327 8.14447C0.953776 8.21445 1.08973 8.38858 1.6438 8.50303C1.86283 8.54806 2.00364 8.76287 1.95886 8.98311C1.92002 9.17568 1.75116 9.30804 1.56287 9.30804C1.5359 9.30804 1.50892 9.30533 1.48141 9.2999C0.811887 9.16212 0.37759 8.89089 0.189844 8.49381C0.0317707 8.1602 0.0317707 7.77777 0.189844 7.44416C0.379748 7.04329 0.815124 6.7726 1.4841 6.64024C1.7695 6.57623 2.07216 6.5323 2.37266 6.51222C2.58846 6.49541 2.78861 6.66628 2.80372 6.89032C2.81883 7.11489 2.6505 7.30909 2.42715 7.32374ZM9.82162 4.6586C9.59826 4.6586 9.41699 4.84087 9.41699 5.06544C9.41699 5.29002 9.59826 5.47229 9.82162 5.47229C10.9837 5.47229 11.9294 4.52136 11.9294 3.35291C11.9294 2.18392 10.9837 1.23354 9.82162 1.23354C9.59826 1.23354 9.41699 1.41526 9.41699 1.64038C9.41699 1.86496 9.59826 2.04722 9.82162 2.04722C10.5375 2.04722 11.1202 2.63308 11.1202 3.35291C11.1202 4.07275 10.5375 4.6586 9.82162 4.6586ZM11.5272 6.65021C12.1859 6.78149 12.6202 7.05109 12.8096 7.44979C12.9677 7.7834 12.9677 8.16529 12.8096 8.4989C12.6224 8.89435 12.1892 9.16503 11.5207 9.30336C11.4938 9.30933 11.4662 9.31204 11.4387 9.31204C11.251 9.31204 11.0827 9.17914 11.0433 8.98711C10.9985 8.76687 11.1393 8.55152 11.3583 8.50649C11.9103 8.39203 12.0462 8.21845 12.0791 8.14901C12.1314 8.03835 12.1314 7.91088 12.0791 7.80022C12.0101 7.6543 11.7419 7.52248 11.361 7.44654C11.0961 7.38795 10.835 7.34944 10.5772 7.33208C10.3538 7.31743 10.1855 7.12269 10.2006 6.89866C10.2151 6.67462 10.4099 6.50863 10.6311 6.52056C10.9305 6.54064 11.2316 6.58457 11.5272 6.65021ZM6.50041 6.88776C5.52607 6.88776 2.56152 6.88776 2.56152 8.75543C2.56152 9.17692 2.72661 9.7606 3.5132 10.1485C3.7549 10.2667 4.04731 10.3633 4.38287 10.4354C4.60029 10.4842 4.81609 10.3421 4.86249 10.1224C4.90943 9.90272 4.7697 9.68628 4.5512 9.63963C4.28037 9.58159 4.05054 9.50673 3.86927 9.41722C3.42742 9.1997 3.37077 8.94963 3.37077 8.75543C3.37077 7.88425 5.0729 7.70144 6.50041 7.70144C8.57749 7.70144 9.63005 8.05241 9.63005 8.74566C9.63005 9.61631 7.92793 9.79911 6.50041 9.79911C6.27706 9.79911 6.09579 9.98138 6.09579 10.206C6.09579 10.4305 6.27706 10.6128 6.50041 10.6128C7.47475 10.6128 10.4393 10.6128 10.4393 8.74566C10.4393 6.88776 7.57779 6.88776 6.50041 6.88776Z" fill="#607087"/>
</svg>
