<svg width="15" height="11" viewBox="0 0 15 11" fill="none" xmlns="http://www.w3.org/2000/svg">
<path d="M3.75 3H6.25" stroke="#607087" stroke-linecap="round" stroke-linejoin="round"/>
<path d="M13.75 4.5625C13.75 4.51438 13.75 4.22938 13.7487 4.20938C13.7262 3.89625 13.4581 3.64687 13.1206 3.62625C13.0994 3.625 13.0737 3.625 13.0212 3.625H11.395C10.2788 3.625 9.375 4.46438 9.375 5.5C9.375 6.53562 10.2794 7.375 11.3937 7.375H13.0206C13.0731 7.375 13.0988 7.375 13.1206 7.37375C13.4581 7.35313 13.7269 7.10375 13.7487 6.79062C13.75 6.77062 13.75 6.48562 13.75 6.4375" stroke="#607087" stroke-linecap="round"/>
<path d="M11.25 6.125C11.5952 6.125 11.875 5.84518 11.875 5.5C11.875 5.15482 11.5952 4.875 11.25 4.875C10.9048 4.875 10.625 5.15482 10.625 5.5C10.625 5.84518 10.9048 6.125 11.25 6.125Z" fill="#607087"/>
<path d="M8.125 0.5C10.4819 0.5 11.6606 0.5 12.3925 1.2325C12.8981 1.7375 13.055 2.455 13.1031 3.625M6.25 10.5H8.125C10.4819 10.5 11.6606 10.5 12.3925 9.7675C12.8981 9.2625 13.055 8.545 13.1031 7.375M5.625 0.5C3.67875 0.50625 2.64687 0.5675 1.9825 1.2325C1.25 1.96437 1.25 3.14313 1.25 5.5C1.25 7.85687 1.25 9.03562 1.9825 9.7675C2.39062 10.1762 2.9375 10.3569 3.75 10.4363" stroke="#607087" stroke-linecap="round"/>
</svg>
