<svg width="14" height="12" viewBox="0 0 14 12" fill="none" xmlns="http://www.w3.org/2000/svg">
<path d="M2.59375 3.375C2.46943 3.375 2.3502 3.42439 2.26229 3.51229C2.17439 3.6002 2.125 3.71943 2.125 3.84375C2.125 3.96807 2.17439 4.0873 2.26229 4.17521C2.3502 4.26311 2.46943 4.3125 2.59375 4.3125H5.09375C5.21807 4.3125 5.3373 4.26311 5.42521 4.17521C5.51311 4.0873 5.5625 3.96807 5.5625 3.84375C5.5625 3.71943 5.51311 3.6002 5.42521 3.51229C5.3373 3.42439 5.21807 3.375 5.09375 3.375H2.59375Z" fill="black"/>
<path opacity="0.5" fill-rule="evenodd" clip-rule="evenodd" d="M12.2425 4.0025C12.2037 4 12.1613 4 12.1175 4H10.3844C8.965 4 7.75 5.085 7.75 6.5C7.75 7.915 8.965 9 10.3844 9H12.1175C12.1613 9 12.2037 9 12.2425 8.9975C12.8194 8.9625 13.3294 8.52437 13.3725 7.91187C13.375 7.87187 13.375 7.82875 13.375 7.78875V5.21125C13.375 5.17125 13.375 5.12813 13.3725 5.08813C13.3294 4.47563 12.8194 4.03812 12.2425 4.0025ZM10.2319 7.16688C10.5969 7.16688 10.8931 6.86812 10.8931 6.5C10.8931 6.13125 10.5969 5.83312 10.2319 5.83312C9.86625 5.83312 9.56937 6.13188 9.56937 6.5C9.56937 6.86875 9.86625 7.16688 10.2319 7.16688Z" fill="black"/>
<path d="M12.2125 4.00125C12.2125 3.26312 12.185 2.47125 11.7137 1.90437C11.6677 1.84884 11.6191 1.79545 11.5681 1.74437C11.1 1.27687 10.5069 1.06938 9.77437 0.970625C9.06188 0.875 8.1525 0.875 7.00375 0.875H5.68375C4.535 0.875 3.625 0.875 2.9125 0.970625C2.18 1.06938 1.58688 1.27687 1.11875 1.74437C0.65125 2.2125 0.44375 2.80562 0.345 3.53813C0.25 4.25063 0.25 5.16 0.25 6.30875V6.37875C0.25 7.5275 0.25 8.4375 0.345625 9.14937C0.444375 9.88188 0.651875 10.475 1.11937 10.9431C1.5875 11.4106 2.18062 11.6181 2.91313 11.7169C3.62563 11.8125 4.535 11.8125 5.68375 11.8125H7.00375C8.1525 11.8125 9.0625 11.8125 9.77437 11.7169C10.5069 11.6181 11.1 11.4106 11.5681 10.9431C11.6926 10.8182 11.8029 10.6799 11.8969 10.5306C12.1781 10.0806 12.2119 9.52937 12.2119 8.99937L12.1181 9H10.3844C8.965 9 7.75 7.915 7.75 6.5C7.75 5.085 8.965 4 10.3844 4H12.1175C12.15 4 12.1825 4 12.2125 4.00125Z" fill="black"/>
</svg>
