<svg width="22" height="22" viewBox="0 0 22 22" fill="none" xmlns="http://www.w3.org/2000/svg">
<g clip-path="url(#clip0_22559_64947)">
<path d="M19.0293 5.58954C18.4549 5.18804 17.5889 5.26504 17.0731 5.69099L17.6647 4.83115C18.1408 4.15221 17.9703 3.41765 17.2907 2.94099C16.6111 2.46615 14.6855 3.74276 14.6855 3.74276C15.1659 3.0571 15.076 2.1881 14.3904 1.70715C14.0607 1.47682 13.6531 1.38676 13.2571 1.45677C12.8611 1.52678 12.5091 1.75114 12.2784 2.08054L5.91059 11.0761L6.72214 18.9442L13.4951 16.474L19.4027 7.71499C19.5179 7.55097 19.5996 7.36584 19.6432 7.1702C19.6868 6.97457 19.6914 6.77226 19.6567 6.57485C19.622 6.37744 19.5487 6.1888 19.4411 6.01973C19.3334 5.85066 19.1935 5.70448 19.0293 5.58954Z" fill="#EF9645"/>
<path d="M20.3526 10.5946C20.3526 10.5946 21.0444 9.58626 20.0355 8.8951C19.0278 8.20393 18.3366 9.21165 18.3366 9.21165L15.1276 13.8915C15.017 13.707 14.896 13.5249 14.761 13.3452L19.2148 6.85093C19.2148 6.85093 19.9059 5.84321 18.8976 5.15204C17.8899 4.46088 17.1987 5.4686 17.1987 5.4686L13.0095 11.5779C12.8537 11.4508 12.6942 11.323 12.5298 11.1978L17.3863 4.11437C17.3863 4.11437 18.0775 3.10665 17.0691 2.41549C16.0614 1.72432 15.3703 2.73204 15.3703 2.73204L10.5138 9.81421C10.3353 9.70482 10.1587 9.6101 9.98147 9.50988L14.5208 2.89032C14.5208 2.89032 15.212 1.8826 14.2043 1.19143C13.1965 0.500264 12.5054 1.50799 12.5054 1.50799L7.7057 8.50765L6.97603 9.57221C9.99981 11.6463 10.2876 15.5483 8.56003 18.0679C8.21475 18.572 7.71059 18.2268 7.71059 18.2268C9.78409 15.2024 9.15097 11.804 6.12659 9.73049L7.0182 5.26815C7.0182 5.26815 7.35125 4.09238 6.17609 3.75871C5.00031 3.42565 4.66664 4.60143 4.66664 4.60143L3.63692 7.65943C3.2287 8.87188 2.7942 10.08 2.21914 11.2228C0.595419 14.4495 1.56525 18.4596 4.62692 20.56C7.96664 22.8498 12.5323 21.9985 14.8227 18.6594L20.3526 10.5946Z" fill="#FFDC5D"/>
<path d="M14.6669 19.5843C17.1114 19.5843 19.5815 17.1141 19.5815 14.6697C19.5815 14.3318 19.829 14.0586 20.1669 14.0586C20.5049 14.0586 20.8037 14.3318 20.8037 14.6697C20.8037 18.3364 18.3336 20.8065 14.6669 20.8065C14.329 20.8065 14.0558 20.5076 14.0558 20.1697C14.0558 19.8318 14.329 19.5843 14.6669 19.5843Z" fill="#607087"/>
<path d="M17.7222 20.7782C19.5556 20.7782 20.7778 19.556 20.7778 17.7227C20.7778 17.5606 20.8422 17.4051 20.9568 17.2905C21.0714 17.1759 21.2268 17.1115 21.3889 17.1115C21.551 17.1115 21.7064 17.1759 21.821 17.2905C21.9356 17.4051 22 17.5606 22 17.7227C22 20.1671 20.1667 22.0004 17.7222 22.0004C17.5601 22.0004 17.4047 21.9361 17.2901 21.8214C17.1755 21.7068 17.1111 21.5514 17.1111 21.3893C17.1111 21.2272 17.1755 21.0718 17.2901 20.9572C17.4047 20.8426 17.5601 20.7782 17.7222 20.7782ZM7.33333 1.22266C7.49541 1.22266 7.65085 1.28704 7.76545 1.40165C7.88006 1.51625 7.94444 1.67169 7.94444 1.83377C7.94444 1.99584 7.88006 2.15128 7.76545 2.26589C7.65085 2.38049 7.49541 2.44488 7.33333 2.44488C4.88889 2.44488 2.44444 4.63816 2.44444 7.33377C2.44444 7.49584 2.38006 7.65128 2.26545 7.76589C2.15085 7.88049 1.99541 7.94488 1.83333 7.94488C1.67126 7.94488 1.51582 7.88049 1.40121 7.76589C1.2866 7.65128 1.22222 7.49584 1.22222 7.33377C1.22222 3.9641 3.66666 1.22266 7.33333 1.22266Z" fill="#607087"/>
<path d="M4.27756 0.0273438C4.61489 0.0273438 4.88867 0.275455 4.88867 0.612788C4.88867 0.950122 4.61489 1.24957 4.27756 1.24957C2.44423 1.24957 1.24767 2.60929 1.24767 4.27945C1.24767 4.61679 0.948838 4.89057 0.610894 4.89057C0.27295 4.89057 0.0254498 4.61679 0.0254498 4.27945C0.0254498 1.93462 1.83312 0.0273438 4.27756 0.0273438Z" fill="#607087"/>
</g>
<defs>
<clipPath id="clip0_22559_64947">
<rect width="22" height="22" fill="white" transform="matrix(-1 0 0 1 22 0)"/>
</clipPath>
</defs>
</svg>
