<svg width="12" height="12" viewBox="0 0 12 12" fill="none" xmlns="http://www.w3.org/2000/svg">
<path d="M11.9958 3.49225C11.9987 3.45431 11.9987 3.41622 11.9958 3.37829L10.7962 0.379339C10.7494 0.260794 10.666 0.160258 10.5581 0.0923131C10.4503 0.0243686 10.3236 -0.00745053 10.1964 0.00147152H1.79937C1.67924 0.00135523 1.56185 0.0373118 1.4624 0.104684C1.36294 0.172056 1.28601 0.267739 1.24156 0.379339L0.0419852 3.37829C0.039094 3.41622 0.039094 3.45431 0.0419852 3.49225C0.0220547 3.52563 0.00786297 3.56213 0 3.60021C0.00667601 4.01481 0.120693 4.4206 0.330931 4.778C0.541168 5.13541 0.840448 5.43222 1.19958 5.63949V11.3975C1.19958 11.5565 1.26277 11.7091 1.37525 11.8216C1.48774 11.9341 1.64029 11.9973 1.79937 11.9973H10.1964C10.3555 11.9973 10.5081 11.9341 10.6205 11.8216C10.733 11.7091 10.7962 11.5565 10.7962 11.3975V5.66348C11.1588 5.45414 11.4603 5.15356 11.6708 4.79159C11.8812 4.42963 11.9933 4.01889 11.9958 3.60021C12.0014 3.56444 12.0014 3.52801 11.9958 3.49225ZM6.59768 10.7977H5.3981V8.39852H6.59768V10.7977ZM9.59663 10.7977H7.79726V7.79873C7.79726 7.63966 7.73407 7.4871 7.62159 7.37462C7.50911 7.26214 7.35655 7.19894 7.19747 7.19894H4.79831C4.63924 7.19894 4.48668 7.26214 4.3742 7.37462C4.26172 7.4871 4.19853 7.63966 4.19853 7.79873V10.7977H2.39916V5.99936C2.74072 5.99744 3.07793 5.9226 3.38824 5.77986C3.69855 5.63711 3.9748 5.42976 4.19853 5.17166C4.42367 5.42694 4.70055 5.6314 5.01079 5.77144C5.32103 5.91149 5.65751 5.98392 5.99789 5.98392C6.33828 5.98392 6.67476 5.91149 6.985 5.77144C7.29523 5.6314 7.57212 5.42694 7.79726 5.17166C8.02098 5.42976 8.29724 5.63711 8.60755 5.77986C8.91786 5.9226 9.25507 5.99744 9.59663 5.99936V10.7977ZM9.59663 4.79979C9.27848 4.79979 8.97336 4.6734 8.7484 4.44844C8.52344 4.22347 8.39705 3.91836 8.39705 3.60021C8.39705 3.44113 8.33386 3.28857 8.22138 3.17609C8.10889 3.06361 7.95634 3.00042 7.79726 3.00042C7.63819 3.00042 7.48563 3.06361 7.37315 3.17609C7.26066 3.28857 7.19747 3.44113 7.19747 3.60021C7.19747 3.91836 7.07109 4.22347 6.84612 4.44844C6.62116 4.6734 6.31604 4.79979 5.99789 4.79979C5.67975 4.79979 5.37463 4.6734 5.14966 4.44844C4.9247 4.22347 4.79831 3.91836 4.79831 3.60021C4.79831 3.44113 4.73512 3.28857 4.62264 3.17609C4.51016 3.06361 4.3576 3.00042 4.19853 3.00042C4.03945 3.00042 3.88689 3.06361 3.77441 3.17609C3.66193 3.28857 3.59874 3.44113 3.59874 3.60021C3.60464 3.75774 3.57947 3.91489 3.52464 4.06269C3.46981 4.21049 3.38641 4.34604 3.2792 4.46161C3.17198 4.57718 3.04306 4.6705 2.89978 4.73624C2.7565 4.80199 2.60167 4.83886 2.44414 4.84477C2.12599 4.8567 1.81614 4.74176 1.58274 4.52523C1.46717 4.41802 1.37385 4.28909 1.30811 4.14581C1.24236 4.00253 1.20549 3.84771 1.19958 3.69018L2.20722 1.20105H9.78856L10.7962 3.69018C10.7735 3.99248 10.6371 4.27496 10.4146 4.48082C10.192 4.68668 9.89979 4.80064 9.59663 4.79979Z" fill="white"/>
</svg>
