<svg width="72" height="37" viewBox="0 0 72 37" fill="none" xmlns="http://www.w3.org/2000/svg">
<path opacity="0.2" d="M48.4229 29.9425C49.7667 29.769 50.9864 29.167 51.8417 28.2551L71.3774 6.47783C72.5761 4.58623 72.0009 2.22239 70.022 0.907617C68.0431 -0.407158 65.2503 -0.281013 63.441 1.20487L46.9577 19.3966L28.2156 6.68874C27.1395 5.96702 25.7752 5.6448 24.4237 5.79319C23.0722 5.94158 21.8445 6.54838 21.0118 7.47969L1.04866 29.9425C-0.650312 31.8693 -0.242387 34.6175 1.9644 36.1119C3.04573 36.8195 4.41041 37.123 5.75293 36.9545C7.09546 36.786 8.3037 36.1596 9.10716 35.2154L25.9568 16.2855L44.6989 28.9934C45.7482 29.7191 47.0855 30.0599 48.4229 29.9425Z" fill="white"/>
</svg>
